<svg width="42" height="42" viewBox="0 0 42 42" fill="none" xmlns="http://www.w3.org/2000/svg">
<g clip-path="url(#clip0_58_3964)">
<path d="M41.2579 11.0935C40.801 10.0807 40.2723 9.10328 39.6587 8.18146L33.1042 10.7413C33.8664 11.5785 34.5069 12.5195 35.0306 13.5259L41.2579 11.0935ZM12.2839 18.8732L5.72729 21.433C5.8111 22.5614 5.99267 23.6759 6.24703 24.7679L12.4754 22.3344C12.2729 21.2038 12.201 20.039 12.2839 18.8732Z" fill="#C22133"/>
<path d="M26.8346 9.1009C28.1983 9.78394 29.3796 10.7154 30.3762 11.8074L36.9308 9.24761C35.1151 6.51331 32.6419 4.22866 29.612 2.71158C20.241 -1.97763 9.06133 2.38826 4.69264 12.4433C3.27797 15.6969 2.75217 19.1528 2.99959 22.4994L9.55521 19.9396C9.66391 18.4151 10.0101 16.8874 10.6456 15.4228C13.485 8.89003 20.7469 6.0551 26.8346 9.10081V9.1009ZM33.8258 21.955C33.7211 23.4785 33.3629 25.0062 32.7254 26.4719C29.8871 33.0057 22.6241 35.8406 16.5375 32.7948C15.1717 32.1107 13.9815 31.1868 12.9888 30.0926L6.44724 32.6471C8.25897 35.3814 10.7292 37.667 13.761 39.1852C23.132 43.8733 34.3097 39.5074 38.6794 29.4513C40.0951 26.1999 40.6169 22.7441 40.3674 19.4005L33.8258 21.955Z" fill="#DB212E"/>
<path d="M35.4378 13.367L29.2094 15.7994C30.3667 18.0241 30.9134 20.585 30.7338 23.1609L37.2754 20.6075C37.0881 18.0923 36.4649 15.6368 35.4377 13.367H35.4378ZM6.65527 24.6074L0.42688 27.042C1.00123 29.4883 1.99448 31.7986 3.35599 33.8552L9.8966 31.2998C8.21759 29.4498 7.10118 27.1084 6.65527 24.6074Z" fill="#EB2126"/>
<path d="M40.3086 9.24045C40.1021 8.88073 39.8876 8.52632 39.6591 8.18159L33.1045 10.7414C33.3928 11.0583 33.6582 11.3945 33.9116 11.7392L40.3086 9.24045ZM12.2588 20.2859C12.2422 19.8151 12.2505 19.3436 12.2837 18.8738L5.72711 21.4336C5.76103 21.8843 5.81387 22.3318 5.87676 22.7783L12.2587 20.2859H12.2588Z" fill="#AD213B"/>
<path d="M40.367 19.4004L33.8254 21.9549C33.7565 22.9655 33.573 23.9783 33.2727 24.9739L40.393 22.1883C40.4443 21.2595 40.4356 20.328 40.367 19.4004ZM6.44781 32.648C6.95513 33.4133 7.51222 34.1392 8.11493 34.8203L15.2362 32.0335C14.4041 31.4746 13.6519 30.8227 12.9884 30.0925L6.44781 32.648Z" fill="#BA2133"/>
</g>
<defs>
<clipPath id="clip0_58_3964">
<rect width="40.4477" height="40.4477" fill="white" transform="translate(0.817688 0.817696)"/>
</clipPath>
</defs>
</svg>
