<svg width="60" height="40" viewBox="0 0 60 40" fill="none" xmlns="http://www.w3.org/2000/svg">
<path d="M20.443 16.5163C20.443 17.0459 20.5007 17.4753 20.6017 17.7902C20.717 18.1051 20.8612 18.4486 21.0631 18.8208C21.1352 18.9353 21.164 19.0498 21.164 19.15C21.164 19.2931 21.0775 19.4362 20.89 19.5794L19.9816 20.1806C19.8518 20.2664 19.7221 20.3094 19.6067 20.3094C19.4625 20.3094 19.3183 20.2378 19.1741 20.109C18.9722 19.8943 18.7992 19.6653 18.655 19.4362C18.5108 19.1929 18.3666 18.921 18.208 18.5918C17.0833 19.9086 15.6702 20.567 13.9687 20.567C12.7574 20.567 11.7913 20.2235 11.0848 19.5364C10.3782 18.8494 10.0177 17.9333 10.0177 16.7883C10.0177 15.5716 10.4503 14.584 11.3299 13.8397C12.2095 13.0954 13.3775 12.7232 14.8627 12.7232C15.353 12.7232 15.8576 12.7662 16.3912 12.8377C16.9247 12.9093 17.4726 13.0238 18.0494 13.1526V12.1077C18.0494 11.0199 17.8187 10.2613 17.3717 9.81758C16.9103 9.37386 16.1316 9.15916 15.0213 9.15916C14.5166 9.15916 13.9975 9.21642 13.464 9.34524C12.9305 9.47406 12.4114 9.63151 11.9067 9.8319C11.676 9.93209 11.5029 9.98934 11.402 10.018C11.3011 10.0466 11.229 10.0609 11.1713 10.0609C10.9694 10.0609 10.8685 9.91778 10.8685 9.61719V8.91583C10.8685 8.68682 10.8973 8.51505 10.9694 8.41486C11.0415 8.31467 11.1713 8.21447 11.3732 8.11428C11.8778 7.85663 12.4835 7.64193 13.19 7.47017C13.8966 7.28409 14.6464 7.19821 15.4395 7.19821C17.1554 7.19821 18.4099 7.58468 19.2174 8.35761C20.0105 9.13053 20.4142 10.3042 20.4142 11.8787V16.5163H20.443ZM14.5887 18.6919C15.0646 18.6919 15.5548 18.6061 16.0739 18.4343C16.593 18.2625 17.0545 17.9476 17.4438 17.5182C17.6745 17.2463 17.8475 16.9457 17.934 16.6022C18.0206 16.2587 18.0782 15.8436 18.0782 15.3569V14.7557C17.6601 14.6555 17.2131 14.5697 16.7516 14.5124C16.2902 14.4552 15.8432 14.4265 15.3962 14.4265C14.4301 14.4265 13.7235 14.6126 13.2477 14.9991C12.7719 15.3855 12.5411 15.9294 12.5411 16.6451C12.5411 17.3179 12.7142 17.8188 13.0747 18.1623C13.4207 18.5202 13.9254 18.6919 14.5887 18.6919ZM26.1676 20.2378C25.908 20.2378 25.735 20.1949 25.6196 20.0947C25.5043 20.0088 25.4034 19.8084 25.3168 19.5364L21.9282 8.47211C21.8417 8.18584 21.7985 7.99977 21.7985 7.89957C21.7985 7.67056 21.9138 7.54174 22.1445 7.54174H23.5577C23.8316 7.54174 24.0191 7.58468 24.12 7.68487C24.2354 7.77075 24.3219 7.97114 24.4084 8.2431L26.8309 17.7186L29.0803 8.2431C29.1524 7.95683 29.2389 7.77075 29.3543 7.68487C29.4697 7.59899 29.6715 7.54174 29.9311 7.54174H31.0846C31.3586 7.54174 31.5461 7.58468 31.6614 7.68487C31.7768 7.77075 31.8777 7.97114 31.9354 8.2431L34.2137 17.8331L36.7083 8.2431C36.7948 7.95683 36.8957 7.77075 36.9966 7.68487C37.112 7.59899 37.2995 7.54174 37.559 7.54174H38.9C39.1307 7.54174 39.2605 7.65624 39.2605 7.89957C39.2605 7.97114 39.2461 8.04271 39.2317 8.12859C39.2172 8.21447 39.1884 8.32898 39.1307 8.48643L35.6556 19.5508C35.5691 19.837 35.4682 20.0231 35.3528 20.109C35.2375 20.1949 35.05 20.2521 34.8049 20.2521H33.5648C33.2908 20.2521 33.1034 20.2092 32.988 20.109C32.8727 20.0088 32.7717 19.8227 32.714 19.5364L30.479 10.3042L28.2584 19.5221C28.1863 19.8084 28.0998 19.9945 27.9844 20.0947C27.8691 20.1949 27.6672 20.2378 27.4077 20.2378H26.1676ZM44.6967 20.6243C43.9468 20.6243 43.197 20.5384 42.4761 20.3666C41.7551 20.1949 41.1927 20.0088 40.8178 19.7941C40.5871 19.6653 40.4285 19.5221 40.3708 19.3933C40.3131 19.2645 40.2843 19.1214 40.2843 18.9925V18.2625C40.2843 17.962 40.3996 17.8188 40.6159 17.8188C40.7025 17.8188 40.789 17.8331 40.8755 17.8618C40.962 17.8904 41.0918 17.9476 41.236 18.0049C41.7262 18.2196 42.2598 18.3914 42.8221 18.5059C43.3989 18.6204 43.9613 18.6776 44.538 18.6776C45.4465 18.6776 46.153 18.5202 46.6433 18.2053C47.1336 17.8904 47.3931 17.4324 47.3931 16.8455C47.3931 16.4447 47.2633 16.1155 47.0038 15.8436C46.7442 15.5716 46.254 15.3283 45.5474 15.0993L43.4566 14.4552C42.404 14.1259 41.6253 13.6393 41.1495 12.9952C40.6736 12.3654 40.4285 11.664 40.4285 10.9197C40.4285 10.3186 40.5583 9.78896 40.8178 9.33092C41.0774 8.87289 41.4234 8.47211 41.856 8.15722C42.2886 7.82801 42.7789 7.58468 43.3556 7.41292C43.9324 7.24115 44.538 7.16959 45.1725 7.16959C45.4897 7.16959 45.8214 7.1839 46.1386 7.22684C46.4703 7.26978 46.7731 7.32703 47.0759 7.38429C47.3643 7.45586 47.6382 7.52742 47.8978 7.6133C48.1573 7.69919 48.3592 7.78507 48.5034 7.87095C48.7053 7.98546 48.8495 8.09996 48.936 8.22878C49.0225 8.34329 49.0658 8.50074 49.0658 8.70113V9.37386C49.0658 9.67445 48.9504 9.8319 48.7341 9.8319C48.6188 9.8319 48.4313 9.77464 48.1862 9.66013C47.3643 9.28798 46.4414 9.10191 45.4176 9.10191C44.5957 9.10191 43.9468 9.23073 43.4998 9.50269C43.0528 9.77464 42.8221 10.1897 42.8221 10.7766C42.8221 11.1774 42.9663 11.5209 43.2547 11.7928C43.5431 12.0648 44.0766 12.3368 44.8409 12.5801L46.8884 13.2242C47.9266 13.5534 48.6764 14.0114 49.1235 14.5983C49.5705 15.1851 49.7867 15.8579 49.7867 16.6022C49.7867 17.2177 49.657 17.7759 49.4118 18.2625C49.1523 18.7492 48.8062 19.1786 48.3592 19.5221C47.9122 19.88 47.3787 20.1376 46.7587 20.3237C46.1098 20.5241 45.4321 20.6243 44.6967 20.6243Z" fill="#252F3E"/>
<path fill-rule="evenodd" clip-rule="evenodd" d="M47.4219 27.5806C42.6779 31.0588 35.7854 32.9052 29.859 32.9052C21.5533 32.9052 14.0696 29.8565 8.41714 24.7895C7.97013 24.3887 8.37388 23.8448 8.9074 24.1597C15.0213 27.6808 22.5627 29.8135 30.3636 29.8135C35.6268 29.8135 41.409 28.7257 46.7298 26.4928C47.5229 26.135 48.2006 27.0081 47.4219 27.5806Z" fill="#FF9900"/>
<path fill-rule="evenodd" clip-rule="evenodd" d="M49.3974 25.3477C48.7917 24.5748 45.3887 24.9756 43.8458 25.1616C43.3844 25.2189 43.3123 24.8181 43.7305 24.5175C46.4414 22.6282 50.897 23.1721 51.4161 23.8019C51.9352 24.446 51.2719 28.8688 48.7341 30.9872C48.3447 31.3164 47.9698 31.1447 48.1429 30.7153C48.7196 29.2982 50.003 26.1063 49.3974 25.3477Z" fill="#FF9900"/>
</svg>
