<svg width="143" height="61" viewBox="0 0 143 61" fill="none" xmlns="http://www.w3.org/2000/svg">
<g opacity="0.4">
<path d="M141.777 35.0005C129.492 37.521 135.25 54.4378 126.251 58.9389C115.502 64.3125 111.8 34.0595 113.196 21.2185C113.6 15.5881 120.153 13.0842 121.036 21.2185C121.978 29.8594 111.255 63.3657 98.9696 50.4363L90.7707 40.9441C88.4904 38.1353 84.0001 34.2324 80.2017 40.9441C76.4033 47.6551 70.3501 45.4375 67.8008 43.4896L59.7875 37.6587" stroke="black" stroke-linecap="round"/>
<path d="M65.5332 11.8146L1.7477 1.00991C1.11996 0.902934 0.735584 1.68825 1.21599 2.11741L30.7579 28.725C30.8092 28.7673 30.854 28.8025 30.9181 28.8256C33.5315 29.8537 43.5625 25.9015 48.9046 23.511C49.2633 23.3496 49.6797 23.5469 49.7886 23.9261C51.0184 28.2344 52.5045 32.2173 53.2667 34.1158C53.382 34.3951 53.6895 34.5495 53.8944 34.3272C55.3228 32.7515 55.5214 24.7306 55.4189 20.127C55.4125 19.7984 55.6495 19.5197 55.9762 19.4563C59.9027 18.6896 65.2129 15.2403 67.474 13.5338" stroke="black" stroke-linecap="round"/>
<path d="M49.5388 23.0607C42.7362 19.929 25.5248 12.0862 11.1061 5.76596" stroke="black" stroke-linecap="round"/>
<path d="M53.3821 34.5905L40.5712 26.9039" stroke="black" stroke-linecap="round"/>
<path d="M50.8199 16.6552L33.5252 11.5309" stroke="black" stroke-linecap="round"/>
</g>
</svg>
