<svg width="43" height="44" viewBox="0 0 43 44" fill="none" xmlns="http://www.w3.org/2000/svg">
<g opacity="0.2" clip-path="url(#clip0_200_2555)">
<path d="M8.35653 19.68C6.62084 14.2784 4.22303 9.69035 3.52875 4.58814C4.69231 3.65751 5.62443 4.02846 6.60799 4.44497C9.39151 5.62941 12.22 6.70972 14.965 7.93321C15.7479 8.31519 16.6275 8.44572 17.4858 8.3073C18.3441 8.16888 19.1401 7.76813 19.7671 7.15877C21.2649 5.85719 22.6342 4.37989 24.0998 3.01974C25.0189 2.087 26.017 1.23771 27.0826 0.48165C28.5869 -0.494537 29.8726 0.0456194 30.1169 1.8353C30.2391 3.4921 30.252 5.15531 30.1555 6.81385C30.1555 8.72718 30.104 10.647 30.1555 12.5603C30.1781 13.3119 30.4146 14.0408 30.8365 14.6596C31.2584 15.2784 31.8479 15.7607 32.534 16.0486C35.4654 17.5519 38.4032 19.0357 41.3346 20.5325C42.0867 20.9165 43.2052 21.2289 42.9545 22.2636C42.6607 23.0586 42.076 23.7088 41.3217 24.0793C39.8948 24.698 38.4304 25.2241 36.9375 25.6543C35.3818 26.1749 33.8132 26.6565 32.2511 27.1706C31.4519 27.3876 30.7383 27.849 30.2078 28.492C29.6774 29.135 29.356 29.9281 29.2876 30.763C28.8248 34.3098 28.2976 37.8436 27.8798 41.3904C27.7641 42.4056 27.6676 43.3428 26.6584 43.7983C25.527 44.3059 24.6527 43.6682 23.8427 42.9718C21.7277 41.1756 20.4292 38.7221 19.4328 36.2622C17.9992 32.7479 16.27 30.7304 12.1172 31.8888C9.73865 32.5396 7.17369 32.5396 4.69231 32.8195C3.58125 32.9815 2.45609 33.0208 1.33665 32.9366C0.0509535 32.7739 -0.379754 31.7001 0.340235 30.6198C1.45236 28.9538 2.71877 27.3658 3.9016 25.7779C5.43801 23.6824 6.95512 21.5738 8.35653 19.68ZM41.7845 22.4459C40.711 21.7951 40.1517 21.4501 39.5603 21.1443C37.0232 19.8427 34.4754 18.5411 31.9169 17.2395C29.9883 16.2568 28.8312 14.721 28.7926 12.4822C28.7926 10.7381 28.7926 8.98749 28.7926 7.27591C28.9468 5.35257 28.9058 3.41829 28.6705 1.50339C26.9476 1.81577 26.0477 2.91561 25.0641 3.84624C23.7784 5.03719 22.6663 6.35179 21.3935 7.52972C19.2013 9.56019 16.7971 10.5689 13.84 9.05908C12.1172 8.13496 10.2851 7.39956 8.42081 6.63814C7.35369 6.20211 6.33156 5.5383 4.87873 5.62941C5.16801 6.57306 5.37372 7.30845 5.618 8.03083C6.62727 11.0049 7.54654 14.0116 8.69081 16.9402C9.05078 17.8295 9.18066 18.7971 9.06817 19.7514C8.95568 20.7057 8.60454 21.6152 8.04796 22.3938C7.24441 23.6368 6.31228 24.7887 5.43158 25.9797C4.14589 27.6977 2.90519 29.4093 1.43307 31.4073C2.09086 31.5048 2.75467 31.5548 3.41947 31.5569C6.8587 31.212 10.3044 30.9061 13.705 30.4506C17.1057 29.995 17.9414 30.3985 19.4906 33.4703C20.1335 34.7718 20.7763 36.145 21.5413 37.4206C22.3823 38.8431 23.3053 40.2143 24.3056 41.5271C24.8005 42.1779 25.482 42.8937 26.5491 42.2234C26.9476 38.6896 27.3912 35.1298 27.7384 31.5634C28.0469 28.4201 29.5255 26.3571 32.6433 25.5957C33.9868 25.2638 35.3239 24.8993 36.6289 24.4438C38.236 23.8971 39.7917 23.2333 41.7845 22.4459Z" fill="black"/>
</g>
<defs>
<clipPath id="clip0_200_2555">
<rect width="43" height="44" fill="white"/>
</clipPath>
</defs>
</svg>
