<svg width="91" height="87" viewBox="0 0 91 87" fill="none" xmlns="http://www.w3.org/2000/svg">
<g opacity="0.4" clip-path="url(#clip0_200_2589)">
<path d="M11.8055 28.4911C13.533 27.7157 15.2279 26.9188 16.9457 26.1893C19.2267 25.2235 21.5151 24.2776 23.8255 23.3837C29.3182 21.2537 34.8386 19.1925 40.3251 17.0379C43.5462 15.7715 46.6976 14.3355 49.9147 13.0552C53.9973 11.4286 58.0982 9.81971 62.2254 8.33289C64.5137 7.51218 65.9759 8.18547 67.1239 10.3479C67.6114 11.3614 68.0468 12.3992 68.4284 13.4571C69.2207 15.4212 69.9801 17.3842 70.7809 19.3353C72.0386 22.4191 73.3343 25.485 74.586 28.5722C75.9115 31.8429 77.2114 35.1136 78.4858 38.3841C79.343 40.5651 80.1742 42.7569 80.958 44.9641C81.6264 46.8182 81.1728 47.8711 79.3378 48.7247C77.256 49.6804 75.1376 50.5725 73.0125 51.4322C69.4263 52.8811 65.8029 54.3072 62.1932 55.7293C57.9341 57.4054 53.6767 59.0844 49.4036 60.7363C44.8713 62.4893 40.3293 64.2116 35.7877 65.9417C33.382 66.8585 30.9775 67.7705 28.5585 68.6505C26.2712 69.4868 24.9583 68.7797 24.0405 66.5006C22.83 63.4985 21.4654 60.5571 20.232 57.5643C18.6376 53.7022 17.1285 49.8071 15.5357 45.9481C14.412 43.2148 13.2046 40.5176 12.07 37.7865C11.3954 36.1863 10.713 34.5865 10.113 32.9553C9.37281 30.949 9.95099 29.5618 11.8055 28.4911ZM78.6946 48.2445C80.5015 47.2376 80.7313 46.7094 80.3095 45.2336C80.1788 44.7844 80.0049 44.3439 79.8276 43.8975C78.3153 40.0525 76.8108 36.2072 75.2805 32.3727C73.8657 28.8428 72.4173 25.3243 70.9857 21.8001C70.0549 19.4962 69.1261 17.1911 68.1994 14.8848C67.6555 13.532 67.1953 12.143 66.5696 10.8293C65.6553 8.91142 64.4509 8.42018 62.4162 8.99763C61.6998 9.20538 61.0003 9.48411 60.3016 9.75028C57.5465 10.8001 54.7852 11.8253 52.0503 12.924C48.101 14.51 44.189 16.1954 40.2323 17.7615C35.4692 19.672 30.6208 21.4138 25.8444 23.336C21.9305 24.9136 18.097 26.6305 14.214 28.3033C13.3842 28.6196 12.5772 28.9924 11.7986 29.4193C10.6064 30.1399 10.2484 31.1215 10.7206 32.4269C11.32 34.0988 11.9859 35.7606 12.6772 37.4036C13.8256 40.1308 15.0533 42.8283 16.1818 45.5629C17.7274 49.3402 19.1664 53.1628 20.7331 56.9279C22.0244 60.1255 23.4371 63.2409 24.7834 66.3946C25.5356 68.1639 26.4603 68.6027 28.2133 67.9619C29.9662 67.3212 31.8084 66.6329 33.603 65.96C37.3223 64.5607 41.0413 63.1561 44.76 61.7464C47.7308 60.6245 50.7121 59.5207 53.6724 58.3806C56.8975 57.1281 60.1024 55.8266 63.3125 54.5342C65.9651 53.4669 68.6089 52.3845 71.2527 51.302C73.8965 50.2196 76.5428 49.1276 78.7037 48.2392L78.6946 48.2445Z" fill="black"/>
<path d="M22.1608 72.6671C23.6732 71.9997 25.0655 71.3331 26.4969 70.769C29.4967 69.586 32.522 68.4609 35.5328 67.3038C40.0306 65.5746 44.5338 63.8546 49.0111 62.097C52.4108 60.7638 55.7845 59.3648 59.1737 58.0135C62.9545 56.5046 66.7419 55.0283 70.5226 53.5195C72.9134 52.5629 75.2928 51.5726 77.6809 50.5974C79.8909 49.7036 82.1091 48.8265 84.3356 47.9661C84.7212 47.8121 85.1431 47.7421 85.5387 47.5985C85.6433 47.5437 85.7588 47.5125 85.8769 47.5073C85.995 47.5021 86.1129 47.5229 86.2223 47.5683C86.3317 47.6137 86.4298 47.6825 86.5099 47.7699C86.59 47.8573 86.6501 47.9612 86.6858 48.0743C86.7705 48.2418 86.8644 48.4045 86.9672 48.5616C88.4768 51.1206 87.7313 52.782 85.0822 53.932C82.8545 54.8994 80.5425 55.6652 78.2875 56.5715C75.1593 57.8247 72.0557 59.1484 68.9292 60.4046C65.8027 61.6608 62.5767 62.8978 59.407 64.1627C57.0641 65.1118 54.7327 66.0946 52.3828 67.0316C49.2149 68.2996 46.0273 69.5265 42.8594 70.7945C40.5165 71.7436 38.2075 72.7861 35.8277 73.6434C32.9326 74.7015 29.9984 75.657 27.0718 76.5839C24.5283 77.3945 23.2598 76.012 22.5436 74.1936C22.3841 73.6932 22.2563 73.1834 22.1608 72.6671ZM23.1589 73.003C23.2703 75.3199 24.6477 76.4174 26.8511 75.9162C27.1275 75.8632 27.4006 75.7944 27.6691 75.7103C31.7595 74.2366 35.8712 72.8273 39.9248 71.2619C44.2484 69.593 48.5092 67.7667 52.8099 66.0303C56.1019 64.6987 59.4084 63.3991 62.7144 62.0918C66.1895 60.715 69.6767 59.3595 73.1478 57.969C76.9725 56.4388 80.8099 54.9376 84.5978 53.3158C87.203 52.2152 87.5776 51.0465 86.1912 48.7635C86.1022 48.6397 86.0057 48.5215 85.9024 48.4096C85.7249 48.3799 85.5438 48.382 85.3673 48.4158C64.6594 56.5885 43.9232 64.7842 23.1589 73.003Z" fill="black"/>
<path d="M26.7007 60.3557C26.081 58.8368 25.4493 57.3248 24.8495 55.7984C23.8996 53.3871 22.965 50.9791 22.0457 48.5744C20.9161 45.5942 19.8258 42.5914 18.6811 39.6199C17.973 37.7807 17.2555 35.9389 16.4211 34.1525C15.6607 32.5291 16.5135 31.0116 17.8487 30.3577C19.0611 29.7627 20.3422 29.2935 21.608 28.8048C25.4486 27.3301 29.2967 25.8752 33.1443 24.4125C36.6418 23.0794 40.1373 21.7474 43.6308 20.4165C46.7347 19.2258 49.826 18.0061 52.9335 16.8214C55.1137 15.9945 57.2952 15.1628 59.503 14.4047C61.2458 13.8021 62.2959 14.2977 62.9948 15.9888C64.2133 18.9419 65.3675 21.9159 66.589 24.8673C68.065 28.4546 69.644 32.039 71.0922 35.6545C72.0664 38.0383 72.9039 40.4848 73.7224 42.9262C74.3243 44.7138 73.8952 45.8091 72.1896 46.6364C70.5474 47.4271 68.8176 48.0383 67.1263 48.7162C63.9173 50.0012 60.7058 51.2795 57.4917 52.5513C54.4005 53.771 51.2973 54.9492 48.2135 56.1888C45.6981 57.2011 43.2293 58.3359 40.7024 59.3145C37.5138 60.5259 34.4119 61.9777 31.0751 62.7862C29.4383 63.1824 28.3423 62.8022 27.4719 61.4199C27.2587 61.0506 27.0472 60.6844 26.8357 60.3181L26.7007 60.3557ZM27.2491 59.8292L27.3802 59.7778L27.7297 60.3832C28.8674 62.3537 29.6314 62.6673 31.7667 61.9228C33.5337 61.3063 35.2725 60.6132 37.0222 59.946C38.6391 59.3273 40.2618 58.7254 41.8629 58.0795C45.5561 56.593 49.2365 55.0775 52.9316 53.5737C55.0093 52.7294 57.0894 51.8916 59.1721 51.0605C61.6069 50.0826 64.0415 49.1115 66.4761 48.1471C68.2184 47.4601 70.0033 46.8816 71.6992 46.1002C73.289 45.372 73.5813 44.388 72.945 42.7495C72.5549 41.7397 72.1559 40.7351 71.7615 39.7318C70.1307 35.584 68.509 31.431 66.8631 27.292C65.8082 24.6292 64.7299 21.9746 63.6282 19.3281C63.1455 18.1579 62.6365 16.9907 62.0551 15.8654C61.5364 14.8694 61.1331 14.7349 60.1048 14.9734C59.8744 15.0321 59.6479 15.1049 59.4266 15.1915C55.6172 16.6159 51.7961 18.0269 47.993 19.476C43.2272 21.2912 38.4698 23.1419 33.7079 24.971L21.9171 29.5143C20.6802 29.9372 19.4656 30.4229 18.2783 30.9694C16.8794 31.6802 16.6118 32.5329 17.1269 34.0032C17.3649 34.673 17.6722 35.3028 17.9343 35.9587C19.119 38.9716 20.3114 41.9841 21.4823 45.001C22.3739 47.3114 23.2351 49.6595 24.135 51.9772C25.1552 54.6008 26.2073 57.21 27.2491 59.8292Z" fill="black"/>
<path d="M50.1009 63.9983C50.9508 64.7184 51.791 64.4674 52.6241 64.1277C54.7018 63.2833 56.7877 62.4463 58.8579 61.582C59.2624 61.3499 59.6476 61.0856 60.0099 60.7918C58.015 60.6722 56.7332 61.7391 55.2682 62.1612C53.8031 62.5833 52.333 63.2544 50.8671 63.8143C50.8129 63.7204 50.757 63.6236 50.7028 63.5297C50.9567 63.2858 51.2393 63.0738 51.5445 62.8985C53.6984 61.998 55.857 61.0988 58.0402 60.2702C58.6179 60.0758 59.2285 59.9976 59.8371 60.0399C60.6517 60.058 60.9242 60.6553 60.4487 61.3012C60.1678 61.6734 59.7945 61.9655 59.3658 62.1484C56.9113 63.1619 54.4329 64.1408 51.9376 65.0487C51.4657 65.2202 50.8432 65.0751 50.3177 64.9588C50.1515 64.9216 50.059 64.5108 49.9408 64.2643L50.1009 63.9983Z" fill="black"/>
</g>
<defs>
<clipPath id="clip0_200_2589">
<rect width="70.6141" height="58.7128" fill="white" transform="translate(0 35.307) rotate(-30)"/>
</clipPath>
</defs>
</svg>
