<svg width="140" height="134" viewBox="0 0 140 134" fill="none" xmlns="http://www.w3.org/2000/svg">
<g opacity="0.4" clip-path="url(#clip0_200_2581)">
<path d="M100.152 133.999V120.245C97.1774 119.867 96.3175 119.156 96.2478 117.095C96.1839 115.348 96.6429 114.987 99.507 114.393C100.489 110.375 101.418 106.34 102.458 102.34C104.097 96.0564 105.886 89.8141 107.478 83.5253C110.104 73.1428 113.16 62.8593 114.769 52.2322C115.152 49.6933 115.774 47.1953 116.361 44.3187C106.786 44.8311 97.5143 45.9782 88.2306 47.0089C78.8009 47.9671 69.4352 49.4778 60.1818 51.5334C60.4432 50.6949 60.5826 50.2407 60.7627 49.6817C53.6634 44.1149 46.6686 38.3267 39.3543 32.987C33.9804 29.0739 28.1766 25.7606 22.5994 22.127C16.7026 18.2955 10.8059 14.4581 4.99046 10.4809C3.39281 9.39784 2.08565 7.87802 0.679724 6.51543C0.39992 6.13782 0.17135 5.72466 0 5.28677C6.54743 6.03794 12.909 5.61286 19.2705 5.1179C23.0119 4.83451 26.7494 4.5026 30.483 4.12216C37.013 3.49327 43.5372 2.75374 50.0614 2.0608L62.8949 0.709851C65.3 0.45946 67.7052 0.179954 70.1104 -0.000560518C70.7147 -0.0396307 71.315 0.122052 71.8184 0.45946C78.087 5.05967 85.0295 8.52438 91.7454 12.3676C97.6479 15.7508 103.626 19.0059 109.505 22.4182C118.574 27.6589 127.591 33.0103 136.613 38.3326C137.676 38.9615 138.67 39.7126 140 40.6094C132.593 43.0201 125.232 43.4103 117.604 44.2895C115.356 56.0987 112.956 67.9428 109.685 79.6063C106.415 91.2699 103.551 102.899 100.39 114.865C100.915 115.167 101.401 115.533 101.837 115.954C102.418 116.664 102.656 117.549 101.947 118.318C101.238 119.087 101.366 119.995 101.366 120.944C101.325 124.438 101.203 127.996 101.052 131.519C100.954 132.349 100.791 133.171 100.564 133.976L100.152 133.999ZM3.51481 7.09774C3.42186 7.24331 3.33472 7.39471 3.24176 7.54611C4.44893 8.62025 5.70927 9.6328 7.01801 10.5799C13.9895 15.1685 21.0598 19.6872 28.0779 24.2408C32.6035 27.1523 37.2745 29.9241 41.5852 33.1501C48.2837 38.1637 54.7382 43.5034 61.2507 48.75C61.5795 49.0784 61.9854 49.3187 62.431 49.449C62.8766 49.5792 63.3478 49.5952 63.8011 49.4954C64.7133 49.2857 65.6428 49.1518 66.5723 49.0004C71.4234 48.1968 76.257 47.2535 81.1312 46.6362C86.4761 45.9316 91.8558 45.4716 97.2297 44.9301C107.565 43.8994 117.912 42.9211 128.247 41.8439C131.152 41.5411 134.057 40.9762 136.962 40.5279L137.066 40.0329C136.369 39.5845 135.689 39.1129 134.975 38.6994C121.032 30.6248 107.089 22.556 93.1455 14.493C85.8719 10.3179 78.3658 6.56784 71.4989 1.74635C70.9829 1.40038 70.3768 1.21409 69.756 1.21063C68.3501 1.21063 66.95 1.37368 65.5498 1.5309C60.7395 2.07827 55.9407 2.69551 51.1304 3.20212C45.0826 3.84847 39.0173 4.5123 32.9463 5.07131C26.6371 5.6478 20.3336 6.13693 14.0128 6.59113C10.5154 6.84152 7.0122 6.93469 3.51481 7.09774ZM99.4722 116.198C98.6472 116.064 97.5782 115.383 97.3342 116.897C97.3119 117.146 97.3408 117.397 97.4192 117.634C97.4976 117.871 97.6238 118.089 97.7899 118.276C97.9561 118.462 98.1587 118.612 98.3851 118.716C98.6115 118.821 98.857 118.877 99.1062 118.883C100.1 118.883 101.174 117.916 101.105 117.025C101.023 115.96 100.373 115.791 99.4722 116.198Z" fill="black"/>
<path d="M26.4163 31.4444C22.7563 41.8037 20.6938 52.2502 16.6387 62.0679C17.2952 56.4836 19.3867 51.336 20.7926 46.0021C22.1985 40.6682 23.8717 35.375 25.4403 29.9654C27.3528 30.5697 29.1372 31.5233 30.7038 32.7779C36.2287 37.0229 41.684 41.3436 47.2786 45.5013C51.3628 48.5235 55.6561 51.2428 59.839 54.1543C60.7477 54.7774 61.8594 55.0294 62.9471 54.8589C69.9187 54.0825 76.9115 53.3255 83.9257 52.5879C88.2712 52.1279 92.6401 51.7203 96.974 51.2545C99.6116 50.975 102.243 50.5965 104.887 50.3694C105.775 50.3723 106.66 50.464 107.53 50.643C107.693 55.0511 103.423 78.0114 101.825 81.1616C101.514 80.4452 101.475 79.6398 101.715 78.8965C103.155 71.0548 104.587 63.2092 106.008 55.3597C106.211 54.1951 106.24 53.0305 106.362 51.7436C104.823 51.7436 103.458 51.6271 102.081 51.7436C94.4585 52.5122 86.8479 53.3508 79.2315 54.1543C74.9556 54.6085 70.6855 55.0336 66.4097 55.4703C66.2539 55.4611 66.0976 55.4728 65.9449 55.5053C62.8135 56.7223 60.1353 55.546 57.5849 53.8748C53.1521 50.9633 48.7194 47.9877 44.4377 44.8375C39.1452 40.9477 34.0153 36.8366 28.7924 32.842C28.0257 32.3342 27.2325 31.8677 26.4163 31.4444Z" fill="black"/>
<path d="M100.756 84.2071C99.3443 84.9641 97.9617 85.7968 96.5151 86.4723C91.3785 88.8357 85.8218 90.1444 80.1726 90.3213C69.2448 90.7639 58.7061 88.8481 48.4405 85.1679C41.3528 82.6291 34.4219 79.7699 28.194 75.4551C23.4808 72.214 19.2332 68.3405 15.5698 63.9429C15.3301 63.5893 15.1257 63.2129 14.9597 62.8191C15.9125 62.2368 16.1914 62.9588 16.5748 63.4014C19.8797 67.1792 23.5804 70.5898 27.6131 73.5742C33.4284 77.7024 39.8176 80.9514 46.5756 83.2172C51.5024 84.9774 56.5264 86.4511 61.6225 87.6311C70.1187 89.57 78.9183 89.7681 87.4927 88.2134C90.5254 87.6311 93.4069 86.2743 96.3408 85.2261C97.7118 84.737 99.0539 84.1489 100.408 83.6073L100.756 84.2071Z" fill="black"/>
<path d="M96.7184 119.372C95.876 120.624 95.1092 121.411 94.7548 122.354C94.0518 124.235 93.558 126.197 93.0119 128.136C92.728 129.372 92.2806 130.565 91.6815 131.682C91.5701 131.303 91.5019 130.912 91.4781 130.518C91.6899 127.479 92.4312 124.501 93.6684 121.719C94.1157 120.694 94.6444 119.454 96.7184 119.372Z" fill="black"/>
<path d="M99.112 121.154C98.3374 124.835 97.5627 128.522 96.7881 132.218H96.2478C96.1955 131.454 96.1955 130.688 96.2478 129.924C96.5674 127.688 96.8985 125.446 97.3633 123.233C97.6297 122.415 97.9945 121.633 98.4497 120.904L99.112 121.154Z" fill="black"/>
</g>
<defs>
<clipPath id="clip0_200_2581">
<rect width="140" height="134" fill="white"/>
</clipPath>
</defs>
</svg>
