<svg width="178" height="176" viewBox="0 0 178 176" fill="none" xmlns="http://www.w3.org/2000/svg">
<g clip-path="url(#clip0_13_121)">
<path d="M106.636 126.992C106.42 127.008 106.543 127.263 106.519 127.316C106.863 127.187 106.611 126.92 106.636 126.992Z" fill="#0071DC"/>
<path d="M109.892 125.63L109.862 125.748L110.283 125.354L109.892 125.63Z" fill="#0071DC"/>
<path d="M112.98 124.7C112.543 124.341 111.906 125.172 111.296 125.149L111.178 125.077L111.037 125.503C111.7 125.282 112.471 124.728 112.98 124.7Z" fill="#0071DC"/>
<path d="M114.96 125.069C114.797 124.941 115.279 124.808 114.56 125.168L114.651 125.186C114.751 125.139 114.854 125.1 114.96 125.069Z" fill="#0071DC"/>
<path d="M114.647 125.18C114.321 125.311 114.911 125.244 114.647 125.18V125.18Z" fill="#0071DC"/>
<path d="M116.189 124.435C116.189 124.435 116.154 124.464 116.098 124.509C116.036 124.553 115.976 124.602 115.921 124.654L115.734 124.807C115.775 124.858 115.927 124.826 116.025 124.813C116.124 124.8 116.299 124.766 116.184 124.852C116.921 124.443 116.678 124.423 116.189 124.435Z" fill="#0071DC"/>
<path d="M116.66 123.874L116.356 124.071C116.438 124.089 116.543 124.062 116.66 123.874Z" fill="#0071DC"/>
<path d="M115.758 124.476C115.837 124.404 115.92 124.336 116.006 124.273L116.34 124.051C116.203 124.028 116.138 123.897 116.028 124.238C116.027 124.164 115.987 124.188 115.951 124.226C115.915 124.264 115.88 124.284 115.829 124.325C115.811 124.377 115.787 124.428 115.758 124.476Z" fill="#0071DC"/>
<path d="M115.471 124.517C115.197 124.522 114.87 124.587 115.253 124.249C114.452 124.642 114.684 124.907 115.471 124.517Z" fill="#0071DC"/>
<path d="M112.964 124.174L112.609 124.153L112.39 124.39C112.511 124.291 113.047 124.317 112.964 124.174Z" fill="#0071DC"/>
<path d="M118.853 121.25C118.761 121.199 118.557 121.341 118.426 121.347C118.433 121.408 118.436 121.471 118.435 121.533L118.424 121.819C118.579 121.482 118.7 121.258 118.853 121.25Z" fill="#0071DC"/>
<path d="M118.426 121.347L118.383 120.818C118.255 121.251 118.315 121.345 118.426 121.347Z" fill="#0071DC"/>
<path d="M119.266 119.348L119.441 119.676L119.194 119.104L119.266 119.348Z" fill="#0071DC"/>
<path d="M119.442 118.044C119.598 118.287 119.8 117.801 119.887 118.042C119.875 117.706 119.795 117.376 119.652 117.072C119.699 117.41 119.624 117.755 119.442 118.044Z" fill="#0071DC"/>
<path d="M119.513 116.622C119.552 116.783 119.605 116.94 119.669 117.092C119.644 116.928 119.591 116.769 119.513 116.622Z" fill="#0071DC"/>
<path d="M118.62 119.993C118.7 119.967 118.773 119.923 118.834 119.865C118.894 119.807 118.941 119.736 118.97 119.657L118.658 119.802L118.62 119.993Z" fill="#0071DC"/>
<path d="M118.649 119.801L118.743 119.379L118.649 119.801Z" fill="#0071DC"/>
<path d="M118.611 120.043L118.62 119.993C118.62 119.993 118.58 120.017 118.611 120.043Z" fill="#0071DC"/>
<path d="M117.719 122.32C117.688 121.806 117.714 121.011 117.307 121.671C117.411 122.015 117.652 121.608 117.719 122.32Z" fill="#0071DC"/>
<path d="M118.223 120.209L118.032 120.709C118.106 120.716 118.233 120.646 118.273 120.807L118.223 120.209Z" fill="#0071DC"/>
<path d="M118.18 119.939L118.223 120.209L118.283 120.024L118.18 119.939Z" fill="#0071DC"/>
<path d="M119.144 117.504C119.068 117.248 119.047 116.979 119.081 116.714C118.99 117.01 118.925 117.314 118.886 117.622C118.988 117.674 119.12 117.835 119.144 117.504Z" fill="#0071DC"/>
<path d="M118.911 118.612L118.881 118.576C118.881 118.576 118.848 118.62 118.911 118.612Z" fill="#0071DC"/>
<path d="M119.303 113.915L119.252 113.957L119.298 113.971L119.303 113.915Z" fill="#0071DC"/>
<path d="M118.847 117.688C118.817 117.77 118.804 117.857 118.809 117.945C118.814 118.032 118.836 118.117 118.874 118.196C118.883 118.02 118.887 117.84 118.903 117.642C118.856 117.605 118.833 117.598 118.847 117.688Z" fill="#0071DC"/>
<path d="M119.474 115.821C119.398 115.944 119.33 116.072 119.273 116.204C119.382 116.09 119.539 115.869 119.474 115.821Z" fill="#0071DC"/>
<path d="M118.976 118.507C119.056 118.477 119.026 118.484 118.976 118.507V118.507Z" fill="#0071DC"/>
<path d="M118.977 118.508C118.955 118.393 118.916 118.283 118.862 118.181C118.857 118.312 118.865 118.443 118.886 118.573C118.912 118.546 118.943 118.524 118.977 118.508Z" fill="#0071DC"/>
<path d="M117.537 113.045C117.806 113.085 118.04 113.661 117.715 114.161C117.886 114.661 118.748 114.394 119.242 113.966C119.133 113.946 119.027 113.94 118.896 113.407C118.742 113.591 118.513 114.561 118.291 114.103C118.189 113.42 118.422 113.55 118.558 113.221C118.234 113.485 118.081 112.348 117.606 112.5L117.783 113.088C117.722 113.096 117.605 112.88 117.537 113.045Z" fill="#0071DC"/>
<path d="M119.168 114.96L119.192 115.185C119.272 114.915 119.405 114.664 119.583 114.445C119.473 114.072 119.383 113.994 119.297 113.971L119.207 115.038L119.168 114.96Z" fill="#0071DC"/>
<path d="M119.106 116.155C118.848 115.962 118.79 115.437 118.45 115.723C118.395 116.349 118.63 116.182 118.711 116.57C118.735 115.566 118.832 116.884 119.078 116.162C119.092 116.347 119.095 116.533 119.086 116.719C119.141 116.539 119.205 116.369 119.273 116.204C119.227 116.241 119.207 116.258 119.273 116.204C119.234 116.192 119.199 116.173 119.167 116.147C119.267 115.856 119.238 116.09 119.273 116.204C119.307 116.319 119.273 116.204 119.297 116.235L119.277 115.713L119.232 115.194C119.169 115.511 119.127 115.832 119.106 116.155Z" fill="#0071DC"/>
<path d="M116.859 120.926C116.864 120.916 116.872 120.907 116.881 120.9C116.889 120.892 116.9 120.887 116.911 120.884C116.916 120.838 116.9 120.808 116.859 120.926Z" fill="#0071DC"/>
<path d="M117.129 120.563C117.164 120.62 117.186 120.684 117.192 120.751C117.198 120.818 117.188 120.885 117.163 120.947C117.033 121.129 117.028 120.915 116.936 120.906C116.976 121.058 117.01 121.451 117.252 121.035L117.237 120.954C117.427 120.589 117.894 120.157 117.914 120.234C117.631 120.285 117.363 120.397 117.129 120.563Z" fill="#0071DC"/>
<path d="M118.118 118.376L118.124 117.95C118.128 117.737 118.113 117.522 118.113 117.522C118.113 117.522 118.022 117.596 117.967 117.716C117.913 117.836 117.813 117.909 117.813 117.909L117.966 117.911C117.821 118.374 118.019 118.296 118.118 118.376Z" fill="#0071DC"/>
<path d="M119.448 113.815L119.737 113.941L119.348 113.434L119.448 113.815Z" fill="#0071DC"/>
<path d="M119.428 112.695L119.688 112.735L119.529 112.436L119.428 112.695Z" fill="#0071DC"/>
<path d="M77.6745 93.0712L77.6047 93.2976C77.6376 93.2255 77.6611 93.1494 77.6745 93.0712Z" fill="#0071DC"/>
<path d="M78.7015 91.8299L78.6185 91.7283C78.6327 91.8184 78.6547 91.8766 78.7015 91.8299Z" fill="#0071DC"/>
<path d="M107.629 88.6649C107.477 88.2508 107.348 87.6908 107.219 87.9562L107.146 88.2597C107.34 88.35 107.507 88.4897 107.629 88.6649Z" fill="#0071DC"/>
<path d="M89.9887 84.3472L90.0974 84.4183C90.1936 84.3398 90.2476 84.2199 90.3172 84.1295C90.2178 84.1938 90.1083 84.2664 89.9887 84.3472Z" fill="#0071DC"/>
<path d="M89.8582 85.5307L89.4084 85.3932C89.5514 85.4591 89.7027 85.5054 89.8582 85.5307Z" fill="#0071DC"/>
<path d="M74.7985 101.176L75.0376 101.469C75.0973 101.066 74.9334 101.217 74.7985 101.176Z" fill="#0071DC"/>
<path d="M117.3 101.408C117.291 101.133 117.247 100.861 117.169 100.598C117.184 100.998 117.041 101.401 117.3 101.408Z" fill="#0071DC"/>
<path d="M75.7125 90.71C75.6493 90.8715 75.6501 90.9555 75.7067 90.9937C75.7699 90.8323 75.7854 90.7266 75.7125 90.71Z" fill="#0071DC"/>
<path d="M116.789 99.7387L116.802 99.921C116.967 100.121 117.091 100.351 117.169 100.598C117.191 100.433 117.167 100.266 117.1 100.114C117.033 99.9627 116.925 99.8327 116.789 99.7387Z" fill="#0071DC"/>
<path d="M93.5539 123.723L93.604 123.785C93.604 123.785 93.6004 123.728 93.5539 123.723Z" fill="#0071DC"/>
<path d="M103.393 127.084C103.252 127.107 103.109 127.122 102.966 127.129C103.11 127.143 103.255 127.128 103.393 127.084Z" fill="#0071DC"/>
<path d="M119.248 108.155C119.298 108.393 119.281 108.195 119.248 108.155V108.155Z" fill="#0071DC"/>
<path d="M118.274 109.431C118.26 109.405 118.24 109.385 118.214 109.37C118.189 109.356 118.161 109.35 118.132 109.351C118.16 109.354 118.187 109.362 118.211 109.376C118.236 109.39 118.257 109.408 118.274 109.431Z" fill="#0071DC"/>
<path d="M114.159 98.4606C114.138 98.5288 114.145 98.5153 114.159 98.4606V98.4606Z" fill="#0071DC"/>
<path d="M119.173 108.528C119.194 108.425 119.208 108.321 119.214 108.215C119.191 108.318 119.178 108.423 119.173 108.528Z" fill="#0071DC"/>
<path d="M119.3 108.465L119.301 108.675C119.355 108.699 119.381 108.669 119.3 108.465Z" fill="#0071DC"/>
<path d="M119.184 107.829C119.205 107.957 119.215 108.087 119.214 108.217C119.224 108.167 119.24 108.145 119.265 108.176L119.184 107.829Z" fill="#0071DC"/>
<path d="M78.2307 115.444L78.2384 115.505C78.4772 115.59 78.415 115.514 78.2307 115.444Z" fill="#0071DC"/>
<path d="M100.256 87.9117C100.711 87.7252 100.859 87.8651 101.05 88.0372L101.194 87.1796C101.194 87.1796 100.966 87.3656 100.738 87.5516C100.51 87.7376 100.256 87.9117 100.256 87.9117Z" fill="#0071DC"/>
<path d="M75.8312 96.4369C75.8312 96.4369 76.2716 96.0773 76.2767 96.0732C76.4003 96.8136 76.1157 97.147 76.6189 96.8539C75.8005 96.4199 77.3773 95.0652 76.6748 94.587L77.0105 94.3886C76.9396 94.4465 76.9891 94.5071 76.9347 94.5851C77.6291 94.2369 76.6334 93.8131 77.2527 93.1559C77.4957 92.9575 77.7068 92.8441 77.6741 93.0727L77.9191 92.4015C78.071 92.2775 78.1424 92.3959 78.0222 92.5277C78.0222 92.5277 78.6153 91.6731 78.6277 91.6883C78.6406 91.4245 78.6814 91.1627 78.7494 90.9074C79.0207 90.7953 78.7233 91.0717 78.851 91.0937L78.9729 90.8091C79.0111 90.7121 79.0549 90.6173 79.104 90.5253C79.4384 90.5215 79.2356 91.0068 78.9566 91.2851C79.9657 91.4877 79.1296 90.7736 80.323 90.3546L80.0077 90.8055C80.1233 90.8347 80.2437 90.8397 80.3614 90.8203C80.4791 90.8009 80.5916 90.7575 80.6919 90.6928C80.9257 90.5607 81.1763 90.4609 81.4367 90.396C81.2375 90.3483 80.0005 90.559 80.3312 90.0029C80.455 89.9596 80.5671 89.8882 80.6588 89.7943C80.7505 89.7005 80.8193 89.5867 80.8597 89.462C81.0576 89.7043 81.2571 89.432 81.5843 89.1817L81.8076 89.5379C82.0941 89.1861 81.9429 89.0319 82.0483 88.7271C82.4825 88.4735 82.7507 88.7089 83.0038 88.864C83.6992 88.5066 82.2684 88.7073 83.0211 88.1515C83.3111 88.0533 83.583 87.908 83.8259 87.7216C84.0588 87.5314 84.2951 87.2628 84.5997 87.0056C85.0835 86.9472 84.6326 87.2733 84.8429 87.3035L85.0815 86.831C85.1781 86.7943 85.1902 86.9021 85.1887 86.9623C85.4772 86.7267 85.0404 86.5533 85.5179 86.2391C85.5005 86.0009 85.8375 86.0623 86.2302 86.0782C86.6229 86.0942 87.0412 86.1312 87.2983 85.7951C87.4906 85.8653 87.2894 86.0632 87.3814 86.2068C87.8601 85.8941 88.3158 85.5474 88.7448 85.1694C88.7448 85.1694 89.4343 85.3215 89.4375 85.3358C88.9122 85.0747 89.4713 84.6435 90.0178 84.2898C89.8683 84.176 89.7095 84.0749 89.5431 83.9874L90.4279 83.7278C90.5426 83.7856 90.4573 83.9394 90.3172 84.1295C90.3729 84.084 90.4286 84.0386 90.4741 84.0014C90.8068 84.1505 90.6436 84.3846 90.4276 84.6367L90.0892 84.4082C89.8846 84.6847 89.7148 84.9831 89.7832 85.2218C89.8638 85.1566 89.9571 85.109 90.0573 85.0822C89.9914 85.1359 89.9779 85.2227 90.0068 85.258C90.0356 85.2933 90.103 85.1795 90.2396 85.0679L90.4637 85.5076L90.4967 85.3207L91.6145 85.5944C92.4028 85.1443 93.1843 84.4894 94.5649 84.5064C94.1903 84.8122 94.4034 85.0422 94.3161 85.4416C94.0287 84.9863 93.2863 85.441 92.6605 85.3462C93.0016 85.4126 92.8831 85.6188 92.8141 85.6583C92.8141 85.6583 93.1101 85.5765 93.4124 85.5231L94.0222 85.4123C93.9465 85.7433 94.2365 85.6748 94.5002 85.8634C94.3842 85.184 95.4512 85.5918 95.9603 85.5126C95.9276 85.7413 95.7678 85.8969 95.2037 85.7433C95.7024 86.3542 96.2104 85.199 96.7373 85.7617C96.5922 85.7287 96.5276 85.6805 96.4396 85.7691C96.8271 85.6547 97.5518 86.0979 97.3283 86.1962L97.1934 86.1549C98.0965 86.4861 99.9348 87.1979 100.303 86.7709C100.161 86.999 99.9959 87.2125 99.8113 87.4082C99.8113 87.4082 100.394 87.151 101.002 86.924L102.224 86.4985C101.872 86.853 101.867 88.1278 101.022 88.0019C101.265 88.2435 101.582 88.3988 101.923 88.4441C101.815 88.3129 101.89 87.6293 102.118 87.7123C102.272 88.1444 102.49 88.5508 102.765 88.9176C102.604 88.7207 103.215 88.188 103.53 88.4188C103.434 88.4973 103.201 89.0492 103.019 89.0635L104.211 88.9318C103.938 88.9186 103.848 89.4383 103.912 89.7229C103.916 89.5425 104.579 90.179 104.832 90.2505L104.59 89.8925C105.418 90.5547 106.056 89.6212 106.886 90.3068C106.691 90.3477 106.077 90.8662 106.445 91.2553C106.858 91.0879 107.284 90.9566 107.719 90.8629C108.268 90.7304 108.842 90.7651 109.37 90.9624L109.364 91.2447L109.733 91.4067C109.92 91.481 110.096 91.5727 110.096 91.5727C108.996 91.6661 107.892 91.6939 106.789 91.656C106.983 92.0278 106.711 91.9218 107.161 92.2866C107.183 92.5717 106.732 92.3088 106.598 92.2074L107.488 93.1634C107.74 92.7896 108.552 93.5151 108.756 93.2387C108.532 93.1122 108.3 92.9978 108.063 92.896L107.383 92.6102C107.505 92.5 107.652 92.4212 107.811 92.3805C107.971 92.3398 108.138 92.3385 108.297 92.3767C108.525 92.399 108.748 92.4588 108.956 92.5537C109.175 92.6603 109.368 92.8123 109.523 92.9997C109.571 93.3059 108.835 93.4181 108.749 93.5394C108.945 93.5219 109.593 93.9945 109.574 94.1363L109.119 94.0029C109.356 94.4995 110.157 94.2408 110.259 95.007C110.403 95.1837 110.236 95.8673 110.467 95.7373C110.822 94.9769 111.45 94.3771 112.226 94.0574C112.425 94.582 112.545 95.133 112.583 95.693C112.481 96.2301 111.507 95.7805 111.417 96.2493C111.513 96.1708 111.759 96.2648 111.847 96.3107C111.895 96.5659 111.485 96.4462 111.821 96.8368C112.234 96.6507 112.385 97.7139 112.268 96.8164C112.654 97.1656 112.511 97.2997 112.836 97.7913C112.98 97.4717 113.932 97.7381 114.313 98.1425C114.203 98.1732 114.134 98.3473 114.098 98.4271C114.214 98.6391 114.318 98.857 114.411 99.0798L114.606 99.6697C114.725 100.08 114.875 100.481 115.054 100.869C115.009 100.99 115.051 101.486 114.803 101.368C114.988 101.468 115.137 101.622 115.231 101.81C115.078 102.49 114.936 101.21 114.662 101.795C114.915 101.732 115.271 102.375 115.583 102.726C115.902 102.465 115.291 101.769 114.996 101.438C115.5 101.22 116.313 101.709 116.933 102.633C117.309 103.403 116.7 103.092 116.814 103.21C117.202 104.719 118.16 104.239 118.058 105.644C117.831 106.233 117.366 105.83 117.16 105.99C116.884 105.374 117.147 104.941 117.017 104.483L117.011 104.774L116.999 105.07C116.796 104.832 116.675 104.536 116.654 104.224C116.615 104.43 116.627 104.643 116.688 104.844C116.733 105.127 116.795 105.472 116.874 105.837C116.953 106.201 117.013 106.565 117.088 106.966C117.125 107.315 117.13 107.666 117.101 108.016C117.253 108.202 117.442 108.578 117.538 108.365L117.432 107.998C117.658 107.603 117.951 108.634 117.987 108.15C118.146 108.406 118.291 108.669 118.421 108.94C118.541 109.255 118.581 109.596 118.538 109.93L118.149 110.105C118.263 110.079 118.348 109.605 118.21 109.415C118.432 109.688 117.758 110.567 118.312 110.863L118.547 110.335C118.66 110.587 118.849 110.87 118.981 111.176C119.114 111.48 119.163 111.815 119.123 112.145C119.507 111.831 119.077 111.997 119.531 111.509C119.253 111.736 119.26 111.301 119.235 110.909C119.21 110.517 119.178 110.157 118.901 110.5C119.405 109.98 119.057 109.658 119.471 108.966C119.337 109.008 119.25 109.222 119.228 108.668C119.186 108.633 119.152 108.59 119.125 108.542C119.125 108.542 119.104 108.517 119.125 108.542C119.105 108.657 119.05 108.763 118.969 108.846C118.626 108.613 118.506 107.743 118.306 107.477C118.322 107.145 118.481 107.587 118.589 107.389L118.276 107.006C118.569 106.91 118.601 106.05 118.93 106.774L118.781 106.054C118.859 105.6 118.793 105.133 118.593 104.719C118.592 104.366 118.056 103.988 118.368 104.204L117.869 103.19L117.924 103.145C117.852 102.876 117.754 102.615 117.633 102.364L117.229 101.601C116.939 101.059 116.772 100.459 116.741 99.8453C116.445 99.4916 116.219 99.0851 116.075 98.6473L116.255 98.4241C115.985 98.0308 115.77 97.0448 115.446 96.9985C115.493 96.7392 115.475 96.4723 115.392 96.2224C115.309 95.9726 115.164 95.7479 114.97 95.5691C114.59 95.1381 114.243 94.6787 113.933 94.195L113.646 94.3705C113.256 93.8877 112.812 93.4514 112.322 93.0699L112.128 93.2963C111.977 93.2099 111.848 93.0909 111.75 92.948C111.603 92.7885 111.465 92.6199 111.338 92.4432C111.1 92.0396 110.816 91.6643 110.493 91.3247C110.617 91.2907 110.768 91.4867 110.834 91.6602C110.737 91.3673 110.574 91.1007 110.357 90.8806C110.141 90.6606 109.877 90.4929 109.586 90.3903C109.048 90.1788 108.584 89.8151 108.251 89.3436C108.144 89.3204 108.044 89.2745 107.957 89.209C107.87 89.1435 107.798 89.06 107.747 88.9641C107.755 88.9821 107.768 88.9976 107.784 89.0096L107.718 88.9288C107.64 88.8329 107.598 88.6989 107.521 88.5846C107.555 88.6965 107.607 88.802 107.675 88.8967C107.48 88.783 107.276 88.6851 107.065 88.604L107.14 88.273L107.099 88.2225C106.927 87.9503 106.828 88.2001 106.821 88.4916C106.684 88.4418 106.538 88.4179 106.392 88.4211C106.48 87.878 105.676 88.1642 105.671 87.5376C105.363 87.646 104.32 86.916 103.885 87.3132C103.915 87.2467 103.853 87.1709 103.981 87.2347C103.765 86.9952 103.469 86.8422 103.148 86.8039L103.219 86.3843L102.781 86.4473L102.342 86.5196C102.078 86.1129 101.974 85.9031 102.502 85.8259C101.356 85.7767 101.662 85.5938 100.665 85.6428L100.813 85.4211C100.519 85.299 99.9478 85.3952 99.8285 85.156C99.257 84.6453 98.5633 84.2903 97.8141 84.1252C97.3304 83.9564 96.796 83.829 96.3063 83.6735C95.8117 83.544 95.3279 83.3764 94.8593 83.1722C95.0926 83.9746 94.0488 82.7065 93.8876 83.2841C93.8044 83.0996 93.5544 82.9587 93.8767 82.8471C93.4834 82.8441 93.0915 82.8035 92.7062 82.7258C92.5441 82.6839 92.3748 82.6777 92.2099 82.7078C92.045 82.7378 91.8885 82.8032 91.7513 82.8996C91.6235 82.7431 91.9641 82.6333 91.8675 82.5356C91.8016 82.5893 91.5548 82.6899 91.4539 82.5871C91.3531 82.4843 91.6159 82.4548 91.7476 82.3474C91.595 82.3267 91.4397 82.3414 91.2936 82.3903C91.1475 82.4391 91.0144 82.5208 90.9047 82.6291C90.795 82.7374 90.7116 82.8693 90.6609 83.0147C90.6102 83.1602 90.5935 83.3152 90.6122 83.4679C90.529 83.4106 90.435 83.3707 90.3359 83.3507C90.2368 83.3306 90.1346 83.3308 90.0354 83.3513C89.9363 83.3717 89.8422 83.412 89.7589 83.4696C89.6756 83.5273 89.6048 83.6011 89.5507 83.6868C89.3669 83.5339 89.0567 83.3917 89.6541 83.2657C89.3143 83.2319 87.5237 83.3225 87.5998 83.7567C87.4737 83.6746 87.1357 83.8496 87.0639 83.9166C86.5469 83.9959 86.0423 84.1421 85.5628 84.3514L85.7768 84.3449C85.6717 84.9188 85.2391 84.6577 84.7062 84.9246L84.6773 84.8893C83.3236 85.1532 84.2167 85.2654 82.8382 85.4991L83.0443 85.7515C83.1459 86.0724 82.8486 86.1216 82.4453 86.1649C82.019 86.1683 81.6078 86.3249 81.2867 86.606L81.6202 86.6114C81.5017 86.8175 81.1352 86.7717 80.7371 86.7182C80.339 86.6646 79.9143 86.5991 79.7175 86.7093C79.6054 86.7167 79.7854 86.5445 79.867 86.4274C78.6925 86.7973 79.9827 86.8378 79.3607 87.4297C79.1083 87.3582 79.1784 86.855 78.698 87.1967C78.5331 87.222 78.3061 87.6261 78.0479 88.0641C77.8489 88.5102 77.4979 88.8714 77.0575 89.0831C77.2991 89.0794 77.5315 89.0747 77.3584 89.4517C77.0814 89.6935 76.7718 89.8953 76.4388 90.051C76.2705 90.1387 76.1282 90.2691 76.0263 90.4292C75.9244 90.5892 75.8665 90.7732 75.8584 90.9625C75.7926 91.0162 75.721 90.9905 75.6861 90.9685C75.4931 91.4038 75.0201 92.3538 75.0863 92.7035C74.5266 92.5968 74.243 93.2827 74.061 93.9278C73.8789 94.5728 73.7567 95.1774 73.3135 94.9756L73.0644 95.6418L72.8919 96.1023C72.8816 96.1771 72.8754 96.2523 72.8735 96.3277L72.8075 96.2469C72.456 97.0977 72.5704 97.4755 72.7275 97.8436C72.6068 98.0264 72.5543 97.8588 72.5071 97.8216C72.2739 98.203 72.1351 98.6343 72.1024 99.0796C72.0697 99.5249 72.144 99.9713 72.3192 100.381L71.9823 100.455C72.0591 100.611 71.8867 101.071 71.7328 101.668C71.5475 102.319 71.5282 103.006 71.6766 103.666C71.6455 103.65 71.618 103.628 71.596 103.601C71.574 103.574 71.5579 103.543 71.5489 103.509C71.6514 103.892 71.6907 104.289 71.6651 104.685L71.6154 105.306L71.6002 105.908C71.5793 106.255 71.6158 106.603 71.708 106.939C71.7561 107.074 71.8388 107.195 71.9479 107.289C72.0571 107.383 72.1889 107.446 72.3304 107.474L72.8272 108.33C72.6395 107.129 73.3608 108.374 73.4347 107.834C73.5894 108.272 73.4405 109.092 73.1923 108.571L73.2169 108.466C72.562 108.429 73.449 109.96 73.0615 110.074C73.8104 112.327 74.8667 114.466 76.2006 116.43L76.4186 115.932L76.8819 116.572C76.9185 116.803 76.7563 117.028 76.4281 116.564C76.395 116.978 77.1919 117.169 77.2862 117.108C77.8705 118.062 76.5778 117.14 76.7922 117.402L77.1253 117.728L77.0999 117.614C77.4737 117.813 77.6459 117.673 78.0581 118.178C78.2937 118.549 78.003 118.534 78.1051 118.669C78.0798 118.69 78.116 118.745 78.27 118.871L78.6168 119.244L78.9342 119.633L78.908 119.074C79.3388 119.261 79.5844 119.716 79.5261 119.108C79.5636 119.557 80.1784 120.258 80.8987 120.789C81.4362 121.162 81.9541 121.561 82.4507 121.987C83.0983 122.144 83.7066 122.432 84.2381 122.833C84.1104 122.676 84.2413 122.258 84.7614 122.616C84.1237 123.271 85.6201 123.471 85.8157 124.279C85.5773 123.708 87.5236 124.997 87.1053 124.144C87.5704 124.403 86.9989 124.458 87.315 124.814C88.0124 124.934 88.6818 125.18 89.2911 125.539C89.9921 125.89 90.7327 126.155 91.4971 126.33C91.5493 126.228 91.3422 125.985 91.7117 125.91C91.7117 125.91 92.3671 126.713 92.3588 126.703C92.6831 126.707 92.786 126.11 93.2685 126.608C93.1902 126.512 93.1162 126.329 93.3293 126.331C93.6981 126.47 94.075 126.587 94.458 126.68L95.0332 126.816C95.2292 126.85 95.4221 126.869 95.6191 126.893C96.4048 126.967 97.2025 127.014 97.9878 127.046C98.7827 127.024 99.578 127.046 100.37 127.112C101.194 127.129 102.013 127.23 102.817 127.411C102.368 127.213 102.635 127.189 102.979 127.144C102.764 127.109 102.961 126.864 102.912 126.711L103.585 126.885L104.254 127.012C104.441 126.548 105.65 126.789 105.726 126.365L105.327 126.497C105.797 125.936 104.437 125.541 104.429 124.891C104.174 125.209 103.738 125.077 103.324 124.953C103.103 124.837 102.853 124.791 102.605 124.819C102.358 124.847 102.124 124.949 101.934 125.111C101.718 125.001 102.109 124.901 101.988 124.764C101.76 125.043 101.445 125.132 100.917 125.033L100.988 124.975C100.362 125.02 99.7323 124.985 99.1151 124.872L98.2422 124.743C97.9277 124.689 97.572 124.584 97.1533 124.505L97.255 124.826C97.0394 124.782 96.8376 124.687 96.6663 124.549C96.1601 124.962 97.6829 124.678 97.2537 125.155C97.0377 124.818 96.3999 124.75 95.7763 124.678C95.1527 124.607 94.568 124.428 94.471 124.061C93.9298 123.956 94.5712 124.442 94.0207 124.336L93.9128 124.122L93.7189 124.339C93.5924 124.312 93.4789 124.243 93.3972 124.143C93.3155 124.043 93.2705 123.918 93.2697 123.788C93.3536 123.829 93.5246 123.791 93.6215 123.796C93.2051 123.513 92.3185 123.564 92.1819 123.448L92.6562 123.709C91.8584 123.561 91.0715 123.361 90.3009 123.108C89.5538 122.807 88.7733 122.597 87.9759 122.482L88.0233 122.654C86.8834 122.415 87.2764 122.111 86.1185 121.685L86.159 121.652C85.8341 121.669 85.5127 121.58 85.2433 121.398C85.5992 121.41 84.9222 120.819 85.3589 120.858C84.1891 120.458 84.7239 120.762 83.7451 120.762L83.7302 120.454C83.5581 120.494 83.3795 120.497 83.2064 120.463C83.0332 120.429 82.8692 120.359 82.7253 120.257C83.2739 120.381 82.6167 119.731 83.2315 119.843C82.527 118.66 81.3662 119.078 81.4301 118.092C80.5429 118.193 82.0252 119.12 81.6847 119.003C81.7642 119.359 80.9878 119.059 80.7157 118.725C80.5838 118.564 80.5734 118.303 80.5278 117.979C80.502 117.57 80.3267 117.186 80.0352 116.9C80.1012 116.981 80.1467 116.944 80.2177 117.02C80.0625 116.634 79.515 116.635 79.4175 116.092C78.9328 116.159 79.03 115.617 78.6003 115.918L79.3236 116.555C78.8733 116.242 78.0465 116.252 77.7276 115.334C77.9327 115.367 78.1287 115.442 78.3036 115.554C78.2602 115.253 77.9112 115.218 77.8738 114.904C78.3406 114.649 78.648 115.769 79.3508 115.927C79.3453 115.755 79.0953 115.614 78.9219 115.495C78.7486 115.376 78.6753 115.276 78.9837 115.209C78.1792 115.319 78.4189 114.383 77.606 114.121L77.8852 113.977C77.7114 113.899 77.5569 113.784 77.4326 113.64L77.9675 113.717C77.8439 113.65 77.7383 113.555 77.6597 113.439C77.5811 113.323 77.5318 113.19 77.5162 113.05C77.5131 112.89 77.4782 112.732 77.4136 112.585C77.349 112.439 77.2559 112.307 77.1398 112.196C77.6965 113.147 76.9455 112.599 77.0002 113.152C75.9678 112.135 77.2714 112.089 76.4812 110.79C76.609 110.947 76.648 111.563 76.3789 111.337C76.2929 111.041 76.2724 110.731 76.319 110.426C75.8779 109.525 76.0818 110.704 75.7487 110.379C75.9638 109.909 75.4189 109.975 75.118 109.606L75.4077 109.496C75.2111 108.336 74.6872 109.42 74.586 108.324L75.135 108.625L74.8647 108.139L75.245 108.14C74.7974 107.664 74.8618 107.443 74.8191 106.864C74.6216 107.025 74.2333 106.921 74.1238 106.405C74.2561 106.019 74.4482 106.544 74.2942 105.828C74.5125 105.961 74.7869 106.091 74.5495 106.461C74.6546 106.476 74.783 106.582 74.884 106.592C75.0131 106.192 74.7884 105.669 74.7555 105.401C74.7669 105.497 74.757 105.594 74.7263 105.686L74.4285 105.197C74.36 105.086 74.2974 104.971 74.2409 104.854L74.1641 104.698C74.2707 104.518 74.3737 104.644 74.4726 104.765C74.3795 104.555 74.2993 104.34 74.2326 104.12C74.4951 104.183 74.7538 104.149 74.9053 104.572L74.5544 103.605C74.6506 103.526 74.8661 103.098 74.9549 103.227C74.9943 102.9 74.9398 102.568 74.7978 102.27C74.672 101.922 74.6573 101.543 74.7558 101.185C74.6907 101.106 74.6521 101.008 74.6453 100.905C74.8209 100.232 75.2029 99.7181 75.0814 98.8666L75.3573 98.7085L75.6333 98.5505C75.7289 97.934 74.8795 98.9809 75.0519 97.9314C75.1493 97.162 75.5074 97.7867 75.7096 97.5796C75.6318 97.3164 75.5988 97.0419 75.6118 96.7675C75.612 96.5978 75.6526 96.4305 75.7301 96.2794C75.8077 96.1283 75.9201 95.9977 76.058 95.8983C76.0057 96.0925 75.8804 96.2285 75.8312 96.4369ZM80.3191 90.0296C80.2347 90.1742 80.1604 90.5378 79.9488 90.475C79.8385 90.1023 80.0456 90.1183 80.3233 90.0346L80.3191 90.0296ZM91.2464 84.8853C91.1249 84.9845 90.9441 84.9386 90.7331 84.8249C90.9083 84.7927 91.0891 84.8156 91.2505 84.8903L91.2464 84.8853ZM118.534 105.617C118.549 105.201 118.521 105.333 118.534 105.617V105.617ZM118.572 106.428C118.629 106.498 118.672 106.489 118.709 106.441C118.62 106.405 118.553 106.25 118.553 106.022C118.484 106.104 118.463 106.222 118.576 106.433L118.572 106.428ZM78.2622 118.676L78.2098 118.508C78.5203 118.692 78.3917 118.679 78.2622 118.676Z" fill="#0071DC"/>
<path d="M89.8766 85.3979C89.833 85.3513 89.8033 85.2933 89.7911 85.2306C89.7382 85.2907 89.7418 85.3471 89.8766 85.3979Z" fill="#0071DC"/>
<path d="M111.514 96.6161C111.477 96.5089 111.464 96.3944 111.478 96.2816C111.414 96.3172 111.399 96.4136 111.514 96.6161Z" fill="#0071DC"/>
<path d="M119.635 110.624L119.513 110.102C119.54 110.263 119.517 110.43 119.445 110.577C119.521 110.566 119.62 110.46 119.635 110.624Z" fill="#0071DC"/>
<path d="M117.66 115.014C117.709 115.075 117.654 115.162 117.692 115.24L117.837 115.231C117.851 114.917 117.744 114.693 117.66 115.014Z" fill="#0071DC"/>
<path d="M118.617 111.144C118.357 111.197 118.45 111.508 118.502 111.861L118.5 111.796C118.879 111.898 118.755 111.52 118.617 111.144Z" fill="#0071DC"/>
<path d="M118.526 111.94C118.541 112.05 118.543 112.161 118.534 112.272C118.679 112.314 118.562 112.14 118.526 111.94Z" fill="#0071DC"/>
<path d="M118.916 107.408C118.874 107.594 119.268 107.466 119.173 107.577C119.535 107.711 118.601 106.505 118.916 107.408Z" fill="#0071DC"/>
<path d="M117.758 111.476L118.083 111.337L117.814 111.152L117.758 111.476Z" fill="#0071DC"/>
<path d="M117.779 108.732L117.778 109.011L117.754 109.291C117.795 109.258 117.846 109.342 117.869 109.433C117.878 109.081 117.874 108.705 117.779 108.732Z" fill="#0071DC"/>
<path d="M117.875 109.428C117.871 109.58 117.902 109.73 117.964 109.869C117.952 109.719 117.922 109.571 117.875 109.428Z" fill="#0071DC"/>
<path d="M117.621 110.73L117.675 110.559L117.669 110.169L117.621 110.73Z" fill="#0071DC"/>
<path d="M116.525 102.899L116.228 102.359C116.228 102.359 116.096 102.517 116.22 102.71C116.344 102.904 116.448 103.021 116.525 102.899Z" fill="#0071DC"/>
<path d="M116.192 104.887C116.209 104.722 116.277 104.692 116.358 104.575L115.959 104.665L116.192 104.887Z" fill="#0071DC"/>
<path d="M115.605 103.28C115.497 103.251 115.028 102.573 115.295 103.272C115.418 103.289 115.675 103.82 115.605 103.28Z" fill="#0071DC"/>
<path d="M111.861 95.2222L111.96 95.3434L112.472 94.9167L111.861 95.2222Z" fill="#0071DC"/>
<path d="M105.209 91.0951C105.646 91.6302 105.576 90.8627 105.95 91.3822C106.171 91.3532 105.641 90.9526 105.851 90.9411C105.431 90.8296 105.328 90.6107 105.209 91.0951Z" fill="#0071DC"/>
<path d="M105.85 90.9401L106.084 90.9868C106.011 90.9536 105.931 90.9376 105.85 90.9401Z" fill="#0071DC"/>
<path d="M105.165 127.218L105.659 127.286L105.32 127.109L105.165 127.218Z" fill="#0071DC"/>
<path d="M106.018 126.589L106.195 126.992L106.41 126.573C106.289 126.621 106.096 126.685 106.018 126.589Z" fill="#0071DC"/>
<path d="M81.7592 89.9643L81.6933 89.8836C81.5776 89.8349 81.4935 89.8868 81.3384 89.9966L81.5341 89.9883C81.6085 89.9747 81.6837 89.9667 81.7592 89.9643Z" fill="#0071DC"/>
<path d="M77.7074 93.7438L77.7751 93.6717L77.3555 93.6021L77.7074 93.7438Z" fill="#0071DC"/>
<path d="M76.097 98.0541C76.17 97.8851 76.1526 97.6469 76.2297 97.483C76.1494 97.8599 75.6251 97.9514 76.097 98.0541Z" fill="#0071DC"/>
<path d="M51.6594 48.9964C51.4066 49.8338 51.7563 49.5904 51.778 49.741C52.0858 48.32 51.579 49.0115 51.6594 48.9964Z" fill="#0071DC"/>
<path d="M59.0577 36.2749L58.9469 36.5422C58.9469 36.5422 59.2897 36.094 59.6673 35.6678C60.0449 35.2417 60.4267 34.8206 60.4267 34.8206L59.7314 35.5397C59.5391 35.6968 59.3889 35.8952 59.2829 36.0238C59.177 36.1523 59.0577 36.2749 59.0577 36.2749Z" fill="#0071DC"/>
<path d="M70.7244 27.8513C69.2668 28.1327 66.2419 30.6278 64.1014 32.0053L63.6991 32.1739L62.9899 33.1653C65.4041 31.1662 67.9927 29.3877 70.7244 27.8513Z" fill="#0071DC"/>
<path d="M77.9596 25.2841C77.713 25.2919 78.0712 25.1004 78.1098 25.0857L77.8031 25.2267C77.5452 25.3448 77.0799 25.5396 76.3422 25.9484C76.5049 25.8997 76.5527 25.8859 76.6442 25.8533C76.7357 25.8207 76.9468 25.7072 77.1477 25.602C77.3487 25.4968 77.6304 25.4182 77.9596 25.2841Z" fill="#0071DC"/>
<path d="M76.6442 25.8533C75.3235 26.5194 77.5787 25.5615 76.6442 25.8533V25.8533Z" fill="#0071DC"/>
<path d="M83.001 23.3469L81.1987 24.0949C81.6186 24.0718 83.2862 23.5516 82.677 23.8387C83.1306 23.7125 83.565 23.5248 83.968 23.281C83.9512 23.219 83.563 23.2499 83.001 23.3469Z" fill="#0071DC"/>
<path d="M84.7029 22.538L83.7307 22.8353C84.0745 22.8201 84.409 22.7177 84.7029 22.538Z" fill="#0071DC"/>
<path d="M81.7157 23.6224C81.7157 23.6224 82.2228 23.4271 82.7207 23.2309C82.9726 23.1261 83.2236 23.0306 83.4126 22.952C83.6016 22.8734 83.7307 22.8353 83.7307 22.8353C83.434 22.8336 83.3677 22.711 82.7998 23.1831C82.9307 22.9921 82.5608 23.2521 81.7157 23.6224Z" fill="#0071DC"/>
<path d="M80.5387 23.9271C79.4706 24.2103 78.1291 24.7166 79.9056 23.813C76.4403 25.2625 77.0753 25.3583 80.5387 23.9271Z" fill="#0071DC"/>
<path d="M71.1539 27.0547L69.7708 27.696L68.7378 28.4974C69.2104 28.0946 71.275 27.1409 71.1539 27.0547Z" fill="#0071DC"/>
<path d="M94.9214 21.868C95.0429 21.7688 94.2612 21.5657 94.1287 21.4551L93.9045 21.4699L93.4147 21.5417C93.0573 21.5895 92.6989 21.6466 92.6989 21.6466C93.069 21.6556 93.6042 21.6394 94.0551 21.675C94.5061 21.7107 94.8779 21.7941 94.9214 21.868Z" fill="#0071DC"/>
<path d="M94.1287 21.4551L96.2996 21.3653C94.3565 21.2691 94.0054 21.3454 94.1287 21.4551Z" fill="#0071DC"/>
<path d="M84.9201 21.9567L84.3864 22.1401C84.0724 22.2618 83.634 22.3758 83.2206 22.5619C82.3948 22.9248 81.5649 23.2827 81.5649 23.2827C81.5649 23.2827 82.5626 22.872 83.5511 22.4603L85.5957 21.7921L84.9201 21.9567Z" fill="#0071DC"/>
<path d="M102.966 22.8133L101.734 22.7926L103.927 22.8952L102.966 22.8133Z" fill="#0071DC"/>
<path d="M108.201 24.2439C107.318 24.1234 109.248 24.979 108.32 24.752C109.694 25.246 110.949 25.4916 112.028 25.8728C110.907 25.3994 109.702 24.9871 108.201 24.2439Z" fill="#0071DC"/>
<path d="M113.854 26.4768C113.277 26.2662 112.68 26.0723 112.028 25.8728C112.626 26.0994 113.227 26.3076 113.854 26.4768Z" fill="#0071DC"/>
<path d="M99.9182 21.7259C100.058 21.8006 100.204 21.8647 100.353 21.9176C100.505 21.9707 100.66 22.0155 100.817 22.052C101.015 22.118 101.253 22.1928 101.558 22.2882C101.558 22.2882 100.78 21.8303 100.778 21.8486L99.9182 21.7259Z" fill="#0071DC"/>
<path d="M100.735 21.8165C101.639 21.9948 102.264 22.1497 102.532 22.1997C102.331 22.1704 101.785 22.0278 100.735 21.8165Z" fill="#0071DC"/>
<path d="M99.6962 21.7124L99.9037 21.7377C99.8738 21.7169 99.8393 21.7037 99.8032 21.6992C99.767 21.6948 99.7303 21.6993 99.6962 21.7124Z" fill="#0071DC"/>
<path d="M90.6008 21.2056C91.8539 20.9734 94.5376 20.6332 91.9238 20.5629C91.0124 20.8107 92.4973 20.852 90.6008 21.2056Z" fill="#0071DC"/>
<path d="M98.7077 21.225L97.5653 21.0555C97.2774 21.0129 96.989 21.0213 96.7727 21.0043L96.4177 20.9829C96.4712 21.0485 96.8618 21.1755 96.2292 21.2377L97.4695 21.1758L98.7077 21.225Z" fill="#0071DC"/>
<path d="M99.8388 21.2774L98.7077 21.225L99.553 21.3509L99.8388 21.2774Z" fill="#0071DC"/>
<path d="M110.362 24.6494C110.612 24.7067 110.855 24.7774 111.124 24.8691C111.393 24.9608 111.619 25.0622 111.873 25.1663L113.471 25.8636C112.305 25.2308 111.094 24.6809 109.85 24.2181C109.644 24.2347 109.044 24.161 110.362 24.6494Z" fill="#0071DC"/>
<path d="M105.762 23.0029C105.829 23.0237 105.917 23.0371 105.98 23.0528C105.856 22.9937 105.763 22.9424 105.762 23.0029Z" fill="#0071DC"/>
<path d="M123.754 32.2677L123.622 32.1054C123.61 32.1185 123.596 32.1298 123.581 32.1386L123.754 32.2677Z" fill="#0071DC"/>
<path d="M109.643 24.0676C108.989 23.7614 108.296 23.5457 107.584 23.4265C108.306 23.619 109.041 23.9195 109.833 24.1979C109.922 24.1928 109.947 24.1721 109.643 24.0676Z" fill="#0071DC"/>
<path d="M116.881 27.9517C116.456 27.6589 115.97 27.3322 115.452 26.9977C115.888 27.3724 116.367 27.6927 116.881 27.9517Z" fill="#0071DC"/>
<path d="M106.278 23.2215L106.132 23.1883C106.424 23.3386 106.395 23.3031 106.278 23.2215Z" fill="#0071DC"/>
<path d="M106.278 23.2222C106.777 23.3276 107.181 23.377 107.584 23.4265C107 23.2802 106.457 23.1519 105.98 23.0533C106.083 23.102 106.183 23.1584 106.278 23.2222Z" fill="#0071DC"/>
<path d="M127.772 33.3035C127.194 33.091 126.656 32.7818 126.182 32.3891C125.378 31.8174 124.458 30.9698 123.565 30.2177C121.599 29.0294 122.338 30.6056 123.592 32.1311C123.717 32.0879 123.769 31.9864 125.656 33.357C125.396 33.039 124.457 32.157 123.795 31.5113C123.132 30.8656 122.679 30.4448 123.539 30.9293C124.025 31.2366 124.489 31.5773 124.928 31.9489C125.235 32.2113 125.421 32.3876 125.581 32.5519C125.857 32.8901 125.993 33.0567 126.529 33.6203C126.142 33.0948 126.989 33.6151 127.859 34.2166C128.73 34.8182 129.667 35.5005 129.583 35.0979L127.474 33.3619C127.482 33.2793 128.285 33.8694 127.772 33.3035Z" fill="#0071DC"/>
<path d="M120.105 29.5344L119.291 29.0545C119.728 29.3624 120.099 29.6404 120.493 29.958C120.887 30.2755 121.263 30.684 121.774 31.1755C123.104 31.9991 123.437 32.1064 123.566 32.11L122.984 31.6764L121.704 30.7279C121.238 30.3847 120.783 30.024 120.418 29.7836L119.809 29.389L120.105 29.5344Z" fill="#0071DC"/>
<path d="M115.647 26.9059C116.421 27.0061 118.485 28.0048 117.411 27.0724C116.77 26.6869 116.091 26.3675 115.384 26.1191C115.042 26.0201 114.834 25.9623 114.051 25.6848C114.431 25.8432 114.801 26.0242 115.16 26.2266L115.593 26.4785C115.71 26.5597 115.523 26.4854 115.3 26.3982C114.853 26.2331 114.254 26.0157 115.628 26.8622L114.507 26.3053L113.451 25.8383C113.807 26.0269 114.166 26.1971 114.494 26.3921L115.448 26.9927L115.382 26.9119C115.232 26.7903 115.186 26.744 115.353 26.8766L115.437 26.9174C115.512 26.9001 115.59 26.8999 115.664 26.9169C116.764 27.5923 115.801 27.0835 115.437 26.9174C115.437 26.9174 115.377 26.916 115.367 26.9243L117.362 27.9208C117.854 28.1832 118.325 28.4805 118.689 28.6883L119.288 29.0402C118.898 28.7695 118.45 28.4791 117.884 28.1166C117.318 27.7541 116.574 27.411 115.647 26.9059Z" fill="#0071DC"/>
<path d="M94.3209 19.8408C94.4676 19.8648 94.4606 19.8874 94.4721 19.9118C94.7689 19.8808 94.8825 19.8642 94.3209 19.8408Z" fill="#0071DC"/>
<path d="M96.2058 20.0621C95.6468 20.1553 95.0788 20.1812 94.514 20.1393C93.5956 20.0478 94.5189 20.0006 94.4722 19.9125L93.8732 19.9641C93.696 19.9913 93.5203 20.028 93.347 20.074C93.1153 20.1622 93.2204 20.1774 94.2345 20.2413L94.5574 20.2132C95.4758 20.3047 96.5118 20.4265 97.257 20.5332C98.0022 20.6399 98.5018 20.8798 98.365 20.8569C98.1038 20.6893 97.8306 20.5412 97.5475 20.4137C97.1096 20.2639 96.6611 20.1464 96.2058 20.0621Z" fill="#0071DC"/>
<path d="M106.503 22.382L107.077 22.5273C107.416 22.6213 107.879 22.7139 108.328 22.8607L110.109 23.4601L108.397 22.5521L108.439 22.728C106.405 22.0244 106.788 22.3594 106.503 22.382Z" fill="#0071DC"/>
<path d="M123.989 32.6483L123.426 32.5691L125.347 33.6092L123.989 32.6483Z" fill="#0071DC"/>
<path d="M127.666 35.7881L127.358 35.8547L128.398 36.6123L127.666 35.7881Z" fill="#0071DC"/>
<path d="M76.1489 87.7636L76.9928 86.9062C76.5936 87.3163 76.3514 87.5983 76.1489 87.7636Z" fill="#0071DC"/>
<path d="M71.3152 95.0072L71.3552 95.2535C71.4429 94.8522 71.4609 94.6769 71.3152 95.0072Z" fill="#0071DC"/>
<path d="M109.746 136.115C109.23 136.723 108.57 137.278 108.135 137.717C107.7 138.156 107.439 138.446 107.613 138.463L108.131 138.25C108.759 137.334 109.316 136.694 109.746 136.115Z" fill="#0071DC"/>
<path d="M115.438 125.158C115.336 125.333 115.239 125.514 115.137 125.698C115.164 125.954 115.169 126.213 115.151 126.47C115.25 126.043 115.337 125.602 115.438 125.158Z" fill="#0071DC"/>
<path d="M113.484 126.433L113.084 126.491C112.847 126.541 112.611 126.583 112.611 126.583C112.905 126.552 113.197 126.502 113.484 126.433Z" fill="#0071DC"/>
<path d="M116.624 95.8684L117.612 96.9129C116.449 95.0347 116.834 95.9404 116.624 95.8684Z" fill="#0071DC"/>
<path d="M146.964 79.4085C146.853 80.0884 146.754 80.6907 146.637 81.2403L146.369 82.7718C146.566 81.9799 146.792 81.2232 146.901 80.6544C147.026 80.2506 147.048 79.8222 146.964 79.4085Z" fill="#0071DC"/>
<path d="M76.347 92.1706C76.6469 91.5976 76.8307 91.3886 76.76 91.3538C76.5969 91.5459 76.4625 91.7606 76.3607 91.9911C76.2897 92.1417 76.2679 92.2184 76.347 92.1706Z" fill="#0071DC"/>
<path d="M145.562 86.6195C145.642 86.3863 145.711 86.1613 145.787 85.9231C145.874 85.4309 145.962 84.9387 146.061 84.42C146.161 83.9012 146.231 83.3471 146.373 82.7351C146.201 83.3209 146.04 83.9494 145.908 84.6041C145.739 85.2657 145.623 85.9397 145.562 86.6195Z" fill="#0071DC"/>
<path d="M98.4252 23.13L98.0834 23.054C98.0427 23.0872 98.1996 23.1028 98.4252 23.13Z" fill="#0071DC"/>
<path d="M55.8711 38.5824C56.1871 38.215 56.7061 37.6314 57.2208 37.1354C56.7317 37.5797 56.2803 38.0637 55.8711 38.5824Z" fill="#0071DC"/>
<path d="M139.708 51.0124C139.151 50.1545 139.605 50.8861 139.708 51.0124V51.0124Z" fill="#0071DC"/>
<path d="M137.924 46.1923C138.064 46.3639 138.211 46.4713 138.282 46.4552C138.143 46.3989 138.02 46.3085 137.924 46.1923Z" fill="#0071DC"/>
<path d="M143.803 96.9575C143.788 96.9849 143.774 97.0131 143.762 97.0419C143.943 96.7757 143.91 96.8191 143.803 96.9575Z" fill="#0071DC"/>
<path d="M139.013 49.6446C139.187 49.9911 139.397 50.3831 139.645 50.8113C139.541 50.6107 139.354 50.2582 139.013 49.6446Z" fill="#0071DC"/>
<path d="M139.01 49.8993L138.557 49.1168C138.445 49.0314 138.485 49.1421 139.01 49.8993Z" fill="#0071DC"/>
<path d="M140.439 52.2585C140.148 51.7472 139.906 51.2547 139.637 50.8012C139.725 50.9816 139.759 51.0638 139.716 51.0225C139.875 51.2887 140.093 51.649 140.439 52.2585Z" fill="#0071DC"/>
<path d="M145.673 83.0456L145.741 82.8299C145.784 81.7767 145.754 82.256 145.673 83.0456Z" fill="#0071DC"/>
<path d="M90.5702 155.357C90.6001 155.328 90.6325 155.302 90.667 155.278L90.5125 155.328L90.5702 155.357Z" fill="#0071DC"/>
<path d="M86.8673 156.816C87.502 156.476 88.1614 156.185 88.8399 155.945C89.3976 155.709 89.9253 155.539 90.5292 155.349L89.0441 155.038L88.71 155.311C88.5075 155.476 88.2443 155.691 87.9709 155.915C87.4274 156.375 86.8673 156.816 86.8673 156.816Z" fill="#0071DC"/>
<path d="M73.7694 90.7728C73.8369 90.6658 73.9199 90.5419 74.0183 90.4035C74.0183 90.4035 73.9234 90.542 73.7694 90.7728C73.702 90.8739 73.6232 90.9927 73.5362 91.1253C73.3882 91.3471 73.2232 91.5996 73.0379 91.8687C72.8526 92.1378 72.6965 92.484 72.5512 92.7709C72.2388 93.3259 71.9559 93.8968 71.7034 94.4812C71.519 94.9684 71.3882 95.2939 71.3882 95.2939L71.3594 95.2586C71.0846 96.3716 70.8791 97.5004 70.7442 98.6384C70.307 99.963 70.8156 97.9406 70.6256 98.2556L70.5492 98.7303C70.5017 99.0131 70.4448 99.3877 70.4195 99.7702C70.3282 100.526 70.3195 101.291 70.3195 101.291C69.9895 102.519 69.9051 99.9462 70.5071 97.8728C69.8979 98.7756 69.5915 99.8479 69.6323 100.935L69.6228 101.843C69.6298 102.182 69.6413 102.568 69.6319 103.022L69.6576 104.582C69.6943 105.175 69.6982 105.862 69.7795 106.654C69.7795 106.654 69.6255 105.938 69.5272 105.177L69.5231 105.15C69.4691 104.791 69.4136 104.422 69.4133 104.159L69.3818 103.697C68.9409 105.647 69.3693 108.032 70.3196 111.345L70.0591 109.993C69.9303 109.353 69.8416 108.706 69.7936 108.056C69.7346 107.674 69.7556 107.285 69.8551 106.912C69.9307 106.808 70.044 107.06 70.2865 107.864C70.4928 109.182 70.9399 110.452 71.6055 111.608C71.308 111.75 72.0754 113.361 73.2607 115.195L72.8282 115.296C73.2286 115.908 73.7063 116.465 74.2495 116.954C74.5874 117.234 74.8327 117.42 75.3557 117.885L76.3333 119.165C76.6053 119.498 76.7852 119.781 76.9422 120.014C77.1525 120.362 77.3324 120.728 77.4797 121.107C77.7872 121.469 78.1564 121.774 78.5703 122.008C78.6108 121.975 78.3832 121.707 78.2189 121.454C78.0546 121.201 77.8573 120.908 77.9922 120.949C78.5151 121.264 79.0044 121.631 79.4526 122.045C80.6451 123.092 81.9526 124 83.3503 124.753C84.8962 125.591 86.5187 126.281 88.1958 126.812C90.4056 127.793 87.7032 126.912 88.4725 127.327L89.5468 127.527C89.8103 127.581 90.0799 127.621 90.286 127.647L90.6198 127.694C91.1101 127.847 90.9388 127.899 90.8237 127.934L90.8177 127.936C92.6087 128.249 91.0808 127.587 93.841 128.084C95.0429 128.133 96.2348 128.32 97.3929 128.642C98.2708 128.767 99.2297 128.825 100.204 128.871C100.683 128.894 101.163 128.874 101.639 128.81C102.108 128.755 102.566 128.685 102.988 128.592C103.869 128.638 102.618 128.894 102.87 129.016C107.58 128.141 106.911 128.241 110.591 126.92C110.636 126.908 110.682 126.898 110.728 126.891C110.828 126.865 110.929 126.844 111.031 126.829L111.764 126.693C111.99 126.66 112.212 126.622 112.381 126.602C112.551 126.581 112.633 126.548 112.633 126.548C112.371 126.568 112.245 126.528 112.279 126.425C112.436 126.226 112.635 126.063 112.861 125.949C113.208 125.733 113.714 125.455 114.336 125.141C114.658 124.978 114.996 124.812 115.338 124.642L115.47 124.577L115.53 124.527L115.513 124.785L115.443 125.154C115.49 125.085 115.531 125.022 115.569 124.963C115.637 124.721 115.705 124.478 115.773 124.236C115.612 124.151 115.186 124.346 115.012 124.336L115.743 124.034L115.844 123.992L116.326 122.464L116.359 122.37L116.435 122.308L116.617 122.21L116.979 122.023L117.729 121.63L118.644 121.169L119.506 120.768C120.081 120.5 120.681 120.296 121.234 120.022C121.072 120.103 120.903 120.216 120.709 120.299C120.515 120.381 120.329 120.474 120.154 120.559C119.888 120.678 119.64 120.833 119.415 121.018L120.8 120.317C121.244 120.055 121.688 119.803 122.122 119.549C122.991 119.033 123.876 118.588 124.666 118.077C125.409 117.616 126.129 117.118 126.823 116.586C127.142 116.325 127.438 116.109 127.734 115.842C128.031 115.574 128.267 115.347 128.5 115.116L128.172 115.013C130.377 112.962 131.94 111.236 133.565 109.441L133.598 109.404L133.431 109.086C135.006 107.304 136.43 105.395 137.69 103.38C139.13 101.186 140.311 99.0772 141.108 98.2662C141.443 97.3091 141.851 96.3791 142.33 95.4848C142.651 94.886 142.929 94.2134 143.201 93.5959C143.464 93.0613 143.694 92.5112 143.889 91.9485L144.297 91.5485C145.006 89.7384 145.525 87.8596 145.845 85.9428C146.648 83.4917 147.108 80.9418 147.21 78.3663C147.281 75.9702 147.202 73.5725 146.976 71.187L147.041 71.1332L146.928 70.3845C146.88 69.9438 146.762 69.3756 146.659 68.7949L146.639 68.683C146.544 68.1408 146.45 67.6113 146.339 67.2139L146.175 66.5066C146.641 67.6568 145.879 65.6285 145.56 64.2656C145.345 63.5578 145.075 62.6172 144.744 61.6753C144.414 60.7334 144.151 59.7194 143.856 58.8923L143.277 57.5221L142.68 56.0992C144.342 59.0335 142.904 55.7319 143.079 55.4201L142.542 54.5967L142.185 54.0464L141.992 53.8092C141.719 53.0307 142.809 54.7996 142.161 53.5107C141.776 52.976 141.14 51.8878 140.442 50.7748C139.872 49.8915 139.237 49.0516 138.543 48.262C138.662 48.6604 138.823 49.0449 139.023 49.409L139.056 49.4494L139.114 49.5711L139.011 49.4449C138.893 49.3068 138.767 49.1765 138.633 49.0548C138.397 48.5546 138.09 48.0913 137.721 47.6792C137.65 47.6444 137.733 47.8798 137.707 47.9515C137.208 46.9213 136.64 45.9259 136.008 44.9718C135.454 44.234 134.978 43.4419 134.585 42.6077C134.791 43.0801 134.68 43.0771 134.437 42.7793L133.877 42.0927L133.089 41.1794C132.529 40.5346 131.972 39.8531 131.562 39.4644C131.152 39.0757 130.937 38.9569 131.135 39.3755C130.057 37.5799 130.171 38.3287 129.569 37.1371C130.505 38.2321 131.562 39.1954 132.545 40.1513C133.528 41.1072 134.509 41.9888 135.282 42.8635L134.688 41.8675C134.542 41.6164 134.391 41.3695 134.255 41.2029L134.029 40.9253C135.422 41.7227 137.107 45.0673 137.968 46.1225C137.569 45.6494 137.207 45.1467 136.884 44.6184C136.633 44.2968 136.424 43.944 136.263 43.5688L136.323 44.2936C136.793 44.9619 137.209 45.6063 137.639 46.2148C138.068 46.8234 138.525 47.393 138.907 47.9226C139.68 49.0246 140.471 49.9939 141.143 50.9513C140.169 48.962 142.656 53.1658 142.118 51.6281L141.675 50.879L141.361 50.3608L141.188 50.1488C141.041 49.7724 141.23 49.9211 141.504 50.2777C141.779 50.6343 142.158 51.1915 142.446 51.5958L143.472 53.6273L144.536 55.9641C145.301 57.5624 145.976 59.2027 146.556 60.8773C147.374 63.1587 147.897 65.5356 148.111 67.9503C148.12 68.038 148.127 68.1258 148.134 68.2137C148.127 68.1258 148.119 68.038 148.111 67.9503C148.052 67.3222 147.944 66.6996 147.79 66.0878C147.643 65.4208 147.446 64.7657 147.202 64.1278L147.409 65.4145L147.574 66.7017C147.481 66.2054 147.416 65.712 147.332 65.2167L147.06 63.7055C146.956 63.1399 146.823 62.5802 146.661 62.0286L146.378 61.0821C146.266 60.7657 146.13 60.4381 145.986 60.0926L145.972 60.0585C145.91 60.6228 144.824 58.6734 145.291 60.9599C145.498 61.6576 145.625 62.2686 145.786 62.7855C145.946 63.3023 146.067 63.7503 146.185 64.1424C146.423 64.9406 146.675 65.5176 146.9 66.1753C147.187 66.9211 147.42 67.6868 147.597 68.4663C147.9 69.7772 148.074 71.1148 148.116 72.4601C148.233 73.0885 147.666 71.01 147.909 74.7582C148.183 79.5068 148.056 83.0605 148.622 83.1447C148.694 82.127 148.761 80.5661 148.861 79.2311C148.96 77.8961 148.983 76.725 149.214 76.4187C149.361 78.4693 149.028 81.9887 149.222 82.2259C148.855 83.2328 148.943 82.277 149.043 81.3965C149.142 80.5159 149.201 79.7194 148.848 81.0756C148.675 82.4961 148.73 83.1323 148.68 83.8044C148.654 82.8326 148.147 85.022 147.935 85.4137C147.51 87.3726 146.95 89.3002 146.259 91.1829C145.629 92.9427 144.897 94.7017 143.828 96.9372L143.815 96.9533C143.636 97.1683 143.297 97.5757 143.256 97.4043C142.361 99.6247 141.18 102.953 141.885 102.318C141.413 103.163 140.883 103.975 140.301 104.748C139.884 105.323 139.511 105.847 138.84 106.875C141.434 103.915 138.348 107.461 138.432 108.049C136.931 110.066 137.725 108.61 136.933 109.458C136.631 109.867 136.39 110.316 136.216 110.792C134.973 111.74 137.462 107.957 135.993 109.082C135.75 109.28 135.34 109.657 134.842 110.122C134.345 110.587 133.74 111.097 133.183 111.603L130.773 113.57C130.183 114.625 131.464 115.573 133.133 114.673C133.143 114.85 132.662 115.192 132.072 115.606C131.483 116.02 130.765 116.464 130.339 116.811C129.227 117.543 128.18 118.37 127.21 119.282C126.789 119.685 126.348 120.044 125.893 120.416C125.396 120.794 124.87 121.131 124.319 121.424L125.114 120.775L125.66 120.328L125.908 120.126C125.707 120.231 124.781 120.811 123.851 121.419C122.921 122.026 121.989 122.703 121.746 122.902C121.612 122.851 123.111 121.215 121.995 121.698C120.97 122.282 119.924 122.799 118.998 123.37C118.726 123.533 118.604 123.59 118.442 123.723L118.225 123.9C118.172 123.918 118.171 123.969 118.162 124.019L118.133 124.16L118.044 124.671L117.922 125.317C117.647 127.006 117.475 128.097 117.741 128.04L118.117 126.941L118.443 125.8L118.616 125.155L118.665 124.988L118.683 124.906L118.708 124.885L118.732 124.749C118.744 124.643 118.77 124.54 118.81 124.441L119.042 124.251L119.144 124.168C119.233 124.112 119.329 124.075 119.405 124.013C119.574 123.91 119.753 123.839 119.884 123.732C120.473 123.378 120.872 123.144 120.872 123.144C120.974 123.196 120.745 123.391 120.346 123.657C120.152 123.791 119.914 123.944 119.651 124.107C119.522 124.187 119.372 124.251 119.25 124.35L118.982 124.57C118.932 124.602 118.972 124.712 118.937 124.741L118.935 124.894L118.937 124.959C118.942 124.964 118.892 125.089 118.912 125.114C118.823 125.583 118.806 125.883 118.935 125.845C118.935 125.845 118.792 126.248 118.571 126.857C118.351 127.466 117.979 128.249 117.643 129.037L117.135 130.192L116.627 131.171L116.135 132.119L116.165 132.054C116.358 131.643 116.705 130.901 116.921 130.333C117.15 129.734 117.21 129.323 116.923 129.767C115.637 132.408 116.182 131.122 115.171 132.788C115.469 131.964 115.774 131.026 116.044 129.972C116.315 128.918 116.532 127.79 116.758 126.713C116.852 126.166 116.907 125.624 116.974 125.107L117.085 124.385L117.229 123.528L117.259 123.317C117.284 123.255 117.233 123.213 117.329 123.134L117.618 122.899L118.2 122.423L118.974 121.791C118.974 121.791 118.676 121.942 118.468 122.07C118.26 122.197 117.674 122.533 117.205 122.806C116.9 122.887 116.902 123.231 116.816 123.477L116.619 124.176L116.481 124.71L116.008 125.433C115.418 127.53 114.964 129.609 114.569 131.328L114.318 132.559L114.077 133.597L113.758 135.036C113.545 135.43 113.26 135.782 112.919 136.074C112.696 136.256 112.54 136.283 112.439 136.231C112.241 136.123 112.254 135.684 112.363 135.393C111.789 136.205 111.271 137.056 110.812 137.938C110.413 138.617 110.145 139.198 109.863 139.782C109.584 140.428 109.238 141.043 108.83 141.617C108.611 141.948 108.343 142.301 108.028 142.701C107.676 143.154 107.29 143.579 106.873 143.973L107.111 143.779L107.617 143.365C107.967 143.029 108.318 142.684 108.318 142.684C108.126 142.924 107.82 143.335 107.406 143.748C106.993 144.161 106.524 144.62 106.099 145.051C105.258 145.922 104.488 146.56 104.716 146.457C103.888 146.963 102.955 147.2 103.396 146.572L103.093 146.949C102.818 147.284 102.46 147.744 102.057 148.149L100.529 149.785C100.511 149.806 100.491 149.828 100.468 149.851L100.529 149.785C100.89 149.353 100.237 149.133 100.391 148.878C99.8128 149.299 99.3075 149.811 98.8949 150.394C98.684 150.752 98.7432 150.945 99.1522 150.754L99.2727 150.692C99.2296 150.716 99.1895 150.736 99.1522 150.754L97.4902 151.609C97.0649 151.821 96.7651 151.94 96.497 152.066C95.7112 152.409 94.9063 152.707 94.0863 152.957C93.6204 153.203 93.7124 153.347 94.0237 153.387C94.4254 153.429 94.8311 153.362 95.1987 153.194C94.7419 153.501 94.2642 153.775 93.7692 154.016C93.3236 154.245 92.9327 154.438 92.563 154.605C91.9499 154.894 91.3143 155.131 90.6625 155.315C91.0391 155.141 91.4048 154.943 91.7575 154.724C91.9544 154.593 92.1316 154.434 92.2837 154.253C92.4924 153.981 92.4399 153.814 92.3122 153.657C92.0607 153.349 91.4152 153.22 91.6485 152.844L91.3651 153.076C91.1042 153.288 90.8315 153.486 90.5484 153.667C89.8781 154.096 89.008 154.756 88.0652 155.265C87.1224 155.774 86.1313 156.348 85.3868 156.687C84.6424 157.025 84.1518 157.241 84.1518 157.241C84.4669 156.989 84.7178 156.666 84.8839 156.298C84.2983 156.634 83.6611 156.869 82.9986 156.996C82.8653 157.029 82.7361 157.067 82.5927 157.109L82.5316 157.116L82.3727 157.128C82.2647 157.13 82.1569 157.122 82.0503 157.106C81.8027 157.053 81.5776 156.925 81.4058 156.74C81.2365 156.568 81.1184 156.352 81.0647 156.117C81.011 155.881 81.0238 155.635 81.1017 155.406C81.1368 155.272 81.1969 155.146 81.279 155.034C81.4008 154.893 81.5464 154.774 81.7092 154.683L81.7447 154.654L81.7902 154.617L81.8409 154.576L82.0757 154.502C82.7123 154.31 83.4009 154.11 84.1179 153.903C86.6946 153.115 89.2053 152.125 91.6268 150.944C91.6278 150.943 91.629 150.942 91.6301 150.941L92.2311 150.644C92.0303 150.745 91.8288 150.845 91.6268 150.944C91.2811 151.22 91.9923 150.966 92.964 150.508C93.5556 150.203 94.1302 149.867 94.6856 149.502C94.6825 149.503 94.6795 149.504 94.6764 149.506C94.6801 149.504 94.6838 149.502 94.6874 149.501C95.0489 149.263 95.4021 149.012 95.7466 148.75C95.4471 149.068 95.087 149.324 94.6874 149.501C94.6868 149.501 94.6862 149.501 94.6856 149.502C95.2997 149.257 95.8695 148.912 96.3723 148.483C96.7769 148.138 97.1628 147.773 97.5282 147.387C97.8851 147.029 98.1883 146.604 98.6338 146.241C99.128 145.809 99.6613 145.425 100.227 145.092C97.9843 146.83 97.6643 147.327 97.9098 147.421C98.7513 146.633 100.243 145.432 101.363 144.416C102.483 143.401 103.114 142.532 102.498 142.707C103.076 142.227 103.586 141.735 103.967 141.406C104.349 141.078 104.578 140.883 104.663 141.049C104.663 141.049 104.898 140.748 105.22 140.316C105.543 139.884 106.003 139.332 106.401 138.746C106.8 138.159 107.2 137.564 107.504 137.13C107.808 136.697 107.988 136.39 107.988 136.39C107.797 136.771 107.744 137.189 108.704 135.886C108.713 135.875 108.721 135.863 108.73 135.852C108.721 135.863 108.713 135.875 108.704 135.886C108.478 136.196 108.277 136.528 108.05 136.828C107.814 137.138 107.582 137.453 107.365 137.766C106.907 138.383 106.506 139.039 106.09 139.563C105.448 140.52 104.643 141.356 103.713 142.035C103.942 142.378 104.962 141.663 104.105 143.002C105.072 141.971 105.975 140.882 106.81 139.742C107.496 138.702 108.153 137.77 108.64 136.817C109.127 135.864 109.627 135.018 110.002 134.114C110.378 133.21 110.775 132.364 111.137 131.463L112.483 129.186L113.285 127.74C113.218 127.732 113.15 127.728 113.082 127.729C113.082 127.729 113.282 127.549 113.495 127.325C113.708 127.1 113.939 126.836 113.939 126.836C113.941 126.507 113.883 126.394 113.975 126.26C114.068 126.125 114.131 126.141 114.189 126.211C114.232 126.067 114.267 125.92 114.294 125.772C114.31 125.709 114.244 125.762 114.209 125.791C114.173 125.82 114.197 125.86 114.102 125.878C114.008 125.897 113.947 125.946 113.896 125.987C114.161 125.698 114.466 125.449 114.802 125.248C114.943 125.141 114.972 125.176 114.993 125.202L115.079 125.308C115.123 125.431 115.149 125.56 115.156 125.691L114.328 127.208C114.301 127.763 114.212 128.417 114.633 127.826C114.652 127.771 114.671 127.717 114.69 127.662C114.886 127.055 115.131 126.477 115.309 125.869C115.397 125.568 115.483 125.266 115.569 124.963C115.531 125.022 115.49 125.085 115.443 125.154L115.513 124.785L115.53 124.527L115.47 124.577L115.338 124.642C114.996 124.812 114.658 124.978 114.336 125.141C113.714 125.455 113.208 125.733 112.861 125.949C112.635 126.063 112.436 126.226 112.279 126.425C112.245 126.528 112.371 126.568 112.633 126.548C112.633 126.548 112.551 126.581 112.381 126.602C112.212 126.622 111.99 126.66 111.764 126.693L111.031 126.829C110.929 126.844 110.828 126.865 110.728 126.891C110.682 126.898 110.636 126.908 110.591 126.92C106.911 128.241 107.58 128.141 102.87 129.016C102.618 128.894 103.869 128.638 102.988 128.592C102.566 128.685 102.108 128.755 101.639 128.81C101.163 128.874 100.683 128.894 100.204 128.871C99.2297 128.825 98.2708 128.767 97.3929 128.642C96.2348 128.32 95.0429 128.133 93.841 128.084C91.0808 127.587 92.6087 128.249 90.8177 127.936L90.8237 127.934C90.9388 127.899 91.1101 127.847 90.6198 127.694L90.286 127.647C90.0799 127.621 89.8103 127.581 89.5468 127.527L88.4725 127.327C87.7032 126.912 90.4056 127.793 88.1958 126.812C86.5187 126.281 84.8962 125.591 83.3503 124.753C81.9526 124 80.6451 123.092 79.4526 122.045C79.0044 121.631 78.5151 121.264 77.9922 120.949C77.8573 120.908 78.0546 121.201 78.2189 121.454C78.3832 121.707 78.6108 121.975 78.5703 122.008C78.1564 121.774 77.7872 121.469 77.4797 121.107C77.3324 120.728 77.1525 120.362 76.9422 120.014C76.7852 119.781 76.6053 119.498 76.3333 119.165L75.3557 117.885C74.8327 117.42 74.5874 117.234 74.2495 116.954C73.7063 116.465 73.2286 115.908 72.8282 115.296L73.2607 115.195C72.0754 113.361 71.308 111.75 71.6055 111.608C70.9399 110.452 70.4928 109.182 70.2865 107.864C70.044 107.06 69.9307 106.808 69.8551 106.912C69.7556 107.285 69.7346 107.674 69.7936 108.056C69.8416 108.706 69.9303 109.353 70.0591 109.993L70.3196 111.345C69.3693 108.032 68.9409 105.647 69.3818 103.697L69.4133 104.159C69.4136 104.422 69.4691 104.791 69.5231 105.15L69.5272 105.177C69.6255 105.938 69.7795 106.654 69.7795 106.654C69.6982 105.862 69.6943 105.175 69.6576 104.582L69.6319 103.022C69.6413 102.568 69.6298 102.182 69.6228 101.843L69.6323 100.935C69.5915 99.8479 69.8979 98.7756 70.5071 97.8728C69.9051 99.9462 69.9895 102.519 70.3195 101.291C70.3195 101.291 70.3282 100.526 70.4195 99.7702C70.4448 99.3877 70.5017 99.0131 70.5492 98.7303L70.6256 98.2556C70.8156 97.9406 70.307 99.963 70.7442 98.6384C70.8791 97.5004 71.0846 96.3716 71.3594 95.2586L71.3882 95.2939C71.3882 95.2939 71.519 94.9684 71.7034 94.4812C71.9559 93.8968 72.2388 93.3259 72.5512 92.7709C72.6965 92.484 72.8526 92.1378 73.0379 91.8687C73.2232 91.5996 73.3882 91.3471 73.5362 91.1253C73.6232 90.9927 73.702 90.8739 73.7694 90.7728Z" fill="#0071DC"/>
<path d="M113.793 126.181C113.76 126.14 113.825 126.054 113.885 125.971C113.638 126.147 113.552 126.217 113.793 126.181Z" fill="#0071DC"/>
<path d="M116.443 95.6779L116.526 95.7793C116.559 95.8114 116.597 95.8373 116.639 95.8558L116.443 95.6779Z" fill="#0071DC"/>
<path d="M137.246 109.8C136.915 110.159 136.56 110.494 136.183 110.803C136.221 110.881 136.484 110.666 137.246 109.8Z" fill="#0071DC"/>
<path d="M133.52 42.4096L134.95 44.1104C134.526 43.5924 134.142 43.0424 133.801 42.4655C133.775 42.5463 133.951 42.9489 133.52 42.4096Z" fill="#0071DC"/>
<path d="M120.389 27.9395C120.089 27.789 119.805 27.5752 119.491 27.4187L119.488 27.59C120.691 28.3406 121.597 28.7787 120.389 27.9395Z" fill="#0071DC"/>
<path d="M132.97 40.1658C133.048 39.8582 132.078 38.8156 130.927 37.7362L131.1 37.9483C130.514 37.8713 131.809 38.9511 132.97 40.1658Z" fill="#0071DC"/>
<path d="M130.666 37.4783C130.316 37.1327 129.968 36.778 129.646 36.426C129.408 36.4022 130.032 36.8771 130.666 37.4783Z" fill="#0071DC"/>
<path d="M141.564 53.8639C141.262 53.1846 141.042 53.6171 140.931 53.2026C140.579 52.9264 141.282 53.9425 141.773 54.6268C142.265 55.3112 142.575 55.6297 141.564 53.8639Z" fill="#0071DC"/>
<path d="M132.781 38.612L132.909 39.2647L133.698 39.7653L132.781 38.612Z" fill="#0071DC"/>
<path d="M140.156 48.8123L139.518 47.7099C139.361 47.4253 139.181 47.143 139.061 46.9548L138.85 46.623C138.804 46.6602 138.613 46.4372 138.367 46.1251C139.28 47.3987 140.094 48.9221 140.156 48.8123Z" fill="#0071DC"/>
<path d="M138.367 46.1251C137.989 45.5559 137.582 45.0061 137.149 44.4779C137.409 44.8377 137.956 45.611 138.367 46.1251Z" fill="#0071DC"/>
<path d="M135.138 41.1889L135.546 41.8323L136.632 43.2762L135.138 41.1889Z" fill="#0071DC"/>
<path d="M148.413 74.456L148.456 75.8424C148.477 76.1876 148.464 76.5342 148.466 76.794L148.458 77.2292C148.544 77.5207 148.683 76.76 148.64 75.7262C148.565 75.0555 148.517 74.0258 148.413 74.456Z" fill="#0071DC"/>
<path d="M148.393 65.9577C148.447 66.3778 148.445 66.8034 148.388 67.2234L148.804 67.237L148.393 65.9577Z" fill="#0071DC"/>
<path d="M149.402 74.1279C149.518 74.4038 149.721 78.2594 149.701 74.6493C149.624 74.3587 149.377 71.5236 149.402 74.1279Z" fill="#0071DC"/>
<path d="M133.515 112.35L133.995 111.823L133.441 111.443L133.515 112.35Z" fill="#0071DC"/>
<path d="M110.984 140.153C112.093 138.844 112.125 138.616 112.116 138.438C112.106 138.261 112.114 138.095 113.035 136.847C113.347 136.103 111.502 138.855 111.85 138.092C110.821 139.849 110.054 140.635 110.984 140.153Z" fill="#0071DC"/>
<path d="M111.886 138.096C112.046 137.805 112.232 137.485 112.38 137.171C112.086 137.689 111.958 137.936 111.886 138.096Z" fill="#0071DC"/>
<path d="M51.0056 45.1886L50.834 45.5054C50.704 45.7388 50.5879 45.9797 50.4864 46.2267L50.0075 47.3245L50.7502 45.9609C50.7502 45.9609 50.8077 45.7625 50.8733 45.5743C50.939 45.386 51.0056 45.1886 51.0056 45.1886Z" fill="#0071DC"/>
<path d="M50.6583 49.4856C50.6263 49.4409 50.6046 49.3897 50.5948 49.3355C50.5858 49.2941 50.5823 49.2516 50.5845 49.2093C50.587 49.14 50.5845 49.2093 50.5086 49.2713C50.4739 49.3109 50.4328 49.3444 50.3871 49.3705L50.3618 49.3911C50.3618 49.3911 50.3865 49.4214 50.3824 49.4164C50.3783 49.4113 50.428 49.3792 50.4482 49.3626C50.4658 49.3463 50.4844 49.3312 50.5039 49.3172C50.4482 49.3626 50.3616 49.4839 50.3824 49.4164C50.4032 49.3489 50.3618 49.3911 50.3824 49.4164C50.3956 49.4085 50.4075 49.3988 50.4178 49.3875C50.4924 49.3296 50.5487 49.2514 50.58 49.1624C50.5706 49.2521 50.5836 49.3427 50.618 49.4259C50.716 49.5563 50.6871 49.521 50.6583 49.4856Z" fill="#0071DC"/>
<path d="M71.7573 114.067L71.9366 114.173C71.8736 113.938 71.7866 113.71 71.6769 113.493L71.1551 112.337L71.453 113.188C71.5232 113.408 71.5985 113.625 71.661 113.784L71.7573 114.067Z" fill="#0071DC"/>
<path d="M78.0855 85.5681L77.6488 85.891L78.6821 85.5858L78.0855 85.5681Z" fill="#0071DC"/>
<path d="M103.228 83.213C102.203 82.6973 101.151 82.2364 100.076 81.8323C100.933 82.1547 101.756 82.5629 102.531 83.0508C103.013 83.3632 103.242 83.488 103.228 83.213Z" fill="#0071DC"/>
<path d="M77.8792 148.959L77.9088 149.078L77.9884 148.845C78.0323 148.733 78.067 148.62 78.067 148.62L77.8792 148.959Z" fill="#0071DC"/>
<path d="M78.3299 148.364C78.3804 148.326 78.4207 148.275 78.4469 148.218C78.4469 148.218 78.4216 148.238 78.4474 148.167L78.4716 148.248C78.4922 148.273 78.5499 148.344 78.5211 148.309L78.4551 148.228C78.4954 148.293 78.5439 148.352 78.5994 148.405L78.6652 148.351L78.7144 148.504C78.7366 148.49 78.757 148.473 78.7752 148.455C78.7499 148.475 78.7245 148.496 78.6992 148.517C78.6453 148.472 78.6005 148.417 78.5673 148.355C78.5367 148.313 78.5148 148.265 78.5029 148.214C78.4658 148.169 78.4848 148.119 78.4658 148.169C78.4382 148.244 78.3913 148.312 78.3299 148.364Z" fill="#0071DC"/>
<path d="M78.4103 148.349L78.936 149.602L78.4103 148.349Z" fill="#0071DC"/>
<path d="M78.8757 149.693C78.8757 149.693 78.8198 149.739 78.835 149.726C78.8503 149.714 78.8757 149.693 78.835 149.726C78.9676 149.66 78.9524 149.673 78.8757 149.693Z" fill="#0071DC"/>
<path d="M78.9959 149.663L78.9491 149.701C78.9491 149.701 78.9477 149.667 78.9959 149.663Z" fill="#0071DC"/>
<path d="M78.8309 149.721C78.8614 149.7 78.8962 149.686 78.9328 149.68C78.9162 149.691 78.9009 149.704 78.8871 149.718C78.8685 149.721 78.8497 149.722 78.8309 149.721Z" fill="#0071DC"/>
<path d="M78.836 149.717C78.8664 149.693 78.9322 149.639 78.836 149.717C78.8656 149.68 78.8887 149.639 78.9043 149.594L78.3786 148.341L78.9043 149.594C78.8896 149.639 78.8664 149.681 78.836 149.717Z" fill="#0071DC"/>
<path d="M78.7244 148.092C78.7415 148.031 78.7496 147.967 78.7484 147.903C78.6881 147.918 78.6306 147.942 78.5776 147.975C78.6665 147.928 78.6266 148.18 78.7244 148.092Z" fill="#0071DC"/>
<path d="M77.6248 149.133C77.6908 149.214 77.8697 149.278 77.9683 149.357L78.0612 149.13C77.9339 149.15 77.7297 149.241 77.6248 149.133Z" fill="#0071DC"/>
<path d="M77.9807 149.372L77.8389 149.715C78.0625 149.524 78.0536 149.431 77.9807 149.372Z" fill="#0071DC"/>
<path d="M79.019 149.661C78.9982 149.635 78.7918 149.736 78.8307 149.721C78.8537 149.698 78.8794 149.677 78.9071 149.659C78.9379 149.648 78.9699 149.642 79.0024 149.64L79.019 149.661Z" fill="#0071DC"/>
<path d="M76.6703 149.938L76.6636 149.64L76.6331 150.119L76.6703 149.938Z" fill="#0071DC"/>
<path d="M76.0645 150.508C76.0421 150.274 75.7107 150.385 75.7479 150.203C75.6156 150.394 75.5381 150.617 75.524 150.848C75.5776 150.75 75.6554 150.667 75.75 150.608C75.8447 150.548 75.9529 150.514 76.0645 150.508Z" fill="#0071DC"/>
<path d="M75.4414 151.202C75.4778 151.086 75.5055 150.967 75.5244 150.847C75.4716 150.958 75.4433 151.079 75.4414 151.202Z" fill="#0071DC"/>
<path d="M77.3766 150.026C77.3218 149.987 77.2586 149.962 77.1922 149.953C77.1259 149.944 77.0582 149.951 76.995 149.974L77.2758 150.099C77.3063 150.074 77.341 150.055 77.3766 150.026Z" fill="#0071DC"/>
<path d="M77.2846 150.109C77.1778 150.196 77.1015 150.259 77.0659 150.288C77.0303 150.317 77.1543 150.199 77.2846 150.109Z" fill="#0071DC"/>
<path d="M77.4008 150.006L77.3757 150.026C77.3757 150.026 77.4111 150.039 77.4008 150.006Z" fill="#0071DC"/>
<path d="M78.6587 149.366C78.6108 149.607 78.4133 149.995 78.8562 149.928C78.843 149.695 78.5802 149.724 78.6587 149.366Z" fill="#0071DC"/>
<path d="M77.7418 150.165L78.0472 149.991C78.0019 149.936 77.8802 149.9 77.8823 149.789L77.7418 150.165Z" fill="#0071DC"/>
<path d="M77.6771 150.344L77.7422 150.164L77.633 150.228L77.6771 150.344Z" fill="#0071DC"/>
<path d="M76.0596 151.008C76.0198 151.181 75.9222 151.335 75.783 151.444C75.9679 151.361 76.14 151.252 76.2941 151.12C76.2557 151.042 76.2184 150.862 76.0596 151.008Z" fill="#0071DC"/>
<path d="M74.4038 152.628L74.4594 152.643L74.435 152.602L74.4038 152.628Z" fill="#0071DC"/>
<path d="M76.3524 151.139C76.41 151.118 76.4589 151.078 76.4911 151.026C76.5234 150.974 76.5372 150.912 76.5304 150.851C76.4624 150.95 76.3831 151.04 76.2941 151.12C76.3036 151.162 76.3201 151.183 76.3524 151.139Z" fill="#0071DC"/>
<path d="M75.1377 151.625C75.2403 151.616 75.342 151.599 75.4415 151.572C75.3184 151.546 75.1125 151.553 75.1377 151.625Z" fill="#0071DC"/>
<path d="M76.5701 150.6C76.5122 150.571 76.5173 150.566 76.5701 150.6V150.6Z" fill="#0071DC"/>
<path d="M76.5702 150.599C76.5454 150.681 76.532 150.766 76.5304 150.851C76.5859 150.783 76.6286 150.705 76.6564 150.621L76.5702 150.599Z" fill="#0071DC"/>
<path d="M75.1929 154.307C75.1545 154.239 75.1355 154.161 75.1379 154.082C75.1403 154.003 75.164 153.926 75.2064 153.859C75.2489 153.793 75.3086 153.739 75.3792 153.703C75.4498 153.668 75.5287 153.652 75.6074 153.658C75.7226 153.303 74.9985 152.809 74.4587 152.644C74.5329 152.734 74.5989 152.815 74.4396 153.147C74.6224 153.175 75.2348 152.902 75.1747 153.262C74.9212 153.654 74.8326 153.432 74.573 153.476C74.9319 153.595 74.4578 154.192 74.8508 154.477L75.0331 154.101C75.0886 154.149 75.0606 154.331 75.1929 154.307Z" fill="#0071DC"/>
<path d="M74.9732 152.24L75.0795 152.154C74.8852 152.219 74.6782 152.238 74.4754 152.209C74.3806 152.455 74.407 152.56 74.4556 152.629L74.9922 152.191L74.9732 152.24Z" fill="#0071DC"/>
<path d="M78.9758 150.621C78.958 150.608 78.9437 150.59 78.9342 150.57C78.908 150.643 78.9093 150.676 78.9758 150.621Z" fill="#0071DC"/>
<path d="M78.6597 150.669C78.6704 150.61 78.6307 150.499 78.7687 150.42C78.9067 150.341 78.8511 150.521 78.9088 150.592C78.9394 150.474 79.0351 150.22 78.7198 150.309L78.7091 150.368C78.448 150.472 77.9612 150.423 77.9719 150.364C78.1821 150.504 78.4147 150.607 78.6597 150.669Z" fill="#0071DC"/>
<path d="M77.1385 151.255L76.808 151.718L77.175 151.713L77.0844 151.602C77.3704 151.436 77.1782 151.366 77.1385 151.255Z" fill="#0071DC"/>
<path d="M74.2582 152.563L74.1183 152.299L74.1534 152.817L74.2582 152.563Z" fill="#0071DC"/>
<path d="M73.7391 153.063L73.5836 152.852L73.5406 153.09L73.7391 153.063Z" fill="#0071DC"/>
<path d="M87.559 164.016L87.4888 164.2C87.5272 164.146 87.5513 164.082 87.559 164.016Z" fill="#0071DC"/>
<path d="M86.9262 162.404L86.9008 162.373C86.9044 162.431 86.911 162.46 86.9262 162.404Z" fill="#0071DC"/>
<path d="M75.4484 153.897C75.1127 153.868 74.6693 153.759 74.8759 153.961L75.1139 154.128C75.1503 154.068 75.1989 154.017 75.2565 153.977C75.3142 153.937 75.3795 153.91 75.4484 153.897Z" fill="#0071DC"/>
<path d="M77.6437 159.921L77.5733 159.835C77.5051 159.924 77.4361 160.006 77.3664 160.08C77.4653 160.024 77.5753 159.951 77.6437 159.921Z" fill="#0071DC"/>
<path d="M78.0131 158.795L78.2904 159.031C78.2103 158.939 78.1168 158.859 78.0131 158.795Z" fill="#0071DC"/>
<path d="M81.1953 166.722L80.9733 166.988C81.2713 167.022 81.1578 166.862 81.1953 166.722Z" fill="#0071DC"/>
<path d="M80.8971 151.198C81.073 151.169 81.2409 151.104 81.39 151.006C81.0996 151.033 80.7902 150.974 80.8971 151.198Z" fill="#0071DC"/>
<path d="M85.0176 162.868C85.0231 162.892 85.0338 162.913 85.0488 162.932C85.0639 162.95 85.083 162.965 85.1047 162.975C85.1056 162.95 85.0972 162.925 85.0812 162.905C85.0652 162.886 85.0426 162.873 85.0176 162.868Z" fill="#0071DC"/>
<path d="M81.0917 150.114L81.1535 150.189L81.236 150.29L81.2648 150.326L81.6275 150.77L81.587 150.803C81.5279 150.864 81.4616 150.919 81.3896 150.964C81.4934 150.956 81.5938 150.923 81.6824 150.868L81.229 150.313L81.1466 150.212L81.0917 150.114Z" fill="#0071DC"/>
<path d="M68.8311 154.824C68.8311 154.824 68.8571 154.802 68.8727 154.79C68.8883 154.777 68.8487 154.792 68.8311 154.824Z" fill="#0071DC"/>
<path d="M75.4845 151.966C75.4328 152.042 75.3755 152.114 75.3132 152.181C75.391 152.129 75.4508 152.053 75.4845 151.966Z" fill="#0071DC"/>
<path d="M77.6603 154.228C77.5422 154.324 77.6812 154.253 77.6603 154.228V154.228Z" fill="#0071DC"/>
<path d="M76.3809 153.851C76.3845 153.825 76.3828 153.799 76.3756 153.774C76.3685 153.749 76.3563 153.726 76.3396 153.707C76.3696 153.748 76.3842 153.799 76.3809 153.851Z" fill="#0071DC"/>
<path d="M81.9257 149.988C81.9727 149.941 81.9624 149.95 81.9257 149.988V149.988Z" fill="#0071DC"/>
<path d="M77.4038 154.277C77.4733 154.268 77.5412 154.25 77.6055 154.222C77.5353 154.227 77.4667 154.245 77.4038 154.277Z" fill="#0071DC"/>
<path d="M77.5167 154.362C77.4759 154.395 77.4403 154.424 77.4097 154.449C77.3791 154.474 77.4429 154.49 77.5167 154.362Z" fill="#0071DC"/>
<path d="M77.8303 154.064C77.7724 154.124 77.7075 154.177 77.637 154.222C77.6624 154.201 77.6933 154.218 77.6924 154.227C77.7414 154.175 77.7875 154.121 77.8303 154.064Z" fill="#0071DC"/>
<path d="M70.6746 164.459L70.6456 164.423C70.4815 164.523 70.548 164.511 70.6746 164.459Z" fill="#0071DC"/>
<path d="M75.8808 157.692C75.3172 157.715 75.4644 157.637 75.6473 157.571C75.6473 157.571 75.2899 157.619 74.9333 157.658L74.1839 157.773C74.1839 157.773 74.5725 157.784 75.0116 157.754C75.4508 157.723 75.8808 157.692 75.8808 157.692Z" fill="#0071DC"/>
<path d="M85.4526 166.595C85.4751 166.379 85.4756 166.161 85.4541 165.945L85.4458 165.801C85.4458 165.801 85.4377 165.698 85.4583 165.723L85.5451 165.737L85.6268 165.754L85.5312 165.782L85.5009 165.806C85.5009 165.806 85.5009 165.806 85.4984 165.876L85.495 165.954L85.5782 166.728L85.6251 167.085L85.5491 167.147C85.5019 167.185 85.4532 167.208 85.4029 167.216C85.2516 167.289 85.2561 167.336 85.6379 167.503C85.6249 167.453 85.6255 167.401 85.6396 167.351C85.637 167.285 85.6852 167.313 85.6447 167.119C85.6043 166.925 85.5443 166.469 85.4951 166.089L85.4817 165.948C85.4817 165.948 85.4622 165.821 85.4787 165.841L85.549 165.834L85.708 165.822C85.8251 165.811 85.9515 165.8 86.0838 165.776C86.3212 165.721 86.5458 165.621 86.745 165.48C86.8969 165.356 86.917 165.205 86.8079 165.092L87.1229 164.962C87.0571 165.015 87.085 165.06 87.0192 165.114C87.369 165.005 87.333 164.857 87.2068 164.641L87.0104 164.338C86.984 164.233 86.8028 164.146 87.0326 164.076C87.2625 164.006 87.5523 163.803 87.5297 164.024C87.5693 163.915 87.5994 163.803 87.6196 163.689C87.6559 163.517 87.6338 163.324 87.6471 163.33C87.7422 163.126 87.8743 163.195 87.7783 163.408C87.8492 163.223 87.8955 163.03 87.9161 162.833L87.9274 162.723L87.9279 162.672C87.9279 162.672 87.8503 162.66 87.8095 162.651L86.8663 162.529C86.8567 162.485 86.8598 162.438 86.8754 162.395C86.8754 162.395 86.8754 162.395 86.9108 162.366L87.0023 162.334C87.1223 162.295 87.2524 162.247 87.3866 162.205C87.5208 162.163 87.6509 162.116 87.7626 162.066L87.6307 161.905C87.5101 161.685 87.3449 161.494 87.1457 161.342C86.818 160.827 87.4283 161.481 87.3983 161.321C87.3525 161.262 87.3023 161.208 87.2481 161.157C87.1211 161.069 86.9808 161.002 86.8324 160.958C86.6505 160.884 86.4539 160.851 86.2575 160.864C86.0595 160.714 86.1635 160.604 86.4887 160.599C86.7017 160.603 86.9099 160.662 87.0928 160.771C87.3287 160.909 87.523 161.107 87.6555 161.346C87.663 161.195 87.639 161.044 87.5852 160.902C87.5313 160.761 87.4486 160.632 87.3424 160.524C87.2362 160.417 87.1087 160.332 86.968 160.276C86.8274 160.22 86.6765 160.194 86.5251 160.199L86.317 160.193L86.2049 160.2L86.1745 160.225C86.1255 160.248 86.072 160.26 86.0178 160.26C85.9568 160.266 85.8953 160.255 85.8402 160.228C85.8172 160.217 85.797 160.2 85.7807 160.18C85.7644 160.16 85.7524 160.137 85.7454 160.112C85.7454 160.112 85.8618 160.017 85.9311 160.02C85.8864 159.934 85.8612 159.84 85.8574 159.743C85.8589 159.683 85.8443 159.645 85.8604 159.623C85.6849 159.52 85.5246 159.393 85.3841 159.246C85.4165 159.338 85.5858 159.586 85.69 159.838C85.7642 159.929 85.7817 160.074 85.7407 160.158C85.7358 160.201 85.7237 160.242 85.705 160.28C85.6684 160.318 85.6201 160.342 85.568 160.35C85.4814 160.244 85.3065 160.185 85.0261 160.296C85.104 159.988 84.8564 160.005 84.5602 159.953L84.6843 159.557C84.342 159.592 84.3153 159.808 84.0881 159.943C83.7485 159.816 83.7548 159.483 83.7371 159.203C83.197 158.996 84.0126 159.819 83.3133 159.717C82.8909 159.448 82.5214 159.522 81.9057 159.646C81.6113 159.441 82.022 159.417 81.93 159.273L81.5651 159.529C81.4977 159.508 81.5397 159.415 81.5678 159.367C81.2911 159.441 81.4479 159.768 81.0616 159.78C80.8603 160.205 80.398 158.967 79.8293 159.356C79.7263 159.23 79.9415 159.121 79.935 158.958C79.4945 159.027 79.0725 159.186 78.6951 159.424L78.2853 159.077C78.578 159.435 78.0606 159.732 77.6374 159.968C77.7019 160.103 77.777 160.233 77.862 160.356L77.2279 160.479C77.1661 160.403 77.2536 160.273 77.3767 160.113C77.3379 160.142 77.3007 160.172 77.2653 160.204C77.0963 159.997 77.2281 159.797 77.416 159.593L77.5708 159.803C77.7723 159.61 77.9097 159.36 77.9642 159.087C77.8996 159.13 77.8251 159.156 77.7477 159.162C77.7711 159.142 77.7899 159.117 77.8032 159.088C77.8164 159.06 77.8238 159.03 77.8248 158.999C77.796 158.963 77.754 159.056 77.6128 159.121L77.5556 158.638L77.5074 158.837C77.3736 158.741 77.2585 158.621 77.1678 158.483C76.4624 159.079 75.5832 159.431 74.6622 159.486C75.0925 159.266 75.4942 158.995 75.8583 158.677C75.6609 158.839 75.8607 158.835 76.0763 158.769C76.2919 158.702 76.5277 158.619 76.619 158.679C76.5144 158.613 76.7118 158.452 76.7868 158.399C76.8618 158.346 76.6222 158.466 76.425 158.534C76.2278 158.603 75.9929 158.677 75.9929 158.677C76.3574 158.379 76.1776 158.459 76.25 158.341C75.5216 158.885 75.327 158.657 74.7837 158.798C75.136 158.619 75.5475 158.452 75.6805 158.511C75.9286 158.309 75.5842 158.455 75.1562 158.603C74.7283 158.75 74.2351 158.901 74.4711 158.725C74.5496 158.728 74.5082 158.77 74.75 158.674C74.2353 158.808 74.1309 158.649 74.6264 158.522L74.6907 158.529C74.5973 158.494 74.4991 158.475 74.3996 158.472C74.3996 158.472 74.3996 158.472 74.379 158.447L74.4094 158.422L74.465 158.376C74.4876 158.344 74.5039 158.308 74.5131 158.27C74.5313 158.137 74.408 158.027 73.9201 158.081L75.3426 157.87C74.8721 157.914 74.3985 157.908 73.9293 157.854C73.6637 157.819 73.4041 157.748 73.1577 157.643C72.9797 157.57 72.8742 157.513 72.8742 157.513C73.1864 157.544 73.8384 157.474 74.4479 157.456C74.8615 157.415 75.2789 157.444 75.6824 157.542C75.8561 157.476 76.028 157.428 75.8965 157.308C75.7743 157.324 74.7604 157.395 74.7739 157.308L75.5192 157.187C75.7253 157.141 75.9347 157.111 76.1455 157.097C75.947 157.133 75.0813 156.889 75.2911 156.743C75.4016 156.795 76.1577 156.977 76.2122 157.034C76.1094 156.965 76.0164 156.882 75.9358 156.788C75.8551 156.693 75.7864 156.588 75.7313 156.476C75.7672 156.623 76.3506 156.769 76.5847 156.839C76.4282 156.782 76.7923 156.67 76.7966 156.582C76.7188 156.571 76.6405 156.565 76.562 156.563C76.7477 156.47 76.6224 156.245 76.6164 155.896C76.6103 155.548 76.5384 155.253 76.8251 155.036C76.8541 155.206 77.2617 155.891 77.5988 155.725C77.4863 155.329 77.0015 153.857 77.2928 153.232L77.525 153.32L77.7338 152.821C77.9044 153.723 77.9722 154.642 77.9358 155.559C78.2566 155.508 78.1583 155.697 78.4556 155.421C78.6957 155.477 78.4823 155.794 78.4036 155.884L79.2178 155.362C78.9011 155.057 79.4861 154.554 79.2046 154.313L78.7108 155.33C78.5396 155.069 78.4681 154.755 78.5092 154.445C78.5503 154.135 78.7013 153.85 78.9348 153.641C79.1828 153.666 79.3484 154.313 79.4584 154.417C79.4253 154.242 79.775 153.771 79.8764 153.823L79.8112 154.188C80.2088 154.065 79.8968 153.352 80.521 153.373C80.6425 153.273 81.251 153.492 81.0962 153.282C80.3874 152.863 79.7968 152.271 79.3797 151.562C79.7801 151.475 80.1889 151.435 80.5981 151.442C81.058 151.571 80.9376 152.385 81.3465 152.513C81.285 152.4 81.2672 152.268 81.2964 152.142C81.4848 152.115 81.4909 152.463 81.723 152.189C81.4731 151.821 82.2849 151.73 81.6004 151.801C81.6285 151.745 81.6684 151.695 81.7173 151.655C81.7661 151.615 81.8229 151.586 81.8839 151.57C81.9244 151.537 81.9855 151.529 82.0485 151.503C82.0777 151.484 82.1048 151.461 82.1295 151.437L82.2459 151.342C82.2459 151.342 82.2813 151.313 82.2965 151.3C82.1995 151.239 82.1184 151.156 82.0599 151.058C82.0015 150.959 81.9673 150.848 81.9603 150.733C81.9023 150.517 81.794 150.317 81.6442 150.15C81.7586 150.143 81.8674 150.098 81.9541 150.023C81.9318 149.857 81.8745 149.697 81.7859 149.555C81.6973 149.413 81.5795 149.291 81.4403 149.198C81.281 149.099 81.0943 149.053 80.907 149.067C80.7197 149.08 80.5415 149.153 80.3979 149.275C80.2671 149.238 79.9508 149.337 79.9284 149.103C79.902 149.225 79.9351 149.4 79.7864 149.538C79.2385 149.498 80.0945 149.203 79.5731 149.039C79.7338 149.236 79.3989 149.653 79.2742 149.965C79.6015 150.211 79.8216 149.602 79.9565 149.282C80.1292 149.556 80.2188 149.875 80.2143 150.199C80.2099 150.524 80.1117 150.84 79.9315 151.111C79.597 151.569 79.5216 150.991 79.5002 151.11C78.6509 151.702 79.4452 152.417 78.5338 152.665C78.0521 152.612 78.0928 152.124 77.8602 151.995C78.1138 151.602 78.5236 151.722 78.7441 151.517L78.3462 151.598C78.3639 151.492 78.4096 151.392 78.4783 151.309C78.5471 151.227 78.6366 151.164 78.7377 151.127C78.3212 151.071 77.3912 152.226 76.5798 152.493C76.5468 152.68 76.4378 152.929 76.6155 152.96L76.7749 152.763C77.1343 152.831 76.6669 153.364 76.9974 153.263C76.8619 153.634 76.7753 154.117 76.311 154.303L75.9887 154.053C76.0629 154.144 76.3759 154.031 76.3989 153.852C76.3624 154.118 75.493 153.911 75.6648 154.452L76.1012 154.449C75.9657 154.82 75.9312 155.429 75.5248 155.593L73.6467 153.458L75.5106 155.596C75.8964 155.769 75.5485 155.498 76.0708 155.652C75.5046 155.382 76.901 154.974 76.2061 154.784C76.7779 154.999 76.7521 154.616 77.3421 154.698C77.2597 154.597 77.0741 154.597 77.3846 154.419C77.3738 154.373 77.3693 154.326 77.3711 154.279C77.281 154.293 77.1888 154.28 77.1057 154.243C77.0436 153.898 77.479 153.543 77.5227 153.297C77.7218 153.21 77.5559 153.471 77.7082 153.524L77.7734 153.159C77.9589 153.386 78.5147 153.168 78.2413 153.619L78.5855 153.338C78.7332 153.322 78.8752 153.272 78.9997 153.191C79.1241 153.109 79.2275 153 79.3013 152.871C79.5004 152.784 79.4961 152.283 79.5036 152.571L79.9166 151.981L79.966 152.042C80.2299 151.795 80.4677 151.522 80.6758 151.227C80.7938 151.083 80.9317 150.956 81.0854 150.85C81.169 150.797 81.2591 150.754 81.3535 150.724L81.4092 150.679L81.4396 150.654L81.1593 150.31C81.1163 150.273 81.08 150.229 81.0521 150.179C81.0138 150.117 80.9863 150.048 80.9708 149.976C80.9657 150.02 80.9503 150.061 80.926 150.097L80.9007 150.118C80.845 150.163 80.8248 150.18 80.9007 150.118C80.9282 150.11 80.9567 150.106 80.9852 150.108C80.9852 150.108 80.9763 150.014 80.9455 149.997L80.7765 150.017L80.1267 149.159L80.0761 149.201C80.0052 149.259 79.9344 149.317 79.8635 149.374C79.6495 149.651 79.3996 149.897 79.1204 150.107L79.3306 150.365C79.0352 150.616 78.7874 150.918 78.5991 151.257L78.815 151.459C78.679 151.881 77.9311 151.937 77.4901 152.347C77.4504 152.237 77.5833 152.162 77.7229 152.157C76.7387 152.119 76.8751 153.506 76.067 153.56C76.0516 153.63 76.0126 153.694 75.9565 153.739C75.9004 153.785 75.8305 153.811 75.7582 153.812C75.77 153.806 75.7804 153.797 75.7886 153.787C75.7662 153.797 75.7469 153.812 75.7329 153.832C75.6443 153.837 75.5464 153.842 75.4568 153.856C75.5399 153.869 75.6247 153.868 75.7076 153.853C75.5803 153.975 75.4734 154.116 75.3911 154.271L75.1223 154.087C75.1223 154.087 75.1223 154.087 75.092 154.112C74.871 154.141 75.0703 154.323 75.2997 154.439C75.2545 154.551 75.2164 154.667 75.1855 154.784C74.9235 154.67 74.8055 154.825 74.6876 154.98C74.6265 155.08 74.5354 155.157 74.4274 155.202C74.3194 155.246 74.2002 155.255 74.0871 155.227C74.1281 155.37 73.8979 155.625 73.7278 155.882C73.5577 156.139 73.4854 156.391 73.7658 156.507C73.6749 156.489 73.5825 156.531 73.6957 156.421C73.4239 156.584 73.1318 156.764 73.1548 156.947L72.5342 156.983C72.6132 157.144 72.7151 157.293 72.8367 157.426C72.2068 157.687 71.8634 157.825 71.6959 157.558C71.7108 157.746 71.6755 157.934 71.5936 158.104C71.5546 158.165 71.5394 158.238 71.5509 158.309C71.5624 158.381 71.5999 158.445 71.6561 158.491L71.2182 158.554C71.0005 158.731 71.3841 158.881 70.8315 159.113C70.4778 159.298 70.1477 159.526 69.8484 159.79L69.7016 159.91C69.6611 159.943 69.5952 159.997 69.6665 159.98L69.9259 160.029C70.1178 160.058 70.323 160.092 70.5384 160.118C71.3619 160.182 72.1702 160.374 72.9342 160.686C73.2524 160.342 73.3307 160.438 73.4388 160.56C73.5469 160.682 73.7124 160.833 74.0497 160.575C73.9533 160.746 74.0981 160.872 73.6565 160.972C74.0514 160.964 74.4449 161.017 74.8232 161.13C75.1861 161.203 75.563 161.157 75.8988 161C75.9218 161.183 75.5713 161.209 75.6151 161.324C75.7148 161.302 75.9915 161.227 76.0486 161.349C76.1057 161.471 75.8416 161.468 75.6422 161.513C76.7212 161.667 76.9195 161.134 77.0732 160.63C77.3674 160.929 77.4937 160.918 77.7797 160.617C77.8578 160.806 77.9992 161.01 77.6189 161.009C77.8222 161.062 78.83 161.459 78.9296 161.075C78.9734 161.191 79.2128 161.164 79.2767 161.128C79.585 161.237 79.9033 161.315 80.227 161.362L80.1363 161.251C80.424 160.797 80.5337 161.221 80.9162 161.245L80.8808 161.274C81.6378 161.809 81.2797 161.184 82.0127 161.772L82.0406 161.455C82.2777 160.815 82.6827 162.024 83.231 161.879L83.1048 161.663C83.4225 161.504 83.6167 162.734 83.8524 162.878C83.906 162.944 83.7512 162.961 83.6483 162.969C84.2363 163.524 83.8398 162.594 84.3743 162.629C84.4151 162.864 84.1127 163.145 84.4481 163.267C84.4894 163.317 84.5679 163.32 84.6911 163.295C84.8644 163.246 85.0434 163.218 85.2236 163.214C85.3474 163.205 85.4704 163.187 85.5912 163.158C85.6808 163.144 85.752 163.128 85.8315 163.122L85.9468 163.128L86.0145 162.467L86.0448 162.443C86.0535 162.397 86.069 162.353 86.0906 162.313C86.0552 162.342 86.0495 162.397 86.0906 162.313C86.0708 162.333 86.0487 162.351 86.0248 162.366C85.8456 162.395 85.6604 162.437 85.4711 162.473L85.4255 162.511L85.3141 162.602C85.1724 162.717 85.1405 162.802 85.3221 162.932C85.2747 162.942 85.2256 162.942 85.1783 162.931C85.185 162.972 85.1779 163.013 85.1582 163.049C85.1386 163.085 85.1075 163.113 85.0699 163.129C85.0699 163.129 85.0699 163.129 85.0446 163.15L85.0858 163.2C85.1185 163.235 85.1488 163.272 85.1765 163.311L85.3791 163.508C85.0116 163.337 85.1689 163.612 85.0983 163.939C85.0277 164.266 84.7621 164.323 84.59 163.874L84.5257 163.868C84.4928 163.828 84.4498 163.93 84.4042 163.967C84.3401 164.016 84.2628 164.043 84.1827 164.047L84.193 163.946C84.0651 163.915 83.9301 163.935 83.8162 164.001C83.6756 164.074 83.5515 164.176 83.4518 164.299C83.3307 164.213 83.4361 164.135 83.4509 164.081C82.651 163.783 82.5687 163.817 81.8218 164.225L81.7854 163.901C81.5829 164.066 80.6552 163.25 79.8002 163.536C79.8074 163.508 79.8201 163.482 79.8376 163.459C79.8551 163.436 79.877 163.417 79.902 163.403C78.951 163.674 77.8396 162.251 77.357 163.386L76.7065 163.622C77.4832 163.829 76.5262 164.114 76.8352 164.359C76.5164 164.392 76.088 163.908 76.4601 163.899L76.5137 163.965C76.7227 163.373 75.5779 163.635 75.6437 163.219C74.1191 163.068 72.6689 162.552 71.2469 162.35L71.3541 162.843L70.8528 162.756C70.7456 162.625 70.726 162.363 71.0814 162.426C70.9208 162.137 70.4536 162.577 70.4391 162.673C69.7586 162.387 70.7802 162.151 70.5658 162.115L70.2732 162.119L70.2856 162.134C70.0321 162.299 69.9839 162.498 69.5551 162.427C69.2991 162.3 69.4566 162.121 69.3533 162.087C69.25 162.054 69.3533 162.087 69.3203 162.047L69.2578 162.477L69.2512 162.541C69.2035 162.689 69.1848 162.646 69.2842 162.581L70.6817 161.844L68.6568 161.596L69.3126 162.575C69.292 162.587 69.2733 162.603 69.257 162.62C69.2733 162.603 69.2921 162.587 69.3126 162.575L68.6281 162.057C68.459 162.077 68.3672 162.068 68.5543 162.369L68.4307 162.218C68.3977 162.178 68.3096 162.132 68.3325 162.18C68.3553 162.229 68.3244 162.305 68.3598 162.276C68.3935 162.232 68.4368 162.197 68.4864 162.172C68.5218 162.144 68.4864 162.172 68.4864 162.172L67.6394 161.972L67.6271 161.141C67.6271 161.141 67.6575 161.116 67.6271 161.141C67.6108 161.158 67.5921 161.174 67.5715 161.186C67.5715 161.186 67.5921 161.211 67.6018 161.161L67.1494 160.008C67.1605 159.994 67.1743 159.983 67.1899 159.975C67.1392 160.016 66.8806 160.412 66.7724 160.156C66.9054 160.094 67.0348 160.025 67.1601 159.949C67.1814 159.927 67.2052 159.907 67.2309 159.891C67.2436 159.9 67.2536 159.912 67.2598 159.926C67.2509 159.936 67.2407 159.944 67.2294 159.951L67.2699 159.918L67.4551 159.876L67.5007 159.839L67.4645 160.011L67.4948 159.987L67.5606 159.933C67.6113 159.892 67.6619 159.85 67.6887 159.769C67.855 159.55 67.9938 159.327 67.6141 159.275C67.9163 159.087 67.8556 159.499 68.1928 159.467C68.558 158.664 69.6753 158.4 70.3436 157.627C70.2694 157.536 70.0296 157.522 70.0762 157.248C70.0762 157.248 70.2691 157.267 70.4638 157.268L70.8524 157.279C70.9548 157.094 70.5208 156.666 71.0573 156.682C70.954 156.649 70.8007 156.606 70.8841 156.47C72.6867 155.403 73.4301 153.172 75.5484 152.418C75.2001 152.467 75.3079 152.32 75.4493 152.162C75.3132 152.223 75.2427 151.961 75.1074 151.878L76.0028 151.559C75.7944 151.149 76.6016 150.877 76.364 150.524L76.2316 150.775C76.1214 150.175 75.0906 150.411 74.6908 149.921C74.821 150.597 73.3826 150.148 73.4973 151.156C73.3048 151.179 73.4372 150.928 73.2789 150.889C73.359 151.194 73.2658 151.379 72.9218 151.567L72.8764 151.512C72.2085 152.326 71.702 152.471 70.7812 153.172L71.062 153.33C70.9318 153.421 70.7784 153.473 70.6197 153.481C70.7558 154.009 71.1243 152.993 71.3095 153.54C70.6339 153.343 70.0857 154.8 69.4301 154.452C69.1654 154.727 69.76 154.629 69.4911 154.899L69.2887 154.837L69.3979 155.084C69.3102 155.143 69.2057 155.17 69.1007 155.163C68.9956 155.156 68.896 155.115 68.8174 155.045C68.868 155.003 68.9037 154.882 68.9419 154.825C68.5633 154.899 68.3629 155.542 68.2172 155.56L68.5685 155.391C67.799 156.247 66.667 156.927 66.1902 157.913L66.3518 157.967C66.3019 158.079 66.2298 158.179 66.1399 158.263C66.05 158.346 65.9442 158.411 65.8288 158.453L65.7225 158.539L65.6213 158.622C65.5649 158.652 65.5149 158.693 65.4745 158.742C65.3665 158.917 65.2859 159.108 65.2357 159.307C65.1826 159.513 65.1654 159.726 65.1851 159.937L65.1356 159.877C65.3041 160.281 65.5221 160.663 65.7847 161.013C65.6022 160.893 65.6429 161.129 65.7169 161.312C65.7909 161.496 65.9244 161.732 65.5937 161.564C65.8373 161.742 66.115 161.867 66.4095 161.933L65.7533 160.096C65.6356 160.52 65.6671 160.621 65.7223 160.761L65.7847 161.013C65.8641 161.172 65.9608 161.321 66.073 161.459C66.0114 161.559 65.9588 161.664 65.9156 161.773C66.0511 161.873 66.1984 161.956 66.3541 162.02C66.5425 162.142 66.7413 162.247 66.9482 162.335C66.6603 162.292 66.6858 162.406 66.7391 162.564C66.7925 162.723 66.8684 162.888 66.43 162.774C66.5692 162.931 66.7395 163.057 66.9301 163.145C67.1207 163.233 67.3276 163.28 67.5376 163.284L66.301 161.769C66.2631 162.042 66.2876 162.319 66.3725 162.581C66.4574 162.842 66.6005 163.081 66.7912 163.279C67.088 163.642 67.3722 163.856 67.7125 164.294C68.0379 164.196 68.0359 164.08 67.9424 163.997C67.8489 163.913 67.6287 163.798 67.4297 163.658C67.0183 163.371 66.8196 162.911 66.9721 163.098C66.9855 162.876 67.1341 162.965 67.3749 163.105C67.6076 163.233 67.8541 163.333 68.1096 163.406C68.3313 163.46 68.3897 163.614 68.5362 163.815L67.9028 163.431C67.8944 163.705 67.9838 163.972 68.155 164.185C68.2798 164.326 68.4298 164.443 68.5975 164.53C68.6907 164.575 68.788 164.611 68.888 164.638L69.0514 164.673C69.0514 164.673 69.072 164.698 69.1157 164.679C69.1594 164.66 69.0505 164.682 69.0445 164.695C68.9843 164.703 68.9231 164.699 68.8649 164.682C69.0645 164.771 69.0828 164.773 69.1573 164.771C69.2286 164.768 69.2995 164.758 69.3691 164.742C69.4465 164.717 69.5294 164.715 69.6079 164.736C69.6863 164.757 69.757 164.8 69.8116 164.86C70.0458 164.475 70.2353 164.935 70.3482 164.422L69.6715 164.461C70.0612 164.37 70.4764 163.804 71.0556 164.172C70.9471 164.292 70.814 164.386 70.6655 164.449C70.8139 164.63 71.0198 164.387 71.1916 164.566C71.0797 165.07 70.368 164.591 69.9304 164.923C70.1159 165.15 70.7293 164.641 70.4658 165.175C70.8362 164.503 71.1626 165.347 71.7081 164.868L71.6444 165.172C71.7102 165.119 71.903 165.003 72.0439 165.031L71.7412 165.405C72.1751 165.109 72.4624 165.792 72.8618 165.651C72.0771 165.568 72.73 165.262 72.4229 164.999C73.446 164.703 72.8861 165.866 73.9761 165.868C73.8203 165.895 73.4407 165.616 73.6834 165.51C73.8965 165.593 74.0852 165.728 74.2323 165.903C74.9625 165.93 74.1591 165.576 74.4902 165.423C74.6895 165.833 74.8584 165.316 75.186 165.242L75.1449 165.554C75.9489 165.856 75.4656 164.913 76.1537 165.26L75.7881 165.659L76.2605 165.577L76.137 165.921C76.5899 165.711 76.7161 165.794 77.1263 165.955C77.1098 165.886 77.1106 165.814 77.1287 165.745C77.1469 165.676 77.1818 165.613 77.2303 165.561C77.2788 165.509 77.3394 165.469 77.4068 165.446C77.4741 165.423 77.5461 165.417 77.6163 165.429C77.8445 165.646 77.4434 165.713 77.9614 165.728C77.8223 165.908 77.6642 166.139 77.4739 165.823C77.4401 165.926 77.3388 166.009 77.301 166.107C77.5447 166.354 77.9699 166.234 78.1536 166.252C78.0803 166.236 78.0121 166.202 77.9549 166.154L78.7604 165.807C78.8676 165.938 78.7613 166.025 78.6559 166.103C78.8149 166.091 78.9351 165.959 79.1624 165.959C79.0328 166.182 79.0404 166.47 78.728 166.532L79.4403 166.371C79.4749 166.486 79.7665 166.719 79.6652 166.802C80.0442 166.997 80.6918 166.426 81.1987 166.685C81.252 166.625 81.3252 166.587 81.4047 166.576C81.8982 166.695 82.297 167.059 82.9236 166.783L83.2073 167.275C83.6759 167.229 82.8124 166.647 83.609 166.569C84.4056 166.49 83.9001 166.987 84.2093 167.138C84.3244 167.006 84.4472 166.88 84.5772 166.762C84.7133 166.702 84.8669 166.652 85.0181 166.579C85.0959 166.55 85.1709 166.514 85.2425 166.472L85.3786 166.411C85.4141 166.382 85.3791 166.225 85.3834 166.138C85.3878 166.05 85.3848 165.943 85.3768 165.84L85.3785 165.687C85.3791 165.636 85.3724 165.566 85.4022 165.592L85.6441 165.63C85.5994 165.641 85.5536 165.647 85.5077 165.649L85.4424 165.652L85.4413 165.754C85.4191 166.016 85.4533 166.316 85.4526 166.595ZM85.6012 160.297C85.6388 160.286 85.6758 160.273 85.7119 160.257C85.7119 160.257 85.7524 160.224 85.7727 160.208C85.7929 160.191 85.8233 160.167 85.8304 160.279C85.8375 160.391 85.7426 160.502 85.7169 160.481C85.6913 160.459 85.6997 160.377 85.6012 160.297ZM77.0334 159.207C77.1346 159.125 77.1892 159.181 77.2729 159.315C77.2268 159.323 77.1793 159.317 77.1366 159.298C77.094 159.278 77.058 159.247 77.0334 159.207ZM78.7504 152.95C79.022 152.88 78.9273 152.899 78.7504 152.95V152.95ZM78.268 153.176C78.2669 153.2 78.2747 153.224 78.2899 153.242C78.3051 153.261 78.3267 153.273 78.3505 153.277C78.3314 153.192 78.4133 153.116 78.5269 153.049C78.4402 153.035 78.3515 153.041 78.2804 153.191L78.268 153.176ZM69.2973 162.453L69.3379 162.192L69.3997 162.268L69.3244 162.279L69.2932 162.448L69.2973 162.453Z" fill="#0071DC"/>
<path d="M77.9672 158.924C77.9863 158.983 77.991 159.046 77.9811 159.107C78.0371 159.061 78.0479 159.002 77.9672 158.924Z" fill="#0071DC"/>
<path d="M81.2337 166.674C81.2191 166.685 81.2052 166.696 81.1921 166.708L81.2337 166.674Z" fill="#0071DC"/>
<path d="M81.6054 152.488C81.5199 152.52 81.4267 152.525 81.3382 152.503C81.3837 152.559 81.4608 152.58 81.6054 152.488Z" fill="#0071DC"/>
<path d="M76.5569 155.348L76.7565 155.075C76.7186 155.113 76.6733 155.142 76.6234 155.161C76.5735 155.18 76.5201 155.189 76.4668 155.186C76.5172 155.237 76.6288 155.281 76.5569 155.348Z" fill="#0071DC"/>
<path d="M76.039 153.297C76.0498 153.237 76.1153 153.235 76.1219 153.17L76.0308 153.058C75.8662 153.21 75.838 153.393 76.039 153.297Z" fill="#0071DC"/>
<path d="M75.6586 154.743C75.4643 154.557 75.3692 154.761 75.225 154.946C75.225 154.946 75.225 154.946 75.2553 154.921C75.4295 155.259 75.5496 154.992 75.6586 154.743Z" fill="#0071DC"/>
<path d="M75.2152 154.996C75.182 155.031 75.1446 155.061 75.1038 155.087L74.0855 153.933C74.1 153.916 74.1171 153.902 74.1361 153.891C74.0825 153.826 74.0825 153.826 74.0484 153.887L75.1327 155.122C75.1558 155.078 75.1834 155.035 75.2152 154.996Z" fill="#0071DC"/>
<path d="M77.8992 153.747C77.7719 153.767 78.0629 154.051 77.9472 154.002C78.0645 154.352 78.2403 153.224 77.8992 153.747Z" fill="#0071DC"/>
<path d="M74.9585 154.196L75.2304 154.395L75.1576 154.109L74.9585 154.196Z" fill="#0071DC"/>
<path d="M76.4926 153.213L76.1556 153.378C76.1885 153.419 76.1788 153.469 76.1497 153.526C76.331 153.387 76.5605 153.275 76.4926 153.213Z" fill="#0071DC"/>
<path d="M76.1506 153.525C76.0621 153.579 75.9945 153.661 75.959 153.758C76.0354 153.691 76.1001 153.613 76.1506 153.525Z" fill="#0071DC"/>
<path d="M75.2732 153.796L75.4004 153.776L75.6144 153.635L75.2732 153.796Z" fill="#0071DC"/>
<path d="M79.5369 150.71L79.7839 150.382C79.7442 150.272 79.6128 150.286 79.5293 150.422C79.4459 150.557 79.4203 150.671 79.5369 150.71Z" fill="#0071DC"/>
<path d="M78.0379 150.807C78.1693 150.792 78.2197 150.843 78.3312 150.887L78.0757 150.574L78.0379 150.807Z" fill="#0071DC"/>
<path d="M78.8689 149.985C78.8251 149.869 79.1042 149.364 78.735 149.707C78.7747 149.818 78.5318 150.151 78.8689 149.985Z" fill="#0071DC"/>
<path d="M80.3857 152.07L80.4534 151.998L80.0017 151.517L80.3857 152.07Z" fill="#0071DC"/>
<path d="M77.358 156.721C77.8223 156.536 77.1752 156.332 77.6329 156.211C77.6109 156.019 77.2606 156.313 77.2601 156.137C77.1496 156.446 76.9755 156.47 77.358 156.721Z" fill="#0071DC"/>
<path d="M77.2601 156.137C77.2786 156.08 77.2939 156.022 77.3058 155.964C77.278 156.017 77.2624 156.076 77.2601 156.137Z" fill="#0071DC"/>
<path d="M76.4974 151.4L76.8073 151.273L76.5115 151.262L76.4974 151.4Z" fill="#0071DC"/>
<path d="M76.5387 150.634L76.8946 150.874L76.7453 150.474C76.7112 150.535 76.647 150.663 76.5387 150.634Z" fill="#0071DC"/>
<path d="M84.9788 159.266L84.9368 159.359C84.9572 159.477 85.0399 159.486 85.1578 159.558L84.9788 159.266Z" fill="#0071DC"/>
<path d="M87.664 164.529C87.6786 164.512 87.6956 164.498 87.7146 164.487C87.7146 164.487 87.5778 164.464 87.4837 164.432L87.2904 164.371L87.664 164.529Z" fill="#0071DC"/>
<path d="M83.741 167.639C83.8809 167.659 84.023 167.659 84.1631 167.64C84.2407 167.652 84.3093 167.571 84.3732 167.535C84.4381 167.493 84.5055 167.455 84.5751 167.421C84.4671 167.507 84.3381 167.563 84.2013 167.583C84.104 167.557 84.0098 167.522 83.92 167.476C83.7787 167.406 83.7287 167.397 83.741 167.639Z" fill="#0071DC"/>
</g>
<defs>
<clipPath id="clip0_13_121">
<rect width="119.568" height="130.151" fill="white" transform="matrix(-0.632446 -0.774605 0.774595 -0.632458 76.408 175.057)"/>
</clipPath>
</defs>
</svg>
