<svg width="78" height="13" viewBox="0 0 78 13" fill="none" xmlns="http://www.w3.org/2000/svg">
<path d="M6.92812 2.35497L7.80885 4.11643C7.92895 4.36163 8.24922 4.59683 8.51944 4.64187L10.1158 4.90709C11.1366 5.07723 11.3768 5.81784 10.6412 6.54845L9.40017 7.78948C9.19 7.99966 9.0749 8.40499 9.13995 8.69523L9.49525 10.2315C9.77548 11.4475 9.12995 11.9179 8.05405 11.2824L6.55781 10.3966C6.28759 10.2365 5.84222 10.2365 5.56699 10.3966L4.07074 11.2824C2.99986 11.9179 2.34931 11.4425 2.62955 10.2315L2.98484 8.69523C3.0499 8.40499 2.9348 7.99966 2.72463 7.78948L1.4836 6.54845C0.752989 5.81784 0.988185 5.07723 2.00903 4.90709L3.60536 4.64187C3.87058 4.59683 4.19084 4.36163 4.31094 4.11643L5.19168 2.35497C5.67207 1.39917 6.45272 1.39917 6.92812 2.35497Z" fill="#FEC400" stroke="#FEC400" stroke-width="1.5" stroke-linecap="round" stroke-linejoin="round"/>
<path d="M23.2274 2.35497L24.1081 4.11643C24.2282 4.36163 24.5485 4.59683 24.8187 4.64187L26.415 4.90709C27.4359 5.07723 27.6761 5.81784 26.9405 6.54845L25.6994 7.78948C25.4893 7.99966 25.3742 8.40499 25.4392 8.69523L25.7945 10.2315C26.0747 11.4475 25.4292 11.9179 24.3533 11.2824L22.8571 10.3966C22.5868 10.2365 22.1415 10.2365 21.8662 10.3966L20.37 11.2824C19.2991 11.9179 18.6486 11.4425 18.9288 10.2315L19.2841 8.69523C19.3492 8.40499 19.2341 7.99966 19.0239 7.78948L17.7829 6.54845C17.0522 5.81784 17.2874 5.07723 18.3083 4.90709L19.9046 4.64187C20.1698 4.59683 20.4901 4.36163 20.6102 4.11643L21.4909 2.35497C21.9713 1.39917 22.752 1.39917 23.2274 2.35497Z" fill="#FEC400" stroke="#FEC400" stroke-width="1.5" stroke-linecap="round" stroke-linejoin="round"/>
<path d="M39.5266 2.35497L40.4074 4.11643C40.5275 4.36163 40.8477 4.59683 41.118 4.64187L42.7143 4.90709C43.7351 5.07723 43.9753 5.81784 43.2397 6.54845L41.9987 7.78948C41.7885 7.99966 41.6734 8.40499 41.7385 8.69523L42.0938 10.2315C42.374 11.4475 41.7285 11.9179 40.6526 11.2824L39.1563 10.3966C38.8861 10.2365 38.4407 10.2365 38.1655 10.3966L36.6693 11.2824C35.5984 11.9179 34.9478 11.4425 35.2281 10.2315L35.5834 8.69523C35.6484 8.40499 35.5333 7.99966 35.3231 7.78948L34.0821 6.54845C33.3515 5.81784 33.5867 5.07723 34.6075 4.90709L36.2039 4.64187C36.4691 4.59683 36.7894 4.36163 36.9095 4.11643L37.7902 2.35497C38.2706 1.39917 39.0512 1.39917 39.5266 2.35497Z" fill="#FEC400" stroke="#FEC400" stroke-width="1.5" stroke-linecap="round" stroke-linejoin="round"/>
<path d="M55.8259 2.35497L56.7066 4.11643C56.8267 4.36163 57.147 4.59683 57.4172 4.64187L59.0135 4.90709C60.0344 5.07723 60.2746 5.81784 59.539 6.54845L58.2979 7.78948C58.0878 7.99966 57.9727 8.40499 58.0377 8.69523L58.393 10.2315C58.6732 11.4475 58.0277 11.9179 56.9518 11.2824L55.4556 10.3966C55.1854 10.2365 54.74 10.2365 54.4648 10.3966L52.9685 11.2824C51.8976 11.9179 51.2471 11.4425 51.5273 10.2315L51.8826 8.69523C51.9477 8.40499 51.8326 7.99966 51.6224 7.78948L50.3814 6.54845C49.6508 5.81784 49.886 5.07723 50.9068 4.90709L52.5031 4.64187C52.7683 4.59683 53.0886 4.36163 53.2087 4.11643L54.0894 2.35497C54.5698 1.39917 55.3505 1.39917 55.8259 2.35497Z" fill="#FEC400" stroke="#FEC400" stroke-width="1.5" stroke-linecap="round" stroke-linejoin="round"/>
<path d="M72.1251 2.35497L73.0059 4.11643C73.126 4.36163 73.4462 4.59683 73.7165 4.64187L75.3128 4.90709C76.3336 5.07723 76.5738 5.81784 75.8382 6.54845L74.5972 7.78948C74.387 7.99966 74.2719 8.40499 74.337 8.69523L74.6923 10.2315C74.9725 11.4475 74.327 11.9179 73.2511 11.2824L71.7548 10.3966C71.4846 10.2365 71.0392 10.2365 70.764 10.3966L69.2678 11.2824C68.1969 11.9179 67.5463 11.4425 67.8266 10.2315L68.1819 8.69523C68.2469 8.40499 68.1318 7.99966 67.9216 7.78948L66.6806 6.54845C65.95 5.81784 66.1852 5.07723 67.2061 4.90709L68.8024 4.64187C69.0676 4.59683 69.3879 4.36163 69.508 4.11643L70.3887 2.35497C70.8691 1.39917 71.6497 1.39917 72.1251 2.35497Z" fill="#FEC400" stroke="#FEC400" stroke-width="1.5" stroke-linecap="round" stroke-linejoin="round"/>
</svg>
