<svg width="135" height="144" viewBox="0 0 135 144" fill="none" xmlns="http://www.w3.org/2000/svg">
<g clip-path="url(#clip0_200_2573)">
<path d="M26.4136 122.734C24.0057 109.332 13.3083 101.3 6.75344 90.4525C15.6783 95.2879 21.0691 103.639 27.2965 111.769C32.3104 104.873 32.0206 95.7971 38.4102 90.677L39.9646 91.3712C35.9708 101.67 31.9739 111.979 27.974 122.301L26.4136 122.734Z" fill="#0071DC"/>
<path d="M62.892 30.2666C59.8984 37.5002 53.3982 40.6836 46.9258 43.7633C50.6326 37.4614 56.5874 33.6876 62.892 30.2666Z" fill="#0071DC"/>
<path d="M81.6686 26.8733C89.3392 23.7443 95.8673 22.2533 103.607 24.531C99.8094 27.2349 90.9226 28.1309 81.6686 26.8733Z" fill="#0071DC"/>
<path d="M24.7165 80.4903C26.3956 73.2299 29.0848 66.2408 32.7054 59.7274C33.6832 61.952 34.5506 62.9991 34.3034 63.5069C31.4808 69.3421 30.3379 76.1642 24.7165 80.4903Z" fill="#0071DC"/>
<path d="M134.324 28.0584C130.582 30.7589 126.787 30.9641 122.152 28.5001C123.912 27.2378 126.006 26.5228 128.171 26.4442C130.336 26.3657 132.476 26.9271 134.324 28.0584V28.0584Z" fill="#0071DC"/>
</g>
<defs>
<clipPath id="clip0_200_2573">
<rect width="107.075" height="119.737" fill="white" transform="translate(103.426 143.37) rotate(-165)"/>
</clipPath>
</defs>
</svg>
