<svg width="119" height="89" viewBox="0 0 119 89" fill="none" xmlns="http://www.w3.org/2000/svg">
<g clip-path="url(#clip0_200_2596)">
<path d="M17.4053 70.5853C19.1382 71.9965 20.8711 73.4078 22.5908 74.8372C24.8715 76.7193 27.1786 78.5653 29.3843 80.52C29.9545 81.1832 30.4287 81.9233 30.7928 82.7186C30.1564 82.9467 29.816 83.2243 29.6845 83.1009C22.6373 77.8197 15.6306 72.5514 8.00466 66.8266C8.87302 66.7547 9.74475 66.732 10.6157 66.7585C18.9448 67.795 24.8459 63.7939 29.4576 57.4762C30.7028 55.7054 31.7453 53.8257 32.9501 52.042C33.5142 51.4727 34.1419 50.9701 34.8209 50.5442C34.1379 55.4021 31.6473 58.6172 28.8603 61.4339C26.2059 64.137 22.9482 66.2403 19.6971 68.8131C30.5347 68.2131 40.88 66.6406 50.9009 62.6798C57.318 60.2358 63.4274 57.05 69.1047 53.1873C86.2052 41.2595 96.456 25.3671 97.6513 4.18596C97.7256 2.15436 97.721 2.14548 99.2114 -1.40286e-06C99.5211 0.755219 99.7307 1.54766 99.835 2.3572C99.7444 14.833 95.8079 26.9773 88.5622 37.1338C80.7538 48.0375 70.1837 56.6661 57.9375 62.1333C47.1755 67.1352 35.5584 70.0389 23.7086 70.6888C21.5947 70.8035 19.4731 70.6858 17.3619 70.6753C17.4852 68.9561 16.611 68.8119 14.6116 69.4305L17.4053 70.5853Z" fill="#FEC400"/>
</g>
<defs>
<clipPath id="clip0_200_2596">
<rect width="111.72" height="41.95" fill="white" transform="translate(0 51.3659) rotate(-27.3725)"/>
</clipPath>
</defs>
</svg>
