<svg width="166" height="162" viewBox="0 0 166 162" fill="none" xmlns="http://www.w3.org/2000/svg">
<g clip-path="url(#clip0_200_2563)">
<path d="M146.497 126.497C149.8 121.709 148.055 116.28 149.59 111.183C152.037 113.043 150.419 115.346 151.321 117.419C152.91 115.989 154.296 114.61 155.857 113.475C157.474 112.309 159.279 111.427 161.192 110.867C154.381 116.589 148.727 122.813 147.94 132.858C147.142 131.925 146.411 130.937 145.754 129.901C142.261 123.056 138.47 116.419 132.898 110.982C132.653 110.745 132.619 110.279 132.412 109.702C134.257 108.837 135.245 110.022 136.051 111.139C139.1 115.395 142.076 119.689 145.054 123.994C145.503 124.633 145.848 125.351 146.497 126.497Z" fill="#0071DC"/>
<path d="M7.42331 44.0804C3.73935 41.9743 1.89263 38.7676 0.465223 35.3009C0.246357 34.7578 0.672347 33.9497 1.52274 33.1072C3.49121 36.7577 5.45806 40.4154 7.42331 44.0804Z" fill="#0071DC"/>
<path d="M102.348 67.8342C98.4793 68.4565 94.5159 68.0937 90.8242 66.7795C91.2697 66.0902 91.4969 65.3526 91.7758 65.3547C95.4299 65.469 99.0244 66.312 102.348 67.8342Z" fill="#0071DC"/>
<path d="M54.5815 61.7664C58.7622 60.5443 63.2497 60.9412 67.1509 62.8783C62.9214 63.1569 59.107 63.8158 54.5815 61.7664Z" fill="#0071DC"/>
<path d="M32.1474 57.6262C27.7042 57.711 25.0645 56.848 22.2779 54.7433C24.462 53.669 27.3078 54.4493 32.1474 57.6262Z" fill="#0071DC"/>
<path d="M141.202 85.5437C142.619 86.3738 143.84 87.5002 144.781 88.8458C145.722 90.1914 146.362 91.7245 146.655 93.3402C144.394 92.2997 141.72 88.713 141.202 85.5437Z" fill="#0071DC"/>
<path d="M127.716 77.8261L120.572 72.2894C120.466 72.3162 120.999 71.7287 121.396 71.7938C122.875 72.1799 124.232 72.9363 125.337 73.9917C126.443 75.0471 127.262 76.3667 127.716 77.8261Z" fill="#0071DC"/>
</g>
<defs>
<clipPath id="clip0_200_2563">
<rect width="137.49" height="132.41" fill="white" transform="translate(165.601 128.422) rotate(165.902)"/>
</clipPath>
</defs>
</svg>
