<svg width="26" height="26" viewBox="0 0 26 26" fill="none" xmlns="http://www.w3.org/2000/svg">
<g clip-path="url(#clip0_58_4296)">
<path d="M14.2311 13.3154L16.3728 16.6111L18.9664 12.2522L14.2311 13.3154Z" fill="white"/>
<path d="M12.241 9.19177L7.26147 10.7477L12.241 11.8657V9.19177Z" fill="white"/>
<path d="M13.7589 9.27466V11.8656L17.9451 10.9258L13.7589 9.27466Z" fill="white"/>
<path d="M5.57129 11.9238L8.27539 18.6914L11.769 13.3153L5.57129 11.9238Z" fill="white"/>
<path d="M9.83984 19.0696L15.1996 17.5916L13 14.2067L9.83984 19.0696Z" fill="white"/>
<path d="M20.5814 10.3339L25.5803 9.21154L13.7589 0.622803V7.6429L20.5814 10.3339Z" fill="white"/>
<path d="M21.0051 11.7944L17.2948 18.0299L21.5047 24.5082L26 10.673L21.0051 11.7944Z" fill="white"/>
<path d="M3.77559 11.5207L0 10.673L4.49536 24.5082L7.26314 20.249L3.77559 11.5207Z" fill="white"/>
<path d="M8.59325 20.9879L5.74097 25.3771H20.2589L16.0673 18.9269L8.59325 20.9879Z" fill="white"/>
<path d="M12.241 7.60142V0.622803L0.419678 9.21154L4.29982 10.0827L12.241 7.60142Z" fill="white"/>
</g>
<defs>
<clipPath id="clip0_58_4296">
<rect width="26" height="26" fill="white"/>
</clipPath>
</defs>
</svg>
