<svg width="26" height="26" viewBox="0 0 26 26" fill="none" xmlns="http://www.w3.org/2000/svg">
<g clip-path="url(#clip0_58_4380)">
<path d="M11.0297 21.2641C10.8848 21.2781 10.7392 21.2851 10.5937 21.2851C10.0585 21.2851 9.53144 21.192 9.02708 21.0084C8.38134 20.7733 7.8034 20.4009 7.32804 19.917C6.67113 19.7473 6.05958 19.433 5.53313 18.9912C5.28648 18.7842 5.06447 18.5537 4.86891 18.3039L3.0579 22.5257C2.93643 22.8088 2.99752 23.1372 3.21263 23.3578C3.42779 23.5784 3.75467 23.6477 4.04061 23.5333L7.3512 22.2103L8.67415 25.521C8.78846 25.8071 9.06384 25.9961 9.37188 26C9.37508 26 9.37833 26 9.38148 26C9.68576 26 9.96125 25.8188 10.0814 25.5386L11.7935 21.5476C11.5314 21.4761 11.2758 21.3816 11.0297 21.2641Z" fill="white"/>
<path d="M20.4668 18.9912C19.9404 19.433 19.3288 19.7472 18.6719 19.9169C18.1966 20.4008 17.6187 20.7733 16.9731 21.0083C16.4684 21.192 15.9414 21.285 15.4063 21.285C15.4062 21.285 15.4062 21.285 15.4062 21.285C15.2607 21.285 15.1152 21.278 14.9703 21.2641C14.7242 21.3816 14.4686 21.476 14.2064 21.5475L15.9185 25.5385C16.0387 25.8187 16.3142 25.9999 16.6184 25.9999C16.6216 25.9999 16.6248 25.9999 16.628 25.9999C16.9361 25.996 17.2115 25.807 17.3258 25.5209L18.6487 22.2102L21.9593 23.5332C22.2454 23.6475 22.5722 23.5783 22.7873 23.3577C23.0024 23.1371 23.0634 22.8087 22.942 22.5256L21.131 18.3038C20.9355 18.5537 20.7135 18.7842 20.4668 18.9912Z" fill="white"/>
<path d="M13 14.7593C15.6571 14.7593 17.8189 12.5976 17.8189 9.9404C17.8189 7.28322 15.6572 5.12146 13 5.12146C10.3428 5.12146 8.18106 7.28322 8.18106 9.9404C8.18106 12.5976 10.3429 14.7593 13 14.7593ZM10.3974 9.46321C10.6948 9.16578 11.1771 9.16578 11.4746 9.46321L12.319 10.3075L14.5065 7.95744C14.7931 7.64955 15.2752 7.63229 15.583 7.91885C15.8909 8.20551 15.9082 8.68747 15.6216 8.99536L12.8962 11.9234C12.7553 12.0747 12.559 12.1623 12.3522 12.166C12.3477 12.1661 12.3431 12.1661 12.3386 12.1661C12.1367 12.1661 11.9429 12.086 11.8 11.943L10.3974 10.5404C10.0999 10.243 10.0999 9.76063 10.3974 9.46321Z" fill="white"/>
<path d="M22.9396 8.34016C22.8343 7.74343 22.5567 7.19738 22.1445 6.76452C22.182 6.16784 22.0437 5.57111 21.7407 5.04639C21.4377 4.52166 20.9902 4.10353 20.4547 3.83764C20.2859 3.26417 19.9518 2.75077 19.4876 2.36123C19.0234 1.97173 18.4598 1.73184 17.8657 1.66527C17.511 1.18402 17.0215 0.815902 16.452 0.608715C15.8826 0.401426 15.2709 0.368672 14.6899 0.509387C14.1919 0.178547 13.6061 0 13.0001 0C12.3942 0 11.8082 0.178547 11.3103 0.509387C10.7291 0.368672 10.1175 0.401426 9.54823 0.608664C8.97882 0.815902 8.48924 1.18402 8.13448 1.66527C7.54039 1.73195 6.97677 1.97179 6.51258 2.36128C6.04844 2.75077 5.71435 3.26417 5.54555 3.83764C5.01001 4.10348 4.56248 4.52166 4.25957 5.04634C3.95656 5.57111 3.81823 6.16784 3.85576 6.76452C3.44351 7.19738 3.16594 7.74343 3.06067 8.34016C2.95551 8.93689 3.0296 9.54495 3.26893 10.0928C3.0296 10.6406 2.95551 11.2487 3.06072 11.8454C3.16594 12.4421 3.44351 12.9882 3.85576 13.4211C3.81823 14.0177 3.95656 14.6144 4.25957 15.1392C4.56253 15.6639 5.01006 16.0821 5.54555 16.3479C5.71435 16.9214 6.04844 17.4348 6.51258 17.8243C6.97677 18.2138 7.54034 18.4537 8.13448 18.5203C8.48924 19.0015 8.97882 19.3696 9.54823 19.5769C10.1176 19.7842 10.7293 19.8168 11.3103 19.6762C11.8083 20.007 12.3942 20.1855 13.0001 20.1855C13.606 20.1855 14.1919 20.007 14.6899 19.6762C15.2709 19.8168 15.8825 19.7841 16.452 19.5769C17.0214 19.3696 17.5109 19.0015 17.8657 18.5203C18.4598 18.4536 19.0235 18.2138 19.4876 17.8243C19.9517 17.4348 20.2858 16.9214 20.4546 16.3479C20.9901 16.0821 21.4376 15.6639 21.7406 15.1392C22.0436 14.6144 22.1819 14.0177 22.1444 13.4211C22.5567 12.9882 22.8342 12.4421 22.9395 11.8454C23.0447 11.2487 22.9706 10.6406 22.7312 10.0928C22.9707 9.54495 23.0448 8.93689 22.9396 8.34016ZM13.0001 3.59805C16.4972 3.59805 19.3425 6.44323 19.3425 9.94043C19.3425 13.4376 16.4972 16.2828 13.0001 16.2828C9.50294 16.2828 6.65771 13.4376 6.65771 9.94043C6.65771 6.44328 9.50294 3.59805 13.0001 3.59805Z" fill="white"/>
</g>
<defs>
<clipPath id="clip0_58_4380">
<rect width="26" height="26" fill="white"/>
</clipPath>
</defs>
</svg>
