<svg width="22" height="26" viewBox="0 0 22 26" fill="none" xmlns="http://www.w3.org/2000/svg">
<path d="M6.81542 10.7021H4.89417L5.85479 12.6234L6.81542 10.7021Z" fill="white"/>
<path d="M7.57441 9.17871L2.98505 0H0.775507C0.511546 0 0.266374 0.136652 0.127538 0.361258C-0.0112469 0.585812 -0.0238405 0.866227 0.0942259 1.10236L4.1324 9.17871H7.57441Z" fill="white"/>
<path d="M8.42737 7.47815L10.1484 4.03614L8.34084 0.421078C8.21185 0.163008 7.94804 0 7.65956 0H4.68829L8.42737 7.47815Z" fill="white"/>
<path d="M17.8676 9.17871L21.9058 1.10236C22.0238 0.866277 22.0113 0.585812 21.8725 0.361258C21.7336 0.136652 21.4885 0 21.2245 0H19.015L14.4256 9.17871H17.8676Z" fill="white"/>
<path d="M12.7224 9.17871L17.3117 0H14.3405C14.0519 0 13.7882 0.163008 13.6592 0.421078L9.2804 9.17871H12.7224Z" fill="white"/>
<path d="M8.51863 10.7021L7.26093 13.2175C8.36699 12.5945 9.64262 12.2383 11 12.2383C12.7146 12.2383 14.299 12.8059 15.5755 13.7629L17.1059 10.7021H8.51863Z" fill="white"/>
<path d="M11 13.7617C7.62589 13.7617 4.88086 16.5067 4.88086 19.8809C4.88086 23.255 7.62589 26 11 26C14.3741 26 17.1191 23.255 17.1191 19.8809C17.1191 16.5067 14.3741 13.7617 11 13.7617ZM11 24.083C8.6829 24.083 6.79785 22.198 6.79785 19.8809C6.79785 17.5638 8.6829 15.6787 11 15.6787C13.3171 15.6787 15.2021 17.5638 15.2021 19.8809C15.2021 22.198 13.3171 24.083 11 24.083Z" fill="white"/>
<path d="M11 22.5596C12.4794 22.5596 13.6787 21.3603 13.6787 19.8809C13.6787 18.4014 12.4794 17.2021 11 17.2021C9.52059 17.2021 8.32129 18.4014 8.32129 19.8809C8.32129 21.3603 9.52059 22.5596 11 22.5596Z" fill="white"/>
</svg>
