<svg width="1320" height="8" viewBox="0 0 1320 8" fill="none" xmlns="http://www.w3.org/2000/svg">
<g clip-path="url(#clip0_158_2973)">
<path d="M338.132 6.8392V7.53769C334.818 7.84925 332.418 7.62814 330.132 7.40703H313.96L308.759 7.74874L303.902 7.40201L301.616 7.60301C300.686 7.63805 299.705 7.66172 298.702 7.67337C294.93 7.67337 291.216 7.67337 287.958 7.67337L283.387 7.33668L277.272 7.65327H268.586L265.329 7.41206C264.323 7.38052 263.23 7.37762 262.204 7.40377C261.178 7.42993 260.272 7.48381 259.614 7.55779C258.643 7.63819 256.7 7.61809 255.386 7.67839C254.071 7.73869 252.814 7.99497 249.271 7.95477L244.414 7.63819L238.071 7.93467H222.413L219.327 7.66332H200.012L197.04 7.40201H186.925L183.84 7.97487L178.125 7.42713H160.982L157.381 7.68844C154.585 7.57013 151.627 7.48399 148.581 7.43216C145.781 7.39698 143.324 7.38191 141.952 7.1206L138.238 7.41708H31.0902L27.6615 7.1407L24.8042 7.39196L20.9183 7.13568H8.1749L6.74627 6.98492L11.3179 6.57789L20.6326 6.53266C17.1467 6.23618 13.2037 6.24623 11.4322 6.03015L8.74636 6.26131H0.917445C-0.227609 5.90821 -0.227609 5.534 0.917445 5.1809C4.80333 5.35678 8.23205 5.56784 12.9751 5.34171V4.0804L17.7182 3.96985L21.4326 4.27638H27.6615L31.1473 4.0201L33.8332 4.26131L39.0334 3.97487L44.1193 4.25628L47.3195 4.0201H53.6054L57.0342 4.29146L61.0343 3.96985L67.8346 4.26633H79.6637L83.4353 4.00502H99.3217L102.35 3.74372L105.665 4L108.579 3.73869L118.808 4.24121L122.008 4.0201H130.066C133.552 3.9397 134.352 3.58291 139.666 3.82412C142.524 4 138.752 4.23116 136.409 4.43719C140.695 4.65829 144.467 4.54271 148.752 4.56281L150.238 3.78894L153.324 3.70854C156.81 3.77387 157.667 4.11558 161.324 4.21105L164.182 4.00502L167.21 4.24121L179.325 3.66332L183.783 3.9598H222.87L225.956 3.68844H248.814L251.843 3.42211H323.16L326.646 3.13568C329.846 3.04523 331.503 3.24623 333.218 3.41206L336.075 3.1608H359.504L363.619 3.46231L369.333 3.15578H418.021L420.821 3.39698L424.25 3.12563H472.824L476.252 2.84422C479.795 2.72864 480.881 3.0402 482.767 3.10553H489.339L492.139 2.86432H524.826L528.083 3.09548L531.455 2.84422H609.172L612.773 2.54774L614.944 2.74874C615.863 2.78844 616.846 2.81555 617.858 2.82915C622.716 2.82915 627.573 2.82915 632.088 2.82915L635.688 2.55779L637.802 2.74874L647.517 2.49246L651.746 2.8191H658.146L661.518 2.54271H700.491L703.462 2.27638C709.577 2.21106 716.548 2.27638 723.292 2.24121L726.663 1.98492L729.463 2.23116L732.892 1.99497L736.264 2.24623H768.665L771.979 1.97487L775.351 2.24121L777.808 2.02513C780.78 1.96482 783.523 1.86432 786.551 2.10553C787.701 2.20198 789.18 2.26258 790.759 2.27801C792.339 2.29344 793.932 2.26286 795.295 2.19095C798.679 2.0404 801.961 1.87261 805.124 1.68844H810.838L813.867 2.25126H817.296L823.01 1.74874C827.182 1.54774 830.496 1.79899 834.096 1.91457L836.497 1.69849L839.982 1.96482H866.212L868.612 1.50754C872.041 1.31156 875.87 1.50754 879.641 1.38191L881.813 1.9196C885.428 2.01537 889.256 2.0309 892.956 1.96482L895.185 1.42714H908.614L912.043 1.12563H951.016L954.044 0.859296L957.53 1.12563H967.131L970.617 0.844221H983.474L986.389 0.592965L989.875 0.824121H1016.28L1018.96 0.58794L1022.5 0.844221H1035.36L1038.73 0.572864H1051.48L1054.85 0.844221L1057.19 0.643216C1057.59 0.61809 1058.05 0.572864 1058.45 0.572864H1099.08C1099.59 0.568153 1100.09 0.558028 1100.57 0.542714L1102.91 0.281407H1110.05L1112.74 0.517588L1116.28 0.261306H1125.88L1129.31 0.532663H1142.17L1145.71 0.246231H1161.82L1164.57 0H1175.54L1176.68 0.407035L1170.45 0.59799L1169.48 1.01005L1164.11 1.17588C1164.11 1.43216 1166.91 1.50754 1168.23 1.67839H1171.65L1174.85 1.07538L1180.57 2.201L1189.54 2.34673C1186.97 2.72864 1181.71 2.34673 1179.71 2.69849C1180.17 2.73869 1180.51 2.79899 1180.91 2.79899C1186.28 2.79899 1191.71 2.79899 1197.48 2.79899L1200.46 2.24623H1205.77V2.67839L1210.51 3.08543L1213.94 2.82412H1223.54L1226.97 3.1005H1255.54C1257.6 3.17085 1258.11 3.42714 1260.8 3.38693L1259.6 3.64322H1219.88L1217.2 3.40703H1198L1194.34 3.12563C1193.17 3.46674 1190.71 3.76264 1187.37 3.96482C1184.05 4.07035 1183.03 3.74874 1180.57 3.67839C1175.77 3.46734 1173.14 3.95477 1168.68 3.96482L1165.25 3.71357L1160.05 4.0201L1150.91 3.33668L1145.2 4.06533L1138.8 3.70854L1135.6 3.94975H1084.16L1080.62 4.24121L1078.28 4.0201C1074.8 3.92675 1071.12 3.9078 1067.54 3.96482L1064.74 4.20603L1061.53 4.0201C1058.11 3.95477 1054.39 3.86935 1051.48 4.27136H982.903L979.931 4.53266H931.472L927.815 4.82412H902.042L898.499 5.11558H836.954L834.096 5.37186H817.81L814.61 5.65327H774.608L772.037 5.42714L768.036 5.70352H736.035L733.121 5.96482H691.062L687.461 6.26131H671.289L667.861 5.98492L665.575 6.18593C665.175 6.18593 664.718 6.26131 664.318 6.26131H635.402C632.716 6.64322 628.945 6.56281 625.287 6.50754L622.887 6.28141L619.344 6.53769H584.086L580.371 6.82914H564.085L561.685 6.63316C558.37 6.45226 554.599 6.58291 550.941 6.55276L548.027 6.81407L537.912 6.85427L533.741 7.17085L528.026 6.88945L524.94 7.10553H508.597L505.282 6.84925L501.911 7.12563H479.052L476.595 7.33668C473.155 7.43036 469.508 7.44932 465.966 7.39196L462.88 7.13568C459.109 7.0201 458.252 7.36683 454.823 7.42713L448.251 7.09045L443.394 7.38191L440.194 7.12563H435.393C435.393 6.84422 433.393 6.84422 430.022 6.83417L425.393 7.40201H414.535L410.992 7.69347H395.106L391.677 7.41206H385.277L381.848 7.12563C377.162 7.07538 375.734 7.45226 372.476 7.66834H352.647L347.904 7.28141V6.96482L354.304 6.69849C352.018 6.45226 349.104 6.59799 346.304 6.54774L343.218 7.10553L338.075 6.8392C337.732 6.76382 337.389 6.68342 336.932 6.59296C332.619 6.5053 328.097 6.54595 324.074 6.70854C328.606 6.83749 333.394 6.88198 338.132 6.8392ZM1160.05 0.683417C1157.65 0.40201 1154.34 0.507538 1151.6 0.592965C1148.46 0.740048 1145.46 0.908045 1142.62 1.09548C1141.57 1.12608 1140.47 1.1397 1139.37 1.13568C1137.42 1.02513 1136.05 0.768844 1132.34 0.869347L1129.94 1.28141L1136.74 1.62312L1139.31 1.41206C1145.77 1.41206 1152.17 1.41206 1158.62 1.41206C1158.97 1.41206 1159.37 1.35176 1159.94 1.30151L1157.14 1L1160.05 0.683417ZM1143.94 3.09548C1143.94 2.75377 1143.94 2.44221 1143.94 2.13065C1143.94 2.0804 1142.68 2.0402 1142 2C1140.62 2.19095 1137.48 2.25628 1137.54 2.52764C1137.6 2.79899 1140.17 2.96985 1144.11 3.09548H1143.94ZM1116.28 1.08543C1115.05 1.19089 1114.31 1.3335 1114.23 1.48455C1114.15 1.6356 1114.71 1.78387 1115.82 1.8995L1121.54 1.55276L1116.28 1.08543ZM286.816 6.66834C273.901 6.53266 273.901 6.53266 273.558 6.78894C274.984 6.81788 276.438 6.83471 277.901 6.8392C280.472 6.81909 283.215 6.92462 286.816 6.66834ZM360.419 7.35678V7.17588C358.933 7.17588 357.504 7.13568 356.076 7.13065C355.676 7.13065 354.933 7.201 354.99 7.2211C355.047 7.24121 355.733 7.40201 356.19 7.40201C357.615 7.40147 359.034 7.38629 360.419 7.35678ZM1107.19 1.15075L1105.08 1.25126C1105.42 1.28141 1105.88 1.34673 1106.17 1.34171C1106.92 1.31778 1107.65 1.28749 1108.34 1.25126L1107.19 1.15075ZM877.584 1.82915C877.241 1.79397 876.784 1.73367 876.498 1.73869C875.733 1.76053 875.003 1.79093 874.327 1.82915C874.727 1.8593 875.127 1.92462 875.412 1.9196C876.172 1.89668 876.901 1.86634 877.584 1.82915ZM1152.68 2.21106L1153.82 2.11055C1153.15 2.07135 1152.42 2.04088 1151.65 2.0201C1151.37 2.0201 1150.97 2.07538 1150.57 2.11055L1152.68 2.21106ZM1107.88 2.43719L1106.74 2.25126C1106.34 2.28141 1105.65 2.32161 1105.71 2.34673C1105.96 2.414 1106.3 2.47818 1106.74 2.53769L1107.88 2.43719ZM1120.85 2.43719L1119.71 2.25126C1119.37 2.28141 1118.62 2.32161 1118.68 2.34673C1118.95 2.41315 1119.3 2.4771 1119.71 2.53769L1120.85 2.43719ZM1130.62 2.43719L1129.48 2.25126C1129.08 2.28141 1128.39 2.32161 1128.45 2.34673C1128.7 2.414 1129.05 2.47818 1129.48 2.53769L1130.62 2.43719ZM1164.05 2.43719L1165.2 2.53769C1165.63 2.47818 1165.98 2.414 1166.23 2.34673C1166.23 2.34673 1165.6 2.28141 1165.2 2.25126L1164.05 2.43719ZM425.393 3.79899L424.25 3.69347C423.804 3.75422 423.458 3.82019 423.221 3.88945C423.221 3.88945 423.85 3.94975 424.25 3.9799L425.393 3.79899ZM62.863 5.66332L64.9774 5.56281C64.5773 5.52764 64.1773 5.46734 63.8916 5.47236C63.1178 5.4922 62.3848 5.52273 61.7201 5.56281L62.863 5.66332ZM425.222 6.08543L424.079 5.9799C423.657 6.04179 423.312 6.10749 423.05 6.17588C423.05 6.17588 423.736 6.23618 424.079 6.26633L425.222 6.08543ZM434.993 6.36683L433.793 6.26633C433.399 6.32701 433.073 6.39097 432.822 6.45729C432.822 6.48241 433.45 6.52261 433.793 6.55276L434.993 6.36683ZM184.925 6.94472L183.725 6.84422C183.37 6.90528 183.083 6.96924 182.868 7.03518C182.868 7.0603 183.497 7.09548 183.84 7.13065L184.925 6.94472ZM196.354 6.88442L195.154 6.98492C195.845 7.02414 196.596 7.05459 197.383 7.07538C197.383 7.07538 198.069 7.0201 198.412 6.98492L196.354 6.88442Z" fill="#FFEDDB"/>
<path d="M1238.85 1.94959C1240.36 1.95848 1241.86 1.95848 1243.37 1.94959L1246.4 1.3717L1254.57 2.08527V2.36668C1254.23 2.39683 1253.88 2.46216 1253.54 2.46216H1222.91L1221.88 2.13552C1224.11 1.77874 1227.94 2.03502 1231.14 1.87924L1232.28 1.44708L1238 1.34155C1238.08 1.53999 1238.41 1.73706 1238.97 1.92949C1236.85 1.97472 1234.34 1.95462 1236.51 2.20085C1237.34 2.12086 1238.12 2.03699 1238.85 1.94959Z" fill="#FFEDDB"/>
<path d="M1290.34 1.55781V1.24123C1290.68 1.2161 1291.03 1.1558 1291.48 1.15078L1307.09 1.08545C1310.51 1.28143 1313.66 1.45228 1313.31 1.86937L1319.03 2.05027V2.40706L1311.03 2.76384L1302.8 2.39701L1309.37 2.12565V1.79902C1303.83 1.47238 1296.34 1.87439 1290.34 1.55781Z" fill="#FFEDDB"/>
<path d="M1277.31 2.24634C1280.57 2.24634 1281.2 2.52775 1283.6 2.64332V3.24634L1280.06 3.56795C1279.31 3.62322 1278.91 3.67347 1278.51 3.67347H1266.51L1260.8 3.38704C1261.2 3.30664 1261.48 3.16091 1261.94 3.15589C1266.63 3.11066 1271.31 3.09558 1275.88 3.06543C1278.28 2.80413 1276.91 2.51267 1277.31 2.24634Z" fill="#FFEDDB"/>
<path d="M1231.54 0.532715V1.00508C1229.02 1.21111 1226.28 1.0704 1223.77 1.12065C1222.34 0.954825 1219.77 0.869398 1219.42 0.618142C1222.91 0.467388 1226.62 0.577941 1231.54 0.532715Z" fill="#FFEDDB"/>
<path d="M1248.97 1.06528C1248.97 1.01 1248.4 0.949698 1248.45 0.949698C1249.3 0.906254 1250.18 0.867648 1251.08 0.834121L1258.17 0.527588L1262.97 1.0301C1262.46 1.06885 1261.81 1.09025 1261.14 1.0904C1257.09 1.13515 1252.99 1.12669 1248.97 1.06528Z" fill="#FFEDDB"/>
<path d="M1287.08 2.24641C1292.28 2.14088 1295.31 2.56802 1299.88 2.63837C1298.73 2.71662 1297.39 2.77122 1295.97 2.79817C1294.55 2.82512 1293.07 2.82375 1291.66 2.79415C1290.28 2.60319 1287.03 2.51274 1287.08 2.24641Z" fill="#FFEDDB"/>
<path d="M1246.85 0.648252L1238 1.10554L1233.08 1.00504L1241.94 0.542725L1246.85 0.648252Z" fill="#FFEDDB"/>
<path d="M1275.77 1.4119L1271.25 1.00487C1271.65 0.733509 1274.06 0.844061 1275.77 0.823961C1276.3 0.857458 1276.73 0.901594 1277.03 0.952714C1277.33 1.00383 1277.49 1.06047 1277.49 1.11793C1277.49 1.17539 1277.33 1.23203 1277.03 1.28315C1276.73 1.33427 1276.3 1.3784 1275.77 1.4119Z" fill="#FFEDDB"/>
<path d="M1317.94 2.81421C1318.59 2.87118 1319.11 2.93891 1319.46 3.01351C1319.82 3.0881 1320 3.16809 1320 3.24888C1320 3.32967 1319.82 3.40966 1319.46 3.48426C1319.11 3.55885 1318.59 3.62658 1317.94 3.68356C1316.65 3.56721 1315.93 3.41126 1315.93 3.24888C1315.93 3.08651 1316.65 2.93055 1317.94 2.81421Z" fill="#FFEDDB"/>
<path d="M10.4005 4.45214L4.05733 4.79887L3.37158 4.40189C5.71454 4.23103 7.60034 4.22098 10.4005 4.45214Z" fill="#FFEDDB"/>
<path d="M1261.08 2.39194C1261.44 2.34424 1261.92 2.30505 1262.49 2.27792C1263.06 2.25078 1263.69 2.23657 1264.34 2.23657C1264.99 2.23657 1265.62 2.25078 1266.19 2.27792C1266.76 2.30505 1267.24 2.34424 1267.6 2.39194C1267.24 2.43964 1266.76 2.47884 1266.19 2.50597C1265.62 2.5331 1264.99 2.54732 1264.34 2.54732C1263.69 2.54732 1263.06 2.5331 1262.49 2.50597C1261.92 2.47884 1261.44 2.43964 1261.08 2.39194Z" fill="#FFEDDB"/>
<path d="M1205.77 2.25119C1207.71 1.95973 1207.71 1.95973 1212 2.08034C1210.85 2.38687 1207.94 2.19591 1205.77 2.25119Z" fill="#FFEDDB"/>
<path d="M1277.71 2.32661L1274.34 2.08038C1277.2 1.8844 1276.97 2.1055 1277.71 2.32661Z" fill="#FFEDDB"/>
<path d="M1287.43 2.32661L1284.11 2.08038C1286.97 1.8844 1286.74 2.1055 1287.43 2.32661Z" fill="#FFEDDB"/>
<path d="M52.1165 3.5577C51.4398 3.59592 50.71 3.62632 49.945 3.64815C49.6593 3.64815 49.2021 3.59288 48.8593 3.5577C49.5493 3.523 50.2767 3.49438 51.0308 3.47227C51.4308 3.46725 51.7737 3.5175 52.1165 3.5577Z" fill="#FFEDDB"/>
<path d="M2.23047 6.60303L3.37337 6.70353C2.69667 6.74175 1.96683 6.77215 1.20185 6.79398C1.20185 6.79398 0.516106 6.7387 0.116089 6.70353L2.23047 6.60303Z" fill="#FFEDDB"/>
<path d="M436.533 7.09058L433.676 7.38203C431.504 7.1358 434.304 7.1559 436.533 7.09058Z" fill="#FFEDDB"/>
</g>
<defs>
<clipPath id="clip0_158_2973">
<rect width="1320" height="8" fill="white"/>
</clipPath>
</defs>
</svg>
