<svg width="1920" height="40" viewBox="0 0 1920 40" fill="none" xmlns="http://www.w3.org/2000/svg">
<rect width="1920" height="24" transform="matrix(1 0 0 -1 -3 24)" fill="white"/>
<circle r="14.5" transform="matrix(1 0 0 -1 2 25)" fill="#F5FAFF" stroke="#F5FAFF"/>
<circle r="14.5" transform="matrix(1 0 0 -1 264 25)" fill="#F5FAFF" stroke="#F5FAFF"/>
<circle r="14.5" transform="matrix(1 0 0 -1 526 25)" fill="#F5FAFF" stroke="#F5FAFF"/>
<circle r="14.5" transform="matrix(1 0 0 -1 788 25)" fill="#F5FAFF" stroke="#F5FAFF"/>
<circle r="14.5" transform="matrix(1 0 0 -1 1050 25)" fill="#F5FAFF" stroke="#F5FAFF"/>
<circle r="14.5" transform="matrix(1 0 0 -1 1312 25)" fill="#F5FAFF" stroke="#F5FAFF"/>
<circle r="14.5" transform="matrix(1 0 0 -1 1574 25)" fill="#F5FAFF" stroke="#F5FAFF"/>
<circle r="14.5" transform="matrix(1 0 0 -1 1836 25)" fill="#F5FAFF" stroke="#F5FAFF"/>
<circle r="14.5" transform="matrix(1 0 0 -1 31 25)" fill="#F5FAFF" stroke="#F5FAFF"/>
<circle r="14.5" transform="matrix(1 0 0 -1 293 25)" fill="#F5FAFF" stroke="#F5FAFF"/>
<circle r="14.5" transform="matrix(1 0 0 -1 555 25)" fill="#F5FAFF" stroke="#F5FAFF"/>
<circle r="14.5" transform="matrix(1 0 0 -1 817 25)" fill="#F5FAFF" stroke="#F5FAFF"/>
<circle r="14.5" transform="matrix(1 0 0 -1 1079 25)" fill="#F5FAFF" stroke="#F5FAFF"/>
<circle r="14.5" transform="matrix(1 0 0 -1 1341 25)" fill="#F5FAFF" stroke="#F5FAFF"/>
<circle r="14.5" transform="matrix(1 0 0 -1 1603 25)" fill="#F5FAFF" stroke="#F5FAFF"/>
<circle r="14.5" transform="matrix(1 0 0 -1 1865 25)" fill="#F5FAFF" stroke="#F5FAFF"/>
<circle r="14.5" transform="matrix(1 0 0 -1 60 25)" fill="#F5FAFF" stroke="#F5FAFF"/>
<circle r="14.5" transform="matrix(1 0 0 -1 322 25)" fill="#F5FAFF" stroke="#F5FAFF"/>
<circle r="14.5" transform="matrix(1 0 0 -1 584 25)" fill="#F5FAFF" stroke="#F5FAFF"/>
<circle r="14.5" transform="matrix(1 0 0 -1 846 25)" fill="#F5FAFF" stroke="#F5FAFF"/>
<circle r="14.5" transform="matrix(1 0 0 -1 1108 25)" fill="#F5FAFF" stroke="#F5FAFF"/>
<circle r="14.5" transform="matrix(1 0 0 -1 1370 25)" fill="#F5FAFF" stroke="#F5FAFF"/>
<circle r="14.5" transform="matrix(1 0 0 -1 1632 25)" fill="#F5FAFF" stroke="#F5FAFF"/>
<circle r="14.5" transform="matrix(1 0 0 -1 1894 25)" fill="#F5FAFF" stroke="#F5FAFF"/>
<circle r="14.5" transform="matrix(1 0 0 -1 89 25)" fill="#F5FAFF" stroke="#F5FAFF"/>
<circle r="14.5" transform="matrix(1 0 0 -1 351 25)" fill="#F5FAFF" stroke="#F5FAFF"/>
<circle r="14.5" transform="matrix(1 0 0 -1 613 25)" fill="#F5FAFF" stroke="#F5FAFF"/>
<circle r="14.5" transform="matrix(1 0 0 -1 875 25)" fill="#F5FAFF" stroke="#F5FAFF"/>
<circle r="14.5" transform="matrix(1 0 0 -1 1137 25)" fill="#F5FAFF" stroke="#F5FAFF"/>
<circle r="14.5" transform="matrix(1 0 0 -1 1399 25)" fill="#F5FAFF" stroke="#F5FAFF"/>
<circle r="14.5" transform="matrix(1 0 0 -1 1661 25)" fill="#F5FAFF" stroke="#F5FAFF"/>
<circle r="14.5" transform="matrix(1 0 0 -1 1923 25)" fill="#F5FAFF" stroke="#F5FAFF"/>
<circle r="14.5" transform="matrix(1 0 0 -1 118 25)" fill="#F5FAFF" stroke="#F5FAFF"/>
<circle r="14.5" transform="matrix(1 0 0 -1 380 25)" fill="#F5FAFF" stroke="#F5FAFF"/>
<circle r="14.5" transform="matrix(1 0 0 -1 642 25)" fill="#F5FAFF" stroke="#F5FAFF"/>
<circle r="14.5" transform="matrix(1 0 0 -1 904 25)" fill="#F5FAFF" stroke="#F5FAFF"/>
<circle r="14.5" transform="matrix(1 0 0 -1 1166 25)" fill="#F5FAFF" stroke="#F5FAFF"/>
<circle r="14.5" transform="matrix(1 0 0 -1 1428 25)" fill="#F5FAFF" stroke="#F5FAFF"/>
<circle r="14.5" transform="matrix(1 0 0 -1 1690 25)" fill="#F5FAFF" stroke="#F5FAFF"/>
<circle r="14.5" transform="matrix(1 0 0 -1 147 25)" fill="#F5FAFF" stroke="#F5FAFF"/>
<circle r="14.5" transform="matrix(1 0 0 -1 409 25)" fill="#F5FAFF" stroke="#F5FAFF"/>
<circle r="14.5" transform="matrix(1 0 0 -1 671 25)" fill="#F5FAFF" stroke="#F5FAFF"/>
<circle r="14.5" transform="matrix(1 0 0 -1 933 25)" fill="#F5FAFF" stroke="#F5FAFF"/>
<circle r="14.5" transform="matrix(1 0 0 -1 1195 25)" fill="#F5FAFF" stroke="#F5FAFF"/>
<circle r="14.5" transform="matrix(1 0 0 -1 1457 25)" fill="#F5FAFF" stroke="#F5FAFF"/>
<circle r="14.5" transform="matrix(1 0 0 -1 1719 25)" fill="#F5FAFF" stroke="#F5FAFF"/>
<circle r="14.5" transform="matrix(1 0 0 -1 176 25)" fill="#F5FAFF" stroke="#F5FAFF"/>
<circle r="14.5" transform="matrix(1 0 0 -1 438 25)" fill="#F5FAFF" stroke="#F5FAFF"/>
<circle r="14.5" transform="matrix(1 0 0 -1 700 25)" fill="#F5FAFF" stroke="#F5FAFF"/>
<circle r="14.5" transform="matrix(1 0 0 -1 962 25)" fill="#F5FAFF" stroke="#F5FAFF"/>
<circle r="14.5" transform="matrix(1 0 0 -1 1224 25)" fill="#F5FAFF" stroke="#F5FAFF"/>
<circle r="14.5" transform="matrix(1 0 0 -1 1486 25)" fill="#F5FAFF" stroke="#F5FAFF"/>
<circle r="14.5" transform="matrix(1 0 0 -1 1748 25)" fill="#F5FAFF" stroke="#F5FAFF"/>
<circle r="14.5" transform="matrix(1 0 0 -1 205 25)" fill="#F5FAFF" stroke="#F5FAFF"/>
<circle r="14.5" transform="matrix(1 0 0 -1 467 25)" fill="#F5FAFF" stroke="#F5FAFF"/>
<circle r="14.5" transform="matrix(1 0 0 -1 729 25)" fill="#F5FAFF" stroke="#F5FAFF"/>
<circle r="14.5" transform="matrix(1 0 0 -1 991 25)" fill="#F5FAFF" stroke="#F5FAFF"/>
<circle r="14.5" transform="matrix(1 0 0 -1 1253 25)" fill="#F5FAFF" stroke="#F5FAFF"/>
<circle r="14.5" transform="matrix(1 0 0 -1 1515 25)" fill="#F5FAFF" stroke="#F5FAFF"/>
<circle r="14.5" transform="matrix(1 0 0 -1 1777 25)" fill="#F5FAFF" stroke="#F5FAFF"/>
<circle r="14.5" transform="matrix(1 0 0 -1 234 25)" fill="#F5FAFF" stroke="#F5FAFF"/>
<circle r="14.5" transform="matrix(1 0 0 -1 496 25)" fill="#F5FAFF" stroke="#F5FAFF"/>
<circle r="14.5" transform="matrix(1 0 0 -1 758 25)" fill="#F5FAFF" stroke="#F5FAFF"/>
<circle r="14.5" transform="matrix(1 0 0 -1 1020 25)" fill="#F5FAFF" stroke="#F5FAFF"/>
<circle r="14.5" transform="matrix(1 0 0 -1 1282 25)" fill="#F5FAFF" stroke="#F5FAFF"/>
<circle r="14.5" transform="matrix(1 0 0 -1 1544 25)" fill="#F5FAFF" stroke="#F5FAFF"/>
<circle r="14.5" transform="matrix(1 0 0 -1 1806 25)" fill="#F5FAFF" stroke="#F5FAFF"/>
</svg>
