<svg width="1920" height="30" viewBox="0 0 1920 30" fill="none" xmlns="http://www.w3.org/2000/svg">
<circle r="14.5" transform="matrix(-1 8.74228e-08 8.74228e-08 1 1683 15)" fill="white" stroke="#F3F3F3"/>
<circle r="14.5" transform="matrix(-1 8.74228e-08 8.74228e-08 1 1421 15)" fill="white" stroke="#F3F3F3"/>
<circle r="14.5" transform="matrix(-1 8.74228e-08 8.74228e-08 1 1159 15)" fill="white" stroke="#F3F3F3"/>
<circle r="14.5" transform="matrix(-1 8.74228e-08 8.74228e-08 1 897 15)" fill="white" stroke="#F3F3F3"/>
<circle r="14.5" transform="matrix(-1 8.74228e-08 8.74228e-08 1 635 15)" fill="white" stroke="#F3F3F3"/>
<circle r="14.5" transform="matrix(-1 8.74228e-08 8.74228e-08 1 373 15)" fill="white" stroke="#F3F3F3"/>
<circle r="14.5" transform="matrix(-1 8.74228e-08 8.74228e-08 1 111 15)" fill="white" stroke="#F3F3F3"/>
<circle r="14.5" transform="matrix(-1 8.74228e-08 8.74228e-08 1 1916 15)" fill="white" stroke="#F3F3F3"/>
<circle r="14.5" transform="matrix(-1 8.74228e-08 8.74228e-08 1 1654 15)" fill="white" stroke="#F3F3F3"/>
<circle r="14.5" transform="matrix(-1 8.74228e-08 8.74228e-08 1 1392 15)" fill="white" stroke="#F3F3F3"/>
<circle r="14.5" transform="matrix(-1 8.74228e-08 8.74228e-08 1 1130 15)" fill="white" stroke="#F3F3F3"/>
<circle r="14.5" transform="matrix(-1 8.74228e-08 8.74228e-08 1 868 15)" fill="white" stroke="#F3F3F3"/>
<circle r="14.5" transform="matrix(-1 8.74228e-08 8.74228e-08 1 606 15)" fill="white" stroke="#F3F3F3"/>
<circle r="14.5" transform="matrix(-1 8.74228e-08 8.74228e-08 1 344 15)" fill="white" stroke="#F3F3F3"/>
<circle r="14.5" transform="matrix(-1 8.74228e-08 8.74228e-08 1 82 15)" fill="white" stroke="#F3F3F3"/>
<circle r="14.5" transform="matrix(-1 8.74228e-08 8.74228e-08 1 1887 15)" fill="white" stroke="#F3F3F3"/>
<circle r="14.5" transform="matrix(-1 8.74228e-08 8.74228e-08 1 1625 15)" fill="white" stroke="#F3F3F3"/>
<circle r="14.5" transform="matrix(-1 8.74228e-08 8.74228e-08 1 1363 15)" fill="white" stroke="#F3F3F3"/>
<circle r="14.5" transform="matrix(-1 8.74228e-08 8.74228e-08 1 1101 15)" fill="white" stroke="#F3F3F3"/>
<circle r="14.5" transform="matrix(-1 8.74228e-08 8.74228e-08 1 839 15)" fill="white" stroke="#F3F3F3"/>
<circle r="14.5" transform="matrix(-1 8.74228e-08 8.74228e-08 1 577 15)" fill="white" stroke="#F3F3F3"/>
<circle r="14.5" transform="matrix(-1 8.74228e-08 8.74228e-08 1 315 15)" fill="white" stroke="#F3F3F3"/>
<circle r="14.5" transform="matrix(-1 8.74228e-08 8.74228e-08 1 53 15)" fill="white" stroke="#F3F3F3"/>
<circle r="14.5" transform="matrix(-1 8.74228e-08 8.74228e-08 1 1858 15)" fill="white" stroke="#F3F3F3"/>
<circle r="14.5" transform="matrix(-1 8.74228e-08 8.74228e-08 1 1596 15)" fill="white" stroke="#F3F3F3"/>
<circle r="14.5" transform="matrix(-1 8.74228e-08 8.74228e-08 1 1334 15)" fill="white" stroke="#F3F3F3"/>
<circle r="14.5" transform="matrix(-1 8.74228e-08 8.74228e-08 1 1072 15)" fill="white" stroke="#F3F3F3"/>
<circle r="14.5" transform="matrix(-1 8.74228e-08 8.74228e-08 1 810 15)" fill="white" stroke="#F3F3F3"/>
<circle r="14.5" transform="matrix(-1 8.74228e-08 8.74228e-08 1 548 15)" fill="white" stroke="#F3F3F3"/>
<circle r="14.5" transform="matrix(-1 8.74228e-08 8.74228e-08 1 286 15)" fill="white" stroke="#F3F3F3"/>
<circle r="14.5" transform="matrix(-1 8.74228e-08 8.74228e-08 1 24 15)" fill="white" stroke="#F3F3F3"/>
<circle r="14.5" transform="matrix(-1 8.74228e-08 8.74228e-08 1 1829 15)" fill="white" stroke="#F3F3F3"/>
<circle r="14.5" transform="matrix(-1 8.74228e-08 8.74228e-08 1 1567 15)" fill="white" stroke="#F3F3F3"/>
<circle r="14.5" transform="matrix(-1 8.74228e-08 8.74228e-08 1 1305 15)" fill="white" stroke="#F3F3F3"/>
<circle r="14.5" transform="matrix(-1 8.74228e-08 8.74228e-08 1 1043 15)" fill="white" stroke="#F3F3F3"/>
<circle r="14.5" transform="matrix(-1 8.74228e-08 8.74228e-08 1 781 15)" fill="white" stroke="#F3F3F3"/>
<circle r="14.5" transform="matrix(-1 8.74228e-08 8.74228e-08 1 519 15)" fill="white" stroke="#F3F3F3"/>
<circle r="14.5" transform="matrix(-1 8.74228e-08 8.74228e-08 1 257 15)" fill="white" stroke="#F3F3F3"/>
<circle r="14.5" transform="matrix(-1 8.74228e-08 8.74228e-08 1 -5 15)" fill="white" stroke="#F3F3F3"/>
<circle r="14.5" transform="matrix(-1 8.74228e-08 8.74228e-08 1 1800 15)" fill="white" stroke="#F3F3F3"/>
<circle r="14.5" transform="matrix(-1 8.74228e-08 8.74228e-08 1 1538 15)" fill="white" stroke="#F3F3F3"/>
<circle r="14.5" transform="matrix(-1 8.74228e-08 8.74228e-08 1 1276 15)" fill="white" stroke="#F3F3F3"/>
<circle r="14.5" transform="matrix(-1 8.74228e-08 8.74228e-08 1 1014 15)" fill="white" stroke="#F3F3F3"/>
<circle r="14.5" transform="matrix(-1 8.74228e-08 8.74228e-08 1 752 15)" fill="white" stroke="#F3F3F3"/>
<circle r="14.5" transform="matrix(-1 8.74228e-08 8.74228e-08 1 490 15)" fill="white" stroke="#F3F3F3"/>
<circle r="14.5" transform="matrix(-1 8.74228e-08 8.74228e-08 1 228 15)" fill="white" stroke="#F3F3F3"/>
<circle r="14.5" transform="matrix(-1 8.74228e-08 8.74228e-08 1 1771 15)" fill="white" stroke="#F3F3F3"/>
<circle r="14.5" transform="matrix(-1 8.74228e-08 8.74228e-08 1 1509 15)" fill="white" stroke="#F3F3F3"/>
<circle r="14.5" transform="matrix(-1 8.74228e-08 8.74228e-08 1 1247 15)" fill="white" stroke="#F3F3F3"/>
<circle r="14.5" transform="matrix(-1 8.74228e-08 8.74228e-08 1 985 15)" fill="white" stroke="#F3F3F3"/>
<circle r="14.5" transform="matrix(-1 8.74228e-08 8.74228e-08 1 723 15)" fill="white" stroke="#F3F3F3"/>
<circle r="14.5" transform="matrix(-1 8.74228e-08 8.74228e-08 1 461 15)" fill="white" stroke="#F3F3F3"/>
<circle r="14.5" transform="matrix(-1 8.74228e-08 8.74228e-08 1 199 15)" fill="white" stroke="#F3F3F3"/>
<circle r="14.5" transform="matrix(-1 8.74228e-08 8.74228e-08 1 1742 15)" fill="white" stroke="#F3F3F3"/>
<circle r="14.5" transform="matrix(-1 8.74228e-08 8.74228e-08 1 1480 15)" fill="white" stroke="#F3F3F3"/>
<circle r="14.5" transform="matrix(-1 8.74228e-08 8.74228e-08 1 1218 15)" fill="white" stroke="#F3F3F3"/>
<circle r="14.5" transform="matrix(-1 8.74228e-08 8.74228e-08 1 956 15)" fill="white" stroke="#F3F3F3"/>
<circle r="14.5" transform="matrix(-1 8.74228e-08 8.74228e-08 1 694 15)" fill="white" stroke="#F3F3F3"/>
<circle r="14.5" transform="matrix(-1 8.74228e-08 8.74228e-08 1 432 15)" fill="white" stroke="#F3F3F3"/>
<circle r="14.5" transform="matrix(-1 8.74228e-08 8.74228e-08 1 170 15)" fill="white" stroke="#F3F3F3"/>
<circle r="14.5" transform="matrix(-1 8.74228e-08 8.74228e-08 1 1713 15)" fill="white" stroke="#F3F3F3"/>
<circle r="14.5" transform="matrix(-1 8.74228e-08 8.74228e-08 1 1451 15)" fill="white" stroke="#F3F3F3"/>
<circle r="14.5" transform="matrix(-1 8.74228e-08 8.74228e-08 1 1189 15)" fill="white" stroke="#F3F3F3"/>
<circle r="14.5" transform="matrix(-1 8.74228e-08 8.74228e-08 1 927 15)" fill="white" stroke="#F3F3F3"/>
<circle r="14.5" transform="matrix(-1 8.74228e-08 8.74228e-08 1 665 15)" fill="white" stroke="#F3F3F3"/>
<circle r="14.5" transform="matrix(-1 8.74228e-08 8.74228e-08 1 403 15)" fill="white" stroke="#F3F3F3"/>
<circle r="14.5" transform="matrix(-1 8.74228e-08 8.74228e-08 1 141 15)" fill="white" stroke="#F3F3F3"/>
</svg>
