<svg width="1920" height="35" viewBox="0 0 1920 35" fill="none" xmlns="http://www.w3.org/2000/svg">
<circle r="14.5" transform="matrix(1 0 0 -1 2 15)" stroke="#F3F3F3"/>
<circle r="14.5" transform="matrix(1 0 0 -1 264 15)" stroke="#F3F3F3"/>
<circle r="14.5" transform="matrix(1 0 0 -1 526 15)" stroke="#F3F3F3"/>
<circle r="14.5" transform="matrix(1 0 0 -1 788 15)" stroke="#F3F3F3"/>
<circle r="14.5" transform="matrix(1 0 0 -1 1050 15)" stroke="#F3F3F3"/>
<circle r="14.5" transform="matrix(1 0 0 -1 1312 15)" stroke="#F3F3F3"/>
<circle r="14.5" transform="matrix(1 0 0 -1 1574 15)" stroke="#F3F3F3"/>
<circle r="14.5" transform="matrix(1 0 0 -1 1836 15)" stroke="#F3F3F3"/>
<circle r="14.5" transform="matrix(1 0 0 -1 31 15)" stroke="#F3F3F3"/>
<circle r="14.5" transform="matrix(1 0 0 -1 293 15)" stroke="#F3F3F3"/>
<circle r="14.5" transform="matrix(1 0 0 -1 555 15)" stroke="#F3F3F3"/>
<circle r="14.5" transform="matrix(1 0 0 -1 817 15)" stroke="#F3F3F3"/>
<circle r="14.5" transform="matrix(1 0 0 -1 1079 15)" stroke="#F3F3F3"/>
<circle r="14.5" transform="matrix(1 0 0 -1 1341 15)" stroke="#F3F3F3"/>
<circle r="14.5" transform="matrix(1 0 0 -1 1603 15)" stroke="#F3F3F3"/>
<circle r="14.5" transform="matrix(1 0 0 -1 1865 15)" stroke="#F3F3F3"/>
<circle r="14.5" transform="matrix(1 0 0 -1 60 15)" stroke="#F3F3F3"/>
<circle r="14.5" transform="matrix(1 0 0 -1 322 15)" stroke="#F3F3F3"/>
<circle r="14.5" transform="matrix(1 0 0 -1 584 15)" stroke="#F3F3F3"/>
<circle r="14.5" transform="matrix(1 0 0 -1 846 15)" stroke="#F3F3F3"/>
<circle r="14.5" transform="matrix(1 0 0 -1 1108 15)" stroke="#F3F3F3"/>
<circle r="14.5" transform="matrix(1 0 0 -1 1370 15)" stroke="#F3F3F3"/>
<circle r="14.5" transform="matrix(1 0 0 -1 1632 15)" stroke="#F3F3F3"/>
<circle r="14.5" transform="matrix(1 0 0 -1 1894 15)" stroke="#F3F3F3"/>
<circle r="14.5" transform="matrix(1 0 0 -1 89 15)" stroke="#F3F3F3"/>
<circle r="14.5" transform="matrix(1 0 0 -1 351 15)" stroke="#F3F3F3"/>
<circle r="14.5" transform="matrix(1 0 0 -1 613 15)" stroke="#F3F3F3"/>
<circle r="14.5" transform="matrix(1 0 0 -1 875 15)" stroke="#F3F3F3"/>
<circle r="14.5" transform="matrix(1 0 0 -1 1137 15)" stroke="#F3F3F3"/>
<circle r="14.5" transform="matrix(1 0 0 -1 1399 15)" stroke="#F3F3F3"/>
<circle r="14.5" transform="matrix(1 0 0 -1 1661 15)" stroke="#F3F3F3"/>
<circle r="14.5" transform="matrix(1 0 0 -1 1923 15)" stroke="#F3F3F3"/>
<circle r="14.5" transform="matrix(1 0 0 -1 118 15)" stroke="#F3F3F3"/>
<circle r="14.5" transform="matrix(1 0 0 -1 380 15)" stroke="#F3F3F3"/>
<circle r="14.5" transform="matrix(1 0 0 -1 642 15)" stroke="#F3F3F3"/>
<circle r="14.5" transform="matrix(1 0 0 -1 904 15)" stroke="#F3F3F3"/>
<circle r="14.5" transform="matrix(1 0 0 -1 1166 15)" stroke="#F3F3F3"/>
<circle r="14.5" transform="matrix(1 0 0 -1 1428 15)" stroke="#F3F3F3"/>
<circle r="14.5" transform="matrix(1 0 0 -1 1690 15)" stroke="#F3F3F3"/>
<circle r="14.5" transform="matrix(1 0 0 -1 147 15)" stroke="#F3F3F3"/>
<circle r="14.5" transform="matrix(1 0 0 -1 409 15)" stroke="#F3F3F3"/>
<circle r="14.5" transform="matrix(1 0 0 -1 671 15)" stroke="#F3F3F3"/>
<circle r="14.5" transform="matrix(1 0 0 -1 933 15)" stroke="#F3F3F3"/>
<circle r="14.5" transform="matrix(1 0 0 -1 1195 15)" stroke="#F3F3F3"/>
<circle r="14.5" transform="matrix(1 0 0 -1 1457 15)" stroke="#F3F3F3"/>
<circle r="14.5" transform="matrix(1 0 0 -1 1719 15)" stroke="#F3F3F3"/>
<circle r="14.5" transform="matrix(1 0 0 -1 176 15)" stroke="#F3F3F3"/>
<circle r="14.5" transform="matrix(1 0 0 -1 438 15)" stroke="#F3F3F3"/>
<circle r="14.5" transform="matrix(1 0 0 -1 700 15)" stroke="#F3F3F3"/>
<circle r="14.5" transform="matrix(1 0 0 -1 962 15)" stroke="#F3F3F3"/>
<circle r="14.5" transform="matrix(1 0 0 -1 1224 15)" stroke="#F3F3F3"/>
<circle r="14.5" transform="matrix(1 0 0 -1 1486 15)" stroke="#F3F3F3"/>
<circle r="14.5" transform="matrix(1 0 0 -1 1748 15)" stroke="#F3F3F3"/>
<circle r="14.5" transform="matrix(1 0 0 -1 205 15)" stroke="#F3F3F3"/>
<circle r="14.5" transform="matrix(1 0 0 -1 467 15)" stroke="#F3F3F3"/>
<circle r="14.5" transform="matrix(1 0 0 -1 729 15)" stroke="#F3F3F3"/>
<circle r="14.5" transform="matrix(1 0 0 -1 991 15)" stroke="#F3F3F3"/>
<circle r="14.5" transform="matrix(1 0 0 -1 1253 15)" stroke="#F3F3F3"/>
<circle r="14.5" transform="matrix(1 0 0 -1 1515 15)" stroke="#F3F3F3"/>
<circle r="14.5" transform="matrix(1 0 0 -1 1777 15)" stroke="#F3F3F3"/>
<circle r="14.5" transform="matrix(1 0 0 -1 234 15)" stroke="#F3F3F3"/>
<circle r="14.5" transform="matrix(1 0 0 -1 496 15)" stroke="#F3F3F3"/>
<circle r="14.5" transform="matrix(1 0 0 -1 758 15)" stroke="#F3F3F3"/>
<circle r="14.5" transform="matrix(1 0 0 -1 1020 15)" stroke="#F3F3F3"/>
<circle r="14.5" transform="matrix(1 0 0 -1 1282 15)" stroke="#F3F3F3"/>
<circle r="14.5" transform="matrix(1 0 0 -1 1544 15)" stroke="#F3F3F3"/>
<circle r="14.5" transform="matrix(1 0 0 -1 1806 15)" stroke="#F3F3F3"/>
<rect width="1920" height="24" transform="matrix(1 0 0 -1 -3 35)" fill="white"/>
</svg>
