<svg width="175" height="151" viewBox="0 0 175 151" fill="none" xmlns="http://www.w3.org/2000/svg">
<g clip-path="url(#clip0_115_2095)">
<g style="mix-blend-mode:multiply">
<g style="mix-blend-mode:multiply">
<path d="M162.476 57.8425C161.976 57.7245 161.464 57.669 160.95 57.6772C156.948 58.3076 153.072 59.572 149.468 61.4228C146.472 62.8998 143.588 64.6683 140.755 66.3413C137.404 68.3712 134.054 70.4164 130.909 72.7747C130.869 72.9088 130.8 73.0322 130.706 73.1358C130.612 73.2393 130.496 73.3204 130.366 73.3729C130.237 73.4254 130.097 73.448 129.957 73.439C129.818 73.43 129.682 73.3897 129.56 73.321C129.488 73.4767 129.416 73.6305 129.345 73.7821L130.741 74.4335C132.588 73.3487 134.494 72.3593 136.269 71.1732C140.558 68.2298 145.032 65.5662 149.665 63.1993C153.718 61.1852 158.041 59.7682 162.501 58.9922C162.608 58.8186 162.662 58.6177 162.658 58.4137C162.653 58.2097 162.59 58.0113 162.476 57.8425Z" fill="#D8D5FB"/>
</g>
<g style="mix-blend-mode:multiply">
<path d="M140.509 120.737C139.148 122.131 137.699 123.454 136.433 124.93C131.468 130.915 125.851 136.33 119.688 141.074C119.274 141.383 118.876 141.706 118.499 142.017C118.203 142.283 117.714 142.512 117.956 143.036C118.06 143.227 118.231 143.372 118.435 143.446C118.64 143.519 118.864 143.515 119.065 143.434C120.951 143.004 122.787 142.873 124.482 144.053C124.863 142.981 124.055 142.738 123.345 142.399C122.635 142.06 121.72 142.592 121.268 141.475C122.113 140.836 123.031 140.231 123.844 139.502C129.212 134.758 134.314 129.72 139.124 124.411C139.873 123.577 141.027 122.821 140.803 121.391L140.547 120.688L140.509 120.737Z" fill="#EBE9FC"/>
</g>
<g style="mix-blend-mode:multiply">
<path d="M156.013 96.3605C154.31 99.6838 152.426 102.911 150.37 106.029C148.607 108.635 147.023 111.355 145.253 113.959C144.813 114.614 144.968 115.548 144.233 115.968C142.669 116.863 141.981 118.466 140.946 119.803C141.279 120.34 141.144 120.644 140.509 120.737C140.621 120.811 140.706 120.919 140.751 121.046C140.797 121.172 140.799 121.31 140.759 121.438C141.675 121.152 142.447 120.526 142.916 119.689C145.48 116.168 148.164 112.712 150.475 109.028C152.996 105.023 155.152 100.788 157.466 96.6492C157.448 96.6449 157.431 96.6371 157.417 96.6262C157.219 96.3543 157.306 96.2154 157.679 96.2094L158.118 95.2687L157.657 95.0535C156.972 95.2817 156.39 95.7447 156.013 96.3605Z" fill="#E4E2FC"/>
</g>
<g style="mix-blend-mode:multiply">
<path d="M140.54 120.751L140.796 121.455C140.836 121.326 140.833 121.187 140.787 121.06C140.74 120.933 140.654 120.825 140.54 120.751Z" fill="#E4E2FC"/>
</g>
<g style="mix-blend-mode:multiply">
<path d="M103.177 42.7214C103.005 42.5287 102.835 42.1721 102.68 42.1823C100.878 42.2097 98.9841 41.3258 97.3083 42.6701C96.9873 42.9246 96.6004 43.4329 96.2118 43.2066C94.6211 42.2994 93.3814 43.383 92.1361 43.9175C88.8839 45.2026 85.7545 46.7794 82.7864 48.6285C83.2454 49.4418 82.6182 50.0476 82.3817 50.7309C86.7436 48.4763 90.9264 45.8836 95.7116 44.4707C98.5908 43.6281 101.366 43.3287 104.217 44.3598C104.579 43.3605 103.86 43.0551 103.177 42.7214Z" fill="#D6D2FC"/>
</g>
<g style="mix-blend-mode:multiply">
<path d="M167.541 73.9244C166.529 74.8907 165.667 76.0025 164.983 77.223C164.071 78.7441 163.88 80.4521 163.242 82.0113C162.081 84.8686 160.302 87.4451 159.435 90.425C159.3 90.8243 159.03 91.1642 158.672 91.3866C157.469 92.36 157.281 93.6126 157.717 95.0366C157.972 94.8962 158.126 94.968 158.178 95.2519C158.327 95.0445 158.489 94.8428 158.619 94.6268C162.385 88.2422 165.432 81.4605 167.706 74.4056C167.717 74.2687 167.596 74.0625 167.541 73.9244Z" fill="#E5E3FC"/>
</g>
<g style="mix-blend-mode:multiply">
<path d="M167.535 73.9215L167.541 73.9243L167.544 73.9182L167.535 73.9215Z" fill="#E5E3FC"/>
</g>
<g style="mix-blend-mode:multiply">
<path d="M157.686 95.0375L158.148 95.2527C158.095 94.9688 157.942 94.897 157.686 95.0375Z" fill="#E5E3FC"/>
</g>
<g style="mix-blend-mode:multiply">
<path d="M41.731 49.4952L42.1982 49.7133C41.2084 48.3528 40.2572 46.9578 39.2288 45.6317C36.9914 42.7389 34.5439 40.0148 31.9062 37.4816C31.3898 37.2405 30.8081 37.0589 30.7074 36.3604L29.7732 35.9394C29.0141 36.1541 29.4875 36.9367 29.1218 37.335L29.5768 37.5474C29.7715 37.6106 29.9443 37.7279 30.0749 37.8857C30.2054 38.0434 30.2884 38.235 30.3141 38.4382C33.2148 41.0949 35.4833 44.2878 37.9507 47.3114C38.8487 48.4194 39.2683 49.9107 40.6004 50.6822C40.6236 50.6712 40.6477 50.6624 40.6725 50.656C40.9952 50.2375 40.4374 49.0262 41.731 49.4952Z" fill="#DDDAFD"/>
</g>
<g style="mix-blend-mode:multiply">
<path d="M124.219 78.6374C124.411 78.2832 124.622 77.9392 124.85 77.6065C125.216 77.111 124.85 76.9327 124.522 76.7047C123.245 77.0822 122.85 78.5377 121.627 79.0077C119.14 79.9581 117.001 81.5881 114.609 82.7028C111.938 83.9496 109.287 85.393 106.188 85.2641C106.889 85.6508 107.41 86.2973 107.639 87.0645C111.703 86.2659 115.345 84.4466 118.836 82.3248C120.637 81.226 122.658 80.4248 124.132 78.8067C124.153 78.7465 124.182 78.6895 124.219 78.6374Z" fill="#D3D1FC"/>
</g>
<g style="mix-blend-mode:multiply">
<path d="M74.962 52.9432C74.4527 52.9481 73.9661 53.1543 73.6085 53.5169C73.6213 53.524 73.6325 53.5338 73.6412 53.5457C73.6499 53.5575 73.6559 53.571 73.6589 53.5854C73.8761 53.874 74.2011 54.2204 73.8314 54.4671C73.4616 54.7138 73.4055 54.2084 73.3457 53.9035C72.2119 54.6322 70.8395 54.7329 69.6639 55.3747C66.4254 57.172 62.9616 58.5292 59.3641 59.4102C59.7809 60.0091 59.4337 60.5284 59.1992 61.0629C61.1253 61.3479 62.617 60.045 64.3546 59.643C68.4536 58.6735 71.8789 56.3562 75.4993 54.407C75.3102 54.2156 75.1643 53.986 75.0717 53.7334C74.979 53.4809 74.9416 53.2114 74.962 52.9432Z" fill="#D1CEFC"/>
</g>
<g style="mix-blend-mode:multiply">
<path d="M167.538 73.9154L167.535 73.9215L167.544 73.9182L167.538 73.9154Z" fill="#DDDBFC"/>
</g>
<g style="mix-blend-mode:multiply">
<path d="M165.257 57.9951C165.044 58.2923 164.864 58.8374 164.411 58.4763C164.11 58.2233 164.629 58.009 164.784 57.7741C164.421 57.6201 164.029 57.5469 163.635 57.5596C163.242 57.5723 162.855 57.6706 162.503 57.8477C163.411 58.2118 163.033 58.6045 162.528 58.9975C165.701 59.3552 167.217 60.999 167.514 64.3573C167.791 67.2942 167.16 70.1372 166.504 72.9384C166.188 74.2886 166.971 73.8456 167.547 73.912C168.989 70.437 169.868 66.9985 168.843 63.1134C168.216 60.799 167.428 59.0081 165.257 57.9951Z" fill="#DDDBFC"/>
</g>
<g style="mix-blend-mode:multiply">
<path d="M162.476 57.8423C162.59 58.0112 162.653 58.2095 162.658 58.4135C162.662 58.6175 162.608 58.8184 162.501 58.9921C163.006 58.599 163.384 58.2064 162.476 57.8423Z" fill="#DDDBFC"/>
</g>
<g style="mix-blend-mode:multiply">
<path d="M167.544 73.9182L167.535 73.9215L167.544 73.9182Z" fill="#DDDBFC"/>
</g>
<g style="mix-blend-mode:multiply">
<path d="M105.019 74.2435C104.655 75.2338 104.337 76.1712 104.814 77.2177C105.533 74.8428 106.414 72.506 106.929 70.0881C107.702 66.4277 109.127 62.8773 108.789 59.0132C108.489 59.51 108.343 60.1453 107.62 60.2346C107.375 60.465 107.167 60.7317 107.003 61.0252C105.715 65.0364 105.453 69.287 104.153 73.3076C104.128 73.363 104.218 73.4576 104.248 73.5388C104.997 73.297 105.272 73.5749 105.019 74.2435Z" fill="#D7D5FC"/>
</g>
<g style="mix-blend-mode:multiply">
<path d="M108.789 59.0131C109.026 58.8349 109.209 58.5941 109.317 58.3177C109.425 58.0413 109.453 57.7403 109.399 57.4485C109.276 55.4515 109.316 53.4713 109.053 51.4538C108.766 49.2759 108.317 47.3666 106.981 45.6572C106.434 45.7216 105.88 45.6554 105.364 45.464C106.32 47.8272 107.267 50.1936 107.407 52.7821C107.489 54.3705 107.135 56.01 108.086 57.487C108.19 57.6481 107.844 57.8608 107.581 57.9104C106.995 58.7002 107.359 59.4614 107.647 60.2246C108.125 59.9386 108.038 59.0819 108.789 59.0131Z" fill="#D6D3FC"/>
</g>
<g style="mix-blend-mode:multiply">
<path d="M108.789 59.0131C108.013 59.0705 108.125 59.9386 107.62 60.2346C108.343 60.1452 108.49 59.5099 108.789 59.0131Z" fill="#D6D3FC"/>
</g>
<g style="mix-blend-mode:multiply">
<path d="M59.364 59.4102C55.7737 59.8833 52.2178 60.2827 49.0269 57.8948C48.9654 57.8661 48.6609 58.1657 48.4674 58.3076C48.387 58.4797 48.3095 58.6457 48.2321 58.8117C48.431 58.8764 48.6056 59.0001 48.7326 59.1664C48.8596 59.3327 48.933 59.5337 48.9432 59.7426C48.9959 59.9502 49.0988 60.1417 49.2428 60.3003C49.3868 60.4589 49.5675 60.5798 49.769 60.6523C52.763 61.8995 56.1024 62.044 59.193 61.06C58.8614 60.471 59.1234 59.9418 59.364 59.4102Z" fill="#CDCAFB"/>
</g>
<g style="mix-blend-mode:multiply">
<path d="M59.3641 59.4103C59.1173 59.9391 58.8676 60.474 59.1992 61.063C59.4337 60.5285 59.7809 60.0092 59.3641 59.4103Z" fill="#CDCAFB"/>
</g>
<g style="mix-blend-mode:multiply">
<path d="M48.2333 58.408C48.3371 58.3142 48.4182 58.2847 48.4674 58.3076C47.7948 57.7915 48.1687 56.7979 47.5227 56.2568C45.3389 54.4064 44.0791 51.8116 42.2011 49.7071C42.0543 49.8138 41.8901 49.8942 41.7158 49.9448L41.6108 49.9931C41.6399 50.3961 41.974 50.7392 42.2166 51.1819C41.7136 51.1884 41.2209 51.0395 40.8058 50.7555L40.6705 50.6924L40.6336 50.6751C41.7718 52.0226 42.3537 53.7917 43.7456 54.9805C45.639 54.5015 44.942 56.0107 45.1396 56.8067C45.8855 57.9037 46.7597 58.8059 48.2108 58.8093C48.1333 58.6384 48.1296 58.5019 48.2333 58.408ZM43.8396 53.7365C43.7747 53.6961 43.7177 53.6441 43.6715 53.5832C43.6974 53.5278 43.783 53.4405 43.8076 53.452C43.8724 53.4912 43.9302 53.5409 43.9786 53.5992C43.9224 53.6553 43.858 53.7451 43.8396 53.7365Z" fill="#CFCBFC"/>
</g>
<g style="mix-blend-mode:multiply">
<path d="M41.6109 49.9932L41.7158 49.9449C41.8901 49.8943 42.0543 49.8139 42.2011 49.7071L41.7339 49.489C41.6428 49.6408 41.6 49.8166 41.6109 49.9932Z" fill="#CFCBFC"/>
</g>
<g style="mix-blend-mode:multiply">
<path d="M48.2497 58.7901C48.3272 58.6241 48.4047 58.4581 48.4851 58.286C48.4359 58.263 48.3547 58.2925 48.251 58.3864C48.1473 58.4802 48.1448 58.6139 48.253 58.7991L48.2497 58.7901Z" fill="#CFCBFC"/>
</g>
<g style="mix-blend-mode:multiply">
<path d="M104.356 84.424C104.588 83.6115 104.597 82.7512 104.38 81.9343C104.117 80.3509 104.267 78.7265 104.814 77.2176C103.019 76.2522 104.931 74.689 104.278 73.5531C102.471 76.6707 102.208 80.0744 102.475 83.5611C103.479 82.9664 103.817 83.9256 104.356 84.424Z" fill="#CFCCFB"/>
</g>
<g style="mix-blend-mode:multiply">
<path d="M104.814 77.2177C104.328 76.1896 104.655 75.2337 105.019 74.2435C105.257 73.6057 104.969 73.2765 104.248 73.5388C104.931 74.689 102.994 76.2407 104.814 77.2177Z" fill="#CFCCFB"/>
</g>
<g style="mix-blend-mode:multiply">
<path d="M82.7286 48.624C82.5088 48.7286 82.282 48.8179 82.0498 48.8912C81.9859 49.0865 81.864 49.2577 81.7003 49.3819C81.5366 49.5062 81.339 49.5776 81.1337 49.5867C78.9135 50.3775 76.8318 51.5133 74.9653 52.9523C75.1982 53.1063 75.3751 53.3315 75.4697 53.5942C75.5643 53.8569 75.5715 54.1432 75.4902 54.4103L82.3211 50.7324C81.9075 49.9179 82.44 49.2904 82.7286 48.624Z" fill="#CFCCFC"/>
</g>
<g style="mix-blend-mode:multiply">
<path d="M82.7287 48.6239C82.4216 49.2818 81.9075 49.9179 82.3239 50.7263C82.5605 50.043 83.1877 49.4372 82.7287 48.6239Z" fill="#CFCCFC"/>
</g>
<g style="mix-blend-mode:multiply">
<path d="M74.962 52.9432C74.9408 53.2096 74.9767 53.4775 75.0672 53.7289C75.1577 53.9803 75.3008 54.2095 75.4869 54.4013C75.5682 54.1341 75.561 53.8479 75.4664 53.5851C75.3718 53.3224 75.1949 53.0973 74.962 52.9432Z" fill="#CFCCFC"/>
</g>
<g style="mix-blend-mode:multiply">
<path d="M129.321 73.8009C127.593 74.5378 125.977 75.5154 124.522 76.7047C126.194 77.6947 124.674 78.0635 124.213 78.6345C124.184 78.696 124.158 78.7513 124.129 78.8128C126.517 77.6698 128.738 76.2079 130.733 74.4671C130.457 74.5616 130.155 74.5448 129.892 74.4204C129.628 74.296 129.424 74.0738 129.321 73.8009Z" fill="#E2E0FC"/>
</g>
<g style="mix-blend-mode:multiply">
<path d="M129.321 73.801C129.427 74.0676 129.63 74.2837 129.889 74.4049C130.149 74.5261 130.445 74.5431 130.717 74.4525L129.321 73.801Z" fill="#E2E0FC"/>
</g>
<g style="mix-blend-mode:multiply">
<path d="M124.837 77.6006C124.61 77.9333 124.399 78.2773 124.206 78.6315C124.653 78.0913 126.188 77.6917 124.516 76.7017C124.837 76.9268 125.203 77.1051 124.837 77.6006Z" fill="#E2E0FC"/>
</g>
<g style="mix-blend-mode:multiply">
<path d="M106.157 85.2497L104.312 84.3888C103.511 84.5014 103.097 83.6718 102.406 83.4992C103.179 85.3573 104.01 87.1228 106.461 87.0689C106.688 86.9932 106.919 86.9312 107.154 86.8832C107.291 86.9474 107.436 86.9925 107.586 87.0173C107.17 86.4487 106.163 86.2634 106.157 85.2497Z" fill="#C9C6FB"/>
</g>
<g style="mix-blend-mode:multiply">
<path d="M106.157 85.2496C106.138 86.2518 107.136 86.4556 107.608 87.05C107.379 86.2829 106.858 85.6363 106.157 85.2496Z" fill="#C9C6FB"/>
</g>
<g style="mix-blend-mode:multiply">
<path d="M104.356 84.424C103.836 83.9342 103.485 82.9692 102.45 83.5344C103.134 83.7042 103.536 84.5281 104.356 84.424Z" fill="#C9C6FB"/>
</g>
<g style="mix-blend-mode:multiply">
<path d="M29.7733 35.9393C29.07 34.6227 27.7632 34.4545 26.0684 33.8506C26.7637 35.2619 27.8191 36.4648 29.128 37.3378C28.8153 35.9864 28.8928 35.8204 29.7733 35.9393Z" fill="#EBE8FC"/>
</g>
<g style="mix-blend-mode:multiply">
<path d="M29.7732 35.9393C28.8784 35.8511 28.801 36.0171 29.1218 37.335C29.5018 36.9058 29.0284 36.1233 29.7732 35.9393Z" fill="#EBE8FC"/>
</g>
<g style="mix-blend-mode:multiply">
<path d="M105.557 43.832C105.475 43.601 105.348 43.3885 105.183 43.2071C105.019 43.0256 104.819 42.8788 104.597 42.7751C104.375 42.6715 104.135 42.6131 103.89 42.6034C103.645 42.5937 103.401 42.6328 103.171 42.7185C104.138 42.8776 105.266 42.9474 104.153 44.3525C104.253 45.0358 104.829 45.2145 105.331 45.4712C105.507 44.9322 104.256 44.2283 105.557 43.832Z" fill="#D6D3FC"/>
</g>
<g style="mix-blend-mode:multiply">
<path d="M103.177 42.7213C103.866 43.0427 104.573 43.3728 104.159 44.3553C105.275 42.9441 104.144 42.8804 103.177 42.7213Z" fill="#D6D3FC"/>
</g>
<g style="mix-blend-mode:multiply">
<path d="M45.1642 56.8182C44.8708 56.096 44.3895 55.4654 43.7703 54.9919C43.6853 56.0081 44.3473 56.4668 45.1642 56.8182Z" fill="#E6E7FD"/>
</g>
<g style="mix-blend-mode:multiply">
<path d="M43.7457 54.9804C44.3649 55.454 44.8462 56.0845 45.1396 56.8067C44.9298 56.0049 45.6329 54.4985 43.7457 54.9804Z" fill="#E6E7FD"/>
</g>
<g style="mix-blend-mode:multiply">
<path d="M105.554 43.8532C105.429 44.3787 105.934 44.9813 105.376 45.4547L105.6 45.312C106.102 45.2621 106.621 45.1449 106.981 45.6573C106.935 44.9543 106.393 44.5591 106.006 44.0717C105.717 44.2586 105.578 44.1713 105.554 43.8532Z" fill="#D6D2FC"/>
</g>
<g style="mix-blend-mode:multiply">
<path d="M105.6 45.312L105.376 45.4547C105.892 45.646 106.446 45.7122 106.993 45.6478C106.621 45.1449 106.102 45.2621 105.6 45.312Z" fill="#D6D2FC"/>
</g>
<g style="mix-blend-mode:multiply">
<path d="M105.554 43.8533C104.254 44.2496 105.487 44.9448 105.364 45.4793C105.934 44.9814 105.429 44.3788 105.554 43.8533Z" fill="#D6D2FC"/>
</g>
<g style="mix-blend-mode:multiply">
<path d="M124.639 144.568C124.833 144.809 125.056 145.07 125.419 144.79C125.251 144.637 125.091 144.465 124.89 144.319C124.753 144.239 124.609 144.172 124.46 144.118C124.537 144.273 124.545 144.449 124.639 144.568Z" fill="#EBE9FC"/>
</g>
<g style="mix-blend-mode:multiply">
<path d="M165.257 57.9951L164.784 57.7742C164.766 58.23 165 58.1447 165.257 57.9951Z" fill="#D8D5FB"/>
</g>
<g style="mix-blend-mode:multiply">
<path d="M164.408 58.4825C164.837 58.8321 165.041 58.2985 165.254 58.0013C165 58.1447 164.766 58.23 164.781 57.7803C164.639 58.0209 164.116 58.2111 164.408 58.4825Z" fill="#D8D5FB"/>
</g>
<g style="mix-blend-mode:multiply">
<path d="M30.7016 36.3727C30.8791 36.9872 31.7173 36.8917 31.9005 37.4939C31.8202 36.7675 31.2242 36.6167 30.7016 36.3727Z" fill="#EBE8FC"/>
</g>
<g style="mix-blend-mode:multiply">
<path d="M31.9091 37.4753C31.726 36.8732 30.8762 36.9932 30.7103 36.3542C30.811 37.0527 31.4013 37.2158 31.9091 37.4753Z" fill="#EBE8FC"/>
</g>
<g style="mix-blend-mode:multiply">
<path d="M73.6847 53.7547C73.6892 53.6985 73.6825 53.6419 73.665 53.5883L73.6146 53.5198C73.5515 53.6551 73.4486 53.7793 73.3703 53.915C73.5748 54.0703 73.6736 54.0191 73.6847 53.7547Z" fill="#CFCCFC"/>
</g>
<g style="mix-blend-mode:multiply">
<path d="M73.8314 54.4672C74.2011 54.2204 73.8761 53.8741 73.6589 53.5855C73.6763 53.6391 73.683 53.6957 73.6785 53.7519C73.6736 54.0191 73.5748 54.0704 73.3641 53.9121C73.4055 54.2085 73.4944 54.6918 73.8314 54.4672Z" fill="#CFCCFC"/>
</g>
<g style="mix-blend-mode:multiply">
<path d="M130.885 72.7934C130.635 72.7872 130.386 72.8325 130.154 72.9265C129.922 73.0204 129.712 73.1611 129.537 73.3397C130.027 73.2811 130.492 73.0925 130.885 72.7934Z" fill="#E2E0FC"/>
</g>
<g style="mix-blend-mode:multiply">
<path d="M130.885 72.7934C130.492 73.0925 130.027 73.2811 129.537 73.3397C129.658 73.4084 129.794 73.4488 129.934 73.4577C130.073 73.4667 130.213 73.4441 130.342 73.3916C130.472 73.3391 130.588 73.2581 130.682 73.1545C130.776 73.0509 130.845 72.9275 130.885 72.7934Z" fill="#E2E0FC"/>
</g>
<g style="mix-blend-mode:multiply">
<path d="M140.946 119.803L140.509 120.737C140.604 120.711 140.691 120.665 140.766 120.601C140.841 120.538 140.901 120.459 140.943 120.37C140.984 120.281 141.006 120.185 141.006 120.087C141.007 119.989 140.986 119.892 140.946 119.803Z" fill="#EBE9FC"/>
</g>
<g style="mix-blend-mode:multiply">
<path d="M140.54 120.751C141.163 120.668 141.3 120.358 140.976 119.817C141.017 119.906 141.038 120.003 141.037 120.101C141.037 120.199 141.015 120.296 140.973 120.385C140.932 120.473 140.872 120.552 140.797 120.616C140.722 120.679 140.634 120.725 140.54 120.751Z" fill="#EBE9FC"/>
</g>
<g style="mix-blend-mode:multiply">
<path d="M48.2498 58.79C48.2728 58.9947 48.3516 59.1892 48.4775 59.3522C48.6033 59.5153 48.7715 59.6407 48.9637 59.7148C48.8531 59.3262 48.3792 59.2024 48.2498 58.79Z" fill="#CFCBFC"/>
</g>
<g style="mix-blend-mode:multiply">
<path d="M48.2497 58.7901C48.3907 59.1778 48.8645 59.3017 48.9608 59.721C48.9507 59.512 48.8773 59.311 48.7503 59.1448C48.6233 58.9785 48.4487 58.8548 48.2497 58.7901Z" fill="#CFCBFC"/>
</g>
<g style="mix-blend-mode:multiply">
<path d="M30.3141 38.438C30.2121 38.031 29.7088 37.9383 29.5887 37.5378C29.6085 37.7423 29.6877 37.9366 29.8166 38.0966C29.9455 38.2565 30.1185 38.3753 30.3141 38.438Z" fill="#EBE8FC"/>
</g>
<g style="mix-blend-mode:multiply">
<path d="M29.5887 37.5379C29.7088 37.9383 30.2121 38.031 30.3141 38.438C30.2911 38.2346 30.2106 38.042 30.0822 37.8826C29.9537 37.7232 29.7826 37.6036 29.5887 37.5379Z" fill="#EBE8FC"/>
</g>
<g style="mix-blend-mode:multiply">
<path d="M81.1304 49.5777C81.5346 49.4818 81.6551 48.9989 82.0466 48.8821C81.8438 48.8998 81.6502 48.9745 81.4881 49.0976C81.3259 49.2207 81.2019 49.3871 81.1304 49.5777Z" fill="#E2DDFC"/>
</g>
<g style="mix-blend-mode:multiply">
<path d="M82.0466 48.8821C81.6551 48.9989 81.5346 49.4817 81.1304 49.5776C81.3357 49.5686 81.5334 49.4971 81.697 49.3729C81.8607 49.2486 81.9826 49.0774 82.0466 48.8821Z" fill="#E2DDFC"/>
</g>
<g style="mix-blend-mode:multiply">
<path d="M107.419 57.7297C107.419 57.7297 107.488 57.837 107.548 57.9022C107.571 57.6587 107.521 57.5903 107.419 57.7297Z" fill="#D6D3FC"/>
</g>
<g style="mix-blend-mode:multiply">
<path d="M107.554 57.9203L107.545 57.9235L107.554 57.9203Z" fill="#D6D3FC"/>
</g>
<g style="mix-blend-mode:multiply">
<path d="M106.006 44.0716L105.551 43.8593C105.556 43.9097 105.574 43.9579 105.604 43.9993C105.633 44.0407 105.672 44.0737 105.718 44.0951C105.764 44.1165 105.815 44.1256 105.865 44.1215C105.916 44.1174 105.964 44.1002 106.006 44.0716Z" fill="#D6D3FC"/>
</g>
<g style="mix-blend-mode:multiply">
<path d="M105.557 43.847C105.581 44.1651 105.72 44.2524 106.012 44.0594C105.97 44.088 105.922 44.1052 105.871 44.1093C105.821 44.1134 105.77 44.1043 105.724 44.0829C105.678 44.0615 105.639 44.0285 105.609 43.9871C105.58 43.9457 105.562 43.8975 105.557 43.847Z" fill="#D6D3FC"/>
</g>
<g style="mix-blend-mode:multiply">
<path d="M157.445 96.4524C157.439 96.5072 157.444 96.5628 157.459 96.6159L157.508 96.6389C157.58 96.4852 157.654 96.3253 157.726 96.1716C157.546 96.2473 157.452 96.3409 157.445 96.4524Z" fill="#E5E3FC"/>
</g>
<g style="mix-blend-mode:multiply">
<path d="M157.459 96.6159C157.444 96.5627 157.439 96.5072 157.445 96.4523C157.456 96.3327 157.548 96.2482 157.721 96.199C157.369 96.2146 157.282 96.3536 157.459 96.6159Z" fill="#E5E3FC"/>
</g>
<g style="mix-blend-mode:multiply">
<path d="M40.6677 50.6985L40.8152 50.7674C41.5608 51.0629 41.4723 50.5948 41.4055 50.1444C41.2149 50.28 41.0497 50.4575 40.8603 50.6387L40.6677 50.6985C40.6646 50.7119 40.6588 50.7245 40.6504 50.7354L40.6677 50.6985Z" fill="#CBC7FC"/>
</g>
<g style="mix-blend-mode:multiply">
<path d="M41.3961 50.1325C41.3346 49.7669 41.2949 49.4189 41.731 49.4951C40.4497 49.0319 40.9952 50.2374 40.6726 50.6559L40.8652 50.5961C41.0403 50.4457 41.2083 50.262 41.3961 50.1325Z" fill="#CBC7FC"/>
</g>
<g style="mix-blend-mode:multiply">
<path d="M40.8057 50.7555C41.2209 51.0395 41.7136 51.1884 42.2166 51.1819C41.974 50.7392 41.6399 50.396 41.6108 49.9931C41.5353 50.0331 41.4634 50.0798 41.396 50.1325C41.469 50.5858 41.5513 51.0511 40.8057 50.7555Z" fill="#CBC7FC"/>
</g>
<g style="mix-blend-mode:multiply">
<path d="M41.731 49.4951C41.2949 49.4188 41.3346 49.7668 41.3961 50.1325C41.4634 50.0798 41.5353 50.0332 41.6109 49.9931C41.6003 49.8189 41.6422 49.6454 41.731 49.4951Z" fill="#CBC7FC"/>
</g>
<g style="mix-blend-mode:multiply">
<path d="M43.6687 53.5894C43.7148 53.6503 43.7718 53.7023 43.8367 53.7427C43.8367 53.7427 43.9224 53.6554 43.9757 53.6054C43.9273 53.5471 43.8696 53.4974 43.8048 53.4582C43.8048 53.4582 43.7129 53.5426 43.6687 53.5894Z" fill="#FCFCFC"/>
</g>
</g>
</g>
<defs>
<clipPath id="clip0_115_2095">
<rect width="146.258" height="97.304" fill="white" transform="translate(41.7142 0.330322) rotate(25.0212)"/>
</clipPath>
</defs>
</svg>
