<svg width="100" height="86" viewBox="0 0 100 86" fill="none" xmlns="http://www.w3.org/2000/svg">
<path d="M15.9295 62.0299C15.9998 62.273 16.0826 62.5123 16.1775 62.7469C16.8459 64.0934 17.5413 65.439 18.1909 66.789C18.7995 68.0514 19.3734 69.3259 19.9527 70.5974C20.2782 71.2926 20.585 71.9912 20.9024 72.6841C21.5048 73.998 22.1312 75.3056 22.7019 76.6369C23.1807 77.7503 23.6066 78.8926 24.0537 80.0233C24.5008 81.154 24.9711 82.3271 25.4057 83.4853C25.5207 83.792 25.5882 84.1145 25.606 84.4416C25.612 84.6152 25.5616 84.786 25.4622 84.9285C25.3628 85.0709 25.2199 85.1773 25.055 85.2316C24.9116 85.2908 24.7523 85.2993 24.6035 85.2558C24.4546 85.2123 24.325 85.1192 24.2361 84.9921C24.0577 84.813 23.8943 84.6195 23.7475 84.4137C22.5098 82.2784 21.2427 80.1523 20.055 77.9828C18.7804 75.6545 17.5798 73.2857 16.3634 70.9255C15.8507 69.9889 15.4202 69.0142 14.9604 68.0486C14.2373 66.5394 13.5037 65.036 12.8283 63.5007C12.3468 62.4453 11.9321 61.3607 11.5869 60.2532C11.4155 59.5133 11.3027 58.7611 11.2493 58.0035C11.8191 57.499 12.3731 57.7321 12.8725 57.8026C13.5511 57.9127 14.2235 58.0589 14.8866 58.2405L18.6913 59.0599C19.788 59.2917 20.8836 59.4966 21.9759 59.7582C24.3455 60.3179 26.6815 60.9166 29.0358 61.4984C30.1011 61.7611 31.1612 62.0267 32.2271 62.3029C34.697 62.9452 37.1592 63.5986 39.6344 64.238C40.9155 64.5682 42.2073 64.8927 43.5694 65.2199C43.5256 64.8481 43.455 64.4799 43.3582 64.1182C42.8108 62.5403 42.2451 60.9794 41.6765 59.4131C41.1079 57.8468 40.5475 56.283 39.9577 54.7283C39.5023 53.5196 38.9993 52.337 38.5468 51.1335C38.0944 49.9301 37.7373 48.8257 37.3582 47.706C37.0724 46.9202 36.7602 46.1489 36.4586 45.3718C36.0221 44.2353 35.5486 43.119 35.1491 41.9622C34.7369 40.8238 34.3926 39.662 34.1178 38.4829C33.8817 37.4233 33.751 36.343 33.7277 35.2578C33.7129 34.1379 34.2123 33.2662 35.7537 33.4059C37.0896 33.5092 38.4171 33.7015 39.7275 33.9814C41.5654 34.3988 43.3875 34.9006 45.1846 35.4573C46.5941 35.8961 47.9522 36.48 49.3424 36.9843C50.7327 37.4887 52.0343 37.9316 53.3802 38.4052C55.1851 39.0264 56.9853 39.6639 58.7945 40.2553C59.5161 40.4929 60.2627 40.6757 61.0063 40.8532C61.2577 40.8949 61.5123 40.9143 61.7671 40.9112C61.8899 40.2369 61.8715 39.5445 61.7129 38.8777C61.3177 35.4421 60.496 32.0819 59.8028 28.6925C58.9111 24.3252 58.0142 19.9608 57.2054 15.5687C57.0125 14.2428 56.9032 12.9061 56.8781 11.5664C56.8777 11.2104 56.9433 10.8574 57.0715 10.5252C57.1272 10.2734 57.2698 10.0493 57.4742 9.89212C57.6787 9.73493 57.9319 9.65472 58.1895 9.66554C58.8702 9.64804 59.5507 9.70692 60.2182 9.84105C62.2339 10.395 64.2286 11.0361 66.2199 11.6585C66.9492 11.8851 67.6564 12.1719 68.3838 12.4202C70.7711 13.2383 73.1579 14.043 75.5453 14.8612C77.635 15.5879 79.72 16.3102 81.8003 17.0283C82.824 17.4032 83.8466 17.7511 84.8232 18.1656C85.0819 18.2214 85.3216 18.3438 85.5186 18.5206C85.7155 18.6975 85.8629 18.9227 85.946 19.174C85.3567 20.095 84.8861 20.2907 83.7452 20.0281C82.7294 19.7933 81.718 19.5286 80.7089 19.2557C77.3792 18.3619 74.0659 17.473 70.73 16.5551C68.4932 15.9365 66.2726 15.2471 64.0353 14.6151C63.0585 14.3383 62.0673 14.1106 60.9744 13.8355C60.9858 14.1669 61.0153 14.4975 61.0626 14.8257C61.7447 18.2073 62.4331 21.5879 63.1277 24.9672C63.8036 28.3248 64.5357 31.6722 65.1177 35.0468C65.4951 37.206 65.6443 39.4007 65.9356 41.5659C65.999 42.0329 65.9346 42.5085 65.7491 42.9418C65.5637 43.3752 65.2642 43.7501 64.8826 44.0268C64.5024 44.372 64.1035 44.696 63.6876 44.9973C63.4356 45.1621 63.1455 45.2594 62.845 45.2797C61.8806 45.3721 60.9074 45.2951 59.9694 45.0521C58.405 44.5812 56.8237 44.1677 55.2688 43.6641C53.159 42.9759 51.05 42.2392 48.9791 41.5091C48.2763 41.268 47.5764 41.0322 46.8717 40.8128C45.0201 40.2446 43.1685 39.6765 41.3098 39.1329C40.6793 38.9485 40.0267 38.8243 39.3765 38.692C39.144 38.6675 38.9101 38.66 38.6765 38.6694C39.236 40.2819 39.7703 41.7982 40.2849 43.2909C40.7994 44.7835 41.3519 46.4962 41.9186 48.0841C42.3543 49.3449 42.7982 50.608 43.2369 51.874C43.721 53.2733 44.2026 54.6809 44.6949 56.0826C45.0595 57.1003 45.4563 58.1141 45.8103 59.1376C46.467 60.854 46.9755 62.6234 47.3302 64.4265C47.3836 64.7266 47.3631 65.0352 47.2704 65.3256C47.1778 65.616 47.0157 65.8794 46.7984 66.0931C46.3752 66.5969 45.8247 66.978 45.2041 67.1967C44.5836 67.4155 43.9158 67.4639 43.2703 67.3368C41.2264 66.9702 39.1663 66.6744 37.1195 66.3025C35.2067 65.9742 33.2774 65.5655 31.362 65.1698C30.1378 64.9185 28.9279 64.618 27.7084 64.3502C26.3146 64.0404 24.9213 63.744 23.528 63.4477C22.1347 63.1513 20.6432 62.8262 19.1988 62.5371C18.1832 62.3779 17.1295 62.212 15.9295 62.0299Z" fill="white"/>
</svg>
