<svg width="169" height="169" viewBox="0 0 169 169" fill="none" xmlns="http://www.w3.org/2000/svg">
<g clip-path="url(#clip0_115_1974)">
<g style="mix-blend-mode:multiply">
<g style="mix-blend-mode:multiply">
<path d="M159.001 93.175C158.582 92.8997 158.13 92.6776 157.655 92.5137C153.768 91.7562 149.784 91.6232 145.855 92.1197C142.609 92.4761 139.368 93.1375 136.207 93.7284C132.45 94.4742 128.689 95.234 125.012 96.3502C124.931 96.4602 124.826 96.5504 124.705 96.6142C124.584 96.678 124.45 96.7137 124.314 96.7187C124.177 96.7236 124.041 96.6977 123.916 96.6428C123.791 96.588 123.68 96.5056 123.591 96.4018C123.472 96.5206 123.355 96.6379 123.239 96.7536L124.304 97.8182C126.363 97.4383 128.445 97.1663 130.471 96.6692C135.395 95.3975 140.396 94.445 145.442 93.8175C149.839 93.321 154.284 93.4632 158.64 94.2396C158.797 94.1159 158.914 93.9495 158.978 93.7606C159.042 93.5718 159.05 93.3684 159.001 93.175Z" fill="#D8D5FB"/>
</g>
<g style="mix-blend-mode:multiply">
<path d="M117.812 143.622C116.096 144.448 114.323 145.179 112.667 146.113C106.105 149.953 99.1368 153.052 91.8898 155.352C91.4067 155.498 90.933 155.662 90.4827 155.821C90.1216 155.967 89.5963 156.014 89.6432 156.576C89.6755 156.786 89.7835 156.977 89.9468 157.113C90.1101 157.248 90.3174 157.319 90.5297 157.313C92.4057 157.547 94.1364 158.04 95.2996 159.691C96.0078 158.832 95.3465 158.34 94.8071 157.791C94.2677 157.242 93.2499 157.425 93.2077 156.248C94.1974 155.943 95.2433 155.695 96.2329 155.296C102.75 152.731 109.12 149.806 115.313 146.535C116.279 146.019 117.592 145.709 117.864 144.321L117.864 143.589L117.812 143.622Z" fill="#EBE9FC"/>
</g>
<g style="mix-blend-mode:multiply">
<path d="M140.199 126.405C137.524 128.889 134.715 131.225 131.784 133.403C129.294 135.208 126.93 137.178 124.435 138.979C123.811 139.434 123.642 140.344 122.826 140.485C121.091 140.785 119.923 142.028 118.525 142.91C118.652 143.515 118.427 143.749 117.812 143.623C117.891 143.728 117.933 143.856 117.932 143.987C117.931 144.118 117.887 144.245 117.808 144.35C118.745 144.393 119.663 144.076 120.373 143.463C123.905 141.085 127.526 138.806 130.879 136.193C134.533 133.356 137.929 130.185 141.437 127.155C141.422 127.146 141.409 127.133 141.399 127.118C141.309 126.802 141.435 126.704 141.779 126.822L142.497 126.105L142.145 125.753C141.44 125.734 140.75 125.965 140.199 126.405Z" fill="#E4E2FC"/>
</g>
<g style="mix-blend-mode:multiply">
<path d="M117.836 143.646L117.836 144.378C117.916 144.273 117.959 144.144 117.959 144.012C117.959 143.88 117.916 143.751 117.836 143.646Z" fill="#E4E2FC"/>
</g>
<g style="mix-blend-mode:multiply">
<path d="M109.572 59.4761C109.478 59.2416 109.44 58.857 109.295 58.8148C107.63 58.2379 106.185 56.7933 104.197 57.4687C103.817 57.5953 103.292 57.933 103.01 57.5953C101.852 56.2305 100.351 56.8121 99.0282 56.8871C95.6109 56.9816 92.2092 57.385 88.8646 58.0925C89.0147 58.993 88.2361 59.3401 87.7906 59.8888C92.5511 59.2744 97.26 58.2895 102.128 58.5896C105.055 58.7773 107.705 59.4292 109.98 61.3287C110.646 60.5314 110.088 60.0108 109.572 59.4761Z" fill="#D6D2FC"/>
</g>
<g style="mix-blend-mode:multiply">
<path d="M158.284 109.642C157.031 110.192 155.868 110.925 154.832 111.818C153.486 112.911 152.74 114.417 151.633 115.636C149.612 117.873 147.117 119.646 145.325 122.094C145.067 122.416 144.706 122.638 144.302 122.723C142.872 123.215 142.281 124.304 142.206 125.757C142.487 125.714 142.605 125.831 142.558 126.109C142.764 125.969 142.98 125.837 143.172 125.682C148.764 121.074 153.829 115.861 158.274 110.139C158.331 110.017 158.289 109.787 158.284 109.642Z" fill="#E5E3FC"/>
</g>
<g style="mix-blend-mode:multiply">
<path d="M158.279 109.638L158.284 109.642L158.289 109.638L158.279 109.638Z" fill="#E5E3FC"/>
</g>
<g style="mix-blend-mode:multiply">
<path d="M142.178 125.748L142.53 126.1C142.576 125.822 142.459 125.705 142.178 125.748Z" fill="#E5E3FC"/>
</g>
<g style="mix-blend-mode:multiply">
<path d="M50.8555 45.1758L51.212 45.5322C50.757 43.9517 50.349 42.3523 49.8471 40.7905C48.7577 37.3854 47.419 34.0651 45.8417 30.8567C45.4477 30.4627 44.974 30.1016 45.1147 29.4262L44.3971 28.7274C43.6279 28.6711 43.8015 29.5481 43.3325 29.792L43.6795 30.1391C43.8374 30.2622 43.9569 30.4277 44.0242 30.6162C44.0915 30.8048 44.1037 31.0085 44.0594 31.2038C45.837 34.6135 46.8548 38.3047 48.1118 41.9067C48.5667 43.2247 48.4541 44.7349 49.4203 45.8887C49.4453 45.8863 49.4704 45.8863 49.4954 45.8887C49.9315 45.612 49.8237 44.3128 50.8555 45.1758Z" fill="#DDDAFD"/>
</g>
<g style="mix-blend-mode:multiply">
<path d="M116.907 99.5018C117.202 99.2407 117.511 98.995 117.831 98.7654C118.333 98.4324 118.056 98.1463 117.831 97.8274C116.532 97.7476 115.683 98.953 114.403 98.9765C111.8 99.0187 109.29 99.8019 106.72 100.027C103.85 100.28 100.932 100.721 98.1277 99.5674C98.6425 100.157 98.9053 100.925 98.8594 101.706C102.86 102.33 106.814 101.875 110.73 101.092C112.752 100.684 114.876 100.623 116.771 99.6284C116.81 99.58 116.856 99.5374 116.907 99.5018Z" fill="#D3D1FC"/>
</g>
<g style="mix-blend-mode:multiply">
<path d="M80.2348 59.443C79.7653 59.2773 79.2493 59.3043 78.7996 59.518C78.809 59.5288 78.816 59.5415 78.82 59.5553C78.8241 59.5691 78.8251 59.5835 78.823 59.5977C78.9262 59.9354 79.1091 60.3622 78.687 60.4654C78.2649 60.5686 78.3822 60.0855 78.4291 59.7853C77.144 60.0761 75.8495 59.7103 74.555 59.9073C70.9793 60.4769 67.3436 60.5668 63.7441 60.1746C63.9271 60.8641 63.4346 61.2252 63.0406 61.638C64.715 62.5432 66.5207 61.8443 68.2514 62.0554C72.3412 62.5338 76.2622 61.5488 80.2395 60.9673C80.1296 60.7283 80.0724 60.4686 80.0716 60.2056C80.0708 59.9427 80.1264 59.6826 80.2348 59.443Z" fill="#D1CEFC"/>
</g>
<g style="mix-blend-mode:multiply">
<path d="M158.284 109.633L158.279 109.638L158.289 109.638L158.284 109.633Z" fill="#DDDBFC"/>
</g>
<g style="mix-blend-mode:multiply">
<path d="M161.506 94.2443C161.211 94.4459 160.863 94.8868 160.568 94.4037C160.376 94.0707 160.924 94.0473 161.145 93.8831C160.863 93.6205 160.527 93.4223 160.161 93.3024C159.795 93.1826 159.407 93.1438 159.025 93.189C159.738 93.8268 159.259 94.0614 158.664 94.2536C161.459 95.6419 162.303 97.6587 161.454 100.843C160.727 103.634 159.198 106.035 157.66 108.39C156.919 109.525 157.787 109.379 158.293 109.633C160.779 106.922 162.735 104.056 163.091 100.145C163.288 97.8088 163.162 95.8999 161.506 94.2443Z" fill="#DDDBFC"/>
</g>
<g style="mix-blend-mode:multiply">
<path d="M159.001 93.1751C159.05 93.3685 159.042 93.5719 158.978 93.7607C158.914 93.9496 158.797 94.116 158.64 94.2398C159.236 94.0475 159.714 93.813 159.001 93.1751Z" fill="#DDDBFC"/>
</g>
<g style="mix-blend-mode:multiply">
<path d="M158.289 109.638L158.279 109.638L158.289 109.638Z" fill="#DDDBFC"/>
</g>
<g style="mix-blend-mode:multiply">
<path d="M100.735 89.0524C100.069 89.8403 99.4644 90.5954 99.5535 91.7164C101.007 89.7747 102.597 87.922 103.878 85.8724C105.81 82.7675 108.305 79.9816 109.286 76.3186C108.845 76.675 108.498 77.2097 107.804 77.0502C107.502 77.1802 107.222 77.3558 106.973 77.5708C104.45 80.8258 102.79 84.6436 100.252 87.9033C100.21 87.9455 100.262 88.0627 100.262 88.1472C101.031 88.1753 101.19 88.5224 100.735 89.0524Z" fill="#D7D5FC"/>
</g>
<g style="mix-blend-mode:multiply">
<path d="M109.286 76.3184C109.563 76.2339 109.812 76.0737 110.003 75.8558C110.194 75.6379 110.321 75.3709 110.369 75.0849C110.922 73.2088 111.621 71.4031 112.053 69.4614C112.517 67.3649 112.742 65.4606 112.086 63.4439C111.562 63.3204 111.075 63.0745 110.665 62.7263C110.754 65.2168 110.833 67.7072 110.097 70.1321C109.642 71.6188 108.77 73.0071 109.15 74.6815C109.192 74.8644 108.803 74.9442 108.545 74.902C107.743 75.4319 107.822 76.2527 107.832 77.0501C108.366 76.9469 108.573 76.1308 109.286 76.3184Z" fill="#D6D3FC"/>
</g>
<g style="mix-blend-mode:multiply">
<path d="M109.286 76.3186C108.554 76.1122 108.366 76.9471 107.804 77.0502C108.498 77.2097 108.845 76.675 109.286 76.3186Z" fill="#D6D3FC"/>
</g>
<g style="mix-blend-mode:multiply">
<path d="M63.7441 60.1747C60.2874 59.4102 56.887 58.5894 54.753 55.3297C54.7061 55.2828 54.3262 55.4564 54.1011 55.522C53.9698 55.6534 53.8431 55.78 53.7165 55.9066C53.8777 56.0325 53.9967 56.2045 54.0579 56.3997C54.119 56.5949 54.1194 56.804 54.0589 56.9994C54.038 57.2078 54.0686 57.4181 54.1479 57.6119C54.2272 57.8057 54.3529 57.9771 54.5138 58.111C56.8479 60.2569 59.8678 61.5051 63.0359 61.6333C62.928 60.9814 63.3454 60.5827 63.7441 60.1747Z" fill="#CDCAFB"/>
</g>
<g style="mix-blend-mode:multiply">
<path d="M63.7441 60.1748C63.3407 60.5782 62.9327 60.9862 63.0406 61.6381C63.4345 61.2254 63.927 60.8643 63.7441 60.1748Z" fill="#CDCAFB"/>
</g>
<g style="mix-blend-mode:multiply">
<path d="M53.8525 55.5363C53.9792 55.4847 54.0636 55.4847 54.1011 55.5222C53.6555 54.8234 54.3309 54.0354 53.9182 53.3225C52.5299 50.893 52.2391 48.0883 51.2167 45.5274C51.0461 45.5765 50.8684 45.5955 50.6914 45.5837L50.5788 45.5931C50.4709 45.973 50.6632 46.3998 50.7383 46.8876C50.274 46.7256 49.871 46.4242 49.5845 46.0246L49.4813 45.9214L49.4532 45.8933C50.0488 47.5114 49.9925 49.3312 50.8743 50.8883C52.7738 51.0806 51.6294 52.2344 51.545 53.0317C51.8639 54.2887 52.3658 55.4096 53.6978 55.8974C53.6837 55.7145 53.7259 55.5879 53.8525 55.5363ZM51.3761 49.7767C51.33 49.718 51.295 49.6512 51.2729 49.5798C51.3152 49.5375 51.423 49.486 51.4418 49.5047C51.4882 49.5623 51.5247 49.6273 51.5497 49.697C51.4793 49.7298 51.3902 49.7908 51.3761 49.7767Z" fill="#CFCBFC"/>
</g>
<g style="mix-blend-mode:multiply">
<path d="M50.5788 45.5933L50.6913 45.584C50.8684 45.5957 51.0461 45.5767 51.2166 45.5277L50.8602 45.1712C50.7259 45.2802 50.6277 45.4274 50.5788 45.5933Z" fill="#CFCBFC"/>
</g>
<g style="mix-blend-mode:multiply">
<path d="M53.7399 55.8927C53.8666 55.7661 53.9932 55.6395 54.1245 55.5081C54.087 55.4706 54.0026 55.4706 53.8759 55.5222C53.7493 55.5738 53.7024 55.6957 53.7399 55.9021L53.7399 55.8927Z" fill="#CFCBFC"/>
</g>
<g style="mix-blend-mode:multiply">
<path d="M96.7253 98.1843C97.2104 97.5155 97.5054 96.7278 97.5789 95.9049C97.8667 94.3624 98.5467 92.92 99.5535 91.7166C98.2262 90.2298 100.506 89.4324 100.285 88.1708C97.5836 90.4315 96.2047 93.4707 95.2855 96.7632C96.4064 96.5521 96.397 97.5464 96.7253 98.1843Z" fill="#CFCCFB"/>
</g>
<g style="mix-blend-mode:multiply">
<path d="M99.5535 91.7162C99.4503 90.6093 100.069 89.8402 100.735 89.0522C101.167 88.5457 101.012 88.147 100.262 88.147C100.506 89.4321 98.2074 90.2107 99.5535 91.7162Z" fill="#CFCCFB"/>
</g>
<g style="mix-blend-mode:multiply">
<path d="M88.8131 58.069C88.5761 58.0917 88.3379 58.098 88.1002 58.0878C87.9762 58.2459 87.807 58.3625 87.6151 58.4219C87.4232 58.4814 87.2178 58.481 87.0261 58.4208C84.7222 58.4058 82.4303 58.754 80.2347 59.4526C80.3973 59.672 80.4846 59.9379 80.4838 60.2109C80.4829 60.4839 80.3939 60.7493 80.23 60.9676L87.7343 59.8701C87.6264 58.9836 88.3253 58.585 88.8131 58.069Z" fill="#CFCCFC"/>
</g>
<g style="mix-blend-mode:multiply">
<path d="M88.813 58.0688C88.3112 58.5706 87.6264 58.9834 87.739 59.8651C88.1845 59.3164 88.9631 58.9693 88.813 58.0688Z" fill="#CFCCFC"/>
</g>
<g style="mix-blend-mode:multiply">
<path d="M80.2347 59.4434C80.1263 59.681 80.0698 59.9391 80.069 60.2003C80.0682 60.4615 80.1231 60.7199 80.23 60.9583C80.3939 60.74 80.4829 60.4746 80.4838 60.2016C80.4846 59.9286 80.3973 59.6627 80.2347 59.4434Z" fill="#CFCCFC"/>
</g>
<g style="mix-blend-mode:multiply">
<path d="M123.211 96.7629C121.376 96.8625 119.565 97.2209 117.831 97.8276C119.037 99.2956 117.517 99.1268 116.902 99.4973C116.856 99.5442 116.813 99.5864 116.766 99.6333C119.342 99.3807 121.871 98.7796 124.285 97.8464C124 97.8411 123.728 97.7249 123.528 97.5226C123.327 97.3203 123.214 97.0478 123.211 96.7629Z" fill="#E2E0FC"/>
</g>
<g style="mix-blend-mode:multiply">
<path d="M123.211 96.7632C123.218 97.0432 123.333 97.3096 123.531 97.5077C123.729 97.7057 123.995 97.8203 124.275 97.8279L123.211 96.7632Z" fill="#E2E0FC"/>
</g>
<g style="mix-blend-mode:multiply">
<path d="M117.822 98.7561C117.501 98.9856 117.193 99.2314 116.898 99.4924C117.489 99.1454 119.032 99.2908 117.826 97.8228C118.047 98.137 118.324 98.4231 117.822 98.7561Z" fill="#E2E0FC"/>
</g>
<g style="mix-blend-mode:multiply">
<path d="M98.1043 99.5441L96.6972 98.1371C95.9233 97.9729 95.8202 97.0724 95.2433 96.6831C95.3324 98.6483 95.5059 100.548 97.776 101.317C98.0099 101.323 98.2433 101.344 98.4748 101.378C98.5793 101.483 98.6976 101.573 98.8266 101.645C98.6343 100.984 97.7713 100.477 98.1043 99.5441Z" fill="#C9C6FB"/>
</g>
<g style="mix-blend-mode:multiply">
<path d="M98.1043 99.5439C97.7525 100.459 98.6015 100.979 98.836 101.683C98.8819 100.901 98.6191 100.133 98.1043 99.5439Z" fill="#C9C6FB"/>
</g>
<g style="mix-blend-mode:multiply">
<path d="M96.7254 98.1842C96.4111 97.5604 96.4111 96.5567 95.2714 96.7302C95.8436 97.1148 95.9374 98.006 96.7254 98.1842Z" fill="#C9C6FB"/>
</g>
<g style="mix-blend-mode:multiply">
<path d="M44.3971 28.7271C44.1908 27.2826 43.0464 26.6916 41.6909 25.5706C41.8584 27.0995 42.4262 28.5572 43.3371 29.7965C43.5013 28.4504 43.6279 28.3238 44.3971 28.7271Z" fill="#EBE8FC"/>
</g>
<g style="mix-blend-mode:multiply">
<path d="M44.3971 28.7273C43.6045 28.3474 43.4778 28.474 43.3324 29.792C43.8249 29.5246 43.6514 28.6476 44.3971 28.7273Z" fill="#EBE8FC"/>
</g>
<g style="mix-blend-mode:multiply">
<path d="M111.387 61.2912C111.389 61.0516 111.343 60.814 111.253 60.5923C111.162 60.3706 111.028 60.1691 110.858 59.9997C110.689 59.8303 110.488 59.6964 110.266 59.6057C110.044 59.5149 109.807 59.4693 109.567 59.4714C110.402 59.9404 111.415 60.3813 109.923 61.3005C109.787 61.9619 110.256 62.3183 110.632 62.7217C110.974 62.2855 110.059 61.2208 111.387 61.2912Z" fill="#D6D3FC"/>
</g>
<g style="mix-blend-mode:multiply">
<path d="M109.572 59.4761C110.097 60.0014 110.636 60.5408 109.928 61.3053C111.424 60.3813 110.407 59.9451 109.572 59.4761Z" fill="#D6D3FC"/>
</g>
<g style="mix-blend-mode:multiply">
<path d="M51.5638 53.0506C51.5354 52.2891 51.3038 51.5491 50.8931 50.9072C50.4756 51.8124 50.9306 52.455 51.5638 53.0506Z" fill="#E6E7FD"/>
</g>
<g style="mix-blend-mode:multiply">
<path d="M50.8743 50.8884C51.2851 51.5302 51.5166 52.2703 51.545 53.0318C51.62 52.2251 52.7691 51.076 50.8743 50.8884Z" fill="#E6E7FD"/>
</g>
<g style="mix-blend-mode:multiply">
<path d="M111.377 61.3101C111.087 61.7509 111.349 62.4732 110.679 62.7218L110.932 62.6655C111.41 62.7875 111.926 62.8531 112.086 63.4441C112.278 62.7828 111.912 62.2387 111.72 61.6618C111.392 61.7369 111.293 61.6102 111.377 61.3101Z" fill="#D6D2FC"/>
</g>
<g style="mix-blend-mode:multiply">
<path d="M110.932 62.6655L110.679 62.7217C111.089 63.0699 111.576 63.3159 112.1 63.4393C111.926 62.8531 111.41 62.7874 110.932 62.6655Z" fill="#D6D2FC"/>
</g>
<g style="mix-blend-mode:multiply">
<path d="M111.377 61.3098C110.05 61.2394 110.951 62.29 110.66 62.7403C111.349 62.473 111.087 61.7507 111.377 61.3098Z" fill="#D6D2FC"/>
</g>
<g style="mix-blend-mode:multiply">
<path d="M95.2714 160.216C95.3699 160.502 95.4872 160.816 95.914 160.68C95.8108 160.483 95.7217 160.272 95.5857 160.071C95.4858 159.952 95.376 159.842 95.2574 159.742C95.2761 159.911 95.2245 160.075 95.2714 160.216Z" fill="#EBE9FC"/>
</g>
<g style="mix-blend-mode:multiply">
<path d="M161.506 94.2444L161.145 93.8833C160.976 94.296 161.22 94.296 161.506 94.2444Z" fill="#D8D5FB"/>
</g>
<g style="mix-blend-mode:multiply">
<path d="M160.563 94.4086C160.84 94.8729 161.206 94.4508 161.501 94.2491C161.22 94.296 160.976 94.296 161.14 93.8879C160.929 94.0615 160.385 94.0615 160.563 94.4086Z" fill="#D8D5FB"/>
</g>
<g style="mix-blend-mode:multiply">
<path d="M45.1053 29.4355C45.0631 30.0593 45.8651 30.2516 45.8323 30.866C46.0012 30.1718 45.504 29.8342 45.1053 29.4355Z" fill="#EBE8FC"/>
</g>
<g style="mix-blend-mode:multiply">
<path d="M45.8464 30.8519C45.8793 30.2375 45.0585 30.0639 45.1194 29.4214C44.9787 30.0968 45.4665 30.4438 45.8464 30.8519Z" fill="#EBE8FC"/>
</g>
<g style="mix-blend-mode:multiply">
<path d="M78.7902 59.7621C78.8131 59.7119 78.8258 59.6577 78.8277 59.6026L78.8042 59.5229C78.7011 59.6261 78.565 59.7058 78.4478 59.8043C78.5838 60.0153 78.6917 60.0013 78.7902 59.7621Z" fill="#CFCCFC"/>
</g>
<g style="mix-blend-mode:multiply">
<path d="M78.687 60.4656C79.1091 60.3624 78.9262 59.9356 78.823 59.5979C78.8211 59.653 78.8084 59.7072 78.7855 59.7574C78.6917 60.0013 78.5838 60.0153 78.4431 59.7996C78.3821 60.0857 78.3024 60.5594 78.687 60.4656Z" fill="#CFCCFC"/>
</g>
<g style="mix-blend-mode:multiply">
<path d="M124.984 96.3596C124.756 96.2703 124.512 96.2288 124.268 96.2377C124.023 96.2465 123.783 96.3056 123.563 96.4112C124.032 96.521 124.523 96.5031 124.984 96.3596Z" fill="#E2E0FC"/>
</g>
<g style="mix-blend-mode:multiply">
<path d="M124.984 96.3596C124.523 96.5031 124.032 96.521 123.563 96.4112C123.651 96.5149 123.763 96.5973 123.888 96.6522C124.013 96.707 124.149 96.7329 124.286 96.728C124.422 96.723 124.556 96.6873 124.677 96.6235C124.798 96.5597 124.902 96.4695 124.984 96.3596Z" fill="#E2E0FC"/>
</g>
<g style="mix-blend-mode:multiply">
<path d="M118.525 142.91L117.812 143.623C117.908 143.63 118.004 143.617 118.094 143.584C118.184 143.55 118.265 143.498 118.333 143.43C118.401 143.363 118.453 143.281 118.486 143.191C118.519 143.101 118.533 143.005 118.525 142.91Z" fill="#EBE9FC"/>
</g>
<g style="mix-blend-mode:multiply">
<path d="M117.836 143.646C118.436 143.777 118.666 143.538 118.549 142.933C118.556 143.029 118.543 143.125 118.51 143.215C118.476 143.304 118.424 143.386 118.356 143.454C118.289 143.521 118.207 143.574 118.117 143.607C118.027 143.64 117.931 143.653 117.836 143.646Z" fill="#EBE9FC"/>
</g>
<g style="mix-blend-mode:multiply">
<path d="M53.74 55.8926C53.6928 56.0883 53.7002 56.2933 53.7614 56.4852C53.8226 56.677 53.9352 56.8484 54.0871 56.9807C54.1152 56.5867 53.7212 56.3147 53.74 55.8926Z" fill="#CFCBFC"/>
</g>
<g style="mix-blend-mode:multiply">
<path d="M53.74 55.8925C53.74 56.2959 54.134 56.5679 54.0824 56.9853C54.1429 56.79 54.1425 56.5808 54.0814 56.3856C54.0202 56.1904 53.9012 56.0184 53.74 55.8925Z" fill="#CFCBFC"/>
</g>
<g style="mix-blend-mode:multiply">
<path d="M44.0594 31.2036C44.1016 30.7956 43.6702 30.5423 43.6936 30.1343C43.6435 30.3288 43.6514 30.5337 43.7164 30.7237C43.7814 30.9138 43.9007 31.0806 44.0594 31.2036Z" fill="#EBE8FC"/>
</g>
<g style="mix-blend-mode:multiply">
<path d="M43.6936 30.1344C43.6702 30.5424 44.1017 30.7957 44.0595 31.2037C44.1062 31.0091 44.0967 30.8053 44.0319 30.6159C43.9671 30.4265 43.8498 30.2595 43.6936 30.1344Z" fill="#EBE8FC"/>
</g>
<g style="mix-blend-mode:multiply">
<path d="M87.0261 58.4113C87.4294 58.4582 87.7015 58.0549 88.1001 58.0783C87.9079 58.0269 87.7051 58.0308 87.515 58.0897C87.325 58.1487 87.1555 58.2602 87.0261 58.4113Z" fill="#E2DDFC"/>
</g>
<g style="mix-blend-mode:multiply">
<path d="M88.1001 58.0785C87.7015 58.0551 87.4294 58.4584 87.0261 58.4115C87.2177 58.4718 87.4232 58.4722 87.6151 58.4127C87.807 58.3532 87.9762 58.2366 88.1001 58.0785Z" fill="#E2DDFC"/>
</g>
<g style="mix-blend-mode:multiply">
<path d="M108.455 74.6817C108.455 74.6817 108.484 74.8037 108.516 74.8834C108.62 74.6677 108.596 74.5879 108.455 74.6817Z" fill="#D6D3FC"/>
</g>
<g style="mix-blend-mode:multiply">
<path d="M108.516 74.9022L108.507 74.9022L108.516 74.9022Z" fill="#D6D3FC"/>
</g>
<g style="mix-blend-mode:multiply">
<path d="M111.72 61.6615L111.373 61.3145C111.361 61.3624 111.361 61.4128 111.374 61.4606C111.387 61.5083 111.412 61.5519 111.447 61.5869C111.482 61.6219 111.526 61.6472 111.574 61.6603C111.622 61.6734 111.672 61.6738 111.72 61.6615Z" fill="#D6D3FC"/>
</g>
<g style="mix-blend-mode:multiply">
<path d="M111.382 61.3052C111.298 61.6053 111.396 61.732 111.729 61.6522C111.681 61.6645 111.631 61.6641 111.583 61.651C111.535 61.638 111.492 61.6127 111.457 61.5776C111.422 61.5426 111.396 61.4991 111.383 61.4513C111.37 61.4035 111.37 61.3532 111.382 61.3052Z" fill="#D6D3FC"/>
</g>
<g style="mix-blend-mode:multiply">
<path d="M141.484 126.968C141.46 127.016 141.446 127.069 141.441 127.122L141.479 127.16C141.596 127.043 141.718 126.921 141.835 126.804C141.645 126.813 141.527 126.868 141.484 126.968Z" fill="#E5E3FC"/>
</g>
<g style="mix-blend-mode:multiply">
<path d="M141.441 127.122C141.446 127.069 141.46 127.016 141.484 126.968C141.534 126.861 141.646 126.814 141.821 126.827C141.493 126.724 141.366 126.822 141.441 127.122Z" fill="#E5E3FC"/>
</g>
<g style="mix-blend-mode:multiply">
<path d="M49.4766 45.9261L49.5892 46.0387C50.1754 46.5593 50.2505 46.0996 50.3396 45.6635C50.1192 45.7244 49.9081 45.8323 49.6736 45.9355L49.4766 45.9261C49.4694 45.9374 49.4598 45.947 49.4485 45.9542L49.4766 45.9261Z" fill="#CBC7FC"/>
</g>
<g style="mix-blend-mode:multiply">
<path d="M50.3349 45.6494C50.4006 45.293 50.4803 44.96 50.8555 45.1757C49.8331 44.3221 49.9316 45.6119 49.4954 45.8886L49.6924 45.898C49.9034 45.8183 50.1192 45.7057 50.3349 45.6494Z" fill="#CBC7FC"/>
</g>
<g style="mix-blend-mode:multiply">
<path d="M49.5845 46.0244C49.871 46.424 50.274 46.7254 50.7382 46.8874C50.6632 46.3996 50.4709 45.9728 50.5788 45.5929C50.496 45.6045 50.4144 45.6233 50.3349 45.6492C50.2505 46.0901 50.1707 46.545 49.5845 46.0244Z" fill="#CBC7FC"/>
</g>
<g style="mix-blend-mode:multiply">
<path d="M50.8555 45.1758C50.4803 44.9601 50.4006 45.2931 50.3349 45.6495C50.4144 45.6236 50.496 45.6048 50.5788 45.5933C50.6273 45.4296 50.7237 45.2843 50.8555 45.1758Z" fill="#CBC7FC"/>
</g>
<g style="mix-blend-mode:multiply">
<path d="M51.2683 49.5843C51.2903 49.6558 51.3253 49.7225 51.3714 49.7813C51.3714 49.7813 51.4793 49.7297 51.545 49.7016C51.52 49.6319 51.4835 49.5669 51.4371 49.5093C51.4371 49.5093 51.3245 49.5562 51.2683 49.5843Z" fill="#FCFCFC"/>
</g>
</g>
</g>
<defs>
<clipPath id="clip0_115_1974">
<rect width="142.979" height="95.1225" fill="white" transform="translate(67.2617) rotate(45)"/>
</clipPath>
</defs>
</svg>
