<svg width="163" height="163" viewBox="0 0 163 163" fill="none" xmlns="http://www.w3.org/2000/svg">
<g clip-path="url(#clip0_115_2071)">
<g style="mix-blend-mode:multiply">
<g style="mix-blend-mode:multiply">
<path d="M102.926 101.696C102.778 104.546 102.693 107.402 99.9213 109.297C99.0258 109.875 97.9449 110.093 96.8956 109.907C95.8463 109.72 94.9063 109.144 94.2644 108.293C94.0705 108.037 93.9692 107.723 93.9769 107.402C93.9846 107.081 94.1009 106.772 94.3068 106.525C95.9572 104.869 97.6995 103.306 99.5253 101.844C100.024 101.511 100.605 101.321 101.205 101.294C101.805 101.268 102.4 101.407 102.926 101.696Z" fill="#ECB7B7"/>
</g>
<g style="mix-blend-mode:multiply">
<path d="M39.004 101.131C37.8833 102.141 36.5144 102.837 35.0371 103.146C33.6936 103.556 32.039 103.471 31.9117 102.142C31.8057 101.145 31.1763 99.4547 32.7037 98.5213C33.6654 97.9415 34.5139 97.2061 35.4543 96.5909C36.1302 96.0569 36.9835 95.7994 37.8418 95.8703C38.7002 95.9412 39.4997 96.3352 40.0788 96.9727C41.1465 98.2102 40.8001 99.5183 39.004 101.131Z" fill="#EEBDBD"/>
</g>
<g style="mix-blend-mode:multiply">
<path d="M79.5707 94.1514C78.5403 95.4638 77.1065 96.4005 75.4907 96.8172C74.8614 96.9492 74.206 96.8646 73.6309 96.577C73.0558 96.2895 72.5948 95.8159 72.3229 95.2332C71.6158 94.0312 72.6623 93.3523 73.4118 92.7301C75.3917 90.9906 77.4636 89.4137 80.3415 89.534C81.6921 89.5976 82.4133 90.4178 81.7628 91.5492C81.1114 92.4804 80.3778 93.3513 79.5707 94.1514Z" fill="#EEBEBE"/>
</g>
<g style="mix-blend-mode:multiply">
<path d="M54.6806 78.0431C51.9016 80.4261 51.2228 80.5251 49.1298 79.2099C48.7278 79.0189 48.4167 78.6779 48.2634 78.2601C48.11 77.8423 48.1266 77.3811 48.3095 76.9754C48.7667 75.8027 49.5998 74.8147 50.6784 74.1659C51.757 73.5172 53.0203 73.2445 54.2705 73.3904C55.0907 73.5742 56.116 73.6096 56.4483 74.649C56.5795 75.1406 56.5737 75.6587 56.4316 76.1473C56.2896 76.6359 56.0166 77.0763 55.6422 77.4209C55.3494 77.6683 55.0263 77.8774 54.6806 78.0431Z" fill="#EEC0C0"/>
</g>
<g style="mix-blend-mode:multiply">
<path d="M25.5831 64.8698C24.8195 65.9164 23.3911 66.2699 22.2951 67.1255C22.0778 67.3648 21.8057 67.5478 21.5022 67.6589C21.1986 67.7701 20.8727 67.806 20.5522 67.7636C20.2318 67.7212 19.9264 67.6017 19.6622 67.4155C19.398 67.2292 19.1829 66.9817 19.0353 66.6942C18.5495 66.0869 18.3185 65.3146 18.391 64.5402C18.4636 63.7659 18.834 63.05 19.4242 62.5435C21.2203 61.1858 23.4123 61.1151 25.5336 60.9596C25.8635 60.9714 26.1785 61.1003 26.4221 61.3231C26.6656 61.5459 26.8219 61.8482 26.863 62.1758C27.1388 63.3142 26.4104 64.0425 25.5831 64.8698Z" fill="#EEBFBF"/>
</g>
<g style="mix-blend-mode:multiply">
<path d="M138.296 99.0375C137.633 99.7993 136.711 100.288 135.708 100.409C135.09 100.512 134.455 100.424 133.889 100.156C133.323 99.8882 132.852 99.4534 132.54 98.9102C132.271 98.3298 132.226 97.6707 132.412 97.0589C132.599 96.4471 133.004 95.9255 133.551 95.5939C134.775 94.7248 136.125 94.0476 137.553 93.5857C137.812 93.4572 138.101 93.4034 138.388 93.4302C138.675 93.4571 138.949 93.5636 139.179 93.7378C139.409 93.9119 139.586 94.1468 139.69 94.416C139.794 94.6852 139.82 94.978 139.767 95.2615C139.734 96.6537 139.214 97.9901 138.296 99.0375Z" fill="#EEC0C0"/>
</g>
<g style="mix-blend-mode:multiply">
<path d="M116.934 52.3893C116.559 52.5943 115.803 53.0398 115.032 53.4429C114.042 53.9803 113.081 55.5217 111.935 53.7116C111.009 52.262 111.355 50.0487 112.776 49.4053C113.658 49.0226 114.473 48.4996 115.188 47.8567C116.029 47.1425 117.274 46.4779 118.257 47.6163C118.519 47.8513 118.726 48.1414 118.864 48.4659C119.001 48.7904 119.065 49.1413 119.051 49.4933C119.036 49.8454 118.945 50.1899 118.782 50.5023C118.619 50.8147 118.389 51.0872 118.108 51.3003C117.79 51.5054 117.535 51.7882 116.934 52.3893Z" fill="#EFC5C5"/>
</g>
<g style="mix-blend-mode:multiply">
<path d="M115.697 93.7199C115.096 94.5331 113.71 94.8866 112.14 95.0564C111.638 95.1673 111.113 95.0808 110.673 94.8149C110.234 94.5489 109.913 94.1239 109.778 93.628C109.684 93.424 109.636 93.2014 109.638 92.9766C109.641 92.7517 109.693 92.5302 109.792 92.3283C109.891 92.1263 110.034 91.949 110.21 91.8093C110.386 91.6696 110.592 91.5711 110.811 91.5208C112.274 90.9763 112.925 89.3076 114.481 88.9116C115.308 88.6924 116.199 88.0277 116.934 88.8904C117.354 89.3027 117.61 89.8539 117.653 90.4409C117.696 91.0279 117.523 91.6104 117.168 92.0794C116.814 92.433 116.453 92.7936 115.697 93.7199Z" fill="#EDB9B9"/>
</g>
<g style="mix-blend-mode:multiply">
<path d="M79.0758 71.9198C79.2331 71.7201 79.4135 71.5397 79.6132 71.3824C80.7163 71.6935 80.9567 70.449 81.7416 70.1874C82.3154 69.6026 83.003 69.1415 83.7618 68.8326C84.5207 68.5238 85.3348 68.3736 86.1539 68.3913C86.5288 68.3377 86.9113 68.3916 87.2568 68.5468C87.6023 68.702 87.8966 68.9522 88.1055 69.2681C88.3208 69.6566 88.4093 70.1026 88.3585 70.5438C88.3078 70.985 88.1205 71.3994 87.8227 71.7288C86.8257 73.1218 85.2488 73.6946 83.8558 74.5219C82.1375 74.2179 80.1435 74.8967 78.9626 72.9663C79.0246 72.6205 79.0624 72.2708 79.0758 71.9198Z" fill="#EEBDBD"/>
</g>
<g style="mix-blend-mode:multiply">
<path d="M46.959 31.6852C45.3043 32.4206 43.7558 33.6015 41.79 33.8136C40.8213 33.9197 40.0434 33.7783 39.7111 32.6681C39.5178 32.2864 39.4694 31.8476 39.5747 31.4329C39.6799 31.0182 39.9319 30.6557 40.2839 30.4125C41.8508 29.0985 43.806 28.3358 45.8488 28.2416C46.2977 28.1875 46.7523 28.2749 47.1491 28.4917C47.5459 28.7085 47.8651 29.0438 48.062 29.4508C48.5217 30.4902 47.5954 30.9923 46.959 31.6852Z" fill="#EFC2C2"/>
</g>
<g style="mix-blend-mode:multiply">
<path d="M123.567 127.258C122.506 126.197 122.619 124.896 123.829 123.616C124.479 123.126 125.281 122.879 126.094 122.918C126.908 122.957 127.682 123.279 128.283 123.829C128.665 124.344 128.846 124.98 128.792 125.619C128.739 126.258 128.455 126.856 127.993 127.3C127.395 127.87 126.598 128.184 125.772 128.176C124.945 128.168 124.155 127.839 123.567 127.258Z" fill="#EDBCBC"/>
</g>
<g style="mix-blend-mode:multiply">
<path d="M104.418 82.2721C102.842 83.1984 101.915 82.4842 101.088 81.1054C100.261 79.7265 100.975 79.0265 101.816 78.185C102.983 77.0183 104.242 76.0283 106.052 76.198C107.402 78.7365 106.321 80.6104 104.418 82.2721Z" fill="#EDBCBC"/>
</g>
<g style="mix-blend-mode:multiply">
<path d="M80.7728 44.7809C81.2183 45.5941 82.1304 46.2517 81.0274 47.3547C79.599 48.67 77.2514 49.3205 76.2968 48.3801C75.3422 47.4396 75.4978 46.3507 76.4241 45.4243C77.6474 44.1869 79.8606 43.8829 80.7728 44.7809Z" fill="#EEC1C1"/>
</g>
<g style="mix-blend-mode:multiply">
<path d="M57.4666 40.5526C60.0475 41.7194 60.0475 41.7194 58.2303 43.0275C57.5231 43.5225 56.8938 44.0811 56.2362 44.6397C56.0347 44.8328 55.796 44.9827 55.5345 45.0802C55.2731 45.1778 54.9945 45.2209 54.7158 45.207C54.437 45.1931 54.1641 45.1225 53.9137 44.9994C53.6632 44.8763 53.4406 44.7034 53.2593 44.4912C52.5946 43.7417 53.0542 42.8719 53.7472 42.1507C54.0937 41.8042 54.4543 41.4436 54.8008 41.0971C55.7271 41.2456 56.5403 40.687 57.4666 40.5526Z" fill="#EFC4C4"/>
</g>
<g style="mix-blend-mode:multiply">
<path d="M104.418 82.2719C105.333 80.3652 105.886 78.3059 106.052 76.1979C106.907 75.9645 107.933 75.7312 108.286 76.7919C108.64 77.8525 109.036 79.394 107.827 80.2072C106.618 81.0203 105.988 82.3285 104.418 82.2719Z" fill="#F0CACA"/>
</g>
<g style="mix-blend-mode:multiply">
<path d="M78.9909 72.9945C80.5324 73.7864 82.4416 73.4329 83.8841 74.5501C80.2283 75.7734 80.1788 75.7522 78.9909 72.9945Z" fill="#EFC4C4"/>
</g>
<g style="mix-blend-mode:multiply">
<path d="M81.7627 70.2084C81.6142 72.5065 81.6142 72.5065 79.6343 71.4034C80.193 70.7458 80.7516 70.0741 81.7627 70.2084Z" fill="#EFC4C4"/>
</g>
<g style="mix-blend-mode:multiply">
<path d="M57.4666 40.5524C56.6817 41.3373 55.8968 42.1222 54.7796 41.1323C55.1053 40.7592 55.5428 40.5012 56.0269 40.3968C56.5111 40.2923 57.016 40.3469 57.4666 40.5524Z" fill="#F6E0E0"/>
</g>
<g style="mix-blend-mode:multiply">
<path d="M79.0757 71.9199L79.005 72.9806C78.9159 72.815 78.8753 72.6277 78.8878 72.4401C78.9003 72.2525 78.9654 72.0722 79.0757 71.9199Z" fill="#EFC4C4"/>
</g>
</g>
</g>
<defs>
<clipPath id="clip0_115_2071">
<rect width="130.56" height="99.92" fill="white" transform="translate(70.6541) rotate(45)"/>
</clipPath>
</defs>
</svg>
