<svg width="98" height="46" viewBox="0 0 98 46" fill="none" xmlns="http://www.w3.org/2000/svg">
<path d="M3.04 14.448H7.68V33.52H18.752V38H3.04V14.448Z" fill="#0D0C0C"/>
<path d="M53.04 38V13.488H53.072L66.16 32.048L64.176 31.6L77.232 13.488H77.296V38H72.656V23.952L72.944 26.352L64.976 37.68H64.912L56.72 26.352L57.52 24.144V38H53.04ZM94.9598 20.144C94.0638 19.6533 93.1464 19.248 92.2078 18.928C91.2904 18.608 90.4264 18.448 89.6158 18.448C88.6131 18.448 87.8238 18.6507 87.2478 19.056C86.6718 19.4613 86.3838 20.0693 86.3838 20.88C86.3838 21.4347 86.5971 21.936 87.0238 22.384C87.4718 22.8107 88.0371 23.1947 88.7198 23.536C89.4238 23.8773 90.1491 24.1867 90.8958 24.464C91.5784 24.72 92.2504 25.0293 92.9118 25.392C93.5944 25.7333 94.2024 26.1707 94.7358 26.704C95.2691 27.216 95.6958 27.8667 96.0158 28.656C96.3358 29.424 96.4958 30.3733 96.4958 31.504C96.4958 32.6987 96.1864 33.808 95.5678 34.832C94.9491 35.856 94.0424 36.688 92.8478 37.328C91.6531 37.9467 90.1811 38.256 88.4318 38.256C87.5358 38.256 86.6184 38.1707 85.6798 38C84.7624 37.808 83.8558 37.5307 82.9598 37.168C82.0638 36.784 81.1998 36.304 80.3678 35.728L82.4158 32.112C82.9704 32.5173 83.5678 32.88 84.2078 33.2C84.8691 33.4987 85.5304 33.7333 86.1918 33.904C86.8531 34.0747 87.4611 34.16 88.0158 34.16C88.5704 34.16 89.1251 34.0853 89.6798 33.936C90.2558 33.7653 90.7251 33.488 91.0878 33.104C91.4718 32.72 91.6638 32.1867 91.6638 31.504C91.6638 31.0347 91.5038 30.608 91.1838 30.224C90.8851 29.84 90.4691 29.488 89.9358 29.168C89.4238 28.848 88.8584 28.5707 88.2398 28.336C87.5144 28.0587 86.7678 27.7387 85.9998 27.376C85.2318 27.0133 84.5064 26.576 83.8238 26.064C83.1624 25.5307 82.6184 24.88 82.1918 24.112C81.7864 23.3227 81.5838 22.3627 81.5838 21.232C81.5838 19.8667 81.8824 18.6827 82.4798 17.68C83.0984 16.6773 83.9624 15.888 85.0718 15.312C86.1811 14.7147 87.4611 14.384 88.9118 14.32C90.8104 14.32 92.3464 14.544 93.5198 14.992C94.7144 15.44 95.7811 15.9733 96.7198 16.592L94.9598 20.144Z" fill="#0D0C0C"/>
<g clip-path="url(#clip0_13_22)">
<path fill-rule="evenodd" clip-rule="evenodd" d="M42.9094 3.63509L34.817 0L26.7252 3.63509L18.6334 7.27018V11.2159C18.4556 11.2646 18.2982 11.3679 18.1844 11.5109C18.0706 11.6539 18.0064 11.8289 18.001 12.0103C17.9956 12.1918 18.0494 12.3702 18.1546 12.5194C18.2597 12.6687 18.4107 12.7809 18.5853 12.8397L18.5615 12.9189L18.2585 13.9402H19.4725L19.1689 12.9189L19.1451 12.8397C19.3198 12.7808 19.4707 12.6686 19.5758 12.5193C19.6809 12.37 19.7346 12.1916 19.7292 12.0101C19.7237 11.8287 19.6594 11.6537 19.5455 11.5107C19.4317 11.3678 19.2743 11.2645 19.0964 11.2159V7.47821L25.3801 10.3V12.4772C28.1272 10.5268 31.4292 9.47706 34.8173 9.47706C38.2054 9.47706 41.5074 10.5268 44.2544 12.4772V10.3L51.0006 7.27018L42.9094 3.63509ZM22.8106 32.2188L25.4474 29.6262C24.7142 28.077 24.3899 26.3711 24.5043 24.6661C24.6187 22.961 25.1682 21.3118 26.102 19.8709C27.0358 18.4299 28.3238 17.2436 29.847 16.4216C31.3702 15.5996 33.0795 15.1684 34.817 15.1679C40.5252 15.1679 45.1527 19.7183 45.1527 25.3316C45.1544 26.8153 44.8251 28.2813 44.1878 29.6262L46.824 32.2188C48.066 30.1294 48.7187 27.7519 48.715 25.3316C48.715 17.7822 42.4927 11.6639 34.817 11.6639C27.1413 11.6639 20.9202 17.7822 20.9202 25.3316C20.9162 27.7519 21.5688 30.1293 22.8106 32.2188V32.2188ZM31.1637 23.2536C31.5819 23.2535 31.9907 23.3754 32.3385 23.6038C32.6862 23.8322 32.9573 24.1569 33.1173 24.5369C33.2774 24.9168 33.3193 25.3349 33.2378 25.7383C33.1562 26.1416 32.9549 26.5122 32.6592 26.803C32.3635 27.0938 31.9867 27.2918 31.5766 27.372C31.1664 27.4522 30.7413 27.411 30.355 27.2536C29.9687 27.0961 29.6385 26.8295 29.4063 26.4875C29.174 26.1455 29.0501 25.7435 29.0502 25.3322C29.0504 24.781 29.2731 24.2524 29.6694 23.8626C30.0657 23.4728 30.6032 23.2538 31.1637 23.2536V23.2536ZM38.4697 23.2536C38.8879 23.2535 39.2967 23.3754 39.6444 23.6038C39.9922 23.8322 40.2632 24.1569 40.4233 24.5369C40.5834 24.9168 40.6253 25.3349 40.5437 25.7383C40.4622 26.1416 40.2608 26.5122 39.9651 26.803C39.6694 27.0938 39.2927 27.2918 38.8826 27.372C38.4724 27.4522 38.0473 27.411 37.661 27.2536C37.2746 27.0961 36.9445 26.8295 36.7122 26.4875C36.48 26.1455 36.3561 25.7435 36.3562 25.3322C36.3563 24.781 36.5791 24.2524 36.9754 23.8626C37.3717 23.4728 37.9092 23.2538 38.4697 23.2536V23.2536ZM34.8187 35.4966C33.4654 35.4982 32.1249 35.2377 30.874 34.7299C29.623 34.2221 28.486 33.4769 27.5278 32.5369L25.0069 35.0132C27.6118 37.5663 31.1394 38.9999 34.817 38.9999C38.4945 38.9999 42.0222 37.5663 44.627 35.0132L42.1085 32.5363C41.1503 33.4764 40.0132 34.2217 38.7621 34.7296C37.511 35.2374 36.1705 35.4978 34.817 35.496L34.8187 35.4966Z" fill="#0071DC"/>
</g>
<defs>
<clipPath id="clip0_13_22">
<rect width="33" height="39" fill="white" transform="translate(18)"/>
</clipPath>
</defs>
</svg>
