<svg width="178" height="152" viewBox="0 0 178 152" fill="none" xmlns="http://www.w3.org/2000/svg">
<path d="M12.873 18.2637C12.8561 18.1113 12.8307 17.8828 12.7969 17.5781C12.7799 17.2565 12.7546 16.901 12.7207 16.5117C12.7038 16.1224 12.6784 15.7161 12.6445 15.293C12.6107 14.8529 12.5684 14.4382 12.5176 14.0488C12.4837 13.6595 12.4499 13.3125 12.416 13.0078C12.3991 12.7031 12.3822 12.4746 12.3652 12.3223C12.3652 12.2715 12.3568 12.1868 12.3398 12.0684C12.3229 11.9329 12.2891 11.7975 12.2383 11.6621C12.2044 11.5098 12.1452 11.3743 12.0605 11.2559C11.9759 11.1374 11.8659 11.0781 11.7305 11.0781C11.4766 11.0781 11.1719 11.1289 10.8164 11.2305C10.4609 11.332 10.0885 11.4421 9.69922 11.5605C9.32682 11.679 8.95443 11.7806 8.58203 11.8652C8.22656 11.9499 7.89648 11.9922 7.5918 11.9922C6.98242 11.9922 6.44075 11.8822 5.9668 11.6621C5.49284 11.4421 5.03581 11.2051 4.5957 10.9512C4.17253 10.6973 3.73242 10.4603 3.27539 10.2402C2.83529 10.0202 2.33594 9.91016 1.77734 9.91016C1.77734 10.9089 1.8112 11.8822 1.87891 12.8301C1.96354 13.778 2.00586 14.7344 2.00586 15.6992C2.00586 15.7839 1.9974 15.8939 1.98047 16.0293C1.98047 16.1478 1.98047 16.2578 1.98047 16.3594C1.96354 16.4948 1.95508 16.6302 1.95508 16.7656L0.736328 17.502L0.507812 17.2988C0.490885 17.2819 0.473958 17.1803 0.457031 16.9941C0.457031 16.8079 0.448568 16.5625 0.431641 16.2578C0.414714 15.9531 0.397786 15.6146 0.380859 15.2422C0.363932 14.8698 0.338542 14.4974 0.304687 14.125C0.28776 13.7357 0.270833 13.3633 0.253906 13.0078C0.253906 12.6354 0.245443 12.3223 0.228516 12.0684V11.7637C0.228516 11.5775 0.220052 11.3743 0.203125 11.1543C0.203125 10.9173 0.203125 10.6803 0.203125 10.4434L0.203125 9.40234C0.203125 9.18229 0.203125 8.95378 0.203125 8.7168C0.220052 8.47982 0.228516 8.25977 0.228516 8.05664L0.228516 7.625C0.26237 7.47266 0.347005 7.38802 0.482422 7.37109C0.617839 7.35417 0.744792 7.3457 0.863281 7.3457C0.880208 7.3457 0.939453 7.35417 1.04102 7.37109C1.15951 7.38802 1.22721 7.39648 1.24414 7.39648C1.81966 7.80273 2.36133 8.19206 2.86914 8.56445C3.39388 8.93685 3.91862 9.26693 4.44336 9.55469C4.98503 9.82552 5.54362 10.0456 6.11914 10.2148C6.69466 10.3841 7.33789 10.4687 8.04883 10.4687C8.4043 10.5872 8.78516 10.5872 9.19141 10.4687C9.59766 10.3333 9.99544 10.1556 10.3848 9.93555C10.7741 9.69857 11.138 9.45312 11.4766 9.19922C11.832 8.94531 12.1283 8.74219 12.3652 8.58984C12.5345 8.58984 12.6868 8.64062 12.8223 8.74219C12.9746 8.84375 13.11 8.9707 13.2285 9.12305C13.347 9.27539 13.4316 9.4362 13.4824 9.60547C13.5501 9.77474 13.5924 9.94401 13.6094 10.1133C13.6094 10.2826 13.6263 10.5449 13.6602 10.9004C13.7109 11.2389 13.7617 11.6283 13.8125 12.0684L14.1172 14.8359C14.168 15.2591 14.2103 15.6484 14.2441 16.0039C14.2949 16.3594 14.3288 16.6133 14.3457 16.7656C14.3626 16.9349 14.3965 17.0872 14.4473 17.2227L14.625 17.6797C14.6927 17.8151 14.752 17.959 14.8027 18.1113C14.8535 18.2637 14.8789 18.3991 14.8789 18.5176C14.8789 18.653 14.8281 18.7546 14.7266 18.8223C14.6419 18.89 14.5404 18.9408 14.4219 18.9746C14.3203 19.0085 14.1934 19.0254 14.041 19.0254H13.7109C13.457 19.0254 13.2708 18.9661 13.1523 18.8477C13.0508 18.7122 12.9577 18.5176 12.873 18.2637ZM14.2645 16.0039C14.2645 15.4284 14.366 14.8359 14.5691 14.2266C14.7723 13.6172 15.06 13.0586 15.4324 12.5508C15.8217 12.043 16.2788 11.6283 16.8035 11.3066C17.3283 10.985 17.9292 10.8242 18.6062 10.8242C19.5542 10.8242 20.3497 10.9173 20.993 11.1035C21.6362 11.2897 22.1609 11.5775 22.5672 11.9668C22.9734 12.3392 23.2612 12.8301 23.4305 13.4395C23.6167 14.0319 23.7098 14.7344 23.7098 15.5469C23.7098 15.5977 23.7013 15.6992 23.6844 15.8516C23.6844 15.987 23.6844 16.1309 23.6844 16.2832C23.6844 16.4355 23.6759 16.5879 23.659 16.7402C23.659 16.8757 23.659 16.9772 23.659 17.0449C23.5405 17.4681 23.312 17.8151 22.9734 18.0859C22.6518 18.3398 22.271 18.5345 21.8309 18.6699C21.4077 18.8053 20.9591 18.8984 20.4852 18.9492C20.0281 19 19.6134 19.0254 19.241 19.0254C18.7163 19.0254 18.1661 18.9915 17.5906 18.9238C17.0151 18.8561 16.4734 18.7207 15.9656 18.5176C15.4747 18.2975 15.0685 17.9928 14.7469 17.6035C14.4253 17.1973 14.2645 16.6641 14.2645 16.0039ZM15.534 15.6738C15.534 16.1139 15.6609 16.4779 15.9148 16.7656C16.1857 17.0365 16.5073 17.248 16.8797 17.4004C17.2521 17.5527 17.6499 17.6543 18.073 17.7051C18.5131 17.7559 18.8855 17.7812 19.1902 17.7812C19.4949 17.7812 19.7573 17.7812 19.9773 17.7812C20.2143 17.7812 20.4428 17.7559 20.6629 17.7051C20.8829 17.6543 21.1115 17.5781 21.3484 17.4766C21.5854 17.375 21.8647 17.2311 22.1863 17.0449C22.3556 16.7741 22.4487 16.5117 22.4656 16.2578C22.4826 15.987 22.491 15.7077 22.491 15.4199C22.491 14.8444 22.381 14.3366 22.1609 13.8965C21.9409 13.4564 21.6447 13.1009 21.2723 12.8301C20.8999 12.5592 20.4513 12.3815 19.9266 12.2969C19.4187 12.1953 18.8517 12.2038 18.2254 12.3223C17.9715 12.373 17.6837 12.5254 17.3621 12.7793C17.0405 13.0332 16.7443 13.3294 16.4734 13.668C16.2026 14.0065 15.9741 14.362 15.7879 14.7344C15.6186 15.0898 15.534 15.403 15.534 15.6738ZM25.8121 17.4512V16.918C25.8121 16.6979 25.829 16.4863 25.8629 16.2832C25.8967 16.0801 25.9645 15.9023 26.066 15.75C26.1676 15.5977 26.3115 15.5215 26.4977 15.5215V15.5469H26.5738L27.0816 17.502C27.0816 17.5697 27.1155 17.6204 27.1832 17.6543C27.2509 17.6881 27.3186 17.722 27.3863 17.7559C27.471 17.7728 27.5471 17.7812 27.6148 17.7812C27.6995 17.7812 27.7672 17.7812 27.818 17.7812C27.8518 17.7812 27.8941 17.7812 27.9449 17.7812C28.0126 17.7643 28.0549 17.7559 28.0719 17.7559C28.1734 17.7389 28.3681 17.6966 28.6559 17.6289C28.9436 17.5443 29.2398 17.4681 29.5445 17.4004C29.8661 17.3327 30.1624 17.265 30.4332 17.1973C30.721 17.1126 30.9241 17.0618 31.0426 17.0449C31.1272 16.9095 31.2542 16.791 31.4234 16.6895C31.5927 16.571 31.762 16.4609 31.9312 16.3594C32.1005 16.2578 32.2444 16.1478 32.3629 16.0293C32.4814 15.9108 32.5406 15.7585 32.5406 15.5723C32.5406 15.1491 32.4306 14.8105 32.2105 14.5566C32.0074 14.3027 31.7366 14.1165 31.398 13.998C31.0764 13.8626 30.7294 13.7695 30.357 13.7187C29.9846 13.668 29.6292 13.6172 29.2906 13.5664C29.1552 13.5495 28.9352 13.5241 28.6305 13.4902C28.3427 13.4395 28.0126 13.3887 27.6402 13.3379C27.2678 13.2871 26.8785 13.2363 26.4723 13.1855C26.066 13.1178 25.6682 13.0671 25.2789 13.0332C24.9065 12.9824 24.568 12.9401 24.2633 12.9062C23.9755 12.8724 23.7639 12.847 23.6285 12.8301C23.527 12.7624 23.4169 12.6439 23.2984 12.4746C23.1799 12.3053 23.1207 12.1699 23.1207 12.0684C23.1207 11.7806 23.273 11.5182 23.5777 11.2812C23.8993 11.0273 24.2971 10.7988 24.7711 10.5957C25.2451 10.3926 25.7783 10.2148 26.3707 10.0625C26.9801 9.91016 27.5725 9.77474 28.148 9.65625C28.7405 9.53776 29.2822 9.45312 29.773 9.40234C30.2809 9.35156 30.6702 9.32617 30.941 9.32617C31.1441 9.32617 31.3303 9.39388 31.4996 9.5293C31.6858 9.66471 31.7789 9.85937 31.7789 10.1133C31.7789 10.3164 31.7197 10.4687 31.6012 10.5703C31.4996 10.6549 31.3642 10.7142 31.1949 10.748C31.0426 10.765 30.8818 10.7819 30.7125 10.7988C30.5602 10.7988 30.4163 10.8073 30.2809 10.8242C30.01 10.875 29.663 10.9427 29.2398 11.0273C28.8336 11.112 28.4273 11.1966 28.0211 11.2812C27.6148 11.3659 27.2763 11.4336 27.0055 11.4844L26.5738 11.5859V11.8652C26.8954 11.8652 27.3017 11.8737 27.7926 11.8906C28.2835 11.9076 28.8082 11.9499 29.3668 12.0176C29.9254 12.0853 30.4755 12.1953 31.0172 12.3477C31.5758 12.4831 32.0751 12.6777 32.5152 12.9316C32.9553 13.1686 33.3108 13.4733 33.5816 13.8457C33.8694 14.2012 34.0133 14.6413 34.0133 15.166C34.0133 15.877 33.8186 16.4779 33.4293 16.9687C33.04 17.4596 32.5491 17.8574 31.9566 18.1621C31.3642 18.4668 30.721 18.6868 30.027 18.8223C29.3329 18.9577 28.6897 19.0254 28.0973 19.0254C27.8603 19.0254 27.6064 19.0085 27.3355 18.9746C27.0647 18.9238 26.8108 18.8392 26.5738 18.7207C26.3538 18.6022 26.1676 18.4414 26.0152 18.2383C25.8798 18.0352 25.8121 17.7728 25.8121 17.4512ZM36.9789 12.373C36.5049 12.373 36.0648 12.4154 35.6586 12.5C35.2693 12.5677 34.8376 12.6016 34.3637 12.6016C34.1775 12.6016 34.059 12.5339 34.0082 12.3984C33.9574 12.2461 33.932 12.1022 33.932 11.9668V11.8398C33.9659 11.7721 34.0167 11.6875 34.0844 11.5859C34.169 11.4844 34.2536 11.3913 34.3383 11.3066C34.4229 11.2051 34.4906 11.1204 34.5414 11.0527C34.6091 10.985 34.6514 10.9512 34.6684 10.9512H37.0043V7.14258C37.0043 7.07487 37.0297 7.02409 37.0805 6.99023C37.1312 6.95638 37.1905 6.93099 37.2582 6.91406C37.3428 6.88021 37.419 6.86328 37.4867 6.86328C37.5544 6.84635 37.6052 6.83789 37.6391 6.83789C37.9099 6.83789 38.1046 6.93945 38.223 7.14258C38.3585 7.32878 38.4431 7.56575 38.4769 7.85352C38.5277 8.14128 38.5447 8.45443 38.5277 8.79297C38.5277 9.13151 38.5277 9.44466 38.5277 9.73242C38.5277 10.0202 38.5447 10.2741 38.5785 10.4941C38.6293 10.6973 38.7309 10.8073 38.8832 10.8242C39.0186 10.8411 39.2725 10.875 39.6449 10.9258C40.0342 10.9596 40.432 11.0104 40.8383 11.0781C41.2615 11.1289 41.6592 11.1797 42.0316 11.2305C42.404 11.2812 42.6749 11.3151 42.8441 11.332C42.878 11.332 42.9372 11.349 43.0219 11.3828C43.1234 11.3997 43.225 11.4167 43.3266 11.4336C43.445 11.4505 43.5466 11.4759 43.6312 11.5098C43.7159 11.5436 43.7751 11.569 43.809 11.5859C43.8428 11.5859 43.8936 11.6198 43.9613 11.6875C44.029 11.7552 44.0629 11.806 44.0629 11.8398C44.0629 11.9583 44.029 12.0684 43.9613 12.1699C43.8936 12.2715 43.809 12.3561 43.7074 12.4238C43.6059 12.4746 43.4958 12.5169 43.3773 12.5508C43.2758 12.5677 43.1742 12.5762 43.0727 12.5762C43.0388 12.5762 42.9457 12.5677 42.7934 12.5508C42.641 12.5169 42.4802 12.4831 42.3109 12.4492C42.1586 12.4154 42.0062 12.39 41.8539 12.373C41.7185 12.3392 41.6339 12.3223 41.6 12.3223H41.3461C41.1937 12.3223 41.0329 12.3223 40.8637 12.3223C40.6944 12.3223 40.5251 12.3223 40.3559 12.3223H39.6703C39.5518 12.3223 39.4333 12.3223 39.3148 12.3223C39.1964 12.3223 39.0948 12.3223 39.0102 12.3223H38.8832L38.6293 12.5762C38.6293 12.5931 38.6293 12.6523 38.6293 12.7539C38.6293 12.8555 38.6208 12.974 38.6039 13.1094C38.587 13.2448 38.57 13.3887 38.5531 13.541C38.5531 13.6764 38.5531 13.7865 38.5531 13.8711C38.5531 14.7852 38.6462 15.5046 38.8324 16.0293C39.0186 16.554 39.3064 16.9518 39.6957 17.2227C40.1019 17.4766 40.6098 17.6374 41.2191 17.7051C41.8454 17.7559 42.6072 17.7812 43.5043 17.7812C43.6059 17.7812 43.7413 17.7812 43.9105 17.7812C44.0798 17.7812 44.2491 17.7812 44.4184 17.7812C44.5876 17.7812 44.7315 17.7812 44.85 17.7812C44.9685 17.7643 45.0362 17.7559 45.0531 17.7559C45.07 17.7559 45.1124 17.7474 45.1801 17.7305C45.2478 17.6966 45.324 17.6712 45.4086 17.6543C45.5102 17.6204 45.5863 17.5866 45.6371 17.5527C45.7048 17.5189 45.7556 17.502 45.7894 17.502C45.8572 17.502 45.9079 17.5358 45.9418 17.6035C45.9926 17.6543 46.0264 17.722 46.0434 17.8066C46.0603 17.8913 46.0687 17.9674 46.0687 18.0352V18.2129C46.0687 18.4837 46.0095 18.6784 45.891 18.7969C45.7725 18.9154 45.4932 18.9831 45.0531 19H44.6215C44.4184 19 44.2068 19 43.9867 19C43.7836 19.0169 43.572 19.0254 43.3519 19.0254H42.9711C42.0062 19.0254 41.1853 18.9915 40.5082 18.9238C39.8311 18.8392 39.2725 18.7122 38.8324 18.543C38.3923 18.3568 38.0453 18.1113 37.7914 17.8066C37.5375 17.502 37.3513 17.1042 37.2328 16.6133C37.1312 16.1224 37.0635 15.5299 37.0297 14.8359C36.9958 14.1419 36.9789 13.321 36.9789 12.373ZM52.4062 14.7344C52.4062 14.5651 52.4062 14.3112 52.4062 13.9727C52.4232 13.6341 52.4486 13.2702 52.4824 12.8809C52.5332 12.4746 52.584 12.0684 52.6348 11.6621C52.6855 11.2389 52.7533 10.8581 52.8379 10.5195C52.9394 10.1641 53.0664 9.8763 53.2187 9.65625C53.388 9.4362 53.5827 9.32617 53.8027 9.32617C53.8197 9.32617 53.8281 9.32617 53.8281 9.32617C53.845 9.32617 53.862 9.32617 53.8789 9.32617C53.8958 9.3431 53.9212 9.35156 53.9551 9.35156C53.972 9.36849 54.0059 9.40234 54.0566 9.45312C54.1074 9.48698 54.1582 9.5293 54.209 9.58008C54.2598 9.63086 54.3021 9.6901 54.3359 9.75781C54.3867 9.80859 54.4206 9.84245 54.4375 9.85937C54.2852 10.181 54.1751 10.4434 54.1074 10.6465C54.0397 10.8327 53.9889 10.9935 53.9551 11.1289C53.9212 11.2643 53.9128 11.3828 53.9297 11.4844C53.9466 11.569 53.9635 11.679 53.9805 11.8145C53.9974 11.9329 54.0143 12.0937 54.0312 12.2969C54.0482 12.4831 54.0566 12.7285 54.0566 13.0332C54.3444 13.0332 54.6999 13.0078 55.123 12.957C55.5631 12.9062 56.0117 12.8385 56.4687 12.7539C56.9427 12.6523 57.4082 12.5254 57.8652 12.373C58.3392 12.2207 58.7624 12.0345 59.1348 11.8145C59.5072 11.5775 59.8034 11.3066 60.0234 11.002C60.2604 10.6973 60.3789 10.3333 60.3789 9.91016C60.3789 9.65625 60.2266 9.4362 59.9219 9.25C59.6172 9.0638 59.2279 8.91146 58.7539 8.79297C58.2799 8.67448 57.7552 8.58984 57.1797 8.53906C56.6211 8.47135 56.071 8.42904 55.5293 8.41211C55.0046 8.37825 54.5221 8.36133 54.082 8.36133C53.6589 8.36133 53.3626 8.36133 53.1934 8.36133C53.0579 8.31055 52.9733 8.24284 52.9394 8.1582C52.9225 8.05664 52.9141 7.95508 52.9141 7.85352C52.9141 7.66732 52.9479 7.52344 53.0156 7.42187C53.1003 7.32031 53.2441 7.22721 53.4473 7.14258C53.498 7.14258 53.5827 7.14258 53.7012 7.14258C53.8366 7.14258 53.972 7.14258 54.1074 7.14258C54.2598 7.14258 54.3952 7.14258 54.5137 7.14258C54.6491 7.12565 54.7506 7.11719 54.8184 7.11719C55.2923 7.11719 55.7155 7.12565 56.0879 7.14258C56.4603 7.14258 56.8327 7.16797 57.2051 7.21875C57.5775 7.2526 57.9753 7.30338 58.3984 7.37109C58.8216 7.42187 59.3125 7.50651 59.8711 7.625C60.1758 7.8112 60.4466 7.96354 60.6836 8.08203C60.9375 8.18359 61.1575 8.31055 61.3437 8.46289C61.5299 8.59831 61.6654 8.7845 61.75 9.02148C61.8346 9.24154 61.8769 9.57161 61.8769 10.0117C61.8769 10.5872 61.7331 11.0866 61.4453 11.5098C61.1745 11.9329 60.819 12.3053 60.3789 12.627C59.9388 12.9316 59.431 13.194 58.8555 13.4141C58.2969 13.6172 57.7214 13.7949 57.1289 13.9473C56.5365 14.0827 55.9609 14.2012 55.4023 14.3027C54.8437 14.4043 54.3613 14.4889 53.9551 14.5566V15.4199C53.9551 15.7246 53.9551 15.987 53.9551 16.207C53.972 16.4271 53.9805 16.6556 53.9805 16.8926C53.9974 17.1126 54.0228 17.3496 54.0566 17.6035C54.0905 17.8574 54.1243 18.1536 54.1582 18.4922C54.0736 18.6445 53.9551 18.7715 53.8027 18.873C53.6504 18.9577 53.4896 19 53.3203 19C53.1003 19 52.931 18.9154 52.8125 18.7461C52.694 18.5599 52.6009 18.3314 52.5332 18.0605C52.4655 17.7728 52.4232 17.4681 52.4062 17.1465C52.3893 16.8079 52.3809 16.4779 52.3809 16.1562C52.3978 15.8346 52.4062 15.5469 52.4062 15.293C52.4062 15.0391 52.4062 14.8529 52.4062 14.7344ZM61.5164 16.0039C61.5164 15.4284 61.618 14.8359 61.8211 14.2266C62.0242 13.6172 62.312 13.0586 62.6844 12.5508C63.0737 12.043 63.5307 11.6283 64.0555 11.3066C64.5802 10.985 65.1811 10.8242 65.8582 10.8242C66.8061 10.8242 67.6017 10.9173 68.2449 11.1035C68.8881 11.2897 69.4129 11.5775 69.8191 11.9668C70.2254 12.3392 70.5131 12.8301 70.6824 13.4395C70.8686 14.0319 70.9617 14.7344 70.9617 15.5469C70.9617 15.5977 70.9533 15.6992 70.9363 15.8516C70.9363 15.987 70.9363 16.1309 70.9363 16.2832C70.9363 16.4355 70.9279 16.5879 70.9109 16.7402C70.9109 16.8757 70.9109 16.9772 70.9109 17.0449C70.7924 17.4681 70.5639 17.8151 70.2254 18.0859C69.9038 18.3398 69.5229 18.5345 69.0828 18.6699C68.6596 18.8053 68.2111 18.8984 67.7371 18.9492C67.2801 19 66.8654 19.0254 66.493 19.0254C65.9682 19.0254 65.4181 18.9915 64.8426 18.9238C64.2671 18.8561 63.7254 18.7207 63.2176 18.5176C62.7267 18.2975 62.3204 17.9928 61.9988 17.6035C61.6772 17.1973 61.5164 16.6641 61.5164 16.0039ZM62.7859 15.6738C62.7859 16.1139 62.9129 16.4779 63.1668 16.7656C63.4376 17.0365 63.7592 17.248 64.1316 17.4004C64.504 17.5527 64.9018 17.6543 65.325 17.7051C65.7651 17.7559 66.1375 17.7812 66.4422 17.7812C66.7469 17.7812 67.0092 17.7812 67.2293 17.7812C67.4663 17.7812 67.6948 17.7559 67.9148 17.7051C68.1349 17.6543 68.3634 17.5781 68.6004 17.4766C68.8374 17.375 69.1167 17.2311 69.4383 17.0449C69.6075 16.7741 69.7006 16.5117 69.7176 16.2578C69.7345 15.987 69.743 15.7077 69.743 15.4199C69.743 14.8444 69.6329 14.3366 69.4129 13.8965C69.1928 13.4564 68.8966 13.1009 68.5242 12.8301C68.1518 12.5592 67.7033 12.3815 67.1785 12.2969C66.6707 12.1953 66.1036 12.2038 65.4773 12.3223C65.2234 12.373 64.9357 12.5254 64.6141 12.7793C64.2924 13.0332 63.9962 13.3294 63.7254 13.668C63.4546 14.0065 63.226 14.362 63.0398 14.7344C62.8706 15.0898 62.7859 15.403 62.7859 15.6738ZM71.2867 27.5566C71.4729 25.847 71.5491 24.2559 71.5152 22.7832C71.4983 21.3275 71.4475 19.9987 71.3629 18.7969C71.2783 17.5781 71.1936 16.4863 71.109 15.5215C71.0243 14.5566 71.0074 13.7272 71.0582 13.0332C71.1259 12.3392 71.2867 11.7637 71.5406 11.3066C71.7945 10.8496 72.2262 10.5365 72.8355 10.3672C73.4449 10.181 74.249 10.1217 75.2477 10.1895C76.2633 10.2572 77.5582 10.4687 79.1324 10.8242C79.4879 11.0273 79.7672 11.2474 79.9703 11.4844C80.1734 11.7044 80.3173 11.9583 80.4019 12.2461C80.5035 12.5169 80.5628 12.8216 80.5797 13.1602C80.6135 13.4987 80.6305 13.8626 80.6305 14.252C80.6305 14.6921 80.4781 15.0814 80.1734 15.4199C79.8687 15.7585 79.4794 16.0462 79.0055 16.2832C78.5315 16.5202 77.9983 16.7318 77.4059 16.918C76.8303 17.0872 76.2548 17.2311 75.6793 17.3496C75.1207 17.4512 74.596 17.5358 74.1051 17.6035C73.6142 17.6712 73.2249 17.722 72.9371 17.7559C72.8694 17.8743 72.8186 18.1113 72.7848 18.4668C72.7509 18.8053 72.734 19.2201 72.734 19.7109C72.734 20.2018 72.7424 20.7181 72.7594 21.2598C72.7763 21.8184 72.7932 22.36 72.8102 22.8848C72.844 23.4095 72.8609 23.8919 72.8609 24.332C72.8609 24.7721 72.8525 25.1107 72.8355 25.3477C72.8017 25.5 72.7763 25.7031 72.7594 25.957C72.7424 26.2279 72.7171 26.4818 72.6832 26.7187C72.6493 26.9557 72.624 27.1504 72.607 27.3027L72.5816 27.5566H71.2867ZM76.4918 11.7383C75.6116 11.5521 74.816 11.5013 74.1051 11.5859C73.4111 11.6706 72.8779 11.8991 72.5055 12.2715C72.1331 12.627 71.9469 13.1432 71.9469 13.8203C71.9638 14.4974 72.2431 15.3607 72.7848 16.4102C73.0895 16.4102 73.4534 16.4017 73.8766 16.3848C74.2997 16.3509 74.7398 16.2917 75.1969 16.207C75.6708 16.1224 76.1448 16.0124 76.6187 15.877C77.0927 15.7415 77.5159 15.5723 77.8883 15.3691C78.2776 15.1491 78.5823 14.8952 78.8023 14.6074C79.0393 14.3197 79.1578 13.9896 79.1578 13.6172C79.2424 13.2279 79.234 12.9232 79.1324 12.7031C79.0309 12.4831 78.8531 12.3138 78.5992 12.1953C78.3453 12.0768 78.0322 11.9837 77.6598 11.916C77.3043 11.8483 76.915 11.7891 76.4918 11.7383ZM88.598 16.7656C88.1579 16.7656 87.7178 16.8757 87.2777 17.0957C86.8546 17.2988 86.4144 17.5358 85.9574 17.8066C85.5004 18.0775 85.0264 18.3229 84.5355 18.543C84.0447 18.7461 83.5453 18.8477 83.0375 18.8477C82.9698 18.8477 82.8682 18.8477 82.7328 18.8477C82.5974 18.8307 82.445 18.8223 82.2758 18.8223C82.1234 18.8053 81.9796 18.7969 81.8441 18.7969C81.7087 18.7969 81.6156 18.7884 81.5648 18.7715C81.2432 18.5853 80.9809 18.3652 80.7777 18.1113C80.5915 17.8574 80.4392 17.5866 80.3207 17.2988C80.2191 16.9941 80.143 16.681 80.0922 16.3594C80.0414 16.0378 80.016 15.7161 80.016 15.3945V14.6836C80.016 14.3789 80.0245 14.0488 80.0414 13.6934C80.0753 13.3379 80.1091 12.974 80.143 12.6016C80.1937 12.2292 80.2615 11.8906 80.3461 11.5859C80.4307 11.2643 80.5492 10.9935 80.7016 10.7734C80.8539 10.5534 81.057 10.4095 81.3109 10.3418C81.4125 10.3079 81.5141 10.3333 81.6156 10.418C81.7172 10.5026 81.7934 10.6042 81.8441 10.7227C81.9118 10.8242 81.9626 10.9427 81.9965 11.0781C82.0303 11.1966 82.0473 11.2812 82.0473 11.332C82.0473 11.3828 82.0219 11.4928 81.9711 11.6621C81.9203 11.8314 81.8611 12.0176 81.7934 12.2207C81.7426 12.4069 81.6918 12.5846 81.641 12.7539C81.5902 12.9232 81.5648 13.0247 81.5648 13.0586C81.5648 13.0755 81.5564 13.1517 81.5394 13.2871C81.5394 13.4056 81.531 13.541 81.5141 13.6934C81.5141 13.8457 81.5141 14.015 81.5141 14.2012C81.5141 14.3704 81.5141 14.5059 81.5141 14.6074C81.5141 14.8275 81.5056 15.0814 81.4887 15.3691C81.4717 15.64 81.4802 15.9108 81.5141 16.1816C81.5648 16.4525 81.641 16.7064 81.7426 16.9434C81.8441 17.1803 82.0303 17.3665 82.3012 17.502C82.3181 17.502 82.3689 17.5104 82.4535 17.5273C82.5551 17.5273 82.6566 17.5273 82.7582 17.5273C82.8767 17.5273 82.9782 17.5358 83.0629 17.5527C83.1644 17.5527 83.2322 17.5527 83.266 17.5527C84.1801 17.5527 85.0434 17.3496 85.8559 16.9434C86.6684 16.5371 87.3793 15.987 87.9887 15.293C87.9717 15.1914 87.9548 14.9967 87.9379 14.709C87.9379 14.4212 87.9379 14.125 87.9379 13.8203C87.9379 13.4987 87.9379 13.2025 87.9379 12.9316C87.9548 12.6439 87.9717 12.4408 87.9887 12.3223C87.9887 12.2207 88.0056 12.1191 88.0394 12.0176C88.0733 11.8991 88.1156 11.7891 88.1664 11.6875C88.2172 11.5859 88.2849 11.5013 88.3695 11.4336C88.4711 11.3659 88.5811 11.332 88.6996 11.332C88.9535 11.332 89.1312 11.4251 89.2328 11.6113C89.3344 11.7975 89.4021 12.043 89.4359 12.3477C89.4867 12.6523 89.5206 13.0078 89.5375 13.4141C89.5713 13.8034 89.6306 14.2012 89.7152 14.6074C89.7999 15.0137 89.9437 15.4199 90.1469 15.8262C90.35 16.2155 90.6462 16.571 91.0355 16.8926C91.4249 17.1973 91.9327 17.4596 92.559 17.6797C93.1853 17.8828 93.9724 17.9928 94.9203 18.0098C94.9203 18.0436 94.9203 18.0859 94.9203 18.1367C94.9203 18.1875 94.9203 18.2298 94.9203 18.2637C94.9203 18.5176 94.8103 18.7038 94.5902 18.8223C94.3702 18.9238 94.0993 18.9915 93.7777 19.0254C93.473 19.0592 93.1684 19.0677 92.8637 19.0508C92.559 19.0339 92.3305 19.0254 92.1781 19.0254C91.6703 19.0254 91.2133 18.9069 90.807 18.6699C90.4008 18.4329 90.0368 18.179 89.7152 17.9082C89.3936 17.6204 89.1312 17.3581 88.9281 17.1211C88.7419 16.8841 88.6319 16.7656 88.598 16.7656ZM94.3059 14.7598C94.3059 13.8626 94.3397 13.0163 94.4074 12.2207C94.4921 11.4251 94.5682 10.6211 94.6359 9.80859C94.7206 8.99609 94.7798 8.17513 94.8137 7.3457C94.8645 6.51628 94.8729 5.61914 94.8391 4.6543C94.856 4.58659 94.8814 4.51042 94.9152 4.42578C94.9491 4.34115 94.9914 4.26497 95.0422 4.19727C95.1099 4.11263 95.1776 4.04492 95.2453 3.99414C95.313 3.92643 95.3892 3.89258 95.4738 3.89258C95.677 3.89258 95.8462 4.0026 95.9816 4.22266C96.1171 4.42578 96.2102 4.69661 96.2609 5.03516C96.3286 5.35677 96.371 5.71224 96.3879 6.10156C96.4048 6.49089 96.4048 6.87174 96.3879 7.24414C96.3879 7.59961 96.3794 7.91276 96.3625 8.18359C96.3456 8.45443 96.3371 8.64062 96.3371 8.74219C96.3371 9.74088 96.2863 10.7311 96.1848 11.7129C96.1001 12.6777 96.0578 13.668 96.0578 14.6836V15.0898C96.0578 15.293 96.0578 15.5046 96.0578 15.7246C96.0578 15.9447 96.0578 16.1562 96.0578 16.3594V16.7656C96.0747 16.9349 96.134 17.0788 96.2355 17.1973C96.3371 17.2988 96.4471 17.3919 96.5656 17.4766C96.701 17.5443 96.8365 17.6035 96.9719 17.6543C97.1073 17.7051 97.2258 17.7389 97.3273 17.7559C97.395 17.7559 97.5051 17.7643 97.6574 17.7812C97.8267 17.7812 98.0044 17.7812 98.1906 17.7812C98.3768 17.7812 98.5461 17.7812 98.6984 17.7812C98.8677 17.7812 98.9862 17.7812 99.0539 17.7812C99.3417 17.7812 99.5702 17.7812 99.7395 17.7812C99.9256 17.7643 100.07 17.7474 100.171 17.7305C100.29 17.7135 100.4 17.6966 100.501 17.6797C100.603 17.6458 100.713 17.6289 100.831 17.6289C100.95 17.612 101.094 17.5951 101.263 17.5781C101.432 17.5612 101.661 17.5527 101.948 17.5527C101.948 18.1113 101.838 18.5006 101.618 18.7207C101.398 18.9408 101.111 19.0677 100.755 19.1016C100.417 19.1523 100.036 19.1523 99.6125 19.1016C99.2062 19.0508 98.8085 19.0254 98.4191 19.0254H98.0637C97.8944 19.0254 97.7082 19.0169 97.5051 19C97.302 19 97.1073 19 96.9211 19H96.591C96.0663 18.8984 95.6516 18.7122 95.3469 18.4414C95.0422 18.1536 94.8137 17.8151 94.6613 17.4258C94.5259 17.0195 94.4328 16.5879 94.382 16.1309C94.3312 15.6738 94.3059 15.2168 94.3059 14.7598ZM107.021 17.7559C106.751 17.7559 106.463 17.7982 106.158 17.8828C105.87 17.9505 105.583 18.0352 105.295 18.1367C105.007 18.2383 104.702 18.3314 104.381 18.416C104.076 18.4837 103.763 18.5176 103.441 18.5176C102.951 18.5176 102.477 18.4414 102.02 18.2891C101.562 18.1367 101.156 17.9082 100.801 17.6035C100.462 17.2988 100.191 16.9349 99.9883 16.5117C99.7852 16.0716 99.6836 15.5807 99.6836 15.0391C99.6836 14.5651 99.8275 14.125 100.115 13.7187C100.42 13.3125 100.792 12.974 101.232 12.7031C101.673 12.4323 102.146 12.2207 102.654 12.0684C103.162 11.916 103.619 11.8398 104.025 11.8398C104.212 11.8398 104.44 11.8568 104.711 11.8906C104.999 11.9076 105.303 11.9499 105.625 12.0176C105.964 12.0684 106.302 12.1445 106.641 12.2461C106.979 12.3307 107.284 12.4492 107.555 12.6016C107.842 12.7539 108.079 12.9316 108.266 13.1348C108.469 13.321 108.587 13.541 108.621 13.7949C108.621 13.8796 108.604 14.0319 108.57 14.252C108.536 14.4551 108.511 14.6751 108.494 14.9121C108.477 15.1491 108.452 15.3776 108.418 15.5977C108.401 15.8008 108.384 15.9531 108.367 16.0547V16.207C108.367 16.5794 108.452 16.8587 108.621 17.0449C108.79 17.2311 108.993 17.3665 109.23 17.4512C109.484 17.5189 109.747 17.5527 110.018 17.5527H110.83C111.084 17.5527 111.245 17.5527 111.312 17.5527C111.38 17.5358 111.423 17.5273 111.439 17.5273C111.473 17.5273 111.516 17.5273 111.566 17.5273C111.634 17.5104 111.803 17.502 112.074 17.502C112.294 17.502 112.464 17.5443 112.582 17.6289C112.701 17.7135 112.76 17.8913 112.76 18.1621C112.76 18.4499 112.667 18.653 112.48 18.7715C112.294 18.89 112.074 18.9661 111.82 19C111.566 19.0508 111.312 19.0677 111.059 19.0508C110.805 19.0339 110.61 19.0254 110.475 19.0254C110.085 19.0254 109.713 18.9577 109.357 18.8223C109.019 18.6868 108.706 18.543 108.418 18.3906C108.13 18.2214 107.868 18.0775 107.631 17.959C107.394 17.8236 107.191 17.7559 107.021 17.7559ZM101.182 15.293C101.182 15.6992 101.266 16.0293 101.436 16.2832C101.622 16.5202 101.842 16.6979 102.096 16.8164C102.367 16.918 102.663 16.9857 102.984 17.0195C103.306 17.0365 103.619 17.0449 103.924 17.0449C104.042 17.0449 104.237 17.0365 104.508 17.0195C104.796 17.0026 105.092 16.9687 105.396 16.918C105.701 16.8503 105.972 16.7656 106.209 16.6641C106.463 16.5625 106.607 16.4355 106.641 16.2832L107.148 14.3027C107.182 14.1673 107.148 14.0488 107.047 13.9473C106.945 13.8457 106.801 13.7611 106.615 13.6934C106.446 13.6257 106.251 13.5664 106.031 13.5156C105.828 13.4648 105.625 13.4225 105.422 13.3887C105.219 13.3548 105.033 13.3294 104.863 13.3125C104.711 13.2956 104.618 13.2871 104.584 13.2871C104.279 13.2871 103.924 13.321 103.518 13.3887C103.128 13.4395 102.756 13.541 102.4 13.6934C102.062 13.8288 101.774 14.0234 101.537 14.2773C101.3 14.5312 101.182 14.8698 101.182 15.293ZM111.841 14.0488C111.824 14.0488 111.781 14.0234 111.714 13.9727C111.646 13.9049 111.612 13.8457 111.612 13.7949C111.595 13.7949 111.587 13.778 111.587 13.7441V13.6172C111.587 13.6003 111.595 13.5833 111.612 13.5664C111.798 13.3802 111.951 13.2448 112.069 13.1602C112.205 13.0755 112.382 13.0332 112.602 13.0332C112.67 13.0332 112.729 13.0501 112.78 13.084C112.848 13.1178 112.899 13.1517 112.932 13.1855C112.966 13.2194 113 13.2533 113.034 13.2871C113.085 13.321 113.136 13.3379 113.186 13.3379C113.237 13.3379 113.339 13.2617 113.491 13.1094C113.643 12.9401 113.846 12.737 114.1 12.5C114.354 12.263 114.667 12.0091 115.04 11.7383C115.412 11.4505 115.827 11.1882 116.284 10.9512C116.758 10.7142 117.266 10.5195 117.807 10.3672C118.366 10.1979 118.975 10.1133 119.636 10.1133H119.788C119.856 10.1302 119.991 10.1641 120.194 10.2148C120.414 10.2487 120.643 10.2995 120.88 10.3672C121.117 10.418 121.337 10.4687 121.54 10.5195C121.76 10.5534 121.912 10.5788 121.997 10.5957C122.014 10.6126 122.048 10.6465 122.098 10.6973C122.149 10.7311 122.2 10.7734 122.251 10.8242C122.302 10.8581 122.344 10.9004 122.378 10.9512C122.429 11.002 122.462 11.0443 122.479 11.0781C122.479 11.0951 122.488 11.1204 122.505 11.1543C122.505 11.1543 122.505 11.1628 122.505 11.1797C122.522 11.1966 122.53 11.2051 122.53 11.2051L122.505 11.2559C122.505 11.2559 122.505 11.2643 122.505 11.2812C122.488 11.2982 122.479 11.3151 122.479 11.332C122.462 11.3828 122.42 11.4421 122.352 11.5098C122.285 11.5605 122.251 11.5859 122.251 11.5859H117.782C117.41 11.5859 117.003 11.696 116.563 11.916C116.14 12.1191 115.734 12.39 115.345 12.7285C114.972 13.0501 114.659 13.4225 114.405 13.8457C114.168 14.252 114.05 14.6497 114.05 15.0391V18.6445C113.863 18.6445 113.728 18.6699 113.643 18.7207C113.559 18.7546 113.483 18.7969 113.415 18.8477C113.364 18.8984 113.305 18.9408 113.237 18.9746C113.169 19.0085 113.076 19.0254 112.958 19.0254H112.907C112.89 19.0254 112.873 19.0169 112.856 19C112.789 18.9831 112.729 18.9492 112.679 18.8984C112.628 18.8307 112.602 18.7884 112.602 18.7715L111.841 14.0488Z" fill="#464646"/>
<g clip-path="url(#clip0_165_2362)">
<path d="M76.6624 30.6633C75.6123 34.0789 74.8122 37.5686 74.2684 41.1048" stroke="#111111" stroke-width="1.94" stroke-miterlimit="10" stroke-linecap="round"/>
<path d="M73.565 47.7228C73.4918 51.9947 73.645 56.2695 74.024 60.5293" stroke="#111111" stroke-width="1.94" stroke-miterlimit="10" stroke-linecap="round"/>
<path d="M76.7161 69.027C76.8944 73.3247 78.3081 77.4909 80.7877 81.0259" stroke="#111111" stroke-width="1.94" stroke-miterlimit="10" stroke-linecap="round"/>
<path d="M87.3262 90.2807C88.8294 93.6482 91.039 96.6579 93.8039 99.1041" stroke="#111111" stroke-width="1.94" stroke-miterlimit="10" stroke-linecap="round"/>
<path d="M101.675 107.317L109.487 112.515" stroke="#111111" stroke-width="1.94" stroke-miterlimit="10" stroke-linecap="round"/>
<path d="M119.023 117.464L126.272 119.262" stroke="#111111" stroke-width="1.94" stroke-miterlimit="10" stroke-linecap="round"/>
<path d="M136.18 119.814L143.022 120.151" stroke="#111111" stroke-width="1.94" stroke-miterlimit="10" stroke-linecap="round"/>
<path d="M150.024 119.437C153.704 119.163 157.357 118.616 160.951 117.801C162.624 117.26 164.286 116.73 150.024 119.437Z" stroke="#111111" stroke-width="1.94" stroke-miterlimit="10" stroke-linecap="round"/>
<path d="M161.865 110.487C165.013 111.128 168.105 112.029 171.108 113.181C170.067 116.643 169.079 120.066 168.145 123.451C168.068 123.719 168.011 124.073 168.246 124.228C168.482 124.383 168.659 123.848 161.865 110.487Z" stroke="#111111" stroke-width="1.94" stroke-miterlimit="10" stroke-linecap="round"/>
</g>
<defs>
<clipPath id="clip0_165_2362">
<rect width="134" height="49" fill="white" transform="matrix(0.697681 0.716409 0.716409 -0.697681 49.0343 55.4351)"/>
</clipPath>
</defs>
</svg>
