<svg width="78" height="56" viewBox="0 0 78 56" fill="none" xmlns="http://www.w3.org/2000/svg">
<path d="M30.1299 53.1746C30.3053 53.5066 30.5688 53.7839 30.8916 53.9758C31.2143 54.1677 31.5837 54.267 31.9592 54.2625C32.6398 54.3257 33.3255 54.2205 33.956 53.9564C34.5865 53.6922 35.1423 53.2771 35.5747 52.7476C37.3731 50.7102 39.2357 48.7256 41.0607 46.6953C41.4147 46.3832 41.6593 45.9658 41.7586 45.5044C41.8579 45.0429 41.8067 44.5619 41.6124 44.1317C41.2685 43.2303 40.9832 42.3076 40.7585 41.3694L38.7368 40.1231C37.1565 40.8067 35.8285 41.9658 34.9376 43.4392C33.4313 45.5548 32.7503 48.0696 31.4967 50.3312C30.9775 51.2596 30.5743 52.2333 30.1299 53.1746Z" fill="#EFE5D7"/>
<path d="M63.605 35.0647C63.7804 35.3968 64.0439 35.674 64.3666 35.8659C64.6894 36.0579 65.0588 36.1571 65.4343 36.1527C66.1149 36.2158 66.8006 36.1107 67.4311 35.8465C68.0616 35.5823 68.6174 35.1672 69.0498 34.6378C70.8482 32.6004 72.7108 30.6157 74.5358 28.5855C74.8898 28.2733 75.1344 27.8559 75.2337 27.3945C75.333 26.9331 75.2818 26.452 75.0875 26.0219C74.7436 25.1205 74.4583 24.1978 74.2335 23.2595L72.2119 22.0133C70.6316 22.6968 69.3036 23.8559 68.4127 25.3293C66.9064 27.445 66.2254 29.9597 64.9718 32.2214C64.4526 33.1497 64.0494 34.1234 63.605 35.0647Z" fill="#EFE5D7"/>
<path d="M55.35 6.9721L53.6808 2.02002L53.4955 2.12696L52.202 1.11139C51.8547 0.840423 51.4825 0.662418 51.0483 0.901896C49.7845 1.4477 48.7056 2.3474 47.9416 3.49255C47.6576 3.9312 47.3289 4.33919 46.9607 4.70997C45.677 6.18075 45.1837 8.04834 44.4293 9.77481C43.8778 11.0361 43.3167 12.2806 42.8329 13.5814C42.6397 14.1572 42.5089 14.752 42.4429 15.3557C42.4153 15.4594 42.4109 15.5678 42.43 15.6734C42.4492 15.7789 42.4914 15.8789 42.5536 15.9663C42.6158 16.0536 42.6966 16.1262 42.7901 16.1788C42.8836 16.2313 42.9875 16.2626 43.0945 16.2704C43.556 16.3969 44.0395 16.4216 44.5115 16.3429C44.9836 16.2642 45.4329 16.0839 45.8284 15.8145C47.7216 14.1939 49.5519 12.5422 51.4884 10.919C52.3124 10.2076 53.1449 9.49122 53.9313 8.73408C54.4345 8.17184 54.9081 7.58372 55.35 6.9721Z" fill="#EFE5D7"/>
<path d="M14.7909 16.3362L13.6295 15.4913C13.3385 15.2647 12.9757 15.1505 12.6074 15.1694C12.239 15.1883 11.8898 15.3391 11.6235 15.5942C10.8929 16.1974 10.2044 16.8499 9.56304 17.5472C7.42072 19.8056 6.32178 22.6851 5.0259 25.4763C4.71649 26.1264 4.38407 26.7561 4.10122 27.4134C3.93745 27.8062 3.79434 28.2073 3.67248 28.6151C4.0247 28.8688 4.44344 29.0141 4.87714 29.0329C5.31085 29.0518 5.74061 28.9434 6.11352 28.7212C7.86413 27.8499 9.50038 26.7657 10.9851 25.4932C11.7945 24.7565 12.787 24.2396 13.6619 23.5773C14.4163 23.0129 15.1375 22.4053 15.8219 21.7578C16.0587 21.5289 16.2209 21.2338 16.287 20.9111C16.3531 20.5885 16.3202 20.2534 16.1924 19.9498C15.7843 18.7374 15.3979 17.5236 15.0066 16.3015L14.7909 16.3362Z" fill="#EFE5D7"/>
</svg>
