<svg width="222" height="222" viewBox="0 0 222 222" fill="none" xmlns="http://www.w3.org/2000/svg">
<g clip-path="url(#clip0_165_2376)">
<g style="mix-blend-mode:multiply">
<g style="mix-blend-mode:multiply">
<path d="M89.945 96.5396C90.8183 96.649 91.6979 96.6999 92.578 96.6921C95.6632 96.4742 98.7602 96.8913 101.678 97.9176C103.154 98.4097 104.685 97.8635 106.107 98.4097C106.358 98.395 106.609 98.4196 106.86 98.395C107.112 98.4188 107.367 98.4155 107.618 98.3851C108.725 98.833 109.557 99.3399 107.992 100.305C106.698 99.6303 105.477 100.565 104.207 100.349C103.891 100.593 103.523 100.762 103.131 100.841C102.74 100.921 102.335 100.909 101.949 100.807C97.9129 100.147 93.9019 100.634 89.8614 100.797C83.6455 101.038 77.3903 100.885 71.2581 102.027C66.189 102.962 60.9821 103.444 56.1787 105.502C55.9232 105.566 55.6588 105.587 55.3962 105.566C54.968 105.521 54.6875 105.94 54.2692 105.915C53.777 105.423 52.586 106.407 52.527 105.502C52.483 105.03 52.5924 104.557 52.8389 104.153C53.0855 103.748 53.4559 103.434 53.8951 103.257C55.6816 102.091 57.4534 100.979 59.1956 99.7976C61.4644 98.267 64.2253 98.2719 66.6713 97.2926C67.6212 97.6617 68.4332 97.0859 69.2945 96.8939C71.0564 96.2344 72.9118 96.2886 74.7327 96.0917C79.1621 95.5996 83.6357 95.8801 88.0847 96.1557C88.508 96.136 88.7786 96.574 89.2117 96.5248L89.945 96.5396Z" fill="#BCE2FD"/>
</g>
<g style="mix-blend-mode:multiply">
<path d="M165.485 75.0967L166.199 74.324C166.545 73.8855 166.817 73.3934 167.006 72.8673C168.005 70.4115 170.608 69.5797 172.262 67.8572C172.503 67.6161 173 67.5521 173.133 67.2912C174.285 64.9781 176.607 64.6238 178.694 64.2399C182.094 63.6617 185.567 63.6517 188.97 64.2104C191.534 64.5992 193.719 66.0756 195.688 67.7588C196.426 68.3887 197.061 69.1319 197.775 69.7963C199.463 71.4843 199.458 72.1488 197.794 72.8181C195.918 72.3049 194.182 71.3708 192.72 70.0867C191.2 68.7136 189.108 68.7775 187.233 68.5364C184.319 68.1919 181.445 68.9892 178.566 69.3287C178.215 69.3713 177.887 69.5267 177.631 69.7717C175.151 72.4391 171.775 73.9845 169.245 76.583C168.987 76.6012 168.741 76.6992 168.541 76.8635C167.242 77.7691 166.051 78.4482 166.007 75.9137C165.977 75.7365 165.51 75.4658 165.485 75.0967Z" fill="#BCE2FD"/>
</g>
<g style="mix-blend-mode:multiply">
<path d="M67.0306 137.526C65.5738 138.638 63.7233 138.717 62.0746 138.987C55.0763 140.149 48.6882 142.993 42.2115 145.7C41.3404 146.05 40.3561 146.187 39.5933 146.862C38.7517 147.083 38.0824 147.684 37.2457 147.92C36.6256 148.097 35.9268 148.835 35.4494 147.935C34.972 147.034 34.411 146.02 35.8333 145.366C37.1178 144.987 37.7182 143.687 38.8452 143.092C42.9016 140.65 47.2375 138.707 51.7592 137.304C55.4848 136.108 59.3629 136.049 63.1672 135.434C64.2284 135.335 65.2968 135.52 66.2628 135.97C67.0798 136.197 67.7442 136.517 67.0306 137.526Z" fill="#BDE3FD"/>
</g>
<g style="mix-blend-mode:multiply">
<path d="M187.253 78.8714C189.187 78.9059 191.047 78.4137 192.996 78.3645C196.092 78.2907 198.666 79.4866 201.185 80.8745C203.804 82.3214 205.315 84.8756 206.604 87.4545C207.181 88.4354 207.697 89.4512 208.149 90.496C208.42 91.2588 208.735 92.0659 207.854 92.6319C207.467 92.8591 207.013 92.9432 206.57 92.8694C206.127 92.7957 205.725 92.5687 205.433 92.2283C204.657 91.3941 203.969 90.4821 203.38 89.5068C202.583 88.3354 201.943 87.0854 201.077 85.983C198.567 82.9316 195.531 80.8499 191.308 81.2633C190.092 81.3863 188.862 81.406 187.637 81.4798C186.967 80.6924 185.624 79.9985 187.253 78.8714Z" fill="#BDE3FD"/>
</g>
<g style="mix-blend-mode:multiply">
<path d="M167.719 58.5898C167.115 59.2157 166.439 59.769 165.706 60.2385C164.298 61.1201 163.108 62.3098 162.227 63.718C160.125 66.8038 157.916 69.801 155.745 72.8375C153.978 74.0925 153.24 76.13 152.039 77.8033C151.09 79.137 150.642 78.6006 150.046 77.6507C149.976 77.4131 149.974 77.1607 150.039 76.9217C150.104 76.6827 150.234 76.4665 150.415 76.2973L151.144 75.569C151.285 75.4192 151.413 75.2579 151.528 75.0867C151.721 74.89 151.872 74.6554 151.97 74.3976C151.985 74.1368 151.956 73.871 151.98 73.6102C153.024 70.4998 155.11 67.9997 156.784 65.2634C159.397 60.9866 163.275 58.0337 167.306 55.2334C167.563 54.9962 167.879 54.8323 168.221 54.7587C168.563 54.6851 168.918 54.7046 169.25 54.815C169.968 55.0808 170.899 55.1349 171.046 56.0996C171.12 56.6655 170.544 56.9559 170.027 57.1183C168.871 57.0445 168.659 58.3487 167.719 58.5898Z" fill="#C0E4FD"/>
</g>
<g style="mix-blend-mode:multiply">
<path d="M65.8938 117.53C68.1576 115.591 70.6282 114.282 73.7583 114.311C76.1255 114.336 78.4485 113.558 80.8157 113.376C82.2136 113.223 83.6278 113.335 84.9842 113.706C88.9017 114.946 92.7995 114.247 96.7023 113.8C96.7457 114.623 96.4827 115.433 95.964 116.073C92.1204 116.245 88.2816 116.61 84.5314 115.261C83.2742 114.887 81.9387 114.861 80.6681 115.187C79.2206 115.537 77.7449 115.758 76.2584 115.847C72.8057 115.883 69.4525 117.008 66.6763 119.061C65.6821 118.893 65.7018 118.253 65.8938 117.53Z" fill="#D5EDFD"/>
</g>
<g style="mix-blend-mode:multiply">
<path d="M53.8853 103.238L52.7681 105.231C53.2849 105.433 54.1363 104.847 54.2397 105.876C51.9095 106.598 49.5401 107.186 47.1429 107.638C43.6388 108.317 41.1682 110.236 38.9486 112.731C38.486 113.253 38.1661 113.917 37.3196 113.829C37.2064 113.064 37.2014 112.287 37.3048 111.521C38.0798 109.328 39.6598 107.512 41.7243 106.442C42.1869 106.205 42.7283 105.831 43.1663 105.915C45.6468 106.279 47.6892 104.896 49.9334 104.345C50.1056 104.301 50.2926 104.163 50.4354 104.207C51.8183 104.567 52.7681 103.607 53.8853 103.238Z" fill="#CEEAFD"/>
</g>
<g style="mix-blend-mode:multiply">
<path d="M183.862 52.881C186.436 52.1378 188.96 52.8219 191.333 53.5503C195.319 54.686 198.961 56.793 201.933 59.6825C202.779 60.5755 203.51 61.5708 204.109 62.6452C204.094 64.412 203.385 63.7329 202.696 63.0734C201.22 61.5969 199.94 59.9827 198.139 58.9C194.482 56.7394 190.678 55.0514 186.327 54.9628C185.629 54.9431 184.93 54.8545 184.211 54.8151C184.002 54.5442 183.862 54.2272 183.801 53.8906C183.74 53.5541 183.761 53.2078 183.862 52.881Z" fill="#CBE9FD"/>
</g>
<g style="mix-blend-mode:multiply">
<path d="M27.6538 137.836C27.6377 138.546 27.3609 139.226 26.8762 139.745C24.4155 143.191 23.2884 147.27 21.1279 150.858C20.8277 151.345 20.9261 152.044 20.4537 152.517C19.9435 152.521 19.4446 152.366 19.0264 152.074L18.7656 151.902C18.6922 151.831 18.6363 151.745 18.6021 151.649C18.5679 151.554 18.5565 151.451 18.5687 151.35C18.5441 151.001 18.3719 150.563 18.5195 150.317C21.0442 145.951 22.4321 140.961 25.5376 136.881C25.7145 136.684 25.9018 136.497 26.0986 136.32C26.6793 136.734 26.4234 138.072 27.6538 137.836Z" fill="#C8E7FD"/>
</g>
<g style="mix-blend-mode:multiply">
<path d="M150.819 76.219C150.654 76.3498 150.531 76.525 150.463 76.7239C150.395 76.9227 150.385 77.1369 150.435 77.3411C149.982 78.7782 148.019 79.2949 148.186 81.0962C145.587 82.7793 142.58 83.365 139.686 84.4084C138.103 84.8981 136.671 85.7821 135.523 86.9774C134.042 88.5867 132.432 90.0681 130.882 91.6183C129.593 91.2541 129.686 90.2649 130.375 89.6645C132.004 88.2619 133.067 86.2834 135.021 85.245C136.266 83.5372 138.176 82.7498 140.08 82.1543C144.067 80.9043 147.654 79.0685 150.435 75.8548C150.642 75.8122 150.765 75.8564 150.804 75.9877C150.858 76.091 150.863 76.1747 150.819 76.219Z" fill="#D9F0FD"/>
</g>
<g style="mix-blend-mode:multiply">
<path d="M135.41 99.8861C132.541 102.529 129.578 105.019 125.862 106.481C124.231 107.134 122.728 108.07 121.423 109.247C120.091 110.42 118.398 111.103 116.624 111.181C116.228 110.754 115.965 110.22 115.867 109.645C116.503 109.144 117.266 108.83 118.071 108.74C118.677 108.692 119.259 108.481 119.754 108.13C123.18 105.206 127.658 104.094 131.222 101.289C132.791 100.044 133.983 98.1439 136.148 97.6222C137.831 99.0297 136.182 99.2906 135.41 99.8861Z" fill="#E3F3FF"/>
</g>
<g style="mix-blend-mode:multiply">
<path d="M183.862 52.8813C184.128 53.122 184.309 53.442 184.379 53.7939C184.449 54.1458 184.404 54.5109 184.251 54.8351C179.413 55.0664 174.713 56.1246 169.983 57.0744C170.259 56.6413 171.361 56.159 169.85 55.8686C169.412 55.785 169.422 55.1747 169.23 54.7958C171.121 53.6585 173.289 53.0674 175.495 53.088C177.936 53.1471 180.313 52.3646 182.769 52.5762C183.148 52.65 183.438 53.0585 183.891 52.901L183.862 52.8813Z" fill="#C7E7FD"/>
</g>
<g style="mix-blend-mode:multiply">
<path d="M24.2285 120.975C21.0098 124.056 18.805 127.855 16.7035 131.718C16.6166 131.92 16.5721 132.137 16.573 132.356C16.5738 132.576 16.6199 132.792 16.7084 132.993C16.3196 133.776 16.1228 134.858 14.8284 134.125C14.2477 131.95 15.3206 130.129 16.3098 128.421C17.44 126.256 18.7349 124.181 20.183 122.215C21.4872 120.464 23.2599 119.118 25.2964 118.332C26.1134 118.854 25.636 119.301 25.1635 119.646C24.6911 119.99 24.1891 120.256 24.2285 120.975Z" fill="#E0F2FF"/>
</g>
<g style="mix-blend-mode:multiply">
<path d="M55.7603 123.204C52.6204 124.002 49.5298 124.848 46.3948 125.493C43.4007 126.074 40.5204 127.136 37.8658 128.638C37.6777 128.753 37.4686 128.829 37.2506 128.863C37.0327 128.897 36.8103 128.887 36.5961 128.834C36.5272 128.332 36.5961 127.85 36.601 127.333C38.6188 125.64 41.2075 125.05 43.5846 124.395C47.1084 123.421 50.765 122.717 54.338 121.959C54.6906 121.93 55.0455 121.953 55.3912 122.028C55.9818 122.274 55.9621 122.707 55.7603 123.204Z" fill="#E1F3FF"/>
</g>
<g style="mix-blend-mode:multiply">
<path d="M35.8431 145.356C34.8785 146.203 36.227 146.941 35.7152 147.896C37.1916 147.64 38.2645 146.744 39.5982 146.857C37.2888 148.508 35.1607 150.398 33.2495 152.497C33.1757 153.319 32.1077 153.521 32.0979 154.377C31.089 155.701 31.089 155.701 29.8734 153.649C30.9906 150.829 31.9945 147.964 34.5094 146.001C34.9081 145.661 35.2624 145.297 35.8431 145.356Z" fill="#C7E7FD"/>
</g>
<g style="mix-blend-mode:multiply">
<path d="M131.281 118.317L130.941 118.657C130.888 118.927 130.762 119.178 130.576 119.381C130.391 119.584 130.152 119.732 129.888 119.808C129.72 119.976 129.666 119.429 129.445 119.72C129.46 120.118 129.396 120.507 129.391 120.906C127.501 123.711 125.124 125.734 121.516 125.827C121 125.901 120.483 125.936 120.296 125.286C120.255 125.19 120.235 125.086 120.237 124.981C120.239 124.876 120.262 124.773 120.305 124.678C120.349 124.583 120.411 124.498 120.489 124.428C120.567 124.358 120.659 124.305 120.758 124.272C121.173 123.951 121.677 123.767 122.2 123.746C122.948 123.662 123.664 123.401 124.29 122.984C124.916 122.567 125.433 122.006 125.798 121.349C126.694 119.948 127.777 118.677 129.017 117.569C129.229 117.531 129.432 117.45 129.613 117.331C129.794 117.213 129.949 117.06 130.07 116.88C130.769 116.181 131.694 115.325 132.472 116.27C133.436 117.431 131.778 117.663 131.281 118.317Z" fill="#C4E6FD"/>
</g>
<g style="mix-blend-mode:multiply">
<path d="M36.5863 127.319C36.6975 127.41 36.7871 127.525 36.8484 127.655C36.9097 127.785 36.9413 127.927 36.9408 128.07C36.9403 128.214 36.9078 128.356 36.8457 128.486C36.7835 128.615 36.6932 128.729 36.5814 128.82L27.639 137.821C26.9008 137.87 26.6646 138.678 25.9313 138.938C25.3161 138.018 26.3791 137.172 26.0395 136.31C26.3398 134.799 27.5603 134.051 28.6578 133.229C31.3154 131.241 33.9533 129.302 36.5863 127.319Z" fill="#C5E6FD"/>
</g>
<g style="mix-blend-mode:multiply">
<path d="M187.253 78.8715C186.431 79.8804 187.942 80.5448 187.617 81.4602C184.3 82.5233 180.963 83.5272 177.966 85.4023C177.386 85.7962 176.838 86.2356 176.327 86.7164C175.013 86.8788 174.344 86.5343 175.274 85.2005C175.789 84.5999 176.403 84.0922 177.09 83.6995C178.478 82.1935 180.372 81.4012 182.164 80.6728C183.842 80.0182 185.427 79.0634 187.253 78.8715Z" fill="#CDE9FD"/>
</g>
<g style="mix-blend-mode:multiply">
<path d="M73.0299 133.761C75.2839 133.554 77.5183 133.21 79.7871 133.195C81.1897 133.211 82.5619 132.786 83.7095 131.979C85.7569 130.532 88.1339 129.897 90.452 129.174C91.7069 128.795 93.0702 128.711 94.0693 129.937C90.5701 130.001 87.4252 131.167 84.3739 132.811C81.17 134.529 77.5478 134.716 74.088 135.547C73.2514 135.754 72.3852 135.813 71.5338 135.946C70.766 134.371 72.7199 134.622 73.0299 133.761Z" fill="#EFF8FF"/>
</g>
<g style="mix-blend-mode:multiply">
<path d="M95.9689 116.078C95.5604 115.109 96.0083 114.415 96.7071 113.804C100.162 113.745 103.233 111.885 106.663 111.663C107.357 111.619 108.027 111.235 108.74 111.555C109.203 113.002 109.203 113.002 107.239 113.834L98.5921 115.67C97.9277 115.606 97.3322 115.945 96.7219 116.083L95.9689 116.078Z" fill="#CBE9FD"/>
</g>
<g style="mix-blend-mode:multiply">
<path d="M125.252 94.2658C123.209 95.009 121.137 95.6242 119.021 96.1754C116.905 96.7266 114.72 96.9235 113.096 98.6952C112.829 98.9834 112.502 99.2088 112.138 99.3552C111.773 99.5016 111.381 99.5653 110.989 99.5417C110.847 98.9068 110.709 98.2769 110.615 97.6321C112.288 96.3714 114.211 95.4822 116.255 95.0238C118.465 94.5956 120.655 94.0591 122.924 93.818C123.983 93.6737 124.955 93.1552 125.665 92.3563C126.536 93.2077 125.901 93.7343 125.252 94.2658Z" fill="#DEF2FF"/>
</g>
<g style="mix-blend-mode:multiply">
<path d="M135.41 99.8864C135.931 99.2269 137.054 98.7643 136.138 97.6618C137.802 95.7917 139.869 94.3448 141.493 92.3959C142.556 91.1261 143.953 89.9351 145.907 90.1467C144.855 92.187 143.234 93.8792 141.242 95.019C140.375 95.4767 139.667 96.1851 139.209 97.0516C138.402 98.6166 136.94 99.2712 135.41 99.8864Z" fill="#F2F9FF"/>
</g>
<g style="mix-blend-mode:multiply">
<path d="M55.7604 123.204L55.3716 122.048C58.8757 121.615 61.6022 119.144 64.9537 118.293C65.3425 118.199 65.2982 117.446 65.8937 117.53C66.026 118.087 66.2835 118.607 66.6467 119.051C64.7421 119.479 63.5167 121.118 61.7597 121.831C59.8059 122.584 57.9209 123.396 55.7604 123.204Z" fill="#D5EDFD"/>
</g>
<g style="mix-blend-mode:multiply">
<path d="M120.753 124.277C120.384 125.099 120.69 125.591 121.511 125.832C120.542 126.556 119.361 126.585 118.248 126.713C115.837 126.989 113.411 127.112 110.975 127.314C110.226 127.077 109.464 126.856 110.222 125.812L120.753 124.277Z" fill="#D1EBFD"/>
</g>
<g style="mix-blend-mode:multiply">
<path d="M145.932 90.1221C146.444 88.1437 148.048 87.4448 149.756 86.9576C153.082 85.9302 156.143 84.1864 158.723 81.8491C159.545 82.5233 158.885 82.9958 158.496 83.5126C158.108 84.0293 157.453 84.4378 157.586 85.2105C155.678 86.2525 153.663 87.0858 151.577 87.6958C150.312 88.0649 148.393 88.0649 147.615 89.817C147.339 90.4371 146.557 90.3436 145.942 90.1123L145.932 90.1221Z" fill="#F2F9FF"/>
</g>
<g style="mix-blend-mode:multiply">
<path d="M110.231 125.803C110.069 126.517 110.576 126.886 110.984 127.304C106.675 128.929 102.088 129.694 97.4848 129.553C97.032 129.307 96.9926 129.061 97.4848 128.795L97.8588 128.421C98.1049 128.451 98.3608 128.402 98.6069 128.411C100.26 128.224 101.904 128.067 103.563 127.826C104.842 127.629 106.132 127.53 107.303 126.645C108.155 126.039 109.188 125.742 110.231 125.803Z" fill="#E3F3FF"/>
</g>
<g style="mix-blend-mode:multiply">
<path d="M197.794 72.8181C199.222 71.8043 198.183 70.8052 197.775 69.7963C200.095 70.9975 202.284 72.4375 204.306 74.0927C204.568 74.2592 204.794 74.4757 204.972 74.7299C205.151 74.9841 205.277 75.271 205.344 75.5741C205.355 75.8278 205.292 76.0792 205.162 76.2976C204.999 76.5781 204.704 76.4993 204.468 76.3714C202.25 75.1968 200.025 74.0124 197.794 72.8181Z" fill="#C4E6FD"/>
</g>
<g style="mix-blend-mode:multiply">
<path d="M161.71 93.8721C165.175 93.2717 167.941 91.4409 170.347 88.9851C171.351 89.5658 172.316 88.0008 173.33 88.9556C170.51 92.0906 166.843 93.7196 162.877 94.8023C162.446 94.8871 162.041 95.0726 161.695 95.3437C160.598 94.8466 160.593 94.3692 161.71 93.8721Z" fill="#E2F3FF"/>
</g>
<g style="mix-blend-mode:multiply">
<path d="M107.234 113.829C107.397 113.538 107.377 113.076 107.81 113.046C108.853 112.987 108.765 112.259 108.735 111.55C111.201 111.26 113.391 109.906 115.866 109.645C116.674 109.882 117.008 110.354 116.624 111.181C114.09 112.032 111.639 113.086 109.016 113.711C108.447 113.928 107.826 113.969 107.234 113.829Z" fill="#D8EFFD"/>
</g>
<g style="mix-blend-mode:multiply">
<path d="M24.2284 120.975C24.0021 120.365 23.9774 119.838 24.7206 119.499C24.9485 119.416 25.1357 119.248 25.243 119.031C25.3503 118.814 25.3694 118.563 25.2964 118.332C25.2982 118.226 25.3413 118.124 25.4166 118.049C25.4919 117.973 25.5935 117.93 25.7 117.929C26.3391 117.216 27.1388 116.666 28.0327 116.324L33.22 114.188C33.5842 114.808 34.2781 115.246 34.3273 116.034C30.6067 116.949 27.1223 118.376 24.2284 120.975Z" fill="#D6EDFD"/>
</g>
<g style="mix-blend-mode:multiply">
<path d="M198.173 58.9149C200.24 59.6334 201.466 61.3806 202.883 62.8668C203.498 63.482 203.853 63.5411 204.168 62.6749C206.294 65.2046 207.283 68.3002 208.661 71.2432C207.765 71.5975 207.455 71.0906 207.057 70.5739C205.969 69.1713 205.551 67.434 204.542 65.9625C202.721 63.3147 200.354 61.2132 198.173 58.9149Z" fill="#DFF2FF"/>
</g>
<g style="mix-blend-mode:multiply">
<path d="M139.893 109.645C141.403 108.49 142.753 107.139 143.909 105.629C145.55 103.829 147.55 102.392 149.78 101.412C146.532 104.197 144.16 107.79 141.05 110.674C140.395 111.329 139.908 112.298 138.751 112.254C138.21 111.014 140.154 110.802 139.893 109.645Z" fill="#F0F8FF"/>
</g>
<g style="mix-blend-mode:multiply">
<path d="M18.9378 151.759C19.6564 151.582 20.0255 152.118 20.4536 152.517C20.119 154.82 18.1307 156.424 17.796 158.718C17.7768 158.804 17.739 158.885 17.6853 158.955C17.6315 159.025 17.5631 159.082 17.4848 159.123C17.4065 159.164 17.3202 159.187 17.232 159.191C17.1438 159.195 17.0558 159.18 16.9741 159.146C16.8685 159.083 16.7783 158.998 16.7102 158.895C16.6421 158.793 16.5977 158.677 16.5804 158.555C16.5049 157.856 16.5314 157.15 16.6592 156.459C17.1169 154.702 17.3334 152.832 18.5687 151.37C18.6967 151.498 18.8246 151.626 18.9575 151.759C18.9485 151.92 18.9518 152.081 18.9673 152.241L18.9378 151.759Z" fill="#CFEAFD"/>
</g>
<g style="mix-blend-mode:multiply">
<path d="M125.252 94.2661C125.424 93.6509 125.793 93.0751 125.631 92.391C126.374 91.707 127.378 91.6282 128.264 91.264C128.529 91.2345 128.717 91.4018 128.928 91.515C128.833 91.4419 128.757 91.3469 128.706 91.2381C128.656 91.1293 128.632 91.0099 128.638 90.89C130.114 89.4136 131.591 87.9371 133.097 86.4311C133.633 85.8947 134.076 85.1466 135.021 85.2451L130.734 89.7581C130.075 90.4175 130.385 91.0327 130.862 91.5987C129.199 92.8586 127.427 93.9708 125.252 94.2661Z" fill="#EAF7FF"/>
</g>
<g style="mix-blend-mode:multiply">
<path d="M161.71 93.8724C161.598 93.9621 161.508 94.0758 161.447 94.2051C161.385 94.3344 161.353 94.476 161.353 94.6192C161.354 94.7625 161.387 94.9038 161.449 95.0327C161.512 95.1616 161.603 95.2747 161.715 95.3637C157.921 95.8903 155.268 98.8579 151.592 100.566C152.896 98.0114 158.403 94.5615 161.71 93.8724Z" fill="#F0F8FF"/>
</g>
<g style="mix-blend-mode:multiply">
<path d="M73.0299 133.761C73.335 134.174 73.714 134.76 72.8625 134.784C72.0111 134.809 71.7552 135.331 71.5387 135.971C70.0721 136.591 68.7925 137.732 67.0306 137.526C67.2078 136.797 66.691 136.399 66.2727 135.951C68.3248 134.707 70.6381 133.957 73.0299 133.761Z" fill="#CCE9FD"/>
</g>
<g style="mix-blend-mode:multiply">
<path d="M148.186 81.0962C147.6 80.4121 147.339 79.5804 148.156 79.0292C148.973 78.478 149.357 77.4543 150.42 77.3559C150.681 77.784 150.78 78.7683 151.542 77.8677C152.087 77.1223 152.583 76.3432 153.029 75.5349C153.796 74.5163 154.702 73.6102 155.721 72.8429C153.865 75.4759 152.94 78.8618 149.667 80.353C149.234 80.3235 148.968 80.7665 148.55 80.7615C148.438 80.8824 148.316 80.9943 148.186 81.0962Z" fill="#CBE9FD"/>
</g>
<g style="mix-blend-mode:multiply">
<path d="M165.485 75.0966C165.892 75.2727 166.219 75.5938 166.403 75.9976C166.587 76.4014 166.614 76.859 166.479 77.2817C167.508 77.1783 168.256 76.3515 169.23 76.5878C168 77.7 167.089 79.3093 165.096 79.2257C164.402 79.083 164.092 80.4265 163.349 79.7818C162.606 79.1371 163.265 78.1626 163.231 77.3506L165.485 75.0966Z" fill="#C8E7FD"/>
</g>
<g style="mix-blend-mode:multiply">
<path d="M173.354 88.9803C172.67 88.8277 172.321 89.3937 171.834 89.6841C171.031 90.1614 170.598 89.7579 170.352 88.9901C172.383 86.9588 174.658 85.1867 177.124 83.7143C176.903 84.2809 176.479 84.7443 175.933 85.0136C174.801 85.8502 175.244 86.4014 176.361 86.7312C175.805 87.5137 174.801 87.6416 174.117 88.247C174.065 88.2334 174.011 88.2336 173.959 88.2475C173.908 88.2615 173.861 88.2888 173.823 88.3266C173.785 88.3645 173.758 88.4115 173.744 88.4632C173.73 88.5149 173.73 88.5693 173.743 88.621L173.369 88.995L173.354 88.9803Z" fill="#D5ECFD"/>
</g>
<g style="mix-blend-mode:multiply">
<path d="M131.281 118.317C131.049 117.446 132.905 117.304 132.102 116.511C131.3 115.719 130.606 116.777 129.947 117.308C129.812 117.414 129.658 117.491 129.493 117.536C129.329 117.581 129.156 117.592 128.987 117.569C131.3 115.522 133.554 113.406 136.488 112.274C137.039 112.52 135.361 113.509 136.871 113.435C136.857 113.608 136.921 113.859 136.822 113.937C135.139 115.404 133.441 116.846 131.733 118.278C131.679 118.352 131.448 118.298 131.281 118.317Z" fill="#DBF0FD"/>
</g>
<g style="mix-blend-mode:multiply">
<path d="M34.3372 116.034C34.032 115.354 32.1077 115.694 33.2298 114.188C34.1429 113.882 34.9559 113.335 35.5823 112.603C36.0745 112.111 36.4829 111.476 37.3245 111.56C38.2448 112.323 38.2448 113.091 37.3344 113.863C36.291 113.922 36.0745 115.241 35.0655 115.354L34.3372 116.034Z" fill="#CAE8FD"/>
</g>
<g style="mix-blend-mode:multiply">
<path d="M14.8038 134.101C15.7487 134.258 16.1129 133.441 16.6838 132.969C15.9308 135.769 16.3984 138.648 16.2704 141.788C15.419 140.533 14.6463 136.079 14.8038 134.101Z" fill="#F2F9FF"/>
</g>
<g style="mix-blend-mode:multiply">
<path d="M163.231 77.351C163.994 77.9465 163.211 78.8373 163.62 79.5017C164.161 79.6099 164.545 78.9701 165.096 79.226C163.944 80.043 163.383 81.6671 161.715 81.8492C161.636 81.7705 161.562 81.6966 161.484 81.6179C161.215 81.4309 160.997 81.1801 160.849 80.888C160.702 80.596 160.629 80.2718 160.637 79.9446L163.231 77.351Z" fill="#D7EFFD"/>
</g>
<g style="mix-blend-mode:multiply">
<path d="M157.586 85.2104C157.099 84.8905 155.578 84.9151 157.104 83.9013C157.886 83.3845 158.723 82.9613 158.723 81.849L159.456 81.1157C160.357 80.8942 161.198 80.8893 161.69 81.8342C160.514 83.1876 158.92 84.044 157.586 85.2104Z" fill="#D6EFFD"/>
</g>
<g style="mix-blend-mode:multiply">
<path d="M29.8537 153.639C30.1933 153.88 30.7199 154.052 30.8282 154.377C31.2908 155.735 31.6796 154.628 32.093 154.382C32.2357 155.843 31.2317 156.7 30.4443 157.851C28.8596 156.483 28.9925 155.11 29.8537 153.639Z" fill="#D8EFFD"/>
</g>
<g style="mix-blend-mode:multiply">
<path d="M110.615 97.6322C112.023 98.2818 112.023 98.2818 110.989 99.5417C110.079 100.137 109.134 100.639 107.987 100.29C108.706 99.4826 108.155 98.9314 107.613 98.3704L109.867 97.6715C110.113 97.6519 110.364 97.6666 110.61 97.6371L110.615 97.6322Z" fill="#C9E8FD"/>
</g>
<g style="mix-blend-mode:multiply">
<path d="M139.893 109.646C140.7 111.024 138.889 111.289 138.776 112.279C138.368 112.687 137.979 113.194 137.275 113.022C136.571 112.85 136.891 112.323 136.896 111.915C137.649 110.827 139.057 110.61 139.893 109.646Z" fill="#DBF0FD"/>
</g>
<g style="mix-blend-mode:multiply">
<path d="M97.4601 128.82L97.4601 129.578C96.3577 129.962 95.2701 130.41 94.1086 129.976C94.8222 128.416 96.1707 128.761 97.4601 128.82Z" fill="#EFF8FF"/>
</g>
<g style="mix-blend-mode:multiply">
<path d="M104.203 100.334C105.482 100.039 106.708 98.7542 107.987 100.29C106.752 100.373 105.472 101.24 104.203 100.334Z" fill="#C9E8FD"/>
</g>
<g style="mix-blend-mode:multiply">
<path d="M38.8502 143.077C38.0431 144.091 37.5509 145.538 35.8382 145.351C36.1638 144.791 36.5979 144.301 37.1151 143.911C37.6323 143.52 38.2222 143.237 38.8502 143.077Z" fill="#C7E7FD"/>
</g>
<g style="mix-blend-mode:multiply">
<path d="M136.916 111.934L137.295 113.041L136.926 113.41C136.399 113.819 135.872 114.227 135.109 113.976C135.385 113.189 136.109 112.839 136.542 112.249C136.66 112.141 136.788 112.032 136.916 111.934Z" fill="#C8E7FD"/>
</g>
<g style="mix-blend-mode:multiply">
<path d="M161.715 81.8587L159.481 81.1401L160.632 79.9885C161.085 80.5791 161.882 80.9137 161.715 81.8587Z" fill="#F2F9FF"/>
</g>
<g style="mix-blend-mode:multiply">
<path d="M69.2846 96.8743C68.5218 97.7356 67.6901 98.1736 66.6615 97.2729C67.5129 97.0121 68.3545 96.5347 69.2846 96.8743Z" fill="#D8ECFD"/>
</g>
<g style="mix-blend-mode:multiply">
<path d="M129.396 119.424C130.114 119.602 130.474 119.055 130.921 118.676C130.971 119.818 129.962 120.227 129.371 120.925C129.263 120.832 129.177 120.716 129.119 120.585C129.061 120.455 129.033 120.313 129.036 120.171C129.039 120.028 129.073 119.887 129.136 119.759C129.199 119.631 129.289 119.519 129.401 119.429L129.396 119.424Z" fill="#DBF0FD"/>
</g>
<g style="mix-blend-mode:multiply">
<path d="M151.951 75.0969L151.577 75.4709C151.357 75.5201 151.229 75.4808 151.193 75.3528C151.149 75.2199 151.154 75.1363 151.198 75.092C151.031 74.3734 151.562 74.0191 151.966 73.5958C152.212 73.8419 152.458 74.088 152.704 74.334C152.707 74.4343 152.69 74.5342 152.654 74.6277C152.617 74.7211 152.562 74.8062 152.492 74.8776C152.421 74.949 152.337 75.0052 152.244 75.0429C152.151 75.0807 152.051 75.099 151.951 75.0969Z" fill="#DEF0FD"/>
</g>
<g style="mix-blend-mode:multiply">
<path d="M167.719 58.5899C168.28 57.7828 168.684 56.7591 169.988 57.0692C169.269 57.6303 168.831 58.6096 167.719 58.5899Z" fill="#C7E7FD"/>
</g>
<g style="mix-blend-mode:multiply">
<path d="M35.0852 115.325C35.8136 114.784 36.1827 113.706 37.354 113.834C36.6404 114.37 36.227 115.394 35.0852 115.325Z" fill="#CEEAFD"/>
</g>
<g style="mix-blend-mode:multiply">
<path d="M96.717 116.078C97.2633 115.532 97.7751 114.941 98.5921 115.669C98.3594 115.922 98.0546 116.097 97.7191 116.17C97.3835 116.243 97.0336 116.211 96.717 116.078Z" fill="#E4F6FF"/>
</g>
<g style="mix-blend-mode:multiply">
<path d="M167.006 72.8671C166.971 73.4823 167.119 74.2009 166.199 74.3239C166.076 73.6201 166.573 73.2609 167.006 72.8671Z" fill="#C8E7FD"/>
</g>
<g style="mix-blend-mode:multiply">
<path d="M32.093 154.382C31.9305 153.422 32.7377 153.058 33.2446 152.502C33.3332 153.417 32.5654 153.811 32.093 154.382Z" fill="#D8EFFD"/>
</g>
<g style="mix-blend-mode:multiply">
<path d="M183.891 52.901C183.286 53.5752 182.991 53.2012 182.769 52.5762C182.968 52.5151 183.179 52.5133 183.379 52.571C183.578 52.6287 183.756 52.7434 183.891 52.901Z" fill="#CBE9FD"/>
</g>
<g style="mix-blend-mode:multiply">
<path d="M89.2019 96.5054C88.9987 96.5644 88.7824 96.5608 88.5813 96.495C88.3803 96.4291 88.2037 96.3041 88.0749 96.1363C88.2783 96.0828 88.4929 96.0891 88.6928 96.1546C88.8927 96.2201 89.0695 96.3419 89.2019 96.5054Z" fill="#D9EDFD"/>
</g>
<g style="mix-blend-mode:multiply">
<path d="M54.2643 105.9C54.3973 105.738 54.575 105.618 54.7754 105.556C54.9757 105.494 55.1898 105.492 55.3913 105.551C55.2606 105.716 55.083 105.838 54.8819 105.9C54.6807 105.962 54.4654 105.962 54.2643 105.9Z" fill="#CEEAFD"/>
</g>
<g style="mix-blend-mode:multiply">
<path d="M150.853 100.762C150.903 100.713 151.021 100.664 151.035 100.679C151.084 100.74 151.121 100.81 151.144 100.885C151.099 100.93 150.986 100.984 150.962 100.969C150.918 100.904 150.881 100.835 150.853 100.762Z" fill="#F0F8FF"/>
</g>
<g style="mix-blend-mode:multiply">
<path d="M128.653 90.8753L128.963 91.5495C128.652 91.643 128.48 91.4215 128.278 91.2493C128.397 91.1213 128.525 90.9934 128.653 90.8753Z" fill="#D9F0FD"/>
</g>
<g style="mix-blend-mode:multiply">
<path d="M148.565 80.7465C148.692 80.5785 148.865 80.4506 149.063 80.3782C149.262 80.3057 149.476 80.2918 149.682 80.338C149.554 80.5054 149.381 80.6328 149.183 80.7051C148.985 80.7775 148.771 80.7918 148.565 80.7465Z" fill="#D9F0FD"/>
</g>
<g style="mix-blend-mode:multiply">
<path d="M151.193 75.0869L151.572 75.4658L150.819 76.2188C150.696 76.0958 150.568 75.9678 150.445 75.8448L151.193 75.0869Z" fill="#CBE9FD"/>
</g>
<g style="mix-blend-mode:multiply">
<path d="M98.5872 128.441L97.8391 128.451L98.5872 128.441Z" fill="#EFF8FF"/>
</g>
<g style="mix-blend-mode:multiply">
<path d="M110.615 97.632L109.872 97.6665L110.615 97.632Z" fill="#DEF2FF"/>
</g>
<g style="mix-blend-mode:multiply">
<path d="M107.613 98.3705L106.855 98.3804L107.613 98.3705Z" fill="#C9E8FD"/>
</g>
<g style="mix-blend-mode:multiply">
<path d="M106.865 98.3803L106.112 98.395L106.865 98.3803Z" fill="#C9E8FD"/>
</g>
<g style="mix-blend-mode:multiply">
<path d="M25.7098 117.909L25.2915 118.327C25.1882 117.929 25.3358 117.811 25.7098 117.909Z" fill="#E0F2FF"/>
</g>
<g style="mix-blend-mode:multiply">
<path d="M173.728 88.6061C173.645 88.2665 173.778 88.1435 174.102 88.2321L173.728 88.6061Z" fill="#E2F3FF"/>
</g>
<g style="mix-blend-mode:multiply">
<path d="M89.945 96.5398L89.2019 96.5054L89.945 96.5398Z" fill="#D9EDFD"/>
</g>
<g style="mix-blend-mode:multiply">
<path d="M151.951 75.0967L152.704 74.3437C152.842 74.9736 152.581 75.2148 151.951 75.0967Z" fill="#CBE9FD"/>
</g>
<g style="mix-blend-mode:multiply">
<path d="M129.401 119.43C129.376 119.346 129.312 119.203 129.332 119.193C129.489 119.095 129.514 119.188 129.396 119.425L129.401 119.43Z" fill="#DBF0FD"/>
</g>
<g style="mix-blend-mode:multiply">
<path d="M18.9379 151.759C19.1084 151.956 19.2539 152.175 19.371 152.408C19.4792 152.704 19.6121 153.151 19.1249 153.146C19.0399 153.143 18.9569 153.119 18.8825 153.078C18.8081 153.037 18.7443 152.979 18.6962 152.909C18.648 152.838 18.6167 152.758 18.6049 152.674C18.593 152.59 18.6009 152.504 18.6278 152.423C18.7135 152.195 18.8276 151.978 18.9674 151.778L18.9379 151.759Z" fill="#C8E7FD"/>
</g>
<g style="mix-blend-mode:multiply">
<path d="M134.017 115.522C133.707 115.832 133.421 116.117 133.067 115.881C132.713 115.645 132.949 115.271 133.166 114.995C133.382 114.72 133.692 114.469 134.042 114.69C134.484 114.986 134.071 115.291 134.017 115.522Z" fill="#C5E6FD"/>
</g>
</g>
</g>
<defs>
<clipPath id="clip0_165_2376">
<rect width="201.173" height="111.931" fill="white" transform="translate(0 142.25) rotate(-45)"/>
</clipPath>
</defs>
</svg>
