<svg width="246" height="195" viewBox="0 0 246 195" fill="none" xmlns="http://www.w3.org/2000/svg">
<g style="mix-blend-mode:multiply">
<g style="mix-blend-mode:multiply">
<path d="M227.248 53.0466C226.493 53.0035 225.735 53.0543 224.992 53.1978C219.345 55.1393 214.044 57.9685 209.288 61.5788C205.319 64.4908 201.586 67.7973 197.904 70.9519C193.561 74.7575 189.222 78.5851 185.263 82.8144C185.24 83.0191 185.171 83.216 185.061 83.3904C184.951 83.5648 184.804 83.7122 184.629 83.8217C184.455 83.9311 184.258 83.9997 184.053 84.0225C183.848 84.0452 183.641 84.0215 183.446 83.953C183.381 84.1977 183.316 84.4392 183.252 84.6774L185.445 85.265C187.847 83.2168 190.361 81.2919 192.631 79.1154C198.102 73.7434 203.913 68.7301 210.029 64.1068C215.395 60.1441 221.306 56.9787 227.579 54.7089C227.69 54.4294 227.718 54.1238 227.659 53.8289C227.6 53.5339 227.458 53.2623 227.248 53.0466Z" fill="#D8D5FB"/>
</g>
<g style="mix-blend-mode:multiply">
<path d="M211.498 149.963C209.879 152.334 208.115 154.626 206.657 157.093C200.985 167.054 194.223 176.353 186.494 184.819C185.973 185.373 185.478 185.944 185.011 186.492C184.649 186.954 183.998 187.411 184.484 188.111C184.684 188.36 184.969 188.528 185.284 188.582C185.6 188.636 185.924 188.573 186.196 188.404C188.822 187.296 191.453 186.634 194.217 187.913C194.494 186.258 193.26 186.114 192.142 185.804C191.024 185.494 189.833 186.5 188.89 184.995C189.953 183.851 191.131 182.738 192.122 181.471C198.698 173.21 204.809 164.589 210.429 155.65C211.302 154.248 212.783 152.854 212.092 150.836L211.54 149.881L211.498 149.963Z" fill="#EBE9FC"/>
</g>
<g style="mix-blend-mode:multiply">
<path d="M227.747 110.607C226.127 115.867 224.221 121.035 222.036 126.086C220.146 130.321 218.544 134.675 216.644 138.908C216.173 139.972 216.638 141.287 215.679 142.086C213.639 143.786 213.051 146.289 211.891 148.494C212.513 149.189 212.395 149.665 211.498 149.962C211.679 150.041 211.83 150.176 211.928 150.348C212.026 150.52 212.065 150.719 212.04 150.915C213.296 150.265 214.255 149.159 214.721 147.824C217.54 142.057 220.549 136.351 222.958 130.412C225.589 123.953 227.633 117.254 229.93 110.653C229.903 110.652 229.876 110.645 229.852 110.633C229.496 110.289 229.587 110.065 230.126 109.961L230.522 108.483L229.797 108.289C228.862 108.795 228.136 109.617 227.747 110.607Z" fill="#E4E2FC"/>
</g>
<g style="mix-blend-mode:multiply">
<path d="M211.546 149.976L212.098 150.931C212.123 150.733 212.083 150.533 211.983 150.36C211.883 150.188 211.73 150.052 211.546 149.976Z" fill="#E4E2FC"/>
</g>
<g style="mix-blend-mode:multiply">
<path d="M137.307 46.309C137.008 46.0735 136.669 45.5997 136.448 45.6541C133.839 46.156 130.864 45.3589 128.776 47.7398C128.376 48.1915 127.944 49.0284 127.322 48.7996C124.781 47.8909 123.26 49.7816 121.59 50.8766C117.199 53.5759 113.062 56.6669 109.228 60.1119C110.103 61.1745 109.348 62.2145 109.18 63.2669C114.932 58.8761 120.338 54.0405 126.921 50.7625C130.883 48.8013 134.835 47.6549 139.237 48.4203C139.505 46.8772 138.384 46.6182 137.307 46.309Z" fill="#D6D2FC"/>
</g>
<g style="mix-blend-mode:multiply">
<path d="M238.724 75.0883C237.504 76.7503 236.538 78.585 235.858 80.5318C234.924 82.9734 235.085 85.5012 234.559 87.9278C233.606 92.3726 231.685 96.5683 231.191 101.115C231.097 101.73 230.793 102.292 230.33 102.707C228.834 104.428 228.882 106.294 229.88 108.249C230.215 107.98 230.456 108.045 230.605 108.443C230.768 108.104 230.951 107.77 231.085 107.423C234.913 97.1909 237.596 86.5668 239.087 75.7445C239.068 75.5428 238.84 75.2746 238.724 75.0883Z" fill="#E5E3FC"/>
</g>
<g style="mix-blend-mode:multiply">
<path d="M238.715 75.0853L238.724 75.0879L238.727 75.0783L238.715 75.0853Z" fill="#E5E3FC"/>
</g>
<g style="mix-blend-mode:multiply">
<path d="M229.837 108.258L230.561 108.452C230.412 108.053 230.171 107.989 229.837 108.258Z" fill="#E5E3FC"/>
</g>
<g style="mix-blend-mode:multiply">
<path d="M49.8645 71.8987L50.5986 72.0954C48.8132 70.3746 47.0748 68.594 45.2422 66.9331C41.253 63.3084 37.0022 59.9825 32.5243 56.9824C31.7129 56.765 30.8222 56.6506 30.4968 55.6627L29.0331 55.2912C27.9863 55.7975 28.8741 56.8119 28.4455 57.4838L29.1603 57.6754C29.4592 57.7171 29.74 57.8431 29.97 58.0385C30.1999 58.234 30.3695 58.4908 30.4589 58.7791C35.3501 61.8911 39.4615 65.9432 43.8179 69.6987C45.4054 71.0765 46.3969 73.1332 48.5281 73.9113C48.5589 73.8894 48.5917 73.8705 48.6261 73.8548C48.987 73.1647 47.8668 71.5497 49.8645 71.8987Z" fill="#DDDAFD"/>
</g>
<g style="mix-blend-mode:multiply">
<path d="M177.057 93.0392C177.246 92.4759 177.463 91.9225 177.708 91.3813C178.113 90.5682 177.536 90.4033 177.001 90.1566C175.245 91.0318 175.045 93.2455 173.391 94.2414C170.024 96.2587 167.338 99.1729 164.152 101.404C160.596 103.899 157.119 106.673 152.587 107.281C153.704 107.663 154.626 108.467 155.155 109.522C160.848 107.321 165.668 103.746 170.191 99.7715C172.522 97.7149 175.25 96.0337 176.975 93.3071C176.99 93.2144 177.017 93.1242 177.057 93.0392Z" fill="#D3D1FC"/>
</g>
<g style="mix-blend-mode:multiply">
<path d="M98.9786 68.3809C98.2408 68.5185 97.5874 68.9427 97.1614 69.5607C97.1818 69.5677 97.2005 69.5791 97.2162 69.594C97.2318 69.6089 97.2441 69.6271 97.2521 69.6472C97.6414 70.0103 98.2019 70.4297 97.7286 70.8826C97.2552 71.3355 97.0441 70.6164 96.8791 70.1891C95.4204 71.5375 93.4545 72.0356 91.9128 73.2687C87.6736 76.7078 82.9944 79.5658 77.9992 81.7671C78.7577 82.5294 78.387 83.3722 78.1837 84.208C81.0522 84.1277 82.8831 81.8541 85.3018 80.8251C91.0023 78.3667 95.3793 74.125 100.134 70.3675C99.8103 70.1384 99.5398 69.8424 99.3405 69.4997C99.1412 69.1569 99.0178 68.7754 98.9786 68.3809Z" fill="#D1CEFC"/>
</g>
<g style="mix-blend-mode:multiply">
<path d="M238.717 75.0757L238.715 75.0853L238.727 75.0783L238.717 75.0757Z" fill="#DDDBFC"/>
</g>
<g style="mix-blend-mode:multiply">
<path d="M231.324 52.5549C231.09 53.0409 230.97 53.8782 230.22 53.4702C229.718 53.1803 230.416 52.7361 230.58 52.3556C230.015 52.225 229.427 52.2193 228.859 52.3387C228.29 52.4582 227.755 52.7 227.289 53.0473C228.701 53.3427 228.253 54.0095 227.62 54.7096C232.317 54.4151 234.939 56.4119 236.231 61.2098C237.386 65.4014 237.2 69.6894 236.966 73.9231C236.854 75.9637 237.877 75.1198 238.73 75.0686C239.932 69.6553 240.325 64.4394 237.842 59.0635C236.338 55.8654 234.734 53.4685 231.324 52.5549Z" fill="#DDDBFC"/>
</g>
<g style="mix-blend-mode:multiply">
<path d="M227.248 53.0466C227.458 53.2623 227.6 53.534 227.659 53.8289C227.718 54.1238 227.69 54.4294 227.579 54.7089C228.212 54.0089 228.66 53.342 227.248 53.0466Z" fill="#DDDBFC"/>
</g>
<g style="mix-blend-mode:multiply">
<path d="M238.727 75.0783L238.715 75.0853L238.727 75.0783Z" fill="#DDDBFC"/>
</g>
<g style="mix-blend-mode:multiply">
<path d="M148.065 91.5858C147.79 93.1167 147.569 94.5587 148.53 95.955C148.965 92.3238 149.644 88.7064 149.771 85.0651C149.954 79.5546 151.111 74.0362 149.63 68.5146C149.323 69.3124 149.273 70.2721 148.246 70.5872C147.95 70.9843 147.717 71.4246 147.555 71.8927C146.714 78.0447 147.424 84.281 146.568 90.4497C146.545 90.5366 146.701 90.6508 146.764 90.761C147.79 90.2179 148.26 90.5509 148.065 91.5858Z" fill="#D7D5FC"/>
</g>
<g style="mix-blend-mode:multiply">
<path d="M149.63 68.5148C149.928 68.1954 150.132 67.799 150.218 67.3702C150.303 66.9414 150.268 66.4972 150.115 66.0876C149.423 63.2209 148.974 60.3365 148.074 57.476C147.1 54.3887 145.958 51.7327 143.581 49.5945C142.804 49.8282 141.982 49.8742 141.184 49.7288C143.178 52.9134 145.159 56.105 146.026 59.826C146.553 62.1102 146.46 64.5804 148.218 66.4802C148.411 66.6872 147.963 67.0847 147.595 67.2241C146.947 68.5206 147.67 69.5322 148.283 70.5662C148.903 70.0284 148.558 68.8073 149.63 68.5148Z" fill="#D6D3FC"/>
</g>
<g style="mix-blend-mode:multiply">
<path d="M149.63 68.5147C148.519 68.7968 148.903 70.0282 148.246 70.5872C149.273 70.2721 149.323 69.3124 149.63 68.5147Z" fill="#D6D3FC"/>
</g>
<g style="mix-blend-mode:multiply">
<path d="M77.9992 81.7667C72.9097 83.3742 67.8513 84.8658 62.6078 82.2185C62.5112 82.1926 62.146 82.7056 61.9016 82.961C61.8291 83.2315 61.7592 83.4922 61.6894 83.753C61.9947 83.796 62.2798 83.9307 62.5068 84.1395C62.7338 84.3482 62.8919 84.6211 62.9602 84.9218C63.09 85.2095 63.2884 85.4611 63.5381 85.6543C63.7877 85.8476 64.081 85.9766 64.3921 86.0302C69.0573 87.0725 73.941 86.4257 78.1741 84.205C77.5418 83.4351 77.7863 82.6 77.9992 81.7667Z" fill="#CDCAFB"/>
</g>
<g style="mix-blend-mode:multiply">
<path d="M77.9992 81.7671C77.7766 82.5978 77.5514 83.4381 78.1837 84.208C78.387 83.3721 78.7578 82.5294 77.9992 81.7671Z" fill="#CDCAFB"/>
</g>
<g style="mix-blend-mode:multiply">
<path d="M61.5876 83.1669C61.714 83.0041 61.8243 82.9404 61.9015 82.9611C60.793 82.3846 61.0808 80.8467 60.0045 80.227C56.3605 78.1014 53.8666 74.6586 50.6012 72.0858C50.4155 72.2784 50.1978 72.4372 49.9578 72.5553L49.8179 72.6524C49.9634 73.2297 50.5362 73.642 51.0019 74.2223C50.2736 74.3608 49.5203 74.271 48.8449 73.9653L48.6324 73.9084L48.5745 73.8929C50.5719 75.5565 51.8702 77.975 54.1953 79.3433C56.8204 78.1625 56.1959 80.5316 56.6867 81.6363C58.0507 83.0371 59.5509 84.1223 61.6577 83.7551C61.5015 83.5269 61.4611 83.3297 61.5876 83.1669ZM54.0126 77.5137C53.908 77.4718 53.812 77.411 53.7294 77.3343C53.7527 77.2474 53.8547 77.0987 53.8933 77.109C53.9974 77.1493 54.094 77.2067 54.1791 77.2788C54.112 77.3747 54.0416 77.5215 54.0126 77.5137Z" fill="#CFCBFC"/>
</g>
<g style="mix-blend-mode:multiply">
<path d="M49.8179 72.6523L49.9578 72.5552C50.1979 72.4371 50.4156 72.2783 50.6013 72.0857L49.8672 71.889C49.774 72.1326 49.7568 72.3987 49.8179 72.6523Z" fill="#CFCBFC"/>
</g>
<g style="mix-blend-mode:multiply">
<path d="M61.7094 83.717C61.7792 83.4562 61.8491 83.1954 61.9216 82.9249C61.8443 82.9042 61.7341 82.9679 61.6076 83.1307C61.4812 83.2935 61.5119 83.4881 61.7164 83.7292L61.7094 83.717Z" fill="#CFCBFC"/>
</g>
<g style="mix-blend-mode:multiply">
<path d="M149.713 106.532C149.842 105.293 149.634 104.042 149.109 102.912C148.322 100.681 148.123 98.2853 148.53 95.9551C145.677 95.0144 148.052 92.2551 146.813 90.774C144.99 95.7621 145.48 100.77 146.762 105.762C148.066 104.641 148.804 105.946 149.713 106.532Z" fill="#CFCCFB"/>
</g>
<g style="mix-blend-mode:multiply">
<path d="M148.53 95.9553C147.561 94.5879 147.79 93.1169 148.065 91.5861C148.247 90.5994 147.744 90.1956 146.764 90.7613C148.052 92.2553 145.638 95.0043 148.53 95.9553Z" fill="#CFCCFB"/>
</g>
<g style="mix-blend-mode:multiply">
<path d="M109.143 60.1199C108.851 60.3281 108.545 60.5159 108.226 60.6818C108.184 60.9817 108.051 61.2614 107.845 61.4837C107.639 61.706 107.371 61.8604 107.075 61.9262C104.056 63.6434 101.326 65.8258 98.9857 68.3929C99.3633 68.5567 99.6778 68.8381 99.8825 69.1952C100.087 69.5522 100.171 69.9658 100.122 70.3744L109.092 63.2846C108.283 62.2085 108.895 61.1612 109.143 60.1199Z" fill="#CFCCFC"/>
</g>
<g style="mix-blend-mode:multiply">
<path d="M109.143 60.1197C108.866 61.1533 108.283 62.2084 109.095 63.2748C109.263 62.2224 110.018 61.1824 109.143 60.1197Z" fill="#CFCCFC"/>
</g>
<g style="mix-blend-mode:multiply">
<path d="M98.9786 68.3809C99.0162 68.7729 99.137 69.1524 99.3328 69.4941C99.5287 69.8358 99.7952 70.1318 100.114 70.3624C100.164 69.9538 100.08 69.5402 99.8754 69.1831C99.6707 68.8261 99.3562 68.5447 98.9786 68.3809Z" fill="#CFCCFC"/>
</g>
<g style="mix-blend-mode:multiply">
<path d="M183.223 84.7111C180.902 86.2239 178.808 88.0571 177.001 90.1564C179.682 91.1645 177.57 92.0896 177.047 93.0365C177.021 93.1331 176.998 93.22 176.972 93.3166C180.145 91.0454 182.994 88.3539 185.442 85.316C185.066 85.5238 184.624 85.5769 184.209 85.4639C183.795 85.3509 183.441 85.0809 183.223 84.7111Z" fill="#E2E0FC"/>
</g>
<g style="mix-blend-mode:multiply">
<path d="M183.223 84.7109C183.443 85.0708 183.794 85.3324 184.202 85.4417C184.61 85.551 185.044 85.4997 185.415 85.2985L183.223 84.7109Z" fill="#E2E0FC"/>
</g>
<g style="mix-blend-mode:multiply">
<path d="M177.689 91.376C177.444 91.9171 177.226 92.4705 177.038 93.0339C177.548 92.1353 179.672 91.1619 176.992 90.1538C177.516 90.3979 178.093 90.5629 177.689 91.376Z" fill="#E2E0FC"/>
</g>
<g style="mix-blend-mode:multiply">
<path d="M152.539 107.268L149.641 106.492C148.507 106.861 147.693 105.763 146.647 105.689C148.244 108.188 149.903 110.537 153.447 109.83C153.757 109.662 154.077 109.513 154.405 109.383C154.62 109.441 154.843 109.47 155.066 109.467C154.316 108.749 152.808 108.738 152.539 107.268Z" fill="#C9C6FB"/>
</g>
<g style="mix-blend-mode:multiply">
<path d="M152.539 107.268C152.769 108.727 154.27 108.767 155.106 109.509C154.577 108.454 153.655 107.65 152.539 107.268Z" fill="#C9C6FB"/>
</g>
<g style="mix-blend-mode:multiply">
<path d="M149.713 106.531C148.833 105.954 148.076 104.643 146.719 105.729C147.756 105.8 148.55 106.893 149.713 106.531Z" fill="#C9C6FB"/>
</g>
<g style="mix-blend-mode:multiply">
<path d="M29.033 55.2914C27.6747 53.5608 25.735 53.6519 23.1202 53.2101C24.4914 55.0801 26.3316 56.5552 28.4552 57.4866C27.6548 55.6054 27.7247 55.3446 29.033 55.2914Z" fill="#EBE8FC"/>
</g>
<g style="mix-blend-mode:multiply">
<path d="M29.0331 55.2915C27.7118 55.393 27.6419 55.6538 28.4455 57.4841C28.887 56.7638 27.9993 55.7495 29.0331 55.2915Z" fill="#EBE8FC"/>
</g>
<g style="mix-blend-mode:multiply">
<path d="M141.045 47.3105C140.868 46.9961 140.629 46.7204 140.343 46.4992C140.058 46.2781 139.731 46.1161 139.382 46.0226C139.033 45.9291 138.669 45.9061 138.311 45.9548C137.953 46.0035 137.609 46.123 137.298 46.3063C138.741 46.2893 140.396 46.1013 139.142 48.4258C139.463 49.3918 140.344 49.5036 141.138 49.7474C141.256 48.9198 139.259 48.2192 141.045 47.3105Z" fill="#D6D3FC"/>
</g>
<g style="mix-blend-mode:multiply">
<path d="M137.307 46.309C138.389 46.5988 139.5 46.8965 139.152 48.4285C140.409 46.0943 138.751 46.292 137.307 46.309Z" fill="#D6D3FC"/>
</g>
<g style="mix-blend-mode:multiply">
<path d="M56.7254 81.647C56.1143 80.6741 55.2541 79.8824 54.2339 79.354C54.3713 80.8505 55.4497 81.3465 56.7254 81.647Z" fill="#E6E7FD"/>
</g>
<g style="mix-blend-mode:multiply">
<path d="M54.1953 79.3434C55.2155 79.8718 56.0757 80.6635 56.6868 81.6363C56.1766 80.5265 56.8107 78.16 54.1953 79.3434Z" fill="#E6E7FD"/>
</g>
<g style="mix-blend-mode:multiply">
<path d="M141.047 47.3418C141 48.1366 141.887 48.8817 141.199 49.7118L141.487 49.4474C142.204 49.246 142.927 48.9428 143.581 49.5942C143.333 48.5858 142.445 48.1512 141.759 47.543C141.387 47.8884 141.163 47.7974 141.047 47.3418Z" fill="#D6D2FC"/>
</g>
<g style="mix-blend-mode:multiply">
<path d="M141.487 49.4476L141.199 49.712C141.997 49.8573 142.819 49.8113 143.596 49.5776C142.927 48.943 142.204 49.2462 141.487 49.4476Z" fill="#D6D2FC"/>
</g>
<g style="mix-blend-mode:multiply">
<path d="M141.047 47.342C139.261 48.2507 141.229 48.9436 141.189 49.7506C141.887 48.8819 141 48.1368 141.047 47.342Z" fill="#D6D2FC"/>
</g>
<g style="mix-blend-mode:multiply">
<path d="M194.576 188.62C194.92 188.919 195.31 189.241 195.765 188.742C195.482 188.562 195.206 188.354 194.876 188.193C194.657 188.114 194.43 188.053 194.2 188.012C194.352 188.218 194.409 188.472 194.576 188.62Z" fill="#EBE9FC"/>
</g>
<g style="mix-blend-mode:multiply">
<path d="M231.324 52.5548L230.58 52.3555C230.671 53.0216 230.99 52.8378 231.324 52.5548Z" fill="#D8D5FB"/>
</g>
<g style="mix-blend-mode:multiply">
<path d="M230.217 53.48C230.928 53.8776 231.088 53.0507 231.322 52.5647C230.99 52.838 230.671 53.0219 230.578 52.3654C230.433 52.7511 229.723 53.1612 230.217 53.48Z" fill="#D8D5FB"/>
</g>
<g style="mix-blend-mode:multiply">
<path d="M30.4916 55.6824C30.9067 56.5286 32.0988 56.1751 32.5191 57.0021C32.2163 55.9685 31.3126 55.9024 30.4916 55.6824Z" fill="#EBE8FC"/>
</g>
<g style="mix-blend-mode:multiply">
<path d="M32.5269 56.973C32.1066 56.1461 30.9041 56.5382 30.4994 55.6533C30.8248 56.6412 31.7233 56.7267 32.5269 56.973Z" fill="#EBE8FC"/>
</g>
<g style="mix-blend-mode:multiply">
<path d="M97.333 69.8861C97.3251 69.8033 97.3009 69.723 97.2617 69.6496L97.171 69.5632C97.1141 69.7757 96.9966 69.9823 96.9178 70.1993C97.2544 70.3723 97.3847 70.2727 97.333 69.8861Z" fill="#CFCCFC"/>
</g>
<g style="mix-blend-mode:multiply">
<path d="M97.7286 70.8823C98.2019 70.4293 97.6414 70.01 97.2521 69.6468C97.2912 69.7202 97.3154 69.8006 97.3233 69.8833C97.3847 70.2725 97.2544 70.3722 96.9081 70.1965C97.0441 70.616 97.2971 71.2946 97.7286 70.8823Z" fill="#CFCCFC"/>
</g>
<g style="mix-blend-mode:multiply">
<path d="M185.233 82.8481C184.869 82.9032 184.519 83.0327 184.207 83.2286C183.894 83.4245 183.625 83.6825 183.417 83.9867C184.113 83.7759 184.74 83.3828 185.233 82.8481Z" fill="#E2E0FC"/>
</g>
<g style="mix-blend-mode:multiply">
<path d="M185.233 82.8481C184.74 83.3828 184.113 83.7759 183.417 83.9867C183.611 84.0552 183.818 84.0789 184.023 84.0562C184.228 84.0335 184.425 83.9648 184.6 83.8554C184.774 83.746 184.922 83.5986 185.032 83.4242C185.141 83.2497 185.21 83.0528 185.233 82.8481Z" fill="#E2E0FC"/>
</g>
<g style="mix-blend-mode:multiply">
<path d="M211.891 148.494L211.498 149.962C211.628 149.9 211.743 149.81 211.836 149.699C211.928 149.588 211.995 149.458 212.033 149.319C212.07 149.179 212.077 149.033 212.052 148.891C212.028 148.749 211.973 148.613 211.891 148.494Z" fill="#EBE9FC"/>
</g>
<g style="mix-blend-mode:multiply">
<path d="M211.546 149.976C212.429 149.694 212.549 149.209 211.939 148.507C212.021 148.626 212.076 148.762 212.101 148.904C212.125 149.047 212.118 149.193 212.081 149.332C212.043 149.472 211.976 149.601 211.884 149.712C211.792 149.823 211.676 149.913 211.546 149.976Z" fill="#EBE9FC"/>
</g>
<g style="mix-blend-mode:multiply">
<path d="M61.7094 83.7173C61.7953 84.0085 61.9595 84.2705 62.184 84.4748C62.4085 84.6792 62.6848 84.8181 62.9828 84.8764C62.7225 84.3408 62.0031 84.2826 61.7094 83.7173Z" fill="#CFCBFC"/>
</g>
<g style="mix-blend-mode:multiply">
<path d="M61.7093 83.717C62.0134 84.2436 62.7329 84.3018 62.9802 84.8857C62.9119 84.585 62.7538 84.3122 62.5268 84.1034C62.2998 83.8947 62.0147 83.7599 61.7093 83.717Z" fill="#CFCBFC"/>
</g>
<g style="mix-blend-mode:multiply">
<path d="M30.4589 58.7791C30.2064 58.2145 29.4521 58.2091 29.1752 57.6587C29.2563 57.9504 29.4211 58.212 29.6493 58.4111C29.8774 58.6103 30.1589 58.7382 30.4589 58.7791Z" fill="#EBE8FC"/>
</g>
<g style="mix-blend-mode:multiply">
<path d="M29.1752 57.6586C29.4522 58.2091 30.2065 58.2145 30.459 58.7791C30.3733 58.4898 30.2072 58.2308 29.9798 58.0324C29.7525 57.834 29.4734 57.7044 29.1752 57.6586Z" fill="#EBE8FC"/>
</g>
<g style="mix-blend-mode:multiply">
<path d="M107.068 61.914C107.63 61.6712 107.681 60.9395 108.219 60.6696C107.93 60.7473 107.668 60.9053 107.464 61.1255C107.26 61.3457 107.123 61.6191 107.068 61.914Z" fill="#E2DDFC"/>
</g>
<g style="mix-blend-mode:multiply">
<path d="M108.219 60.6693C107.681 60.9392 107.63 61.6709 107.068 61.9137C107.364 61.8479 107.632 61.6935 107.838 61.4712C108.044 61.2489 108.177 60.9692 108.219 60.6693Z" fill="#E2DDFC"/>
</g>
<g style="mix-blend-mode:multiply">
<path d="M147.312 67.0035C147.312 67.0035 147.441 67.1415 147.544 67.2208C147.516 66.8614 147.425 66.7749 147.312 67.0035Z" fill="#D6D3FC"/>
</g>
<g style="mix-blend-mode:multiply">
<path d="M147.558 67.2453L147.546 67.2523L147.558 67.2453Z" fill="#D6D3FC"/>
</g>
<g style="mix-blend-mode:multiply">
<path d="M141.76 47.5431L141.045 47.3516C141.065 47.4235 141.103 47.4889 141.156 47.5414C141.21 47.5939 141.275 47.6317 141.348 47.6511C141.42 47.6704 141.496 47.6706 141.568 47.6517C141.64 47.6327 141.706 47.5953 141.76 47.5431Z" fill="#D6D3FC"/>
</g>
<g style="mix-blend-mode:multiply">
<path d="M141.05 47.3325C141.166 47.7881 141.39 47.8792 141.765 47.524C141.711 47.5763 141.645 47.6137 141.573 47.6326C141.501 47.6515 141.425 47.6513 141.353 47.632C141.281 47.6127 141.215 47.5749 141.162 47.5224C141.109 47.4699 141.07 47.4044 141.05 47.3325Z" fill="#D6D3FC"/>
</g>
<g style="mix-blend-mode:multiply">
<path d="M229.849 110.373C229.855 110.454 229.876 110.534 229.911 110.607L229.988 110.628C230.053 110.386 230.12 110.135 230.185 109.894C229.943 110.05 229.831 110.21 229.849 110.373Z" fill="#E5E3FC"/>
</g>
<g style="mix-blend-mode:multiply">
<path d="M229.911 110.607C229.876 110.534 229.855 110.454 229.849 110.373C229.835 110.197 229.946 110.051 230.184 109.935C229.678 110.048 229.587 110.272 229.911 110.607Z" fill="#E5E3FC"/>
</g>
<g style="mix-blend-mode:multiply">
<path d="M48.6298 73.9179L48.8617 73.98C50.0196 74.2178 49.7711 73.5611 49.5586 72.9244C49.3168 73.1702 49.1225 73.4702 48.8941 73.7817L48.6298 73.9179C48.6289 73.9381 48.6236 73.9579 48.6143 73.9759L48.6298 73.9179Z" fill="#CBC7FC"/>
</g>
<g style="mix-blend-mode:multiply">
<path d="M49.5419 72.9099C49.3589 72.395 49.212 71.9001 49.8646 71.899C47.8861 71.5552 48.987 73.165 48.6261 73.8551L48.8903 73.7189C49.1058 73.4557 49.3026 73.1461 49.5419 72.9099Z" fill="#CBC7FC"/>
</g>
<g style="mix-blend-mode:multiply">
<path d="M48.8449 73.9653C49.5203 74.271 50.2736 74.3608 51.0019 74.2223C50.5362 73.642 49.9634 73.2297 49.8179 72.6524C49.7185 72.7298 49.6261 72.816 49.5419 72.9097C49.764 73.549 50.0028 74.2031 48.8449 73.9653Z" fill="#CBC7FC"/>
</g>
<g style="mix-blend-mode:multiply">
<path d="M49.8646 71.8987C49.212 71.8999 49.359 72.3948 49.5419 72.9097C49.6262 72.8159 49.7185 72.7298 49.8179 72.6523C49.758 72.4021 49.7742 72.1396 49.8646 71.8987Z" fill="#CBC7FC"/>
</g>
<g style="mix-blend-mode:multiply">
<path d="M53.7268 77.3439C53.8095 77.4206 53.9055 77.4814 54.01 77.5233C54.01 77.5233 54.112 77.3746 54.1765 77.2884C54.0914 77.2163 53.9948 77.1589 53.8907 77.1187C53.8907 77.1187 53.7791 77.2647 53.7268 77.3439Z" fill="#FCFCFC"/>
</g>
</g>
</svg>
