<svg width="98" height="46" viewBox="0 0 98 46" fill="none" xmlns="http://www.w3.org/2000/svg">
<path d="M7.68 14.448V33.52H18.752V38H3.04V14.448H7.68Z" fill="white"/>
<path d="M77.296 13.488V38H72.656V26.768L64.976 37.68H64.912L57.52 27.472V38H53.04V13.488H53.072L65.008 30.416L77.232 13.488H77.296ZM94.9598 20.144C92.9118 19.0133 91.1304 18.448 89.6158 18.448C88.5918 18.448 87.7918 18.6507 87.2158 19.056C86.6611 19.4613 86.3838 20.0693 86.3838 20.88C86.3838 21.6267 86.7891 22.288 87.5998 22.864C88.4318 23.4187 89.5304 23.952 90.8958 24.464C92.0051 24.8693 92.9544 25.3387 93.7438 25.872C94.5331 26.384 95.1838 27.0987 95.6958 28.016C96.2291 28.9333 96.4958 30.096 96.4958 31.504C96.4958 32.72 96.1758 33.8507 95.5358 34.896C94.9171 35.92 93.9998 36.7413 92.7838 37.36C91.5678 37.9573 90.1171 38.256 88.4318 38.256C87.0238 38.256 85.6264 38.0533 84.2398 37.648C82.8531 37.2213 81.5624 36.5813 80.3678 35.728L82.4158 32.112C83.2264 32.7093 84.1544 33.2 85.1998 33.584C86.2451 33.968 87.1838 34.16 88.0158 34.16C88.9971 34.16 89.8504 33.9573 90.5758 33.552C91.3011 33.1253 91.6638 32.4427 91.6638 31.504C91.6638 30.288 90.5224 29.232 88.2398 28.336C86.8958 27.8027 85.7758 27.2907 84.8798 26.8C83.9838 26.3093 83.2051 25.6053 82.5438 24.688C81.9038 23.7707 81.5838 22.6187 81.5838 21.232C81.5838 19.2053 82.2451 17.5733 83.5677 16.336C84.9118 15.0987 86.6931 14.4267 88.9118 14.32C90.6611 14.32 92.1224 14.5227 93.2958 14.928C94.4691 15.312 95.6104 15.8667 96.7198 16.592L94.9598 20.144Z" fill="white"/>
<g clip-path="url(#clip0_13_22)">
<path fill-rule="evenodd" clip-rule="evenodd" d="M42.9094 3.63509L34.817 0L26.7252 3.63509L18.6334 7.27018V11.2159C18.4556 11.2646 18.2982 11.3679 18.1844 11.5109C18.0706 11.6539 18.0064 11.8289 18.001 12.0103C17.9956 12.1918 18.0494 12.3702 18.1546 12.5194C18.2597 12.6687 18.4107 12.7809 18.5853 12.8397L18.5615 12.9189L18.2585 13.9402H19.4725L19.1689 12.9189L19.1451 12.8397C19.3198 12.7808 19.4707 12.6686 19.5758 12.5193C19.6809 12.37 19.7346 12.1916 19.7292 12.0101C19.7237 11.8287 19.6594 11.6537 19.5455 11.5107C19.4317 11.3678 19.2743 11.2645 19.0964 11.2159V7.47821L25.3801 10.3V12.4772C28.1272 10.5268 31.4292 9.47706 34.8173 9.47706C38.2054 9.47706 41.5074 10.5268 44.2544 12.4772V10.3L51.0006 7.27018L42.9094 3.63509ZM22.8106 32.2188L25.4474 29.6262C24.7142 28.077 24.3899 26.3711 24.5043 24.6661C24.6187 22.961 25.1682 21.3118 26.102 19.8709C27.0358 18.4299 28.3238 17.2436 29.847 16.4216C31.3702 15.5996 33.0795 15.1684 34.817 15.1679C40.5252 15.1679 45.1527 19.7183 45.1527 25.3316C45.1544 26.8153 44.8251 28.2813 44.1878 29.6262L46.824 32.2188C48.066 30.1294 48.7187 27.7519 48.715 25.3316C48.715 17.7822 42.4927 11.6639 34.817 11.6639C27.1413 11.6639 20.9202 17.7822 20.9202 25.3316C20.9162 27.7519 21.5688 30.1293 22.8106 32.2188V32.2188ZM31.1637 23.2536C31.5819 23.2535 31.9907 23.3754 32.3385 23.6038C32.6862 23.8322 32.9573 24.1569 33.1173 24.5369C33.2774 24.9168 33.3193 25.3349 33.2378 25.7383C33.1562 26.1416 32.9549 26.5122 32.6592 26.803C32.3635 27.0938 31.9867 27.2918 31.5766 27.372C31.1664 27.4522 30.7413 27.411 30.355 27.2536C29.9687 27.0961 29.6385 26.8295 29.4063 26.4875C29.174 26.1455 29.0501 25.7435 29.0502 25.3322C29.0504 24.781 29.2731 24.2524 29.6694 23.8626C30.0657 23.4728 30.6032 23.2538 31.1637 23.2536V23.2536ZM38.4697 23.2536C38.8879 23.2535 39.2967 23.3754 39.6444 23.6038C39.9922 23.8322 40.2632 24.1569 40.4233 24.5369C40.5834 24.9168 40.6253 25.3349 40.5437 25.7383C40.4622 26.1416 40.2608 26.5122 39.9651 26.803C39.6694 27.0938 39.2927 27.2918 38.8826 27.372C38.4724 27.4522 38.0473 27.411 37.661 27.2536C37.2746 27.0961 36.9445 26.8295 36.7122 26.4875C36.48 26.1455 36.3561 25.7435 36.3562 25.3322C36.3563 24.781 36.5791 24.2524 36.9754 23.8626C37.3717 23.4728 37.9092 23.2538 38.4697 23.2536V23.2536ZM34.8187 35.4966C33.4654 35.4982 32.1249 35.2377 30.874 34.7299C29.623 34.2221 28.486 33.4769 27.5278 32.5369L25.0069 35.0132C27.6118 37.5663 31.1394 38.9999 34.817 38.9999C38.4945 38.9999 42.0222 37.5663 44.627 35.0132L42.1085 32.5363C41.1503 33.4764 40.0132 34.2217 38.7621 34.7296C37.511 35.2374 36.1705 35.4978 34.817 35.496L34.8187 35.4966Z" fill="#0071DC"/>
</g>
<defs>
<clipPath id="clip0_13_22">
<rect width="33" height="39" fill="white" transform="translate(18)"/>
</clipPath>
</defs>
</svg>
