<svg width="58" height="52" viewBox="0 0 58 52" fill="none" xmlns="http://www.w3.org/2000/svg">
<path d="M28.9487 15.3226L16.9111 36.2014H16.8771L23.8481 44.7026L8.20609 51.2654C7.89994 51.0954 7.6619 50.8574 7.526 50.6194L0.1809 37.0175C-0.19315 36.2693 0.113005 35.6914 0.214905 35.3513L19.9037 1.34675C20.0396 1.14272 20.2436 0.938691 20.5157 0.768555H20.5497L30.649 3.89709L28.9487 15.3226Z" fill="#59C36A"/>
<path d="M58 36.2015L44.3642 44.7026L41.1337 36.2015L28.9488 15.3227L20.5496 0.768505C20.7874 0.598482 21.0936 0.496582 21.3657 0.496582H36.645C36.9852 0.598482 37.6653 0.564478 38.1072 1.3467L57.796 35.3513C57.9319 35.5894 58 35.8953 58 36.2015Z" fill="#FFDA2D"/>
<path d="M38.1071 1.3467C37.6653 0.564478 36.9851 0.598482 36.6449 0.496582H28.9487V15.3226L41.1336 36.2014L44.364 44.7025L57.9999 36.2014C57.9999 35.8952 57.9317 35.5893 57.7958 35.3513L38.1071 1.3467Z" fill="#FDBF00"/>
<path d="M58 36.2017C58 36.5076 57.9319 36.8137 57.83 37.0178L50.4849 50.6196C50.2127 51.0617 49.5669 51.5037 48.9887 51.5037H9.02209C8.74994 51.5037 8.4439 51.4016 8.20598 51.2657L16.8771 36.2017H58Z" fill="#4086F4"/>
<path d="M28.9487 51.5037H48.9887C49.5669 51.5037 50.2128 51.0617 50.4849 50.6196L57.83 37.0178C57.9319 36.8137 58 36.5076 58 36.2017H28.9488V51.5037H28.9487Z" fill="#4175DF"/>
</svg>
