<svg width="64" height="64" viewBox="0 0 64 64" fill="none" xmlns="http://www.w3.org/2000/svg">
<path d="M63.1298 31.6435L50.5592 23.6142L63.1298 15.585C63.6719 15.2387 64 14.6399 64 13.9965C64 13.3531 63.6719 12.7544 63.1298 12.408L48.0723 2.79014C47.4537 2.39476 46.6617 2.39489 46.0432 2.79014L31.9999 11.76L17.957 2.79014C17.3382 2.39489 16.5465 2.39489 15.9278 2.79014L0.870373 12.408C0.328124 12.7544 0 13.3532 0 13.9965C0 14.6397 0.328124 15.2387 0.870373 15.585L13.441 23.6142L0.870373 31.6435C0.328124 31.9898 0 32.5886 0 33.232C0 33.8753 0.328124 34.4742 0.870373 34.8205L15.9278 44.4382C16.2372 44.6358 16.5898 44.7346 16.9425 44.7346C17.2951 44.7346 17.6478 44.6357 17.9571 44.4383L31.9999 35.4686L46.0429 44.4382C46.3523 44.6357 46.7049 44.7344 47.0575 44.7344C47.4102 44.7344 47.7628 44.6357 48.0722 44.4381L63.1296 34.8203C63.6718 34.4741 64 33.8752 64 33.2318C64 32.5885 63.6718 31.9898 63.1298 31.6435ZM31.9999 30.9955L20.444 23.6142L31.9999 16.2332L43.5559 23.6143L31.9999 30.9955Z" fill="#5582FF"/>
<path d="M48.0723 48.4147L33.0146 38.7969C32.3958 38.4017 31.6041 38.4017 30.9855 38.7969L15.9277 48.4147C15.3856 48.761 15.0574 49.3599 15.0574 50.0033C15.0574 50.6466 15.3855 51.2455 15.9277 51.5918L30.9853 61.2096C31.2947 61.4071 31.6473 61.5059 32 61.5059C32.3526 61.5059 32.7052 61.4071 33.0146 61.2096L48.0722 51.5918C48.6143 51.2455 48.9426 50.6466 48.9426 50.0033C48.9426 49.3599 48.6143 48.761 48.0723 48.4147Z" fill="#5582FF"/>
<path d="M63.9999 13.9964C63.9999 13.353 63.6718 12.7542 63.1296 12.4079L48.0723 2.79014C47.4537 2.39476 46.6617 2.39489 46.0432 2.79014L31.9999 11.7599L31.9996 11.7596V16.2332L31.9999 16.233L43.5559 23.6141L31.9999 30.9952L31.9996 30.995V35.4686L31.9999 35.4683L46.0429 44.4379C46.3523 44.6354 46.7049 44.7342 47.0575 44.7342C47.4102 44.7342 47.7628 44.6354 48.0722 44.4378L63.1296 34.8201C63.6718 34.4738 63.9999 33.875 63.9999 33.2316C63.9999 32.5882 63.6718 31.9895 63.1296 31.6431L50.559 23.6138L63.1296 15.5846C63.6718 15.2386 63.9999 14.6397 63.9999 13.9964Z" fill="#2864F0"/>
<path d="M48.0723 48.4145L33.0146 38.7967C32.7053 38.5992 32.3529 38.5005 32.0004 38.5005V61.5057C32.3529 61.5056 32.7054 61.4068 33.0146 61.2094L48.0721 51.5916C48.6143 51.2453 48.9425 50.6465 48.9425 50.0031C48.9425 49.3597 48.6143 48.7608 48.0723 48.4145Z" fill="#2864F0"/>
</svg>
