<svg width="48" height="48" viewBox="0 0 48 48" fill="none" xmlns="http://www.w3.org/2000/svg">
<path d="M24 0.552734C11.0399 0.552734 0.533325 10.2914 0.533325 22.3046C0.533325 29.148 3.94303 35.2517 9.27289 39.2387L9.36793 46.9082C9.37263 47.3224 9.82084 47.5799 10.1816 47.3746L17.5103 43.2128C19.5712 43.7613 21.7489 44.0558 24.0006 44.0558C36.9606 44.0558 47.4672 34.3172 47.4672 22.304C47.4672 10.2908 36.96 0.552734 24 0.552734ZM25.7817 29.3158L20.7657 24.0951C20.4718 23.7888 20.0101 23.7161 19.6364 23.9173L10.8346 28.657C10.4996 28.8371 10.1705 28.4082 10.4316 28.1313L20.832 17.1061C21.1306 16.7899 21.6334 16.7899 21.9314 17.1067L26.9456 22.4278C27.2401 22.741 27.7077 22.8156 28.0855 22.6096L36.7347 17.9005C37.0697 17.7186 37.4006 18.148 37.139 18.4255L26.8764 29.3105C26.5801 29.6244 26.0815 29.6268 25.7817 29.3158Z" fill="#0081FD"/>
</svg>
