<svg width="44" height="44" viewBox="0 0 44 44" fill="none" xmlns="http://www.w3.org/2000/svg">
<g clip-path="url(#clip0_84_3165)">
<path d="M22.0001 44.0002C34.1501 44.0002 43.9997 34.1506 43.9997 22.0006C43.9997 9.85054 34.1501 0.000976562 22.0001 0.000976562C9.85005 0.000976562 0.000488281 9.85054 0.000488281 22.0006C0.000488281 34.1506 9.85005 44.0002 22.0001 44.0002Z" fill="#CB2027"/>
<path d="M23.7757 29.4603C22.1125 29.3317 21.4137 28.5069 20.1094 27.7152C19.3925 31.4764 18.5164 35.082 15.9214 36.9655C15.1195 31.2807 17.0971 27.0108 18.0156 22.4786C16.4501 19.8432 18.2038 14.5388 21.5058 15.8459C25.5698 17.453 17.9874 25.6449 23.0776 26.6681C28.3919 27.7363 30.5613 17.4471 27.2656 14.1004C22.5039 9.26855 13.4053 13.9906 14.5242 20.9076C14.7967 22.5986 16.5442 23.1119 15.2222 25.4453C12.1747 24.7704 11.2657 22.3668 11.3825 19.1625C11.5712 13.9173 16.0956 10.2446 20.6337 9.7364C26.373 9.09404 31.7598 11.8439 32.5033 17.2424C33.3398 23.3355 29.9123 29.934 23.7757 29.4603Z" fill="#F1F2F2"/>
</g>
<defs>
<clipPath id="clip0_84_3165">
<rect width="44" height="44" fill="white"/>
</clipPath>
</defs>
</svg>
