<svg width="46" height="37" viewBox="0 0 46 37" fill="none" xmlns="http://www.w3.org/2000/svg">
<path d="M45.026 4.66729C43.3569 5.39945 41.5784 5.88475 39.7241 6.12038C41.6317 4.98147 43.0876 3.19176 43.772 1.03456C41.9935 2.09493 40.0299 2.84392 37.9372 3.26189C36.2485 1.46376 33.8417 0.350098 31.216 0.350098C26.1218 0.350098 22.0206 4.48495 22.0206 9.55394C22.0206 10.2833 22.0823 10.9846 22.2338 11.6522C14.584 11.2791 7.81506 7.61275 3.26784 2.0276C0.0160578 7.88653 3.64935 12.6901 6.09548 14.3256C4.61714 14.2975 3.16685 13.8683 1.93818 13.1923C1.93818 17.7597 5.12768 21.4788 9.31023 22.3344C8.39573 22.6379 6.39787 22.8029 5.15573 22.4803C6.34794 26.1242 9.73101 28.8032 13.7537 28.8902C10.6231 31.3391 6.00964 33.3353 0.142853 32.6884C4.2188 35.3169 9.04935 36.8176 14.2586 36.8176C31.1907 36.8176 40.4479 22.7917 40.4479 10.6339C40.4479 10.2272 40.4339 9.83446 40.4142 9.44454C42.2404 8.14854 43.7748 6.52994 45.026 4.66729Z" fill="#1DA1F3"/>
</svg>
