<svg width="26" height="26" viewBox="0 0 26 26" fill="none" xmlns="http://www.w3.org/2000/svg">
<g clip-path="url(#clip0_58_4386)">
<path d="M3.32283 10.5769C3.32283 10.263 3.33487 9.95185 3.35848 9.64386C1.30844 11.3394 1.16323e-05 13.9015 1.16323e-05 16.7634C1.16323e-05 18.0512 0.259453 19.2947 0.771684 20.4634L0.0100155 25.1152C-0.0295938 25.3572 0.0496757 25.6035 0.223094 25.7769C0.367109 25.9209 0.561348 26 0.761629 26C0.802559 26 0.843742 25.9967 0.884773 25.99L5.53654 25.2283C6.70522 25.7405 7.94865 26 9.23661 26C12.0986 26 14.6607 24.6915 16.3562 22.6414C16.0472 22.6649 15.7362 22.6772 15.4231 22.6772C8.75099 22.6772 3.32283 17.249 3.32283 10.5769Z" fill="white"/>
<path d="M15.423 0C9.59092 0 4.84618 4.7448 4.84618 10.5769C4.84618 16.4089 9.59097 21.1537 15.423 21.1537C16.9097 21.1537 18.3448 20.8517 19.6924 20.2558L25.1151 21.1437C25.1562 21.1504 25.1972 21.1537 25.2382 21.1537C25.4385 21.1537 25.6328 21.0746 25.7768 20.9306C25.9502 20.7572 26.0295 20.5109 25.9898 20.2689L25.1019 14.8462C25.6979 13.4987 25.9999 12.0635 25.9999 10.5769C25.9999 4.7448 21.2551 0 15.423 0V0ZM19.0238 8.93735L15.0054 13.2544C14.8646 13.4057 14.6682 13.4933 14.4615 13.497C14.4569 13.497 14.4524 13.4971 14.4478 13.4971C14.246 13.4971 14.0522 13.417 13.9092 13.274L11.8412 11.2059C11.5437 10.9085 11.5437 10.4262 11.8412 10.1287C12.1386 9.83125 12.6209 9.83125 12.9184 10.1287L14.4282 11.6385L17.9086 7.89933C18.1953 7.59134 18.6773 7.57423 18.9851 7.86073C19.2932 8.14739 19.3104 8.62941 19.0238 8.93735Z" fill="white"/>
</g>
<defs>
<clipPath id="clip0_58_4386">
<rect width="26" height="26" fill="white"/>
</clipPath>
</defs>
</svg>
