<svg width="30" height="30" viewBox="0 0 30 30" fill="none" xmlns="http://www.w3.org/2000/svg">
<g clip-path="url(#clip0_200_2486)">
<path d="M12.7265 24.5356C12.5593 24.5517 12.3914 24.5597 12.2234 24.5597C11.6059 24.5597 10.9978 24.4523 10.4158 24.2405C9.67074 23.9693 9.00388 23.5395 8.45539 22.9812C7.69742 22.7853 6.99177 22.4228 6.38433 21.913C6.09974 21.6742 5.84357 21.4082 5.61793 21.1199L3.5283 25.9912C3.38814 26.3178 3.45863 26.6968 3.70683 26.9513C3.95509 27.2059 4.33226 27.2858 4.6622 27.1538L8.4821 25.6273L10.0086 29.4473C10.1405 29.7774 10.4582 29.9955 10.8137 30C10.8174 30.0001 10.8211 30 10.8247 30C11.1758 30 11.4937 29.7909 11.6324 29.4676L13.6078 24.8627C13.3054 24.7802 13.0105 24.6711 12.7265 24.5356Z" fill="white"/>
<path d="M23.6157 21.9129C23.0082 22.4226 22.3026 22.7853 21.5446 22.981C20.9962 23.5394 20.3294 23.9692 19.5844 24.2404C19.0021 24.4523 18.394 24.5596 17.7765 24.5596C17.7765 24.5596 17.7765 24.5596 17.7765 24.5596C17.6086 24.5596 17.4407 24.5515 17.2735 24.5355C16.9895 24.6711 16.6946 24.78 16.3921 24.8625L18.3675 29.4675C18.5062 29.7909 18.8241 29.9999 19.1752 29.9999C19.1789 29.9999 19.1826 29.9999 19.1863 29.9999C19.5417 29.9954 19.8594 29.7773 19.9913 29.4472L21.5178 25.6272L25.3377 27.1537C25.6678 27.2856 26.0449 27.2057 26.2931 26.9512C26.5413 26.6967 26.6117 26.3177 26.4716 25.9911L24.382 21.1198C24.1564 21.4081 23.9002 21.6741 23.6157 21.9129Z" fill="white"/>
<path d="M15 17.03C18.0659 17.03 20.5603 14.5357 20.5603 11.4697C20.5603 8.40373 18.066 5.90939 15 5.90939C11.934 5.90939 9.4397 8.40373 9.4397 11.4697C9.4397 14.5357 11.9341 17.03 15 17.03ZM11.997 10.9191C12.3401 10.5759 12.8967 10.5759 13.2399 10.9191L14.2142 11.8933L16.7383 9.18168C17.069 8.82643 17.6252 8.8065 17.9804 9.13715C18.3357 9.46791 18.3556 10.024 18.0249 10.3793L14.8802 13.7578C14.7177 13.9324 14.4911 14.0335 14.2526 14.0378C14.2473 14.0378 14.242 14.0379 14.2368 14.0379C14.0039 14.0379 13.7803 13.9454 13.6154 13.7804L11.997 12.162C11.6537 11.8188 11.6537 11.2623 11.997 10.9191Z" fill="white"/>
<path d="M26.4686 9.62326C26.3472 8.93473 26.0269 8.30467 25.5512 7.80521C25.5945 7.11674 25.4349 6.4282 25.0853 5.82275C24.7358 5.2173 24.2194 4.73484 23.6015 4.42805C23.4067 3.76635 23.0212 3.17396 22.4856 2.72449C21.9499 2.27508 21.2997 1.99828 20.6142 1.92146C20.2049 1.36617 19.6401 0.941426 18.983 0.702363C18.326 0.463184 17.6202 0.425391 16.9498 0.587754C16.3752 0.206016 15.6992 0 15 0C14.3009 0 13.6248 0.206016 13.0503 0.587754C12.3797 0.425391 11.674 0.463184 11.0171 0.702305C10.3601 0.941426 9.7952 1.36617 9.38586 1.92146C8.70037 1.9984 8.05004 2.27514 7.51444 2.72455C6.97889 3.17396 6.5934 3.76635 6.39864 4.42805C5.78071 4.73479 5.26432 5.2173 4.91481 5.8227C4.56518 6.4282 4.40557 7.11674 4.44887 7.80521C3.97321 8.30467 3.65294 8.93473 3.53147 9.62326C3.41012 10.3118 3.49561 11.0134 3.77176 11.6455C3.49561 12.2776 3.41012 12.9793 3.53153 13.6678C3.65294 14.3563 3.97321 14.9863 4.44887 15.4859C4.40557 16.1743 4.56518 16.8628 4.91481 17.4683C5.26438 18.0738 5.78077 18.5562 6.39864 18.863C6.5934 19.5247 6.97889 20.1171 7.51444 20.5665C8.05004 21.0159 8.70032 21.2927 9.38586 21.3696C9.7952 21.9248 10.3601 22.3496 11.0171 22.5888C11.6741 22.8279 12.3798 22.8656 13.0503 22.7033C13.6248 23.0851 14.3009 23.291 15 23.291C15.6992 23.291 16.3752 23.085 16.9498 22.7033C17.6202 22.8655 18.3259 22.8278 18.983 22.5888C19.6399 22.3496 20.2048 21.9248 20.6142 21.3696C21.2997 21.2926 21.9501 21.0159 22.4856 20.5665C23.0211 20.1171 23.4066 19.5247 23.6014 18.863C24.2193 18.5563 24.7357 18.0738 25.0852 17.4683C25.4349 16.8628 25.5945 16.1743 25.5512 15.4859C26.0268 14.9863 26.3471 14.3563 26.4686 13.6678C26.5899 12.9792 26.5044 12.2776 26.2283 11.6455C26.5045 11.0134 26.59 10.3118 26.4686 9.62326ZM15 4.1516C19.0352 4.1516 22.3181 7.43449 22.3181 11.4697C22.3181 15.505 19.0352 18.7879 15 18.7879C10.9648 18.7879 7.6819 15.5049 7.6819 11.4697C7.6819 7.43455 10.9648 4.1516 15 4.1516Z" fill="white"/>
</g>
<defs>
<clipPath id="clip0_200_2486">
<rect width="30" height="30" fill="white"/>
</clipPath>
</defs>
</svg>
