<svg width="32" height="32" viewBox="0 0 32 32" fill="none" xmlns="http://www.w3.org/2000/svg">
<path d="M28.8186 30.4L20.7636 16.4484C23.3175 14.83 24.9158 11.9854 24.9158 8.915C24.9159 3.99919 20.9166 0 16.0009 0C11.0853 0 7.08594 3.99919 7.08594 8.91494C7.08594 11.9858 8.68475 14.8309 11.238 16.4486L3.18325 30.4C2.77288 31.1108 3.28763 32 4.107 32C5.04063 32 27.1388 32 27.8949 32C28.7154 32 29.2284 31.1097 28.8186 30.4ZM9.21925 8.91494C9.21925 5.17556 12.2614 2.13337 16.0008 2.13337C19.7402 2.13337 22.7824 5.17556 22.7824 8.91494C22.7824 12.6063 19.7854 15.6965 16.0008 15.6965C12.2354 15.6965 9.21925 12.627 9.21925 8.91494ZM5.9545 29.8667L10.0254 22.8154L13.1047 29.8667H5.9545ZM17.1195 24.0472L17.9933 22.5338C18.4036 21.8232 17.8891 20.9338 17.0695 20.9338H14.9323C14.1116 20.9338 13.5989 21.8242 14.0086 22.5338L14.8823 24.0472L14.3038 27.2819L11.3509 20.5198L13.1693 17.3702C14.949 17.9706 16.9726 17.9953 18.8324 17.3702L20.6509 20.5199L17.6979 27.2821L17.1195 24.0472ZM18.8971 29.8667L21.9763 22.8154L26.0474 29.8667H18.8971Z" fill="#0071DC"/>
</svg>
