<svg width="12" height="8" viewBox="0 0 12 8" fill="none" xmlns="http://www.w3.org/2000/svg">
<path d="M11.8082 1.04847L11.4151 0.652657C11.2914 0.529046 11.1268 0.460948 10.9509 0.460948C10.7751 0.460948 10.6103 0.529046 10.4866 0.652657L6.00268 5.13679L1.51357 0.647681C1.39006 0.524071 1.22528 0.45607 1.04947 0.45607C0.873666 0.45607 0.708786 0.524071 0.585176 0.647681L0.192002 1.04105C-0.0640005 1.29686 -0.0640005 1.71354 0.192002 1.96935L5.53683 7.3334C5.66034 7.45691 5.82493 7.54393 6.00229 7.54393H6.00434C6.18025 7.54393 6.34483 7.45681 6.46835 7.3334L11.8082 1.98389C11.9319 1.86037 11.9998 1.69081 12 1.51501C12 1.3391 11.9319 1.17188 11.8082 1.04847Z" fill="#0071DC"/>
</svg>
