<svg width="32" height="32" viewBox="0 0 32 32" fill="none" xmlns="http://www.w3.org/2000/svg">
<g clip-path="url(#clip0_58_4650)">
<path d="M5 16.4375C5 17.5747 5.92525 18.5 7.0625 18.5C8.19975 18.5 9.125 17.5747 9.125 16.4375C9.125 15.3003 8.19975 14.375 7.0625 14.375C5.92525 14.375 5 15.3003 5 16.4375ZM18.25 7.625C18.25 6.31544 17.1846 5.25 15.875 5.25C14.5654 5.25 13.5 6.31544 13.5 7.625C13.5 8.93456 14.5654 10 15.875 10C17.1846 10 18.25 8.93456 18.25 7.625ZM11.224 11.8488C12.0767 10.9959 12.0767 9.60819 11.224 8.75537L11.2238 8.75519C10.3711 7.90256 8.98325 7.90237 8.13019 8.75537C7.27744 9.60825 7.27744 10.996 8.13037 11.849C8.55675 12.2753 9.11687 12.4885 9.67706 12.4885C10.2372 12.4885 10.7975 12.2752 11.224 11.8488ZM30.4783 9.17031C31.4746 11.2786 32 13.5989 32 16C32 17.8609 30.4859 19.375 28.625 19.375H22.625C20.9708 19.375 19.625 20.7208 19.625 22.375C19.625 23.267 19.8464 23.6671 20.1529 24.2208C20.5303 24.9027 21 25.7513 21 27.3125C21 27.9823 20.8576 29.2726 19.9037 30.3897C19.2766 31.1243 18.0901 32 16 32C11.7262 32 7.70831 30.3357 4.68625 27.3137C1.66431 24.2917 0 20.2738 0 16C0 11.7262 1.66431 7.70831 4.68625 4.68625C7.70831 1.66431 11.7262 0 16 0C18.5169 0 20.9447 0.577812 23.133 1.66956C22.6547 2.39762 22.3726 3.21787 22.2843 4.055C20.4062 3.06287 18.2677 2.5 16 2.5C8.55606 2.5 2.5 8.55606 2.5 16C2.5 23.4439 8.55606 29.5 16 29.5C18.2564 29.5 18.5 27.9702 18.5 27.3125C18.5 26.3971 18.2758 25.992 17.9656 25.4314C17.5911 24.7548 17.125 23.9128 17.125 22.375C17.125 19.3423 19.5923 16.875 22.625 16.875H28.625C29.1075 16.875 29.5 16.4825 29.5 16C29.5 13.8376 28.9881 11.7927 28.0804 9.97888C28.9406 9.90519 29.7583 9.62775 30.4783 9.17031ZM24.8512 5.381C24.5908 4.41875 24.8362 3.34737 25.589 2.59175C27.1544 1.02044 30.3346 1.67163 32 0C32 3.81131 30.7586 5.53506 29.6399 6.65788C28.7899 7.51113 27.5387 7.71525 26.496 7.27181L9.94644 23.8214L8.17863 22.0536L24.8512 5.381Z" fill="#0071DC"/>
</g>
<defs>
<clipPath id="clip0_58_4650">
<rect width="32" height="32" fill="white"/>
</clipPath>
</defs>
</svg>
