<svg width="16" height="16" viewBox="0 0 16 16" fill="none" xmlns="http://www.w3.org/2000/svg">
<path fill-rule="evenodd" clip-rule="evenodd" d="M2.11406 3.44767C1.33301 4.22872 1.33301 5.4858 1.33301 7.99996C1.33301 10.5141 1.33301 11.7712 2.11406 12.5522C2.8951 13.3333 4.15218 13.3333 6.66634 13.3333H9.33301C11.8472 13.3333 13.1042 13.3333 13.8853 12.5522C14.6663 11.7712 14.6663 10.5141 14.6663 7.99996C14.6663 5.4858 14.6663 4.22872 13.8853 3.44767C13.1042 2.66663 11.8472 2.66663 9.33301 2.66663H6.66634C4.15218 2.66663 2.8951 2.66663 2.11406 3.44767ZM12.3838 5.0132C12.5606 5.22534 12.5319 5.54062 12.3198 5.7174L10.8554 6.93767C10.2645 7.43011 9.7856 7.82924 9.36289 8.10111C8.92256 8.38431 8.49373 8.56321 7.99967 8.56321C7.50562 8.56321 7.07679 8.38431 6.63646 8.10111C6.21375 7.82924 5.73481 7.43011 5.14391 6.93768L3.67958 5.7174C3.46744 5.54062 3.43878 5.22534 3.61556 5.0132C3.79235 4.80106 4.10763 4.7724 4.31977 4.94918L5.75903 6.14857C6.381 6.66688 6.81283 7.02557 7.1774 7.26004C7.5303 7.48702 7.76963 7.56321 7.99967 7.56321C8.22972 7.56321 8.46905 7.48702 8.82195 7.26004C9.18652 7.02557 9.61834 6.66688 10.2403 6.14857L11.6796 4.94918C11.8917 4.7724 12.207 4.80106 12.3838 5.0132Z" fill="#0071DC"/>
</svg>
