<svg width="32" height="32" viewBox="0 0 32 32" fill="none" xmlns="http://www.w3.org/2000/svg">
<g clip-path="url(#clip0_549_3578)">
<path d="M29.6154 12.9838C28.4726 7.78044 24.3694 3.56025 19.0162 2.38469C18.6921 1.01912 17.4632 0 16 0C14.5367 0 13.3079 1.01912 12.9838 2.38469C7.78038 3.52744 3.56037 7.63063 2.38462 12.9838C1.01912 13.3079 0 14.5367 0 16C0 17.4632 1.01912 18.6921 2.38462 19.0163C3.52744 24.2195 7.63063 28.4397 12.9838 29.6154C13.3079 30.9809 14.5367 32 16 32C17.4632 32 18.6921 30.9809 19.0162 29.6153C24.2195 28.4726 28.4396 24.3694 29.6153 19.0162C30.9809 18.6921 32 17.4632 32 16C32 14.5367 30.9809 13.3079 29.6154 12.9838ZM3.18219 17.0093C3.174 17.0099 3.16575 17.0106 3.15756 17.0115C3.14775 17.0125 3.12988 17.0136 3.10056 17.0136C2.54169 17.0136 2.08694 16.5589 2.08694 16C2.08694 15.4411 2.54169 14.9864 3.10056 14.9864C3.12988 14.9864 3.14775 14.9876 3.15756 14.9885C3.16575 14.9894 3.174 14.99 3.18219 14.9908C3.70481 15.0314 4.11425 15.4747 4.11425 16C4.11425 16.5253 3.70481 16.9686 3.18219 17.0093ZM14.9565 25.9821C14.1891 26.2601 13.5652 26.8326 13.2217 27.5288C8.91687 26.5003 5.50344 23.0993 4.47106 18.7782C5.19294 18.4174 5.747 17.7922 6.01775 17.0434H13.0805C13.3929 17.9149 14.0849 18.607 14.9564 18.9194V25.9821H14.9565ZM14.9565 13.0805C14.085 13.393 13.393 14.0849 13.0806 14.9564H6.01781C5.74863 14.212 5.1975 13.5848 4.47113 13.2216C5.49963 8.91688 8.90081 5.5035 13.2218 4.47106C13.5623 5.16138 14.1817 5.73712 14.9566 6.01775V13.0805H14.9565ZM16 29.9131C15.4411 29.9131 14.9864 29.4584 14.9864 28.8995C14.9864 28.8699 14.9875 28.8528 14.9884 28.8436C14.9893 28.835 14.9901 28.8264 14.9908 28.8178C15.0314 28.2952 15.4747 27.8859 16 27.8859C16.5253 27.8859 16.9686 28.2953 17.0092 28.8178C17.0099 28.8264 17.0106 28.835 17.0116 28.8436C17.0126 28.8528 17.0136 28.8699 17.0136 28.8995C17.0136 29.4584 16.5589 29.9131 16 29.9131ZM16 17.0136C15.4411 17.0136 14.9864 16.5589 14.9864 16C14.9864 15.4411 15.4411 14.9864 16 14.9864C16.5589 14.9864 17.0136 15.4411 17.0136 16C17.0136 16.5589 16.5589 17.0136 16 17.0136ZM17.0116 3.15637C17.0107 3.165 17.0099 3.17362 17.0092 3.18225C16.9686 3.70481 16.5253 4.11412 16 4.11412C15.4747 4.11412 15.0314 3.70475 14.9908 3.18225C14.9901 3.17362 14.9894 3.165 14.9884 3.15637C14.9874 3.14719 14.9864 3.13006 14.9864 3.1005C14.9864 2.54163 15.4411 2.08694 16 2.08694C16.5589 2.08694 17.0136 2.54163 17.0136 3.1005C17.0136 3.13006 17.0125 3.14719 17.0116 3.15637ZM18.7783 27.5289C18.4356 26.8342 17.8144 26.2613 17.0435 25.9822V18.9194C17.915 18.6069 18.607 17.915 18.9194 17.0435H25.9822C26.2704 17.8402 26.8667 18.4521 27.5289 18.7783C26.5004 23.0831 23.0992 26.4965 18.7783 27.5289ZM26.0244 14.8463C26.0199 14.8574 26.0156 14.8687 26.0112 14.8799C26.0012 14.9053 25.9915 14.9309 25.9823 14.9566H18.9194C18.607 14.0851 17.915 13.3931 17.0435 13.0807V6.01788C17.7999 5.74394 18.4295 5.178 18.7783 4.47119C23.0831 5.49969 26.4966 8.90075 27.5289 13.2218C26.8636 13.5494 26.3133 14.1341 26.0244 14.8463ZM28.8994 17.0136C28.8701 17.0136 28.8523 17.0124 28.8424 17.0115C28.8342 17.0106 28.826 17.01 28.8178 17.0093C28.2952 16.9686 27.8857 16.5253 27.8857 16C27.8857 15.4747 28.2951 15.0314 28.8178 14.9908C28.826 14.9901 28.8342 14.9894 28.8424 14.9885C28.8523 14.9875 28.8701 14.9864 28.8994 14.9864C29.4583 14.9864 29.9131 15.4411 29.9131 16C29.9131 16.5589 29.4583 17.0136 28.8994 17.0136Z" fill="#0071DC"/>
</g>
<defs>
<clipPath id="clip0_549_3578">
<rect width="32" height="32" fill="white"/>
</clipPath>
</defs>
</svg>
