<svg width="32" height="32" viewBox="0 0 32 32" fill="none" xmlns="http://www.w3.org/2000/svg">
<g clip-path="url(#clip0_58_4752)">
<path d="M30.7444 9.90259H20.9148C20.3041 9.90259 19.809 10.3977 19.809 11.0084V15.4475H11.0852C10.4745 15.4475 9.9794 15.9426 9.9794 16.5533V20.9925H1.25565C0.644963 20.9925 0.149837 21.4876 0.149837 22.0983V30.8941C0.149837 31.5048 0.644963 31.9999 1.25565 31.9999C1.85302 31.9999 30.2111 31.9999 30.7444 31.9999C31.3551 31.9999 31.8502 31.5048 31.8502 30.8941V11.0084C31.8502 10.3977 31.3551 9.90259 30.7444 9.90259ZM9.9794 29.7883H2.36146V23.2042H9.9794V29.7883ZM19.809 29.7882H12.191C12.191 28.8718 12.191 17.9314 12.191 17.6592H19.809V29.7882ZM29.6386 29.7883H22.0206C22.0206 29.0762 22.0206 12.8238 22.0206 12.1142H29.6385V29.7883H29.6386Z" fill="#0071DC"/>
<path d="M24.5689 0.50791L20.9652 0.010972C20.0614 -0.114028 19.4021 0.853847 19.851 1.64972L20.3903 2.60566L4.21527 11.7302C3.68339 12.0302 3.49539 12.7047 3.79552 13.2367C4.09577 13.7688 4.77039 13.9563 5.30202 13.6564L21.477 4.53203L22.0161 5.48791C22.4663 6.28622 23.6342 6.21972 23.995 5.38191L25.4336 2.04066C25.7238 1.36366 25.2835 0.606472 24.5689 0.50791Z" fill="#0071DC"/>
</g>
<defs>
<clipPath id="clip0_58_4752">
<rect width="32" height="32" fill="white"/>
</clipPath>
</defs>
</svg>
