<svg width="15" height="10" viewBox="0 0 15 10" fill="none" xmlns="http://www.w3.org/2000/svg">
<path d="M11.86 0.0799968L14.74 1.52C13.86 2.48 13.18 3.64 12.7 5C12.22 6.36 12.1 7.7 12.34 9.02L7.9 9.44C7.66 8.08 7.68 6.82 7.96 5.66C8.28 4.46 8.78 3.4 9.46 2.48C10.18 1.52 10.98 0.719998 11.86 0.0799968ZM4.42 0.0799968L7.3 1.52C6.42 2.48 5.74 3.64 5.26 5C4.78 6.36 4.66 7.7 4.9 9.02L0.46 9.44C0.22 8.08 0.24 6.82 0.52 5.66C0.84 4.46 1.34 3.4 2.02 2.48C2.74 1.52 3.54 0.719998 4.42 0.0799968Z" fill="#0071DC"/>
</svg>
