<svg width="30" height="30" viewBox="0 0 30 30" fill="none" xmlns="http://www.w3.org/2000/svg">
<g clip-path="url(#clip0_200_2508)">
<path d="M11.4297 4.80081C7.81894 5.41915 4.80095 6.85546 2.70194 8.95447C2.48995 9.16646 2.40065 9.47179 2.46505 9.76458C2.52944 10.0574 2.73856 10.2971 3.01993 10.4007L7.82819 12.1697C9.05374 10.2393 11.1223 7.16671 13.4135 4.54892C12.8126 4.59954 12.1434 4.67865 11.4297 4.80081Z" fill="white"/>
<path d="M19.5996 26.9803C19.7031 27.2616 19.9429 27.4708 20.2357 27.5352C20.2984 27.549 20.3616 27.5557 20.4244 27.5557C20.6549 27.5557 20.8793 27.4649 21.0458 27.2983C23.1448 25.1994 24.5812 22.1814 25.1995 18.5706C25.3217 17.8568 25.4009 17.1875 25.4514 16.5865C22.8337 18.8776 19.761 20.9463 17.8306 22.172L19.5996 26.9803Z" fill="white"/>
<path d="M0.590801 25.5113C-0.135761 27.4641 5.88793e-05 28.9504 0.028594 29.1902C0.0494534 29.3856 0.135528 29.5733 0.28125 29.719C0.449238 29.887 0.673242 29.9779 0.900351 29.9804C1.00312 29.9895 1.16678 29.9998 1.38223 29.9998C2.03133 29.9998 3.15041 29.9068 4.4884 29.409C5.92839 28.8732 7.86896 27.7654 9.74267 25.4773L4.52244 20.257C2.23441 22.1307 1.12658 24.0714 0.590801 25.5113Z" fill="white"/>
<path d="M7.75429 15.3028L5.52556 17.5315C5.36074 17.6962 5.26816 17.9198 5.26816 18.1529C5.26816 18.3861 5.36074 18.6095 5.52556 18.7744L11.2259 24.4747C11.3975 24.6463 11.6224 24.7321 11.8474 24.7321C12.0723 24.7321 12.2972 24.6462 12.4688 24.4747L14.6975 22.246L7.75429 15.3028Z" fill="white"/>
<path d="M29.6373 6.80731C30.2901 3.65461 29.8678 1.03512 29.8415 0.879142C29.7792 0.510177 29.4901 0.221076 29.1212 0.158791C28.9651 0.132482 26.3456 -0.289803 23.1929 0.362873C23.4867 3.77473 26.2255 6.51352 29.6373 6.80731Z" fill="white"/>
<path d="M23.9989 6.00111C22.5972 4.59943 21.7113 2.77452 21.4737 0.820656C20.6148 1.10366 19.7428 1.47778 18.8924 1.97038C15.0829 4.17702 10.4497 11.2737 8.82715 13.89L16.1103 21.1731C18.7267 19.5505 25.8232 14.9174 28.0298 11.1079C28.5224 10.2574 28.8965 9.38548 29.1795 8.52655C27.2256 8.28902 25.4006 7.40296 23.9989 6.00111ZM21.0458 8.95446C22.1742 10.0829 22.1742 11.9191 21.0458 13.0475C20.4816 13.6117 19.7404 13.8938 18.9993 13.8938C18.2582 13.8938 17.517 13.6117 16.9528 13.0475C15.8244 11.9191 15.8244 10.083 16.9527 8.95446C18.0813 7.82607 19.9174 7.82607 21.0458 8.95446Z" fill="white"/>
<path d="M19.8029 11.8046C20.246 11.3614 20.246 10.6404 19.8029 10.1973C19.5814 9.97576 19.2903 9.86496 18.9993 9.86496C18.7082 9.86496 18.4172 9.97576 18.1956 10.1973C17.7525 10.6404 17.7525 11.3614 18.1956 11.8046C18.6388 12.2477 19.3597 12.2477 19.8029 11.8046Z" fill="white"/>
</g>
<defs>
<clipPath id="clip0_200_2508">
<rect width="30" height="30" fill="white"/>
</clipPath>
</defs>
</svg>
