<svg width="32" height="32" viewBox="0 0 32 32" fill="none" xmlns="http://www.w3.org/2000/svg">
<g clip-path="url(#clip0_58_4759)">
<path d="M30.6148 1.38543C28.7683 -0.461196 25.7794 -0.461446 23.9325 1.38543L22.028 3.28999L3.51726 21.8007C3.40651 21.9115 3.31914 22.0479 3.26464 22.1894L0.0769476 30.481C-0.271677 31.3877 0.62451 32.2672 1.51932 31.9234L9.81088 28.7357C9.95826 28.679 10.0924 28.5903 10.1996 28.4831L30.6149 8.06774C32.4614 6.22105 32.4617 3.23224 30.6148 1.38543ZM3.06139 28.9389L4.73188 24.5938L7.40645 27.2684L3.06139 28.9389ZM9.41032 26.1153L5.88495 22.5899L22.8172 5.65768L26.3426 9.18305L9.41032 26.1153ZM29.0363 6.48924L27.921 7.60462L24.3956 4.07924L25.5109 2.96393C26.4851 1.9898 28.062 1.98943 29.0363 2.96393C30.0105 3.93793 30.0108 5.51493 29.0363 6.48924Z" fill="#0071DC"/>
<path d="M25.92 21.3323C23.3899 21.3323 21.3314 23.3908 21.3314 25.9209C21.3314 28.451 23.3898 30.5095 25.92 30.5095C28.4501 30.5095 30.5086 28.451 30.5086 25.9209C30.5086 23.3908 28.4501 21.3323 25.92 21.3323ZM25.92 28.2772C24.6207 28.2772 23.5637 27.2202 23.5637 25.9209C23.5637 24.6217 24.6207 23.5646 25.92 23.5646C27.2192 23.5646 28.2763 24.6217 28.2763 25.9209C28.2763 27.2202 27.2192 28.2772 25.92 28.2772Z" fill="#0071DC"/>
<path d="M9.05588 1.98792H3.10306C2.48663 1.98792 1.98694 2.48767 1.98694 3.10404V9.05685C1.98694 9.67329 2.48669 10.173 3.10306 10.173H9.05588C9.67231 10.173 10.172 9.67323 10.172 9.05685V3.1041C10.172 2.48767 9.67231 1.98792 9.05588 1.98792ZM7.93975 7.94073H4.21925V4.22023H7.93975V7.94073Z" fill="#0071DC"/>
<path d="M19.8268 12.1737C19.391 11.7378 18.6842 11.7378 18.2483 12.1737L12.455 17.967C12.0191 18.4029 12.0191 19.1096 12.455 19.5455C12.8908 19.9813 13.5976 19.9814 14.0335 19.5455L19.8268 13.7521C20.2627 13.3163 20.2627 12.6096 19.8268 12.1737Z" fill="#0071DC"/>
</g>
<defs>
<clipPath id="clip0_58_4759">
<rect width="32" height="32" fill="white"/>
</clipPath>
</defs>
</svg>
