<svg width="13" height="13" viewBox="0 0 13 13" fill="none" xmlns="http://www.w3.org/2000/svg">
<path d="M6.87071 1.75652L7.75145 3.51798C7.87155 3.76319 8.19181 3.99838 8.46204 4.04342L10.0584 4.30864C11.0792 4.47878 11.3194 5.21939 10.5838 5.95L9.34277 7.19103C9.13259 7.40121 9.0175 7.80654 9.08255 8.09678L9.43785 9.63306C9.71808 10.8491 9.07254 11.3195 7.99665 10.6839L6.50041 9.7982C6.23018 9.63806 5.78481 9.63806 5.50958 9.7982L4.01334 10.6839C2.94245 11.3195 2.29191 10.8441 2.57214 9.63306L2.92744 8.09678C2.99249 7.80654 2.8774 7.40121 2.66722 7.19103L1.42619 5.95C0.695586 5.21939 0.930781 4.47878 1.95163 4.30864L3.54795 4.04342C3.81317 3.99838 4.13344 3.76319 4.25354 3.51798L5.13427 1.75652C5.61467 0.800724 6.39532 0.800724 6.87071 1.75652Z" fill="#FEC400" stroke="#FEC400" stroke-width="1.5" stroke-linecap="round" stroke-linejoin="round"/>
</svg>
