<svg width="32" height="32" viewBox="0 0 32 32" fill="none" xmlns="http://www.w3.org/2000/svg">
<path d="M30.9565 6.68221H21.9533V4.18514H22.907C23.4832 4.18514 23.9505 3.71796 23.9505 3.14164C23.9505 2.56533 23.4833 2.09814 22.907 2.09814H9.093C8.51675 2.09814 8.0495 2.56533 8.0495 3.14164C8.0495 3.71796 8.51669 4.18514 9.093 4.18514H10.0467V6.68221H1.0435C0.467187 6.68221 0 7.14939 0 7.72564V26.7713C0 28.4974 1.40431 29.9017 3.13044 29.9017H28.8696C30.5957 29.9017 32 28.4974 32 26.7713V7.72564C32 7.14933 31.5328 6.68221 30.9565 6.68221ZM12.1336 4.18514H19.8664V6.68221H12.1336V4.18514ZM29.9131 26.7713C29.9131 27.3466 29.4449 27.8148 28.8696 27.8148H3.13044C2.55506 27.8148 2.08694 27.3466 2.08694 26.7713V19.3354H9.05V21.0047C9.05 21.581 9.51719 22.0482 10.0935 22.0482H21.9066C22.4828 22.0482 22.9501 21.581 22.9501 21.0047V19.3354H29.9131V26.7713ZM11.137 19.9612V16.6226H20.8631V19.9612H11.137ZM29.9131 17.2485H22.95V15.5792C22.95 15.003 22.4828 14.5357 21.9065 14.5357H10.0935C9.51725 14.5357 9.05 15.0029 9.05 15.5792V17.2485H2.08694V8.76915H29.913V17.2485H29.9131Z" fill="#0071DC"/>
</svg>
