<svg width="32" height="32" viewBox="0 0 32 32" fill="none" xmlns="http://www.w3.org/2000/svg">
<g clip-path="url(#clip0_58_4732)">
<path d="M10.2308 15.3593H8.09404C7.69104 15.3593 7.5201 15.7867 7.5201 16.1773C7.5201 16.6291 7.72767 17.0198 8.09404 17.0198H9.15629V21.4765C9.15629 22.3068 8.75335 22.6975 8.04517 22.6975C7.06835 22.6975 7.00723 21.9527 6.97067 21.4765C6.93404 21.0248 6.51892 20.9026 6.03042 20.9026C5.37111 20.9026 5.06586 21.0736 5.06586 21.8061C5.06586 23.4301 6.38461 24.3581 8.13067 24.3581C9.73016 24.3581 11.0611 23.5766 11.0611 21.4764V15.9453C11.0611 15.5547 10.646 15.3593 10.2308 15.3593Z" fill="#0071DC"/>
<path d="M15.8474 15.3593C14.1623 15.3593 12.8559 16.1407 12.8559 18.2409V21.4766C12.8559 23.5768 14.1623 24.3582 15.8474 24.3582C17.5324 24.3582 18.8511 23.5768 18.8511 21.4766V18.2409C18.851 16.1407 17.5323 15.3593 15.8474 15.3593ZM16.9463 21.4766C16.9463 22.3191 16.5311 22.6976 15.8474 22.6976C15.1636 22.6976 14.7606 22.3191 14.7606 21.4766V18.2409C14.7606 17.3984 15.1636 17.0199 15.8474 17.0199C16.5311 17.0199 16.9463 17.3984 16.9463 18.2409V21.4766Z" fill="#0071DC"/>
<path d="M25.4201 19.4497C26.0673 19.1689 26.458 18.5218 26.458 17.5327C26.458 15.7988 25.237 15.3593 24.016 15.3593H21.513C21.0978 15.3593 20.6827 15.5547 20.6827 15.9453V23.711C20.6827 24.0163 21.0001 24.2849 21.513 24.2849H24.2237C25.6034 24.2849 26.6779 23.5889 26.6779 21.6598V21.4033C26.6777 20.1823 26.1649 19.7306 25.4201 19.4497ZM22.5751 17.0199H23.8573C24.3212 17.0199 24.5532 17.4473 24.5532 17.8746C24.5532 18.2898 24.3212 18.7171 23.8573 18.7171H22.5751V17.0199ZM24.7729 21.5011C24.7729 22.2825 24.4066 22.6244 23.7961 22.6244H22.5751V20.1824H23.7961C24.4066 20.1824 24.7729 20.4754 24.7729 21.3057V21.5011Z" fill="#0071DC"/>
<path d="M28.8696 8.38053H20.7296L18.3337 4.95846C18.6219 4.51371 18.7827 3.9899 18.7827 3.44559C18.7827 1.91128 17.5344 0.662964 16.0001 0.662964C14.4658 0.662964 13.2174 1.91121 13.2174 3.44559C13.2174 3.99021 13.3783 4.51434 13.6663 4.95871L11.2704 8.38046H3.13044C1.40431 8.38046 0 9.78478 0 11.5109V28.2065C0 29.9327 1.40431 31.337 3.13044 31.337H28.8696C30.5957 31.337 32 29.9327 32 28.2065V11.5109C32 9.78484 30.5957 8.38053 28.8696 8.38053ZM16 2.7499C16.3836 2.7499 16.6956 3.06196 16.6956 3.44553C16.6956 3.82315 16.3888 4.14115 16 4.14115C15.6163 4.14115 15.3044 3.8289 15.3044 3.44553C15.3044 3.06196 15.6164 2.7499 16 2.7499ZM15.3745 6.15753C15.7719 6.24878 16.2023 6.25471 16.6256 6.15759L18.182 8.38053H13.818L15.3745 6.15753ZM29.9131 28.2066C29.9131 28.782 29.4449 29.2501 28.8696 29.2501H3.13044C2.55506 29.2501 2.08694 28.782 2.08694 28.2066V11.511C2.08694 10.9356 2.55506 10.4675 3.13044 10.4675C3.74013 10.4675 26.5057 10.4675 28.8696 10.4675C29.4449 10.4675 29.9131 10.9356 29.9131 11.511V28.2066Z" fill="#0071DC"/>
</g>
<defs>
<clipPath id="clip0_58_4732">
<rect width="32" height="32" fill="white"/>
</clipPath>
</defs>
</svg>
