<svg width="32" height="32" viewBox="0 0 32 32" fill="none" xmlns="http://www.w3.org/2000/svg">
<path d="M21.375 32H5.375C3.30713 32 1.625 30.3179 1.625 28.25V3.75C1.625 1.68213 3.30713 0 5.375 0H21.375C23.4429 0 25.125 1.68213 25.125 3.75V7.32007H22.625V3.75C22.625 3.06079 22.0642 2.5 21.375 2.5H5.375C4.68579 2.5 4.125 3.06079 4.125 3.75V28.25C4.125 28.9392 4.68579 29.5 5.375 29.5H21.375C22.0642 29.5 22.625 28.9392 22.625 28.25V24.5701H25.125V28.25C25.125 30.3179 23.4429 32 21.375 32ZM15.875 5.00757H10.875V7.50757H15.875V5.00757ZM14.625 25.7576C14.625 25.0671 14.0654 24.5076 13.375 24.5076C12.6846 24.5076 12.125 25.0671 12.125 25.7576C12.125 26.448 12.6846 27.0076 13.375 27.0076C14.0654 27.0076 14.625 26.448 14.625 25.7576ZM18.9949 22.1951L22.5 9.75757H19.9026L16.3975 22.1951H18.9949ZM15.6843 18.9299L12.2434 16.0076L15.6843 13.0854L14.0659 11.1799L8.38159 16.0076L14.0659 20.8354L15.6843 18.9299ZM30.3684 16.0076L24.6843 11.1799L23.0659 13.0852L26.5066 16.0076L23.0659 18.9299L24.6843 20.8354L30.3684 16.0076Z" fill="#0071DC"/>
</svg>
