<svg width="32" height="32" viewBox="0 0 32 32" fill="none" xmlns="http://www.w3.org/2000/svg">
<path d="M28.8696 1.91333H3.13044C1.40431 1.91333 0 3.31764 0 5.04377V21.7394C0 23.4655 1.40431 24.8698 3.13044 24.8698H12.3853L15.0963 29.5655C15.4977 30.2608 16.503 30.2596 16.9036 29.5655L19.6146 24.8698H28.8695C30.5956 24.8698 31.9999 23.4655 31.9999 21.7394V5.04377C32 3.31764 30.5957 1.91333 28.8696 1.91333ZM29.9131 21.7395C29.9131 22.3148 29.4449 22.783 28.8696 22.783H19.0123C18.6394 22.783 18.2949 22.9818 18.1086 23.3047L16 26.9568L13.8914 23.3046C13.7051 22.9818 13.3606 22.7829 12.9878 22.7829H3.13044C2.55506 22.7829 2.08694 22.3148 2.08694 21.7394V5.04377C2.08694 4.46839 2.55506 4.00027 3.13044 4.00027H28.8696C29.4449 4.00027 29.9131 4.46839 29.9131 5.04377V21.7395Z" fill="#0071DC"/>
<path d="M22.5447 8.91656L19.578 10.173C18.8387 10.4862 18.7166 11.4839 19.3563 11.9667L19.7334 12.2513L17.3628 15.2317L14.0198 11.0288C13.6023 10.5039 12.804 10.504 12.3865 11.0288L8.22696 16.2584C7.86821 16.7094 7.94302 17.3659 8.39409 17.7247C8.84527 18.0835 9.50165 18.0084 9.86034 17.5575L13.2033 13.3546L16.5462 17.5575C16.9637 18.0824 17.7621 18.0824 18.1795 17.5575L21.3998 13.509L21.9322 13.9109C22.5685 14.3912 23.4973 14.0079 23.5965 13.2061L23.9923 10.0032C24.0914 9.20087 23.2802 8.60175 22.5447 8.91656Z" fill="#0071DC"/>
</svg>
