<svg width="32" height="32" viewBox="0 0 32 32" fill="none" xmlns="http://www.w3.org/2000/svg">
<path d="M22.297 13.8808V8.30648H22.8225C23.6839 8.30648 24.1752 7.3171 23.6528 6.63098L22.0836 4.56948C21.6669 4.02211 20.8409 4.02055 20.423 4.56948L18.8537 6.63092C18.332 7.31629 18.8217 8.30641 19.684 8.30641H20.2101V12.6018C18.9267 12.0149 17.501 11.6873 16 11.6873C14.499 11.6873 13.0732 12.015 11.7899 12.6018V4.14811H12.3159C13.1773 4.14811 13.6686 3.15874 13.1462 2.47261L11.5769 0.411117C11.1602 -0.136257 10.3342 -0.13782 9.91631 0.411117L8.34706 2.47261C7.82531 3.15799 8.315 4.14811 9.17737 4.14811H9.70287V13.8808C7.3535 15.7427 5.84357 18.62 5.84357 21.8436C5.84357 27.4438 10.3996 32 15.9999 32C21.6002 32 26.1563 27.4439 26.1563 21.8436C26.1563 18.62 24.6464 15.7427 22.297 13.8808ZM15.9999 29.9129C11.5505 29.9129 7.93056 26.2931 7.93056 21.8436C7.93056 17.3941 11.5505 13.7742 15.9999 13.7742C20.4494 13.7742 24.0693 17.3941 24.0693 21.8436C24.0693 26.293 20.4494 29.9129 15.9999 29.9129Z" fill="#0071DC"/>
<path d="M16.6232 20.8159V18.9402C17.4583 19.0045 17.7023 19.4155 18.1264 19.4155C18.6917 19.4155 18.9228 18.7089 18.9228 18.362C18.9228 17.4755 17.4197 17.27 16.6232 17.2444V16.9232C16.6232 16.7434 16.379 16.5763 16.1349 16.5763C15.8523 16.5763 15.6467 16.7433 15.6467 16.9232V17.2829C14.285 17.4756 13.0772 18.2594 13.0772 19.8909C13.0772 21.5354 14.4647 22.0878 15.6467 22.5375V24.6188C14.696 24.4518 14.2592 23.6938 13.7196 23.6938C13.2314 23.6938 12.8459 24.3362 12.8459 24.773C12.8459 25.5953 14.105 26.3918 15.6467 26.4432V26.7644C15.6467 26.9443 15.8523 27.1113 16.1349 27.1113C16.379 27.1113 16.6232 26.9443 16.6232 26.7644V26.3918C18.1264 26.1477 19.1542 25.1841 19.1542 23.591C19.1542 21.8565 17.7923 21.2526 16.6232 20.8159ZM15.7752 20.5075C14.5174 19.9778 14.8411 19.1655 15.7752 18.9786V20.5075ZM16.4947 24.6058V22.8843C17.6796 23.4439 17.4182 24.3886 16.4947 24.6058Z" fill="#0071DC"/>
</svg>
